<?xml version="1.0" standalone="no"?>
<!DOCTYPE svg PUBLIC "-//W3C//DTD SVG 20010904//EN"
 "http://www.w3.org/TR/2001/REC-SVG-20010904/DTD/svg10.dtd">
<svg version="1.0" xmlns="http://www.w3.org/2000/svg"
 width="638.000000pt" height="638.000000pt" viewBox="0 0 638.000000 638.000000"
 preserveAspectRatio="xMidYMid meet">
<metadata>
Created by potrace 1.16, written by Peter Selinger 2001-2019
</metadata>
<g transform="translate(0.000000,638.000000) scale(0.100000,-0.100000)"
fill="#000000" stroke="none">
<path d="M1175 6274 c-289 -62 -493 -251 -562 -519 -17 -66 -18 -200 -18
-2565 0 -2801 -7 -2539 75 -2705 86 -175 241 -304 435 -362 57 -17 170 -18
2050 -21 2242 -3 2074 -8 2245 75 177 86 320 264 365 453 13 57 15 364 15
2561 0 2434 0 2498 -19 2571 -59 232 -230 411 -466 490 l-70 23 -2015 1
c-1108 1 -2024 0 -2035 -2z m4049 -372 c80 -37 132 -85 168 -160 l33 -67 0
-2485 0 -2485 -24 -53 c-31 -70 -122 -154 -193 -179 -51 -17 -134 -18 -2028
-18 l-1975 0 -50 23 c-75 35 -128 84 -166 154 l-34 63 -3 2482 c-2 2467 -2
2482 18 2536 36 95 118 170 223 203 34 10 403 12 2012 11 l1970 -2 49 -23z"/>
<path d="M3044 5385 c-166 -36 -274 -128 -324 -276 -20 -58 -22 -78 -17 -219
5 -170 27 -277 86 -423 58 -146 158 -270 255 -317 67 -32 179 -33 247 -3 180
80 325 376 348 708 15 204 -14 312 -108 406 -116 115 -305 164 -487 124z"/>
<path d="M2705 3951 c-77 -20 -219 -56 -315 -81 -174 -43 -175 -44 -220 -90
-37 -37 -50 -60 -67 -120 -30 -100 -41 -173 -49 -310 -5 -92 -4 -118 7 -127
38 -30 277 -99 444 -127 351 -59 865 -68 1230 -20 214 28 467 89 557 135 l39
20 -6 92 c-15 231 -50 386 -102 448 -15 18 -45 40 -68 50 -35 15 -629 169
-654 169 -5 0 -19 -37 -31 -82 -50 -190 -148 -484 -157 -474 -7 7 -42 277 -42
326 0 25 6 56 14 70 18 31 19 72 3 88 -18 18 -182 16 -197 -2 -18 -22 -17 -49
4 -95 18 -41 18 -46 1 -179 -25 -196 -28 -214 -36 -205 -12 12 -114 325 -146
446 -25 93 -31 107 -49 106 -11 -1 -83 -18 -160 -38z"/>
<path d="M1610 2395 l0 -95 1580 0 1580 0 0 95 0 95 -1580 0 -1580 0 0 -95z"/>
<path d="M1617 1833 c-4 -3 -7 -48 -7 -100 l0 -93 1580 0 1581 0 -3 98 -3 97
-1571 3 c-864 1 -1574 -1 -1577 -5z"/>
<path d="M1610 1080 l0 -100 1580 0 1580 0 0 100 0 100 -1580 0 -1580 0 0
-100z"/>
</g>
</svg>
