<?xml version="1.0" encoding="UTF-8" standalone="no"?>
<!-- Created with Inkscape (http://www.inkscape.org/) -->

<svg
   xmlns:dc="http://purl.org/dc/elements/1.1/"
   xmlns:cc="http://creativecommons.org/ns#"
   xmlns:rdf="http://www.w3.org/1999/02/22-rdf-syntax-ns#"
   xmlns:svg="http://www.w3.org/2000/svg"
   xmlns="http://www.w3.org/2000/svg"
   xmlns:sodipodi="http://sodipodi.sourceforge.net/DTD/sodipodi-0.dtd"
   xmlns:inkscape="http://www.inkscape.org/namespaces/inkscape"
   id="svg2985"
   version="1.1"
   inkscape:version="0.48.2 r9819"
   width="1220"
   height="768"
   sodipodi:docname="WithOUT_OutLine.svg">
  <metadata
     id="metadata2991">
    <rdf:RDF>
      <cc:Work
         rdf:about="">
        <dc:format>image/svg+xml</dc:format>
        <dc:type
           rdf:resource="http://purl.org/dc/dcmitype/StillImage" />
        <dc:title />
      </cc:Work>
    </rdf:RDF>
  </metadata>
  <defs
     id="defs2989" />
  <sodipodi:namedview
     pagecolor="#ffffff"
     bordercolor="#666666"
     borderopacity="1"
     objecttolerance="10"
     gridtolerance="10"
     guidetolerance="10"
     inkscape:pageopacity="0"
     inkscape:pageshadow="2"
     inkscape:window-width="1304"
     inkscape:window-height="745"
     id="namedview2987"
     showgrid="false"
     inkscape:zoom="0.25"
     inkscape:cx="660.64281"
     inkscape:cy="602.90942"
     inkscape:window-x="54"
     inkscape:window-y="-8"
     inkscape:window-maximized="1"
     inkscape:current-layer="svg2985"
     showguides="true"
     inkscape:guide-bbox="true" />
  <g
     inkscape:groupmode="layer"
     id="layer1"
     inkscape:label="Base"
     transform="translate(0,-312)" />
  <g
     inkscape:groupmode="layer"
     id="layer2"
     inkscape:label="Rjyneh"
     transform="translate(0,-312)">
    <path
       style="fill:none;stroke:#060608;stroke-width:1px;stroke-linecap:butt;stroke-linejoin:miter;stroke-opacity:0"
       d="m 827.45388,503.90984 -0.23,-13.45633 c 0.4122,-16.25134 3.0906,-26.42569 7.4757,-34.5034 6.0506,-11.43342 12.9994,-15.75862 22.0555,-21.42121 6.0561,-3.52958 12.0837,-5.16061 20.242,-5.75057 7.5071,-0.31598 15.7563,-1.2153 24.5241,-1.006 5.8162,-0.50488 12.1319,-0.45874 22.7722,-1.26512 l 29.328,-1.61016 13.3413,-1.15012 c -0.2197,4.07577 -0.1216,12.24955 -0.8641,17.70644 -0.284,2.08774 -0.8899,7.57002 -1.2061,8.74616 -2.3775,7.70338 -2.1671,8.20181 -5.2905,14.60646 -5.2509,7.36468 -7.7534,10.99414 -14.8366,17.13668 l -10.0059,6.90068 -15.1815,8.0508 c -10.5044,3.3182 -21.0087,6.87437 -31.5131,6.32562 z"
       id="path2999"
       inkscape:connector-curvature="0"
       sodipodi:nodetypes="cccccccccsccccccc" />
    <path
       style="fill:#ffffff;fill-opacity:0.42396312;stroke:#060608;stroke-width:0.38060138;stroke-opacity:0"
       d="m 966.40998,424.43112 c -10.9488,0.0573 -26.9081,1.55314 -40.6295,2.67785 0.1987,8.82244 4.1144,21.38816 7.8413,27.04064 4.3388,6.58049 12.6234,13.86041 19.2523,18.35332 11.0989,-11.33989 15.2412,-32.17142 13.5359,-48.07181 z m -15.5626,3.625 c 4.7289,0 8.5626,3.83364 8.5626,8.5625 0,4.72886 -3.8337,8.5625 -8.5626,8.5625 -4.7288,0 -8.5624,-3.83364 -8.5624,-8.5625 0,-4.72886 3.8336,-8.5625 8.5624,-8.5625 z"
       id="path4124"
       inkscape:connector-curvature="0"
       sodipodi:nodetypes="ccsccsssss" />
    <path
       style="fill:none;stroke:#060608;stroke-width:1px;stroke-linecap:butt;stroke-linejoin:miter;stroke-opacity:0"
       d="m 926.93868,426.16217 c -0.115,0.57506 0,18.74685 7.0157,27.3727 7.0157,8.62585 10.006,12.42123 20.8171,18.74685"
       id="path2991"
       inkscape:connector-curvature="0"
       sodipodi:nodetypes="csc" />
    <path
       style="fill:none;stroke:#060608;stroke-width:1px;stroke-linecap:butt;stroke-linejoin:miter;stroke-opacity:0"
       d="m 927.28378,428.92244 -20.5871,2.30023 c 0,0 -23.8073,1.61016 -29.903,2.76027 -5.6354,0.80508 -18.2949,4.44501 -22.7722,7.82078 -8.5776,6.46728 -16.3563,15.5845 -20.012,23.11728 -3.7953,7.82077 -6.7856,24.72743 -6.5555,33.12327"
       id="path2993"
       inkscape:connector-curvature="0"
       sodipodi:nodetypes="cccssc" />
    <path
       sodipodi:type="arc"
       style="fill:#ffffff;fill-opacity:1;stroke:#060608;stroke-opacity:0"
       id="path3004"
       sodipodi:cx="1428.4409"
       sodipodi:cy="112.17954"
       sodipodi:rx="7.9357829"
       sodipodi:ry="7.9357829"
       d="m 1436.3767,112.17954 a 7.9357829,7.9357829 0 1 1 -15.8716,0 7.9357829,7.9357829 0 1 1 15.8716,0 z"
       transform="translate(-477.5799,324.44867)" />
    <path
       sodipodi:type="arc"
       style="fill:#000000;fill-opacity:1;stroke:#060608;stroke-opacity:0"
       id="path3002"
       sodipodi:cx="1428.4409"
       sodipodi:cy="111.83451"
       sodipodi:rx="5.2905216"
       sodipodi:ry="5.2905216"
       d="m 1433.7314,111.83451 a 5.2905216,5.2905216 0 1 1 -10.581,0 5.2905216,5.2905216 0 1 1 10.581,0 z"
       transform="translate(-477.5799,324.7937)" />
    <path
       transform="translate(-480.62471,325.40433)"
       sodipodi:type="arc"
       style="fill:#ffffff;fill-opacity:0.19607843;stroke:#060608;stroke-width:0.89999998;stroke-miterlimit:4;stroke-opacity:0;stroke-dasharray:none"
       id="path3089"
       sodipodi:cx="1456.8615"
       sodipodi:cy="86.042168"
       sodipodi:rx="3.7409639"
       sodipodi:ry="3.7409639"
       d="m 1460.6024,86.042168 a 3.7409639,3.7409639 0 1 1 -7.4819,0 3.7409639,3.7409639 0 1 1 7.4819,0 z" />
    <path
       transform="translate(-480.62471,325.40433)"
       sodipodi:type="arc"
       style="fill:#ffffff;fill-opacity:0.19607843;stroke:#060608;stroke-width:0.89999998;stroke-miterlimit:4;stroke-opacity:0;stroke-dasharray:none"
       id="path3091"
       sodipodi:cx="1479.3073"
       sodipodi:cy="45.542171"
       sodipodi:rx="8.7831326"
       sodipodi:ry="8.7831326"
       d="m 1488.0904,45.542171 a 8.7831326,8.7831326 0 1 1 -17.5663,0 8.7831326,8.7831326 0 1 1 17.5663,0 z" />
    <path
       transform="translate(-480.62471,325.40433)"
       sodipodi:type="arc"
       style="fill:#ffffff;fill-opacity:0.19607843;stroke:#060608;stroke-width:0.89999998;stroke-miterlimit:4;stroke-opacity:0;stroke-dasharray:none"
       id="path3093"
       sodipodi:cx="1475.4036"
       sodipodi:cy="52.698795"
       sodipodi:rx="5.5301204"
       sodipodi:ry="5.5301204"
       d="m 1480.9337,52.698795 a 5.5301204,5.5301204 0 1 1 -11.0603,0 5.5301204,5.5301204 0 1 1 11.0603,0 z" />
    <path
       transform="translate(-480.62471,325.40433)"
       sodipodi:type="arc"
       style="fill:#ffffff;fill-opacity:0.19607843;stroke:#060608;stroke-width:0.89999998;stroke-miterlimit:4;stroke-opacity:0;stroke-dasharray:none"
       id="path3095"
       sodipodi:cx="1482.235"
       sodipodi:cy="19.355423"
       sodipodi:rx="3.5783134"
       sodipodi:ry="3.5783134"
       d="m 1485.8133,19.355423 a 3.5783134,3.5783134 0 1 1 -7.1566,0 3.5783134,3.5783134 0 1 1 7.1566,0 z" />
    <path
       sodipodi:type="arc"
       style="fill:#ffffff;fill-opacity:0.19607843;stroke:#060608;stroke-width:0.89999998;stroke-miterlimit:4;stroke-opacity:0;stroke-dasharray:none"
       id="path3097"
       sodipodi:cx="1444.5"
       sodipodi:cy="6.8313265"
       sodipodi:rx="14.801205"
       sodipodi:ry="14.801205"
       d="m 1459.3012,6.8313265 a 14.801205,14.801205 0 1 1 -29.6024,0 14.801205,14.801205 0 1 1 29.6024,0 z"
       transform="translate(-479.81141,324.26577)" />
    <path
       style="fill:#ffffff;fill-opacity:0.20276495;stroke:#060608;stroke-width:0.38060138;stroke-opacity:0"
       d="m 831.62978,464.40766 c 3.7158,-11.32913 10.1735,-19.5056 20.7315,-26.4867 8.9622,-5.92596 13.8538,-6.90537 23.3759,-8.168 8.6204,-1.14306 20.3621,-1.23387 32.7318,-1.86774 4.3972,-0.22533 15.1982,-0.86821 17.3053,-0.79785 0,0.51545 0.1821,2.48546 0.2211,2.96121 -5.6327,0.35322 -21.7029,2.25898 -26.4107,2.46579 -22.3529,0.98197 -39.5616,2.46536 -54.3686,18.28679 -5.0058,5.34874 -10.7521,16.3275 -13.7008,28.28124 -3.6783,14.9114 -2.8528,20.70225 -2.9887,24.13953 -1.792,-6.41174 -1.0023,-26.29704 3.1032,-38.81427 z"
       id="path4146"
       inkscape:connector-curvature="0"
       sodipodi:nodetypes="ssssccssscs" />
    <path
       style="fill:#ffffff;fill-opacity:0;stroke:#060608;stroke-width:0.38060138;stroke-opacity:0"
       d="m 828.44638,503.2361 c -0.2775,-0.0925 -0.4201,-1.81007 -0.4201,-5.05907 0,-9.90927 2.8621,-24.9326 6.1431,-32.24521 3.8457,-8.5715 15.5843,-21.5572 22.7621,-25.18058 2.988,-1.50834 6.5253,-2.82434 11.2223,-4.17514 7.2379,-2.08155 12.3561,-2.79758 30.0935,-4.21003 5.4426,-0.43341 13.6286,-1.20979 18.1912,-1.72531 4.5626,-0.51552 8.6816,-0.93731 9.1533,-0.93731 0.8083,0 0.8839,0.23535 1.3141,4.09147 0.8445,7.57075 2.9686,14.58479 5.6175,18.55013 2.11,3.15846 8.8007,10.71114 11.6969,13.20388 1.4938,1.28564 4.1352,3.26267 5.8699,4.39338 1.7347,1.13072 3.154,2.22838 3.154,2.43924 0,0.21087 -1.8146,2.24412 -4.0323,4.51834 -5.1456,5.27652 -11.8816,9.97428 -22.1211,15.42745 -7.4995,3.99391 -10.704,5.24088 -20.0074,7.78533 -8.3734,2.2901 -8.7337,2.31997 -32.2431,2.67332 -31.1591,0.46833 -45.9099,0.61144 -46.3939,0.45011 l 0,0 z m 82.9159,-19.53795 c 13.6847,-2.75954 22.9095,-7.42034 25.6765,-12.97292 1.7569,-3.52559 1.0872,-8.58644 -1.6436,-12.42156 -2.0739,-2.9125 -6.7272,-4.98249 -11.8897,-5.28901 -2.9124,-0.17292 -4.5816,0.0555 -14.6531,2.00529 -6.2515,1.21025 -11.5191,2.33619 -11.7058,2.50209 -0.1883,0.16737 0.3382,1.11622 1.1829,2.13163 7.3334,8.81567 10.2565,17.38351 7.5224,22.0488 -0.5274,0.89992 -1.2365,1.79159 -1.5758,1.98148 -0.3466,0.19394 -0.4954,0.54205 -0.3395,0.79425 0.3147,0.50911 1.8134,0.35167 7.4257,-0.78005 l 0,0 z"
       id="path4154"
       inkscape:connector-curvature="0" />
    <path
       style="fill:#ffffff;fill-opacity:0.07058824;stroke:#060608;stroke-width:0.38060138;stroke-opacity:0"
       d="m 845.91458,450.11157 c 17.1598,-17.7483 39.8854,-16.72068 55.092,-17.7561 7.2869,-0.49617 18.0072,-1.80093 24.994,-2.3069 0.9233,6.77695 3.5129,18.35535 8.0591,24.6924 4.5462,6.33705 9.871,11.40597 18.8039,17.7331 -9.1607,10.50146 -20.9974,17.69513 -33.9989,23.64249 -8.308,3.80037 -17.1779,5.42503 -25.8797,6.19696 -21.205,1.88108 -46.2504,0.67837 -64.4625,0.91401 -0.8511,-18.2167 6.9188,-42.28351 17.3921,-53.11596 z"
       id="path4156"
       inkscape:connector-curvature="0"
       sodipodi:nodetypes="ssczcsscs" />
    <path
       style="fill:#ffffff;fill-opacity:0.49769586;stroke:#060608;stroke-width:0.09515034;stroke-opacity:0"
       d="m 903.98168,484.31698 c 6.3398,-7.95219 -2.1982,-18.96469 -7.3972,-27.24621 7.0354,-1.49244 22.1084,-4.34352 29.6538,-2.18774 9.2757,2.65015 12.238,16.65239 6.3587,20.87609 -8.0685,5.79641 -21.3194,7.04399 -28.6153,8.55786 z"
       id="path3979"
       inkscape:connector-curvature="0"
       sodipodi:nodetypes="ccssc" />
    <path
       style="fill:#ffffff;fill-opacity:0.15686275;stroke:none"
       d="m 931.91728,489.38308 c -1.3909,3.52632 -4.2585,10.64165 -1.309,18.56968 4.8339,12.99346 20.1478,25.97064 20.1478,25.97064 0,0 4.5841,-20.18584 -2.5567,-34.85179 -2.7692,-5.68752 -9.2396,-8.90884 -16.2821,-9.68853 z"
       id="path3837"
       inkscape:connector-curvature="0"
       sodipodi:nodetypes="cscsc" />
    <path
       style="fill:#ffffff;fill-opacity:0.09803922;stroke:none"
       d="m 931.92488,489.36 c -14.9697,13.50004 -21.2182,23.63823 -27.9891,39.83062 -6.3077,15.08472 -10.1198,29.25317 -8.3429,48.71177 9.5815,-4.4936 27.6238,-20.31325 36.8702,-34.71723 9.406,-14.65257 12.0094,-27.22546 -0.5382,-53.82516 z"
       id="path3841"
       inkscape:connector-curvature="0"
       sodipodi:nodetypes="cscsc" />
    <path
       style="fill:#ffffff;fill-opacity:0.09803922;stroke:none"
       d="m 931.89358,489.38379 c -12.7466,12.13285 -44.944,45.75139 -50.0574,64.59019 -3.9705,14.62803 -6.0294,32.22097 2.6913,42.25275 -0.9679,-11.49829 9.3604,-32.1703 32.5315,-50.70712 20.1845,-16.14755 21.5489,-35.96004 14.8346,-56.13582 z"
       id="path3843"
       inkscape:connector-curvature="0"
       sodipodi:nodetypes="cscsc" />
  </g>
  <path
     style="fill:#ffffff;fill-opacity:0.1372549;stroke:none"
     d="m 931.94868,177.36746 c -14.8852,8.62654 -20.0196,12.16379 -34.179,27.18171 -19.2768,20.44564 -25.1538,43.91885 -25.9667,51.40303 7.2609,0.48691 41.4796,-17.07607 51.2972,-28.03526 11.5724,-12.91804 16.2067,-27.58367 8.8485,-50.54948 z"
     id="path3839"
     inkscape:connector-curvature="0"
     sodipodi:nodetypes="cscsc" />
  <path
     style="fill:#ffffff;fill-opacity:0.11764706;stroke:none"
     d="m 828.54108,191.18804 c 9.736,6.38337 22.4682,20.56737 27.8546,32.16053 4.9889,10.73781 11.0482,25.35635 11.8415,40.09975 -10.1063,-4.4991 -22.5376,-22.44118 -28.5274,-33.23704 -6.8037,-12.26288 -11.3508,-26.43324 -11.1687,-39.02324 z"
     id="path3845"
     inkscape:connector-curvature="0"
     sodipodi:nodetypes="cscsc" />
  <path
     style="fill:#ffffff;fill-opacity:0.11764706;stroke:none"
     d="m 828.54788,191.17171 c 0,0 -27.0865,9.83645 -30.6804,35.79373 -4.5938,33.17858 21.261,76.1626 34.179,87.19676 7.8046,-15.60929 10.1671,-40.05482 11.0342,-60.5533 1.0972,-25.9376 -14.5328,-62.43719 -14.5328,-62.43719 z"
     id="path3847"
     inkscape:connector-curvature="0"
     sodipodi:nodetypes="cscsc" />
  <path
     style="fill:#ffffff;fill-opacity:0.11764706;stroke:none"
     d="m 828.48678,191.18663 c -24.1393,1.0836 -43.3987,5.0583 -62.3043,23.94428 -39.6146,39.5734 -51.6672,85.87987 -63.1083,130.53393 30.306,1.26182 54.9532,-18.6772 79.1229,-54.90166 14.9683,-22.43389 32.0064,-63.74356 46.2897,-99.57655 z"
     id="path3849"
     inkscape:connector-curvature="0"
     sodipodi:nodetypes="cscsc" />
  <path
     style="fill:#ffffff;fill-opacity:0.11764706;stroke:none"
     d="m 828.46868,191.22353 c -23.4549,6.30539 -46.9746,10.1201 -68.5083,31.97051 -25.8808,26.2615 -19.3367,113.41921 -37.6795,138.1583 90.3844,-5.26714 74.9435,-118.87298 106.1878,-170.12881 z"
     id="path3851"
     inkscape:connector-curvature="0"
     sodipodi:nodetypes="cscc" />
  <path
     style="fill:#ffffff;fill-opacity:0.19607843;stroke:none"
     d="m 815.71848,54.635212 c -0.068,-6.06858 5.1157,-12.16126 15.0338,-9.89564 16.2839,3.71978 32.6049,29.47497 43.5789,38.44074 10.1781,8.31553 29.7075,20.507898 32.6532,32.628628 -3.9468,0.16929 -5.6277,0.19614 -10.0075,0.29338 -6.4777,0.14382 -17.507,-6.92006 -27.4033,-19.030058 -10.7773,-13.18808 -24.5846,-42.10958 -39.2019,-47.38487 -6.486,-2.34075 -10.2682,-0.55182 -14.6532,4.94782 z"
     id="path3863"
     inkscape:connector-curvature="0"
     sodipodi:nodetypes="csscsssc" />
  <path
     style="fill:#ffffff;fill-opacity:0.11764706;stroke:none"
     d="m 794.59518,47.118332 c 0.2531,16.70333 14.3722,32.47501 30.8286,39.01164 37.0272,14.707568 51.3813,26.451788 72.1241,30.067508 -9.2214,-29.805598 -32.8985,-42.159468 -57.4709,-47.384868 -14.5676,-3.09786 -30.8914,-6.80769 -45.4818,-21.69428 z"
     id="path3865"
     inkscape:connector-curvature="0"
     sodipodi:nodetypes="cscsc" />
  <path
     style="fill:#ffffff;fill-opacity:0.19607843;stroke:none"
     d="m 792.88248,86.320272 c 2.0559,20.459328 15.4143,31.780218 35.2056,35.205628 19.7913,3.42542 44.9059,-5.81537 69.4598,-5.32842 0,0 -4.2641,-13.09889 -18.2689,-18.268868 -40.7244,-15.03375 -62.7619,5.992468 -86.3965,-11.60834 z"
     id="path3867"
     inkscape:connector-curvature="0"
     sodipodi:nodetypes="cscsc" />
  <path
     style="fill:#ffffff;fill-opacity:0.15686275;stroke:none"
     d="m 782.89158,92.980802 c 4.6351,15.596438 23.2167,27.403288 44.3401,27.403288 29.8827,0 47.9081,-3.75842 79.7836,-4.47206 -2.4739,-10.08594 -18.9594,-31.494208 -44.7683,-28.449948 -19.2706,2.27303 -49.9267,16.944968 -79.3554,5.51872 z"
     id="path3869"
     inkscape:connector-curvature="0"
     sodipodi:nodetypes="cscsc" />
</svg>
