<svg width="1920" height="1080" xmlns="http://www.w3.org/2000/svg" xmlns:xlink="http://www.w3.org/1999/xlink">
 <!-- Background vectorized by Cyrill Luppo https://plus.google.com/114248392026360549592 -->
 <defs>
  <linearGradient id="linearGradient6458">
   <stop stop-color="#ffffff" id="stop6460" offset="0"/>
  </linearGradient>
  <linearGradient id="linearGradient5010">
   <stop stop-color="#000000" id="stop5012" offset="0"/>
  </linearGradient>
  <linearGradient id="linearGradient3874">
   <stop stop-color="#7e1128" id="stop3876" offset="0"/>
   <stop stop-color="#7e1128" stop-opacity="0.74902" offset="0.25" id="stop3884"/>
   <stop stop-color="#a41634" stop-opacity="0" offset="0.61503" id="stop3882"/>
   <stop stop-color="#7e1128" stop-opacity="0" id="stop3878" offset="1"/>
  </linearGradient>
  <filter id="filter6490"/>
 </defs>
 <g>
  <title>Layer 1</title>
  <g display="none" id="layer7">
   <rect fill="#490c23" fill-rule="nonzero" y="-121.96839" x="-76.02812" height="1310.58" width="2175.8525" id="rect3935"/>
  </g>
  <g display="inline" id="layer6">
   <path fill="#ffffff" fill-opacity="0.4" id="path3928" d="m1423.34265,89.01966c-0.30225,0.0014 -0.53247,0.08375 -0.6875,0.21875c-2.47998,2.16 2.31995,11.17875 4,14.21875c1.68005,3.04 -1.58032,0.21316 -2.5625,1.46875c-2.96558,3.79118 12.89368,19.0125 12.09375,19.8125c-0.80005,0.8 -3.755,-0.775 -4.875,-0.375c-1.03333,0.36905 -1.29639,9.30607 8.78125,22.37499c3.21069,-4.75734 7.52893,-9.9081 13.28125,-15.5c5.17712,-5.03279 9.33093,-8.96533 12.71875,-12.06249c-4.0531,-3.65464 -8.97815,-8.03728 -12.46875,-11.0625c-5.625,-4.875 -25.74609,-19.11426 -30.28125,-19.09375z"/>
  </g>
  <g display="inline" id="layer1">
   <path fill="#ffffff" fill-opacity="0.2" id="path2995" d="m1546.81018,260.32181c5.65686,9.27725 38.01416,69.80557 37.67468,71.72891c-0.33936,1.92334 -3.50732,6.10941 -8.59839,7.0145c-5.09119,0.90509 -8.82471,0.45255 -9.72974,1.24451c-0.90515,0.79196 -6.1095,12.33194 -8.37231,10.86115c-2.2627,-1.47076 -5.20422,-5.31741 -4.97791,-3.28094c0.22632,2.03647 -0.33948,7.58017 -2.71533,8.71155c-2.37585,1.13138 -4.97803,-1.24451 -5.77002,-0.79196c-0.79187,0.45255 -1.81018,2.37589 -5.65674,2.37589c-3.8468,0 -4.52551,-3.28098 -6.56201,-3.28098c-2.0365,0 -8.59839,0.45255 -8.146,-0.67883c0.45264,-1.13138 1.8103,-3.62039 0.11328,-3.84665c-1.69714,-0.22629 -1.58386,1.35764 -4.29919,0c-2.71533,-1.35767 -3.28101,-0.79196 -3.05469,-6.33569c0.2262,-5.5437 2.60205,-55.32404 0.11304,-57.47363c-2.48901,-2.1496 -6.22253,-2.1496 -9.16406,-2.1496c-2.94165,0 -20.93042,-2.60217 -26.02148,-5.4306c-5.09119,-2.8284 -24.43762,-14.36841 -30.88647,-25.3427c-6.44885,-10.97429 -11.20056,-15.61292 -11.0874,-34.16739c0.11316,-18.55449 2.14954,-18.32822 1.4707,-20.02527c-0.67871,-1.69705 -7.0144,-6.78822 -8.25891,-15.04724c-1.24451,-8.259 -7.91968,-25.56897 20.47778,-53.17442c28.39734,-27.60545 26.92651,-22.62742 27.94482,-23.07996c1.01819,-0.45255 0.67883,3.28098 0.2262,4.07293c-0.45239,0.79196 -1.6969,1.13137 -1.01819,2.03648c0.67883,0.90509 3.50732,-1.01824 4.41235,-1.47078c0.90503,-0.45255 3.95984,-0.79196 4.18604,0.33941c0.22632,1.13137 -1.01819,3.0547 0.22632,3.50725c1.24451,0.45255 2.14966,0.67882 2.0365,2.1496c-0.11316,1.47078 -2.82849,5.99627 -1.47083,6.22254c1.35767,0.22628 3.28101,-1.13137 3.28101,0.33941c0,1.47078 -1.4707,5.76999 -0.56567,6.22253c0.90515,0.45256 4.97803,1.81021 6.22253,4.29922c1.24451,2.48901 -5.20435,1.35764 -5.20435,1.35764c0,0 -0.45251,1.69705 0.33948,2.03647c0.79199,0.33942 4.97791,2.03647 8.71155,9.72978c3.73352,7.69333 5.09106,13.35019 7.46704,13.12392c2.37585,-0.22627 30.3208,-44.8023 40.39001,-53.96639c10.06921,-9.16411 46.95178,-34.73309 49.10144,-35.29877c2.14966,-0.56568 8.14587,-3.0547 5.7699,2.37588c-0.70422,5.43058 -12.8645,23.07997 -13.01062,23.98507c-0.18042,1.11688 10.63489,-10.63489 11.99243,-10.74803c1.35767,-0.11314 4.29919,4.29921 4.18616,7.12764c-0.11328,2.82843 -5.77002,11.99253 -5.65698,14.59468c0.11328,2.60217 3.50732,-0.45255 3.95984,2.14961c0.45264,2.60215 -4.52551,6.67509 -3.73352,8.93783c0.79199,2.26274 2.37585,3.62038 1.81018,5.31744c-0.56567,1.69706 -0.67871,2.60215 0.22632,3.28098c0.90515,0.67882 1.69702,3.16783 1.13135,4.63861c-0.56567,1.47078 -16.74426,16.29175 -16.51807,17.42311c0.22632,1.13138 7.80652,-1.35765 9.27734,-0.79196c1.4707,0.56569 4.18604,2.03647 0.67883,7.01451c-3.50732,4.97803 -6.67517,6.44881 -5.5437,7.24077c1.13123,0.79196 7.8064,-1.13138 6.22241,2.03647c-1.58386,3.16783 -5.20422,5.2043 -3.95972,5.88313c1.24451,0.67882 4.29919,0.90509 3.16785,2.71529c-1.13135,1.81018 -6.10938,2.94156 -5.3175,3.62038c0.79199,0.67883 3.05469,1.35765 2.0365,3.28098c-1.01831,1.92334 -5.20422,2.60216 -4.52551,3.84666c0.67883,1.24451 3.05469,2.26274 2.2627,4.07294c-0.79187,1.8102 -7.2406,5.88312 -6.44873,6.67508c0.79199,0.79196 2.71521,3.73354 0.67871,4.5255c-2.03638,0.79196 -3.62024,-0.11314 -3.84656,2.03645c-0.22632,2.14961 -0.11316,4.75177 -1.58386,5.20432c-1.47083,0.45255 -3.62036,-0.67882 -3.73364,1.24451c-0.11304,1.92332 0.56567,3.84666 -1.13123,4.18607c-1.69714,0.33942 -6.90149,0 -7.12781,1.35765c-0.2262,1.35765 -0.90503,7.69333 -2.71521,7.69333c-1.81018,0 -5.99622,0.3394 -5.99622,1.01822c0,0.67883 1.58386,4.97804 -0.22632,5.77c-1.81018,0.79195 -4.75183,-0.33942 -4.18616,0.56569c0.5658,0.90509 2.14966,7.69331 0.22632,8.03273c-1.92322,0.3394 -4.97791,0.56569 -5.31738,0.11313c-0.33936,-0.45255 -0.90503,-4.18607 -1.58398,-3.05469c-0.67883,1.13136 2.26282,5.88312 0.67896,8.25899c-1.58411,2.37589 -4.75183,3.28099 -5.43066,3.16785c-0.67883,-0.11314 0.45251,12.67136 0.45251,12.67136z"/>
  </g>
  <g display="inline" id="layer3">
   <path fill="#ffffff" fill-opacity="0.2" id="path2995-1" d="m1605.90515,73.70716c-5.95532,3.38963 -11.95837,6.69059 -14.28125,8.1875c-5.09106,3.28098 -32.71387,26.4994 -38.03125,32.15625c-5.3175,5.65686 -23.88025,34.5028 -34.0625,55.09374c-10.18225,20.59096 -6.76855,22.37935 -9.03125,22.71875c-2.2627,0.33942 -8.6134,-3.93547 -11.78125,-5.40625c-3.16785,-1.47078 -10.63391,-2.16058 -14.59375,-2.5c-3.95984,-0.3394 -6.13879,-2.935 -6.21875,-3.375c-0.07996,-0.43999 2.43506,-0.54625 3.875,-0.90625c1.43994,-0.36 0.79004,-1.42874 1.75,-2.46875c0.95996,-1.03999 1.69128,0.0238 3.53125,-0.65625c1.83997,-0.67999 0.11243,-3.43999 0.3125,-5c0.20007,-1.56 1.9812,-0.83749 2.78125,-1.4375c0.80005,-0.59999 -1.48254,-2.64 -0.5625,-4c0.92004,-1.36 1.5238,-1.8125 0.84375,-2.8125c-0.68005,-1 -2.6488,-2.07625 -1.96875,-3.15625c0.68005,-1.07999 -0.23254,-2.56374 -1.3125,-2.84375c-1.07996,-0.28 -2.80249,-0.62749 -3.5625,-2.1875c-0.76001,-1.56 -3.4187,-1.92679 -10.09375,-2.71875c-6.67505,-0.79195 -15.60181,1.01648 -21.9375,4.75c-5.76587,3.39774 -11.45398,6.72627 -20.1875,16.84375c0.2135,4.3867 1.11108,7.82532 1.5,10.40625c1.24451,8.25902 7.60242,13.36546 8.28125,15.0625c0.67883,1.69707 -1.38684,1.47678 -1.5,20.03125c-0.11316,18.55449 4.64502,23.18196 11.09375,34.15625c6.44897,10.9743 25.81506,22.51535 30.90625,25.34375c5.09106,2.82843 23.05835,5.4375 26,5.4375c2.94165,0 6.69849,0.00702 9.1875,2.15625c0.67371,0.58185 0.96252,4.69827 1.0625,10.4375c0.07898,0.0174 0.39478,0.0549 0.40625,0.0625c0.67871,0.45255 2.23926,5.55383 3.03125,4.875c0.79187,-0.6788 0.01697,-4.42563 1.375,-4.3125c1.35767,0.11316 2.58545,9.73062 5.1875,9.84375c2.60217,0.11316 1.37292,-5.40738 2.84375,-6.3125c1.4707,-0.90509 1.00342,12.42996 3.71875,12.65625c2.71533,0.22629 4.75232,-16.73929 6.5625,-17.53125c1.81018,-0.79196 1.59485,9.38571 2.5,8.59375c0.90515,-0.79196 2.26306,-10.62061 3.28125,-22.5c1.01831,-11.87939 -4.28882,-20.93112 -4.0625,-22.0625c0.11523,-0.57642 1.88367,-0.65543 4.03125,-0.5625c-0.13416,-1.55106 -1.06873,-12.23019 -0.4375,-12.125c0.67883,0.11314 3.85352,-0.78036 5.4375,-3.15625c1.58386,-2.37587 -1.33496,-7.11862 -0.65625,-8.25c0.67896,-1.13136 1.22302,2.5787 1.5625,3.03125c0.33936,0.45256 3.38928,0.24567 5.3125,-0.09369c1.92322,-0.33942 0.34692,-7.12616 -0.21875,-8.03125c-0.56567,-0.90511 2.37732,0.22946 4.1875,-0.5625c1.81018,-0.79196 0.21875,-5.10243 0.21875,-5.78125c0,-0.67882 4.18982,-1.03125 6,-1.03125c1.8103,0 2.49255,-6.32985 2.71875,-7.6875c0.22632,-1.35765 5.42786,-1.00435 7.125,-1.34375c1.69702,-0.33942 1.01184,-2.26418 1.125,-4.1875c0.11316,-1.92334 2.27917,-0.79745 3.75,-1.25c1.4707,-0.45256 1.36743,-3.06914 1.59375,-5.21875c0.22632,-2.1496 1.80737,-1.23929 3.84375,-2.03125c2.0365,-0.79196 0.10449,-3.73929 -0.6875,-4.53125c-0.79187,-0.79196 5.64563,-4.84605 6.4375,-6.65625c0.79199,-1.8102 -1.57117,-2.84924 -2.25,-4.09375c-0.67883,-1.24451 3.51294,-1.92043 4.53125,-3.84375c1.01819,-1.92334 -1.23926,-2.60242 -2.03125,-3.28125c-0.79187,-0.67882 4.18115,-1.81482 5.3125,-3.625c1.13135,-1.81021 -1.94299,-2.00868 -3.1875,-2.6875c-1.24451,-0.67883 2.38477,-2.73842 3.96875,-5.90625c1.58386,-3.16785 -5.0874,-1.23929 -6.21875,-2.03125c-1.13135,-0.79196 2.02405,-2.27197 5.53125,-7.25c3.5072,-4.97803 0.81445,-6.43433 -0.65625,-7c-1.47083,-0.56569 -9.05493,1.91261 -9.28125,0.78125c-0.2262,-1.13138 15.93445,-15.93547 16.5,-17.40625c0.56567,-1.47079 -0.21997,-3.97743 -1.125,-4.65625c-0.90503,-0.67883 -0.78442,-1.5842 -0.21875,-3.28126c0.56567,-1.69706 -1.02051,-3.04976 -1.8125,-5.3125c-0.79199,-2.26273 4.17139,-6.33535 3.71875,-8.9375c-0.45251,-2.60216 -3.82422,0.44592 -3.9375,-2.15625c-0.11316,-2.60215 5.54309,-11.76532 5.65625,-14.59375c0.11316,-2.82843 -2.82983,-7.23814 -4.1875,-7.125c-1.35754,0.11314 -12.18042,11.86688 -12,10.75c0.14624,-0.9051 12.29578,-18.53817 13,-23.96875c0.26611,-0.60822 0.42676,-1.10788 0.5,-1.53125l0,-0.00005z"/>
  </g>
  <g display="inline" id="layer4">
   <path fill="#b21d62" fill-opacity="0.95853" fill-rule="nonzero" d="m1478.76465,169.09422a5.29946,5.94842 0 1 1 -10.599,-5.88416a5.29946,5.94842 0 1 1 10.599,5.88416z" id="path3796"/>
   <path fill="#ffffff" fill-opacity="0.47945" stroke="#000000" stroke-width="0.2" stroke-miterlimit="4" id="path3930" d="m1497.14307,273.672c-6.95801,-6.73166 -13.97253,-17.4231 -15.44324,-18.15849c-1.4707,-0.7354 -13.91589,1.52736 -14.7644,3.11125c-0.84851,1.58392 0.05603,9.16412 1.58398,10.12579c1.52722,0.96164 9.50342,0.62225 10.9176,0.05658c1.41431,-0.56567 0.50916,-4.4689 1.01831,-5.03458c0.50916,-0.5657 2.0365,-0.50912 2.37585,0.56567c0.33936,1.0748 8.31555,10.63489 11.82275,13.29361c3.50732,2.65872 5.65698,4.69519 6.67517,3.90323c1.01831,-0.79196 3.16785,-8.71158 2.09302,-10.74802c-1.07471,-2.03647 -4.92151,-4.07294 -5.7699,-2.77188c-0.84863,1.30109 -0.50916,5.65686 -0.50916,5.65686l0,-0.00003z"/>
   <path fill="#ffffff" fill-opacity="0.47945" stroke="#000000" stroke-width="0.2" stroke-miterlimit="4" id="path3932" d="m1472.36597,273.50229c-8.37207,-8.259 -10.69141,-16.80087 -12.38855,-17.59282c-1.6969,-0.79196 -10.46509,0.96165 -11.25708,2.60216c-0.79199,1.64047 1.07483,8.99438 4.92139,9.05096c3.8468,0.05661 4.97815,-2.7153 6.2793,-2.82843c1.3009,-0.11313 1.92322,3.50726 2.94141,5.54373c1.01831,2.03647 2.60229,6.05283 4.58215,6.78821c1.97986,0.73538 5.09106,-2.54559 4.92139,-3.56381z"/>
  </g>
  <g display="inline" id="layer5">
   <path fill="#2b1967" fill-rule="nonzero" d="m1478.78516,166.15216a5.32,5.32 0 1 1 -10.64001,0a5.32,5.32 0 1 1 10.64001,0z" id="path3800"/>
   <path fill="#7e1128" fill-rule="nonzero" d="m1471.82532,169.47217a1,1 0 1 1 -2,0a1,1 0 1 1 2,0z" id="path3802-7"/>
   <path fill="#7e1128" fill-rule="nonzero" id="path3800-4" d="m1473.52209,160.77789c-1.39709,0 -2.64453,0.55672 -3.59375,1.4375c2.74817,1.4801 6.0459,5.371 7.375,7.59375c0.93469,-0.95868 1.53125,-2.24289 1.53125,-3.6875c0,-2.93816 -2.37427,-5.34375 -5.3125,-5.34375z"/>
   <path fill="#ffffff" fill-rule="nonzero" d="m1478.61377,163.0676a2.4,2.4 0 1 1 -4.79993,0a2.4,2.4 0 1 1 4.79993,0z" id="path3802"/>
   <path fill="#ffffff" fill-opacity="0.3" id="path3886" d="m1445.02515,172.39217c-4.59998,-6.31999 -13.19995,-6.64 -14.12,-6.44c-0.92004,0.20001 -14.52002,6.24001 -14.52002,6.24001c0,0 13.28003,7.96001 17.59998,7.64c4.32007,-0.31999 11.04004,-7.44 11.04004,-7.44z"/>
   <path fill="#ffffff" fill-opacity="0.3" id="path3888" d="m1431.59265,165.9259c-0.33215,-0.002 -0.57251,0.006 -0.6875,0.0312c-0.92004,0.2 -14.53125,6.25 -14.53125,6.25c0,0 0.84326,0.47739 1.8125,1.03125c6.07996,1.31636 13.25427,1.49165 14.09375,1.4375c0.79102,-0.05101 6.98926,-0.77872 11.9375,-1.46875c0.38452,-0.38229 0.8125,-0.8125 0.8125,-0.8125c-4.02502,-5.53001 -11.11218,-6.45509 -13.4375,-6.46875l0,0.00005z"/>
  </g>
  <g display="inline" id="layer8">
   <path fill="#ffffff" fill-opacity="0.20276" id="path3957" d="m0.21875,-16.90625c-4.06,0.0087 -6.465,0.19375 -6.625,0.59375c-1.28,3.2 -8.3125,37.75 -8.3125,37.75c16.32,26.24 93.44875,10.88875 120.96875,24.96875c27.52,14.08 26.24126,34.87875 9.28125,54.71875c-16.96,19.84 -46.4025,22.395 -50.5625,58.875c-4.16,36.48 27.845,119.375 29.125,127.375c1.28,8 3.83,16.63126 -2.25,23.03125c-6.08,6.39999 -20.17625,20.48376 -24.65625,43.84375c-0.46574,2.42847 -0.77831,4.34085 -1,5.96875c-0.35112,-0.22012 -0.59375,-0.375 -0.59375,-0.375c-11.2,-2.72 -32.14875,3.68375 -40.46875,15.84375c-8.32,12.16 -9.9325,26.07874 -0.8125,30.71875c9.12,4.64001 6.07375,1.26376 9.59375,3.34375c3.52,2.07999 8.98875,6.565 17.46875,5.125c8.48,-1.44 18.21375,-8.96249 21.09375,-14.5625c2.88,-5.60001 8.3375,-16.63376 5.9375,-25.59375c-1.39659,-5.21393 -5.49865,-9.38113 -8.6875,-11.96875c1.31502,-2.18304 2.66745,-4.78949 3.5625,-6.28125c2.88,-4.79999 8.0125,-24.94876 12.8125,-28.46875c4.8,-3.51999 5.74125,-1.60751 4.78125,0.3125c-0.96,1.92001 2.57625,52.16876 0.65625,56.96875c-1.92,4.79999 -9.28125,28.8075 -9.28125,31.6875c0,2.88 0.94375,11.82251 7.34375,-1.9375c6.4,-13.76001 5.1175,-40.29626 5.4375,-47.65625c0.32,-7.35999 0.635,-46.42749 2.875,-52.1875c2.24,-5.76001 9.93875,-11.83124 11.21875,-15.03125c1.28,-3.20001 -23.9925,-77.765 -24.3125,-85.125c-0.32,-7.36 -12.16,-53.75 0,-69.75c12.16,-16 46.07249,-35.8375 48.3125,-37.4375c2.24001,-1.6 32.64999,-19.53 42.25,5.75c9.60001,25.28 22.70625,48.32124 25.90625,49.28125c3.2,0.96001 28.46625,-8.95 41.90625,-5.75c13.44,3.2 8.96375,-1.9225 11.84375,13.4375c2.88,15.36 0.96625,14.38625 6.40625,17.90625c5.44,3.52 27.51501,7.7 34.875,12.5c7.35999,4.8 38.39874,43.81876 46.71875,50.21875c8.32001,6.39999 12.1825,14.0925 23.0625,12.8125c10.88,-1.28 79.02499,-15.0475 88.625,-15.6875c9.60001,-0.64 63.99377,17.27249 81.59375,32.3125c17.59998,15.04001 57.29626,74.56375 56.65625,75.84375c-0.61676,1.23352 -9.13782,16.21115 -11.375,17.5c-8.56213,-4.18927 -19.64569,-0.65359 -25.625,8.53125c-6.40881,9.8447 -4.52631,22.43204 4.21875,28.125c8.74506,5.69296 21.02869,2.3447 27.4375,-7.5c5.99408,-9.20755 4.75018,-20.84641 -2.59375,-26.96875c0.06897,-0.54596 0.27515,-1.14325 0.75,-1.75c2.03644,-2.60214 9.73175,-11.64874 10.75,-11.875c1.01825,-0.22629 20.70807,32.13828 21.5,36.4375c0.79193,4.29922 0.57867,14.7037 1.03125,15.15625c0.45258,0.45255 4.18433,1.81567 4.75,1.25c0.56567,-0.5657 1.21759,-12.58649 0.3125,-16.09375c-0.90509,-3.50726 -40.60999,-70.95126 -41.25,-73.03125c-0.64001,-2.07999 -32.47876,-48.47876 -34.71875,-50.71875c-2.23999,-2.23999 -60.16501,-37.94376 -61.125,-40.34375c-0.95999,-2.39999 11.68875,-4.62875 16.96875,-4.46875c5.28,0.16 44.30499,9.43124 76.625,23.03125c32.32001,13.60001 112.82123,40.49249 113.78125,40.8125c0.96002,0.32001 0.14752,7.35626 3.1875,8.15625c3.03998,0.79999 8.18127,-7.99249 9.78125,-8.3125c1.59998,-0.32001 45.4325,-1.12875 68.3125,-8.96875c22.88,-7.84 50.06372,-12.64001 59.34375,-12c9.28003,0.64001 26.40125,3.68124 37.28125,13.28125c10.88,9.60001 13.76001,12.1525 20,12.3125c6.23999,0.16 21.29248,9.93625 28.8125,16.65625c7.52002,6.72 9.59253,4.13876 8.3125,2.21875c-1.28003,-1.92001 -6.565,-12.95126 -21.125,-19.03125c-14.56,-6.07999 -14.22748,-3.52374 -23.1875,-11.84375c-8.96002,-8.32001 -31.03625,-21.42624 -44.15625,-21.90625c-13.12,-0.48001 -43.04248,3.84875 -46.5625,4.96875c-3.52002,1.12 3.67999,-30.08875 4,-32.96875c0.32001,-2.88 -3.05878,-3.50999 -3.21875,-1.75c-0.15997,1.75999 -10.85876,31.50375 -18.21875,35.34375c-7.35999,3.84 -16.50372,16.005 -52.34375,13.125c-35.84003,-2.88 -71.67126,-15.37625 -83.03125,-20.65625c-11.35999,-5.28 -95.6875,-38.54875 -103.6875,-40.46875c-8,-1.92 -17.41498,-12.81 -62.375,-6.25c-44.95999,6.56 -94.89624,16.64125 -104.65625,13.28125c-9.76001,-3.36 -35.20999,-33.91875 -50.25,-50.71875c-15.04001,-16.8 -21.11249,-10.22 -28.3125,-19.5c-7.20001,-9.28 0.95374,-30.42125 -18.40625,-33.78125c-19.36,-3.36 -37.44125,6.10001 -45.28125,-3.5c-7.84,-9.6 -64.78999,-98.40625 -65.75,-106.40625c-0.96001,-8 -24,-24.46875 -24,-24.46875c0,0 -110.23625,-8.3425 -138.65625,-8.28125z"/>
  </g>
  <g display="inline" id="layer9">
   <path fill="#ffffff" fill-opacity="0.20276" id="path3960" d="m54.98462,171.96175c-14.70782,11.31372 -4.52548,47.97014 10.40862,46.61249c14.93409,-1.35765 19.45957,-23.75879 20.36467,-23.98506c0.9051,-0.22627 13.80272,19.23331 36.88269,11.99252c23.07996,-7.24077 2.48902,-35.07248 0,-39.14543c-2.48902,-4.07292 -17.42311,-7.01451 -16.29174,-8.59842c1.13137,-1.58392 20.81721,-4.29921 26.47408,-12.67136c5.65686,-8.37215 9.05096,-26.24781 -9.72979,-31.45211c-18.78075,-5.20431 -23.75879,2.94156 -25.56898,1.13137c-1.8102,-1.81019 1.81019,-19.91212 -14.9341,-27.1529c-16.74429,-7.24077 -21.49604,5.20432 -24.43761,10.18234c-2.94156,4.97803 -7.46705,14.48154 -6.1094,19.68585c1.35764,5.20431 9.27724,14.029 9.95606,15.83918c0.67882,1.8102 -7.46705,-8.14587 -15.61292,-8.59841c-8.14587,-0.45255 -22.62741,7.69332 -25.56898,16.29174c-2.94156,8.59842 10.18234,29.86819 15.8392,31.4521c5.65685,1.58392 16.97056,-3.84665 18.3282,-1.58391z"/>
   <path fill="none" stroke="#ffffff" stroke-width="1px" id="path3966" d="m74,158.32001c1.68,-4.64 18.96,-4.08 18.96,-4.08"/>
   <path fill="none" stroke="#ffffff" stroke-width="1px" id="path3968" d="m83.44,140.72c-5.04,5.75999 -9.2,17.03999 -9.2,17.03999"/>
   <path fill="none" stroke="#ffffff" stroke-width="1px" id="path3970" d="m100.8,164.16c-11.52,-3.92 -24.8,-6.72 -26.32,-6.32001"/>
   <path fill="none" stroke="#ffffff" stroke-width="1px" id="path3972" d="m89.28,170.08c-9.44,-6.96001 -14.8,-12.24001 -14.8,-12.24001"/>
   <path fill="none" stroke="#ffffff" stroke-width="1px" id="path3974" d="m71.36,163.36c2.64,-3.52 2.8,-5.60001 2.8,-5.60001"/>
   <path fill="none" stroke="#ffffff" stroke-width="1px" id="path3976" d="m74,149.84c0,4.48001 0.16,7.84 0.16,7.84"/>
   <path fill="#ffffff" fill-rule="nonzero" d="m85.92,140.64a2,1.76 0 1 1 -4,0a2,1.76 0 1 1 4,0z" id="path3980"/>
   <path fill="#ffffff" fill-rule="nonzero" d="m75.28001,149.52a1.44,1.52 0 1 1 -2.88,0a1.44,1.52 0 1 1 2.88,0z" id="path3982"/>
   <path fill="#ffffff" fill-rule="nonzero" d="m72.96,163.36a1.44,1.44 0 1 1 -2.88,0a1.44,1.44 0 1 1 2.88,0z" id="path3984"/>
   <path fill="#ffffff" fill-rule="nonzero" d="m94.8,154.31999a2.08,2.08 0 1 1 -4.16,0a2.08,2.08 0 1 1 4.16,0z" id="path3986"/>
   <path fill="#ffffff" fill-rule="nonzero" d="m102.72,164.23999a2.24,2.24 0 1 1 -4.48,0a2.24,2.24 0 1 1 4.48,0z" id="path3988"/>
   <path fill="#ffffff" fill-rule="nonzero" d="m91.36,170.23999a1.92,1.92 0 1 1 -3.84,0a1.92,1.92 0 1 1 3.84,0z" id="path3990"/>
  </g>
  <g display="inline" id="layer10">
   <path fill="#ffffff" fill-opacity="0.20276" id="path3993" d="m178.30405,49.32115c6.10941,-21.72232 -14.02899,-30.09446 -20.81723,-31.22583c-6.78822,-1.13138 -13.57645,-0.9051 -24.43761,10.86116c-10.86116,11.76625 -17.19683,17.19683 -7.91959,26.02153c9.27724,8.82469 22.62741,19.00703 21.49603,19.2333c-1.13136,0.22626 -40.95562,2.03647 -47.51758,23.75879c-6.56195,21.72232 -5.88313,24.66388 -4.29921,25.11643c1.58392,0.45255 26.2478,2.26274 34.1674,-1.35764c7.9196,-3.62039 -4.07293,1.35764 -0.90509,13.80273c3.16783,12.44507 17.64938,28.28427 21.94859,28.51054c4.29921,0.22627 19.68585,-8.82469 25.79526,-19.00703c6.10939,-10.18234 2.71529,-27.60545 4.07294,-28.058c1.35764,-0.45255 16.06546,20.1384 35.52504,15.83919c19.45958,-4.29921 16.74429,-5.88313 17.19684,-7.24077c0.45255,-1.35764 3.16785,-24.43761 -2.48901,-30.99957c-5.65686,-6.56195 -18.10193,-11.53998 -18.10193,-13.35017c0,-1.8102 9.50351,-2.48901 12.89763,-5.43058c3.3941,-2.94157 10.4086,-12.89763 10.86116,-26.47408c0.45253,-13.57645 -3.84668,-16.06547 -15.16037,-17.42311c-11.31372,-1.35765 -23.53253,-4.07294 -28.9631,-0.67882c-5.43059,3.39411 -11.31371,18.10193 -13.35017,18.10193z"/>
   <path fill="none" stroke="#ffffff" stroke-width="1px" id="path3995" d="m162.24001,81.28c1.12001,1.36 8.40001,29.12 8.48001,30.72"/>
   <path fill="none" stroke="#ffffff" stroke-width="1px" id="path3997" d="m169.28,75.52c-5.92,5.04 -6.95999,6.24001 -6.95999,6.24001"/>
   <path fill="none" stroke="#ffffff" stroke-width="1px" id="path3999" d="m176.48,99.6c-7.36,-11.04 -13.92,-17.84 -13.92,-17.84"/>
   <path fill="none" stroke="#ffffff" stroke-width="1px" id="path4001" d="m157.52,104.24c-0.64,-10.07999 4.95999,-22.32001 4.95999,-22.32001"/>
   <path fill="none" stroke="#ffffff" stroke-width="1px" id="path4003" d="m152.96001,82.48c3.12001,-1.28001 9.52,-0.72 9.52,-0.72"/>
   <path fill="none" stroke="#ffffff" stroke-width="1px" id="path4005" d="m184.32001,80.56c-6.08,-0.72 -20.48,0 -21.67999,0.96"/>
   <path fill="#ffffff" fill-rule="nonzero" d="m178.48,99.84a2,2 0 1 1 -4,0a2,2 0 1 1 4,0z" id="path4007"/>
   <path fill="#ffffff" fill-rule="nonzero" d="m172.56,112.39999a2,2 0 1 1 -4,0a2,2 0 1 1 4,0z" id="path4009"/>
   <path fill="#ffffff" fill-rule="nonzero" d="m159.84,104.48a2.32,2.32 0 1 1 -4.64,0a2.32,2.32 0 1 1 4.64,0z" id="path4011"/>
   <path fill="#ffffff" fill-rule="nonzero" d="m154.15999,82.24a1.76,1.76 0 1 1 -3.52,0a1.76,1.76 0 1 1 3.52,0z" id="path4013"/>
   <path fill="#ffffff" fill-rule="nonzero" d="m170.79999,75.75999a1.76,1.76 0 1 1 -3.52,0a1.76,1.76 0 1 1 3.52,0z" id="path4015"/>
   <path fill="#ffffff" fill-rule="nonzero" d="m186.23999,80.88a2.48,2.48 0 1 1 -4.96001,0a2.48,2.48 0 1 1 4.96001,0z" id="path4017"/>
  </g>
  <g display="inline" id="layer11">
   <path fill="#ffffff" fill-opacity="0.19816" id="path4022" d="m559.67999,212.64c-14.23999,-30.08 -39.20001,-14.88 -41.59998,-10.24001c-2.40002,4.64 -3.68005,17.12001 1.44,22.88c5.12,5.75999 9.91998,6.56 9.91998,8.16c0,1.59999 -17.28003,11.84 -18.08002,21.28c-0.79999,9.44 12,15.20001 16.16003,16.32001c4.15997,1.12 12.31995,1.44 16.31995,-1.60001c4,-3.04001 5.28003,-5.76001 6.56,-4.95999c1.28003,0.79999 -2.39996,12.47998 6.56,17.59998c8.96002,5.12003 17.12006,8.64001 20.80005,8c3.67999,-0.63998 13.27997,-13.59998 13.76001,-17.43997c0.47998,-3.84003 -0.32001,-13.44 -2.08002,-14.24002c-1.76001,-0.79999 -1.28003,-2.07999 0.64001,-1.60001c1.91998,0.48001 6.87994,8.64001 19.51996,-1.75999c12.64001,-10.39999 13.12,-9.59999 13.44,-14.56c0.32001,-4.95999 -9.59998,-18.56 -14.08002,-19.84c-4.47998,-1.28 -14.23999,2.08 -16.79999,3.36c-2.56,1.28 -4.15997,1.12 -4,0.16c0.16003,-0.96001 9.28003,-8.32001 9.44,-17.12001c0.16003,-8.79999 -2.71997,-22.39999 -16.95996,-25.92c-14.23999,-3.51999 -20.48004,29.60001 -20.96002,31.52z"/>
   <path fill="none" stroke="#ffffff" stroke-width="1px" id="path4024" d="m578.63965,230.28392c-0.396,0.90511 -11.70972,9.84293 -11.70972,9.84293"/>
   <path fill="none" stroke="#ffffff" stroke-width="1px" id="path4026" d="m560.93365,244.76547c5.37402,-4.07294 6.16595,-4.75177 6.16595,-4.75177"/>
   <path fill="none" stroke="#ffffff" stroke-width="1px" id="path4028" d="m572.47363,240.29655c-2.94159,0.22627 -5.65686,-0.22627 -5.65686,-0.22627"/>
   <path fill="none" stroke="#ffffff" stroke-width="1px" id="path4030" d="m560.1983,237.86411c6.61853,1.75363 6.73163,2.20619 6.73163,2.20619"/>
   <path fill="none" stroke="#ffffff" stroke-width="1px" id="path4032" d="m556.63446,219.98845c2.1496,3.2244 10.23889,19.96869 10.23889,19.96869"/>
   <path fill="none" stroke="#ffffff" stroke-width="1px" id="path4034" d="m566.08142,224.40079c0.73541,4.97803 0.79193,15.66949 0.79193,15.66949"/>
   <path fill="none" stroke="#ffffff" stroke-width="1px" id="path4036" d="m553.41003,229.9445c3.3941,5.48715 13.46332,9.89949 13.46332,9.89949"/>
   <path fill="#ffffff" fill-rule="nonzero" d="m558.38812,219.25305a1.92333,1.92333 0 1 1 -3.84668,0a1.92333,1.92333 0 1 1 3.84668,0z" id="path4038"/>
   <path fill="#ffffff" fill-rule="nonzero" d="m567.55219,223.89168a1.92333,1.92333 0 1 1 -3.84668,0a1.92333,1.92333 0 1 1 3.84668,0z" id="path4040"/>
   <path fill="#ffffff" fill-rule="nonzero" d="m580.05383,230.34048a1.92333,1.92333 0 1 1 -3.84668,0a1.92333,1.92333 0 1 1 3.84668,0z" id="path4042"/>
   <path fill="#ffffff" fill-rule="nonzero" d="m573.88788,240.57939a1.64049,1.64049 0 1 1 -3.28094,0a1.64049,1.64049 0 1 1 3.28094,0z" id="path4044"/>
   <path fill="#ffffff" fill-rule="nonzero" d="m562.91357,244.76547a1.69706,1.69706 0 1 1 -3.3941,0a1.69706,1.69706 0 1 1 3.3941,0z" id="path4046"/>
   <path fill="#ffffff" fill-rule="nonzero" d="m561.9519,238.26009a1.75362,1.75362 0 1 1 -3.50726,0a1.75362,1.75362 0 1 1 3.50726,0z" id="path4048"/>
   <path fill="#ffffff" fill-rule="nonzero" d="m555.05054,230.05765a1.9799,1.9799 0 1 1 -3.95978,0a1.9799,1.9799 0 1 1 3.95978,0z" id="path4050"/>
  </g>
  <g display="inline" id="layer12">
   <path fill="#ffffff" fill-opacity="0.20276" id="path4053" d="m615.35999,165.60001c-7.91998,-10 -20,-3.75999 -22.08002,-0.39999c-2.07996,3.36 -7.44,10.8 1.92004,14.56c9.35999,3.75999 9.51996,2.64 13.83997,0.8c4.32001,-1.84 8.23999,-3.28 8.72003,-2.8c0.47998,0.48 -8,4.24001 -10.72003,9.03999c-2.71997,4.8 -4.15997,15.60001 -1.12,18.32001c3.03998,2.72 5.76001,4.24001 11.84003,-1.12c6.07996,-5.36 7.44,-20.48001 6.71997,-22.96001c-0.71997,-2.48 1.20001,-1.36 0.96002,-0.16c-0.23999,1.20001 -1.12,9.28 3.83997,12.96001c4.96002,3.67999 10.48004,6.72 14.24005,5.36c3.75995,-1.36 6.39996,-4.8 4.87994,-9.92c-1.51996,-5.12001 -8.47998,-12.32001 -14.56,-13.36c-6.07996,-1.04001 -0.15997,-0.88 2.08002,-0.56c2.23999,0.31999 7.60004,2.31999 11.91998,0.87999c4.32001,-1.44 7.04004,-2.8 7.36005,-5.84c0.32001,-3.03999 0,-12.64 -11.76001,-11.44c-11.76001,1.2 -14.32001,11.12001 -15.44,11.28c-1.12,0.16 -0.56,-2.8 -0.08002,-3.59999c0.47998,-0.8 6.88,-8.32001 4.96002,-15.12001c-1.92004,-6.79999 -2.88,-10.31999 -10.23999,-10.08c-7.36005,0.24001 -10,4.96001 -10.56,10.88c-0.56,5.92 4.95996,12.32001 4.39996,12.96001c-0.56,0.64 -1.12,0.31999 -1.12,0.31999z"/>
   <path fill="none" stroke="#ffffff" stroke-width="1px" id="path4055" d="m623.23999,174.60001c-1.20001,-5.87999 -1.91998,-8.59999 -1.91998,-8.59999"/>
   <path fill="none" stroke="#ffffff" stroke-width="1px" id="path4057" d="m613.91998,168.60001c1.44,0.84 9.15997,5.44 9.15997,5.44"/>
   <path fill="none" stroke="#ffffff" stroke-width="1px" id="path4059" d="m616.40002,174.56c6.16425,-0.04984 6.59998,-0.56 6.59998,-0.56"/>
   <path fill="none" stroke="#ffffff" stroke-width="1px" id="path4061" d="m628.15997,180.88c-5.20001,-5.48001 -5.03998,-6.64 -5.03998,-6.64"/>
   <path fill="none" stroke="#ffffff" stroke-width="1px" id="path4063" d="m631.23999,174.03999c-1.56,0.52 -8.32001,0.03999 -8.32001,0.03999"/>
   <path fill="none" stroke="#ffffff" stroke-width="1px" id="path4065" d="m618.91998,178.2c3.40002,-3 3.64423,-3.68983 3.64423,-3.68983"/>
   <path fill="none" stroke="#ffffff" stroke-width="1px" id="path4067" d="m626.52002,170.67999c-3.20001,3.36 -3.52002,3.48 -3.52002,3.48"/>
   <path fill="#ffffff" fill-rule="nonzero" d="m622.43994,166.59999a1.28,1.28 0 1 1 -2.56,0a1.28,1.28 0 1 1 2.56,0z" id="path4069"/>
   <path fill="#ffffff" fill-rule="nonzero" d="m615.28003,168.8a1.08,1.08 0 1 1 -2.15997,0a1.08,1.08 0 1 1 2.15997,0z" id="path4073"/>
   <path fill="#ffffff" fill-rule="nonzero" d="m632.60004,174.23999a1.32,1.32 0 1 1 -2.64001,0a1.32,1.32 0 1 1 2.64001,0z" id="path4075"/>
   <path fill="#ffffff" fill-rule="nonzero" d="m627.39996,170.95999a1.04,1.04 0 1 1 -2.08002,0a1.04,1.04 0 1 1 2.08002,0z" id="path4077"/>
   <path fill="#ffffff" fill-rule="nonzero" d="m629,180.75999a1.16,1.16 0 1 1 -2.32001,0a1.16,1.16 0 1 1 2.32001,0z" id="path4079"/>
   <path fill="#ffffff" fill-rule="nonzero" d="m620.44,178.28a1.32,1.32 0 1 1 -2.64001,0a1.32,1.32 0 1 1 2.64001,0z" id="path4081"/>
   <path fill="#ffffff" fill-rule="nonzero" d="m618.23999,174.56a1.6,1.6 0 1 1 -3.20001,0a1.6,1.6 0 1 1 3.20001,0z" id="path4083"/>
  </g>
  <g id="layer13">
   <path fill="#ffffff" fill-opacity="0.19816" id="path4086" d="m623.67999,260.64001c-13.76001,-12 -7.67999,-30.39999 -4.15997,-33.75999c3.51996,-3.36 8.95996,-4.64 12,1.44c3.03998,6.08 2.56,7.2 4.31995,6.39999c1.76001,-0.8 14.40002,-12.95999 19.20001,-12c4.79999,0.96001 13.12,0.96001 10.23999,14.08c-2.88,13.12 -4.95996,19.84 -4.32001,20c0.64001,0.16 10.24005,-0.79999 14.72003,1.92001c4.47998,2.72 8.79999,0.79999 8.64001,2.87997c-0.16003,2.08002 0.15997,4.64001 -0.64001,7.20001c-0.79999,2.56 3.03998,4.79999 0.15997,5.28c-2.88,0.48001 -5.12,5.44 -8.63995,5.92001c-3.52002,0.47998 -9.28003,-0.16 -9.28003,1.28c0,1.44 6.40002,2.39999 7.84003,5.75998c1.44,3.36002 3.19995,4.96002 2.23999,6.08002c-0.96002,1.12 -7.84003,6.39999 -13.91998,3.19998c-6.08002,-3.19998 -7.36005,0.64001 -10.08002,-0.63998c-2.72003,-1.28 -2.40002,-7.67999 -8.32001,-10.08002c-5.91998,-2.39999 -12.79999,-1.75998 -15.67999,-8.63998c-2.88,-6.88 -2.08002,-13.28 -4.32001,-16.32001z"/>
   <path fill="none" stroke="#ffffff" stroke-width="1px" id="path4088" d="m638.40002,269.76001c0,0 18.56,-11.35999 22,-11.51999"/>
   <path fill="none" stroke="#ffffff" stroke-width="1px" id="path4090" d="m650,256.16c-5.52002,2.95999 -10.23999,11.35999 -11.35999,13.12"/>
   <path fill="none" stroke="#ffffff" stroke-width="1px" id="path4092" d="m634.15997,253.03999c0.32001,2 3.52002,15.52 4.47998,16.48"/>
   <path fill="none" stroke="#ffffff" stroke-width="1px" id="path4094" d="m657.12,269.12c-6.32001,0.95999 -18.56,0.23999 -18.56,0.23999"/>
   <path fill="none" stroke="#ffffff" stroke-width="1px" id="path4096" d="m645.20001,271.84c-3.76001,-0.88 -6.23999,-2.39999 -6.23999,-2.39999"/>
   <path fill="none" stroke="#ffffff" stroke-width="1px" id="path4098" d="m646.64001,263.51999c0,0 -6.64001,3.92001 -7.76001,5.67999"/>
   <path fill="#ffffff" fill-rule="nonzero" d="m636.07996,253.12a2.16,2.16 0 1 1 -4.32001,0a2.16,2.16 0 1 1 4.32001,0z" id="path4100"/>
   <path fill="#ffffff" fill-rule="nonzero" d="m651.84003,255.92a2.32,2.32 0 1 1 -4.64001,0a2.32,2.32 0 1 1 4.64001,0z" id="path4102"/>
   <path fill="#ffffff" fill-rule="nonzero" d="m662.48004,258.32001a2.08,2.08 0 1 1 -4.15997,0a2.08,2.08 0 1 1 4.15997,0z" id="path4104"/>
   <path fill="#ffffff" fill-rule="nonzero" d="m648,263.67999a1.84,1.84 0 1 1 -3.67999,0a1.84,1.84 0 1 1 3.67999,0z" id="path4106"/>
   <path fill="#ffffff" fill-rule="nonzero" d="m658.56,269.67999a2.24,2.24 0 1 1 -4.47998,0a2.24,2.24 0 1 1 4.47998,0z" id="path4108"/>
   <path fill="#ffffff" fill-rule="nonzero" d="m647.12,271.91998a2.24,2.24 0 1 1 -4.47998,0a2.24,2.24 0 1 1 4.47998,0z" id="path4110"/>
  </g>
  <g id="layer14">
   <path fill="#ffffff" fill-opacity="0.19816" id="path4113" d="m739.35083,291.32138c-13.91583,-2.82843 -8.03271,-17.30997 -7.01453,-19.00702c1.01825,-1.69708 5.3175,-2.48904 6.2226,-3.28101c0.90509,-0.79193 -3.73352,-9.72977 3.28094,-15.38663c7.01453,-5.65686 18.89392,2.37589 21.26978,3.84665c2.37585,1.47079 3.73352,-1.81018 9.50354,-1.24451c5.76996,0.5657 13.68958,3.16785 12.67133,10.06921c-1.01825,6.90137 3.28094,6.56195 0.33942,9.50351c-2.94159,2.94156 -5.88312,1.13138 -5.4306,2.94156c0.45258,1.81021 5.77002,8.37216 3.73352,13.35019c-2.03644,4.97803 -7.12762,8.37213 -11.65308,8.259c-4.52551,-0.11313 -7.46704,-2.48901 -9.6167,-1.35764c-2.1496,1.13135 -2.37585,7.35391 -9.8429,6.10941c-7.46704,-1.24454 -12.05585,-2.3396 -12.39526,-8.33588c-0.33942,-5.99625 -1.06805,-5.46686 -1.06805,-5.46686z"/>
   <path fill="#ffffff" fill-rule="nonzero" d="m755.44,282.32001a1.68,1.68 0 1 1 -3.35999,0a1.68,1.68 0 1 1 3.35999,0z" id="path4115"/>
   <path fill="#ffffff" fill-rule="nonzero" d="m758.08002,283.60001a1.44,1.44 0 1 1 -2.88,0a1.44,1.44 0 1 1 2.88,0z" id="path4117"/>
   <path fill="#ffffff" fill-rule="nonzero" d="m753.91998,278.72a0.88,0.88 0 1 1 -1.76001,0a0.88,0.88 0 1 1 1.76001,0z" id="path4121"/>
   <path fill="#ffffff" fill-rule="nonzero" d="m756.47998,276a1.04,1.04 0 1 1 -2.08002,0a1.04,1.04 0 1 1 2.08002,0z" id="path4123"/>
   <path fill="#ffffff" fill-rule="nonzero" d="m757.92004,275.04001a0.4,0.64721 0 1 1 -0.79999,0a0.4,0.64721 0 1 1 0.79999,0z" id="path4125"/>
   <path fill="#ffffff" fill-rule="nonzero" d="m760.39996,276.32001a1.6,1.6 0 1 1 -3.20001,0a1.6,1.6 0 1 1 3.20001,0z" id="path4129"/>
   <path fill="#ffffff" fill-rule="nonzero" d="m758.15997,279.35999a1.68,1.68 0 1 1 -3.35999,0a1.68,1.68 0 1 1 3.35999,0z" id="path4131"/>
   <path fill="#ffffff" fill-rule="nonzero" d="m760.95996,280.16a1.04,1.04 0 1 1 -2.08002,0a1.04,1.04 0 1 1 2.08002,0z" id="path4133"/>
   <path fill="#ffffff" fill-rule="nonzero" d="m764.15997,279.20001a1.28,1.28 0 1 1 -2.56,0a1.28,1.28 0 1 1 2.56,0z" id="path4135"/>
   <path fill="#ffffff" fill-rule="nonzero" d="m762.08002,276.72a1.12,1.12 0 1 1 -2.23999,0a1.12,1.12 0 1 1 2.23999,0z" id="path4137"/>
  </g>
  <g id="layer15">
   <path fill="#ffffff" fill-opacity="0.2" id="path4140" d="m797.5033,223.32599c2.94159,-19.57272 16.51801,-20.47781 19.23334,-19.68585c2.71527,0.79196 7.6933,7.12764 4.86487,14.14214c-2.82843,7.0145 -14.02899,14.25528 -14.48157,14.48155c-0.45251,0.22627 6.56195,-4.07294 12.21881,-3.28099c5.65686,0.79196 12.33197,4.63863 13.80273,9.39038c1.47076,4.75177 -0.22626,12.21881 -8.14587,13.01077c-7.91956,0.79196 -15.71112,-0.008 -18.65271,-6.45686c-2.94153,-6.44881 -0.02393,2.68922 0.65491,3.8206c0.67883,1.13136 2.89398,5.40813 0.9707,12.87517c-1.92334,7.46704 -3.11127,10.91772 -8.20245,10.91772c-5.09119,0 -13.35016,-8.03271 -14.14215,-15.2735c-0.79193,-7.24078 2.26276,-11.08743 3.3941,-12.7845c1.13141,-1.69705 -2.82843,0.90511 -4.29919,2.37589c-1.47076,1.47078 -8.93781,4.8649 -12.78448,4.29921c-3.84668,-0.56569 -12.33197,-2.26274 -12.33197,-13.01076c0,-10.74803 13.23706,-11.87941 16.51807,-11.42686c3.28094,0.45256 15.49976,4.5255 15.49976,4.5255c0,0 -13.80273,-4.63863 -15.49976,-8.82471c-1.69708,-4.18607 -0.45258,-17.19682 0.22626,-19.45958c0.67883,-2.26274 5.20428,-6.10939 8.48529,-4.86488c3.28094,1.24451 11.99249,8.37215 12.33191,17.53625c0.33942,9.16409 0.33942,7.69331 0.33942,7.69331z"/>
   <path fill="none" stroke="#ffffff" stroke-width="1px" id="path4142" d="m798.57813,234.8094c1.6405,0.05659 9.8429,-1.0748 9.8429,-1.0748"/>
   <path fill="none" stroke="#ffffff" stroke-width="1px" id="path4144" d="m803.72583,228.7c-1.30109,0.62227 -4.69519,6.05284 -4.69519,6.05284"/>
   <path fill="none" stroke="#ffffff" stroke-width="1px" id="path4146" d="m795.97595,226.15442c1.13135,1.24451 3.28101,8.59842 3.28101,8.59842"/>
   <path fill="none" stroke="#ffffff" stroke-width="1px" id="path4148" d="m799.31354,242.38959c-1.35767,-3.22441 -0.16968,-7.69331 -0.16968,-7.69331"/>
   <path fill="none" stroke="#ffffff" stroke-width="1px" id="path4150" d="m793.14752,246.06654c0.28284,-4.24265 5.99628,-11.59656 5.99628,-11.59656"/>
   <path fill="none" stroke="#fefefe" stroke-width="1px" id="path4152" d="m789.69684,238.03381c1.07483,-1.13138 9.3338,-3.22441 9.3338,-3.22441"/>
   <path fill="none" stroke="#ffffff" stroke-width="1px" id="path4154" d="m789.75342,234.24371c9.27722,0.05659 9.05096,0.50911 9.05096,0.50911"/>
   <path fill="none" stroke="#ffffff" stroke-width="1px" id="path4156" d="m792.69501,231.58501c3.7901,1.24451 6.61853,3.11127 6.61853,3.11127"/>
   <path fill="none" stroke="#ffffff" stroke-width="1px" id="path4158" d="m804.6875,243.52097c-1.47076,-1.69705 -5.9397,-8.65498 -5.9397,-8.65498"/>
   <path fill="#ffffff" fill-rule="nonzero" d="m794.39203,246.17969a1.18794,1.18794 0 1 1 -2.37585,0a1.18794,1.18794 0 1 1 2.37585,0z" id="path4160"/>
   <path fill="#ffffff" fill-rule="nonzero" d="m805.81885,243.12498a1.47078,1.47078 0 1 1 -2.94159,0a1.47078,1.47078 0 1 1 2.94159,0z" id="path4162"/>
   <path fill="#ffffff" fill-rule="nonzero" d="m800.38831,242.38959a1.41421,1.41421 0 1 1 -2.82843,0a1.41421,1.41421 0 1 1 2.82843,0z" id="path4164"/>
   <path fill="#ffffff" fill-rule="nonzero" d="m790.94141,237.86411a1.35765,1.35765 0 1 1 -2.71527,0a1.35765,1.35765 0 1 1 2.71527,0z" id="path4166"/>
   <path fill="#ffffff" fill-rule="nonzero" d="m791.28082,234.35686a1.35765,1.35765 0 1 1 -2.71527,0a1.35765,1.35765 0 1 1 2.71527,0z" id="path4168"/>
   <path fill="#ffffff" fill-rule="nonzero" d="m809.77869,233.7346a1.52735,1.52735 0 1 1 -3.05469,0a1.52735,1.52735 0 1 1 3.05469,0z" id="path4170"/>
   <path fill="#ffffff" fill-rule="nonzero" d="m794.9577,231.69814a1.75362,1.75362 0 1 1 -3.50726,0a1.75362,1.75362 0 1 1 3.50726,0z" id="path4172"/>
   <path fill="#ffffff" fill-rule="nonzero" d="m797.55988,226.15442a1.18794,1.18794 0 1 1 -2.37585,0a1.18794,1.18794 0 1 1 2.37585,0z" id="path4174"/>
   <path fill="#ffffff" fill-rule="nonzero" d="m804.5744,228.75658a1.24451,1.24451 0 1 1 -2.48901,0a1.24451,1.24451 0 1 1 2.48901,0z" id="path4176"/>
   <path fill="#ffffff" fill-opacity="0.1106" id="path4178" d="m-23.98506,257.49338c28.96309,-5.20432 49.78031,16.51801 49.78031,16.51801c0,0 0.28285,0.28287 0.39598,0.50912c0.11314,0.22626 -5.93969,-0.67883 -6.1094,-0.16971c-0.1697,0.50912 6.05284,8.76813 3.84666,13.97244c-2.20617,5.20428 -10.2389,6.27908 -13.01076,4.4689c-2.77186,-1.81018 -2.99814,-1.86676 -3.62039,-0.96167c-0.62225,0.90509 -2.31931,3.84668 -5.60029,4.35577c-3.28097,0.50912 -9.67322,0.5657 -9.67322,0.5657l-16.00889,-39.25858z"/>
  </g>
  <g id="layer17">
   <path fill="#ffffff" fill-opacity="0.09677" id="path4254" d="m510.07855,214.67101c39.59796,-28.96309 124.8468,-43.38806 140.45972,-43.61435c15.61292,-0.22627 57.02106,1.8102 60.1889,2.48901c3.16785,0.67883 4.52551,6.10941 2.71527,6.56195c-1.81018,0.45255 -61.02319,-5.17786 -73.31281,-2.26274c-12.28961,2.91512 -51.13794,12.21881 -69.9187,25.11644c-18.78076,12.89761 -34.39368,19.0636 -34.39368,19.0636c-10.07739,-4.70943 -17.91071,-6.70331 -25.73871,-7.35391z"/>
  </g>
  <g display="inline" id="layer16">
   <path fill="#ffffff" fill-opacity="0.1106" fill-rule="nonzero" d="m586.61261,404.18591a12.44183,14.00637 0 1 1 -24.88367,-16.1991a12.44183,14.00637 0 1 1 24.88367,16.1991z" id="path4181-4"/>
   <path fill="#ffffff" fill-opacity="0.1106" id="path4202" d="m59.71875,359.21875c-11.56201,0.04047 -27.57375,6.20874 -34.59375,16.46875c-8.32,12.16 -9.9325,26.07874 -0.8125,30.71875c5.29903,2.69601 6.48935,2.66302 7.25,2.59375c4.90084,-5.16177 11.55496,-9.44348 17.25,-12.6875c11.71784,-6.67471 23.42565,-19.78696 27.75,-25.875c-3.80791,-6.51111 -10.96875,-10.59375 -10.96875,-10.59375c-1.75,-0.42499 -3.73389,-0.63251 -5.875,-0.625z"/>
   <path fill="#ffffff" fill-opacity="0.19355" id="path4226" d="m118.88,316.48001c-17.12,12.16 -13.75999,34.07999 -9.75999,41.28c4,7.20001 9.6,15.20001 16.8,13.28c7.2,-1.92001 10.24001,-6.07999 11.68001,-6.39999c1.43999,-0.32001 -1.28,3.51999 1.75999,2.39999c3.03999,-1.12 13.92,-5.28 13.28,-18.88c-0.64,-13.60001 -1.28,-22.39999 -14.56,-28.63998c-13.28,-6.24002 -19.2,-3.04001 -19.2,-3.04001z"/>
   <path fill="#ffffff" fill-opacity="0.07834" id="path4228" d="m109.12,299.64999c2.71999,8.07999 13.43999,26.19 13.6,29.31c0.16,3.12 -0.08,4.72 -2.32,4.48001c-2.24,-0.24002 -16.96301,-26.02985 -16.11,-27.11002c0.35723,-0.45236 5.63821,-6.10065 4.83,-6.67999z"/>
   <path fill="#ffffff" fill-opacity="0.19355" id="path4230" d="m632.88885,377.4187c13.35016,-13.68961 25.62769,-5.10751 27.03979,-3.05469c2.86389,4.16333 7.75391,13.87994 4.04877,27.10269c-0.65753,2.34668 -15.74542,6.35037 -22.53369,3.18256c-6.78821,-3.16785 -14.87592,-6.7941 -12.74097,-17.16135c1.44336,-7.00864 4.1861,-10.06921 4.1861,-10.06921z"/>
   <path fill="#ffffff" fill-opacity="0.19355" id="path4250" d="m633.35999,377.67999c10.08002,-6.72 15.76001,-3.92001 17.44,-2.08002c1.67999,1.84003 8,12.64001 8.40002,16.08002c0.39996,3.44 1.19995,8 0.63995,8.39999c-0.56,0.39999 -7.83997,4 -17.91998,0.16c-10.08002,-3.84 -12.56,-5.84 -12.23999,-11.76001c0.32001,-5.91998 3.67999,-10.79999 3.67999,-10.79999z"/>
   <path fill="#ffffff" fill-opacity="0.19355" id="path4252" d="m607.06531,368.79199c3.36584,-0.59396 22.59912,5.62857 24.91846,6.70337c2.31927,1.0748 1.888,0.96167 1.888,0.96167c-1.56012,1.30936 -2.10596,2.64661 -2.87793,4.00928c-1.81024,-0.70709 -19.44653,-4.38208 -20.64752,-6.18716c-0.51508,-0.77411 -3.06561,-5.51559 -3.28101,-5.48715z"/>
   <path fill="#ffffff" fill-opacity="0.20276" id="path4260" d="m701.28003,171.52c11.35999,-15.68001 27.20001,-12.16 30.88,-9.12001c3.67999,3.04001 18.90613,18.02124 3.35999,31.84001c-14.39996,12.79999 -23.83997,13.59999 -32,6.72c-10.17566,-8.5795 -4.95996,-20.95999 -3.67999,-25.12001c1.28003,-4.16 1.44,-4.31999 1.44,-4.31999z"/>
   <path fill="#ffffff" fill-opacity="0.10599" id="path4262" d="m897.28003,242.72c10.23999,-7.2 -5.91998,-16.48 -12.56,-15.92c-6.64001,0.56 -12.64001,-0.48 -16.72003,8.95999c-4.07996,9.44 -1.75995,17.52 -1.12,18.48001c0.64001,0.95999 1.04004,2.31999 -0.47998,2.87999c-1.52002,0.56 -8.08002,5.76001 -9.52002,7.20001c-1.44,1.44 -3.27997,3.84 -3.27997,3.84l6.39996,2.72c0,0 7.52002,-12.08002 9.84003,-12.23999c2.32001,-0.16 5.44,4.56 11.44,4.15997c6,-0.39999 9.84003,-0.47998 14.32001,-4.87997c4.47998,-4.40001 4.88,-6.88002 4.32001,-9.04001c-0.56,-2.16 -2.64001,-6.16 -2.64001,-6.16z"/>
   <path fill="#ffffff" fill-opacity="0.10599" id="path4264" d="m897.91998,240.8c-1.67999,-9.76001 -11.91998,-8.32001 -14.96002,-7.44c-3.03998,0.88 -11.91998,6.8 -12.71997,18.24001c-0.79999,11.44 21.12,8.72 24,6.56c2.88,-2.16 6.15997,-5.36 5.44,-8.32001c-0.72003,-2.95999 -2.64001,-4.95999 -2.64001,-6.39999c0,-1.44 0.88,-2.64 0.88,-2.64z"/>
   <path fill="#ffffff" fill-opacity="0.20276" id="path4266" d="m891.95862,299.04297c1.01825,2.1496 6.06696,4.89319 8.04688,7.66504c1.97992,2.77185 4.86487,3.95981 3.67694,12.84106c-1.18793,8.88126 -1.01819,12.0491 -6.22253,14.25528c-5.20428,2.20618 -5.60028,5.09116 -11.93597,2.88498c-6.33563,-2.20615 -10.57831,-8.59842 -11.53998,-10.57831c-0.96167,-1.97989 -1.01819,-14.70782 2.94159,-19.12018c3.95978,-4.41232 8.60229,-8.89328 11.52582,-8.47113c0.83417,0.12045 2.75775,0.43475 3.50726,0.52325z"/>
  </g>
  <g opacity="0.25292" display="inline" filter="url(#filter6490)" id="layer18">
   <path fill="none" stroke="#000000" stroke-width="1px" id="path4269" d="m-33.03603,441.00174c37.56151,28.05801 47.06503,33.03604 88.24693,19.45959c41.1819,-13.57648 141.64762,-59.73639 187.355,-133.50177c45.70738,-73.76538 98.07433,-108.00467 104.08614,-110.4218c2.74356,-1.10309 5.91141,-2.06474 5.91141,-2.06474"/>
   <path fill="none" stroke="#ffffff" stroke-width="2.5" stroke-linecap="round" stroke-linejoin="round" stroke-miterlimit="4" stroke-dashoffset="0" marker-start="none" marker-end="none" d="m-33.03603,441.00174c37.56151,28.05801 47.09261,33.11942 88.24693,19.45959c41.13745,-13.65424 138.5619,-65.13644 187.355,-133.50177c50.41209,-70.6337 98.07433,-108.00467 104.08614,-110.4218c2.74356,-1.10309 5.91141,-2.06474 5.91141,-2.06474" id="path4284"/>
  </g>
 </g>
</svg>