<?xml version="1.0" encoding="UTF-8" standalone="no"?>
<!-- Created with Inkscape (http://www.inkscape.org/) -->

<svg
   xmlns:dc="http://purl.org/dc/elements/1.1/"
   xmlns:cc="http://creativecommons.org/ns#"
   xmlns:rdf="http://www.w3.org/1999/02/22-rdf-syntax-ns#"
   xmlns:svg="http://www.w3.org/2000/svg"
   xmlns="http://www.w3.org/2000/svg"
   xmlns:xlink="http://www.w3.org/1999/xlink"
   xmlns:sodipodi="http://sodipodi.sourceforge.net/DTD/sodipodi-0.dtd"
   xmlns:inkscape="http://www.inkscape.org/namespaces/inkscape"
   width="1920px"
   height="1080px"
   id="svg2985"
   version="1.1"
   inkscape:version="0.48.4 r9939"
   sodipodi:docname="Bionick.svg">
  <defs
     id="defs2987">
    <linearGradient
       id="linearGradient4040">
      <stop
         id="stop4052"
         offset="0"
         style="stop-color:#ffffff;stop-opacity:0.54509804;" />
      <stop
         style="stop-color:#ffffff;stop-opacity:0.31764706;"
         offset="0.67073172"
         id="stop4054" />
      <stop
         style="stop-color:#ffffff;stop-opacity:0.08947369;"
         offset="1"
         id="stop4044" />
    </linearGradient>
    <linearGradient
       id="linearGradient4009">
      <stop
         style="stop-color:#ffffff;stop-opacity:1;"
         offset="0"
         id="stop4011" />
      <stop
         style="stop-color:#ffffff;stop-opacity:0;"
         offset="1"
         id="stop4013" />
    </linearGradient>
    <linearGradient
       id="linearGradient3995">
      <stop
         style="stop-color:#ffffff;stop-opacity:0.12105263;"
         offset="0"
         id="stop3997" />
      <stop
         id="stop4007"
         offset="0.125"
         style="stop-color:#ffffff;stop-opacity:0.21568627;" />
      <stop
         id="stop4005"
         offset="0.25"
         style="stop-color:#ffffff;stop-opacity:0.30980392;" />
      <stop
         id="stop4003"
         offset="0.5"
         style="stop-color:#ffffff;stop-opacity:0.49803922;" />
      <stop
         style="stop-color:#ffffff;stop-opacity:1;"
         offset="1"
         id="stop3999" />
    </linearGradient>
    <linearGradient
       id="linearGradient3983">
      <stop
         style="stop-color:#ffffff;stop-opacity:0.7631579;"
         offset="0"
         id="stop3985" />
      <stop
         id="stop3993"
         offset="0.5"
         style="stop-color:#ffffff;stop-opacity:0.07894737;" />
      <stop
         style="stop-color:#ffffff;stop-opacity:0;"
         offset="1"
         id="stop3987" />
    </linearGradient>
    <linearGradient
       inkscape:collect="always"
       xlink:href="#linearGradient3983"
       id="linearGradient3991"
       x1="1320.5625"
       y1="358.78125"
       x2="1599.6875"
       y2="358.78125"
       gradientUnits="userSpaceOnUse"
       gradientTransform="translate(186.66667,-8.3333333)" />
    <linearGradient
       inkscape:collect="always"
       xlink:href="#linearGradient3995"
       id="linearGradient4001"
       x1="1079.6875"
       y1="124.65625"
       x2="1322.6248"
       y2="124.65625"
       gradientUnits="userSpaceOnUse"
       gradientTransform="translate(186.66667,-8.3333333)" />
    <linearGradient
       inkscape:collect="always"
       xlink:href="#linearGradient4009"
       id="linearGradient4015"
       x1="960.71875"
       y1="184.92188"
       x2="1088.4062"
       y2="184.92188"
       gradientUnits="userSpaceOnUse"
       gradientTransform="translate(186.66667,-8.3333333)" />
    <radialGradient
       inkscape:collect="always"
       xlink:href="#linearGradient4040"
       id="radialGradient4046"
       cx="374.10934"
       cy="861.82812"
       fx="374.10934"
       fy="861.82812"
       r="296.23434"
       gradientTransform="matrix(1,0,0,0.48499389,0,443.84674)"
       gradientUnits="userSpaceOnUse" />
    <radialGradient
       inkscape:collect="always"
       xlink:href="#linearGradient4040"
       id="radialGradient4048"
       cx="401.65625"
       cy="1031.6562"
       fx="401.65625"
       fy="1031.6562"
       r="45.25"
       gradientTransform="matrix(1,0,0,0.59875691,0,413.94495)"
       gradientUnits="userSpaceOnUse" />
    <radialGradient
       inkscape:collect="always"
       xlink:href="#linearGradient4040"
       id="radialGradient4050"
       cx="72.765625"
       cy="1030.2968"
       fx="72.765625"
       fy="1030.2968"
       r="102.48438"
       gradientTransform="matrix(1,0,0,0.59262058,0,419.72173)"
       gradientUnits="userSpaceOnUse" />
  </defs>
  <sodipodi:namedview
     id="base"
     pagecolor="#ffffff"
     bordercolor="#666666"
     borderopacity="1.0"
     inkscape:pageopacity="0.0"
     inkscape:pageshadow="2"
     inkscape:zoom="0.3"
     inkscape:cx="470.66091"
     inkscape:cy="618.89271"
     inkscape:document-units="px"
     inkscape:current-layer="layer2"
     showgrid="false"
     inkscape:snap-center="true"
     inkscape:snap-object-midpoints="true"
     inkscape:object-nodes="true"
     inkscape:object-paths="true"
     inkscape:snap-intersection-paths="true"
     inkscape:snap-smooth-nodes="true"
     inkscape:snap-midpoints="true"
     inkscape:window-width="1852"
     inkscape:window-height="1057"
     inkscape:window-x="-8"
     inkscape:window-y="-8"
     inkscape:window-maximized="1" />
  <metadata
     id="metadata2990">
    <rdf:RDF>
      <cc:Work
         rdf:about="">
        <dc:format>image/svg+xml</dc:format>
        <dc:type
           rdf:resource="http://purl.org/dc/dcmitype/StillImage" />
        <dc:title></dc:title>
      </cc:Work>
    </rdf:RDF>
  </metadata>
  <g
     id="layer1"
     inkscape:label="Layer 1"
     inkscape:groupmode="layer"
     sodipodi:insensitive="true"
     style="display:none">
    <rect
       style="fill:#3d0606;fill-opacity:0.78538812;fill-rule:nonzero;stroke:#000000;stroke-width:1;stroke-linecap:round;stroke-linejoin:round;stroke-miterlimit:4;stroke-opacity:1;stroke-dasharray:none;stroke-dashoffset:0"
       id="rect2996"
       width="2950"
       height="1603.3334"
       x="-760"
       y="-286.66666" />
  </g>
  <g
     inkscape:groupmode="layer"
     id="layer2"
     inkscape:label="Слой"
     style="display:inline">
    <path
       sodipodi:type="arc"
       style="fill:#ffffff;fill-opacity:0.11415525;fill-rule:nonzero;stroke:none"
       id="path3850"
       sodipodi:cx="1322.2897"
       sodipodi:cy="214.9727"
       sodipodi:rx="23.570227"
       sodipodi:ry="23.570227"
       d="m 1345.8599,214.9727 a 23.570227,23.570227 0 1 1 -47.1405,0 23.570227,23.570227 0 1 1 47.1405,0 z"
       transform="matrix(1.3889087,0,0,1.3889087,-327.58331,-91.938091)" />
    <path
       style="font-size:medium;font-style:normal;font-variant:normal;font-weight:normal;font-stretch:normal;text-indent:0;text-align:start;text-decoration:none;line-height:normal;letter-spacing:normal;word-spacing:normal;text-transform:none;direction:ltr;block-progression:tb;writing-mode:lr-tb;text-anchor:start;baseline-shift:baseline;color:#000000;fill:url(#linearGradient3991);fill-opacity:1;stroke:none;stroke-width:2;marker:none;visibility:visible;display:inline;overflow:visible;enable-background:accumulate;font-family:Sans;-inkscape-font-specification:Sans"
       d="m 1785.4792,71.385417 -276.9687,134.343753 -1.2813,0.625 1.0313,1 232.5,226.65625 -178.1876,136 -1.5312,1.15625 1.8125,0.59375 181.5,57.75 0.5937,-1.90625 -179.6562,-57.15625 177.625,-135.5625 0.9062,-0.6875 -0.8124,-0.8125 -232.3126,-226.46875 275.6563,-133.718753 -0.875,-1.8125 z"
       id="path3852"
       inkscape:connector-curvature="0" />
    <path
       style="font-size:medium;font-style:normal;font-variant:normal;font-weight:normal;font-stretch:normal;text-indent:0;text-align:start;text-decoration:none;line-height:normal;letter-spacing:normal;word-spacing:normal;text-transform:none;direction:ltr;block-progression:tb;writing-mode:lr-tb;text-anchor:start;baseline-shift:baseline;color:#000000;fill:url(#linearGradient4001);fill-opacity:1;stroke:none;stroke-width:2;marker:none;visibility:visible;display:inline;overflow:visible;enable-background:accumulate;font-family:Sans;-inkscape-font-specification:Sans"
       d="m 1268.3542,25.072917 -2,0.15625 7.0937,99.000003 0.031,0.625 0.625,0.21875 234.5313,82.5 0.6562,-1.875 -233.9375,-82.28125 -7,-98.343753 z"
       id="path3854"
       inkscape:connector-curvature="0" />
    <path
       style="font-size:medium;font-style:normal;font-variant:normal;font-weight:normal;font-stretch:normal;text-indent:0;text-align:start;text-decoration:none;line-height:normal;letter-spacing:normal;word-spacing:normal;text-transform:none;direction:ltr;block-progression:tb;writing-mode:lr-tb;text-anchor:start;baseline-shift:baseline;color:#000000;fill:url(#linearGradient4015);fill-opacity:1;stroke:none;stroke-width:2;marker:none;visibility:visible;display:inline;overflow:visible;enable-background:accumulate;font-family:Sans;-inkscape-font-specification:Sans"
       d="m 1273.7917,123.38542 -126.4063,104.875 1.2813,1.53125 126.4062,-104.875 -1.2812,-1.53125 z"
       id="path3856"
       inkscape:connector-curvature="0" />
    <path
       style="font-size:medium;font-style:normal;font-variant:normal;font-weight:normal;font-stretch:normal;text-indent:0;text-align:start;text-decoration:none;line-height:normal;letter-spacing:normal;word-spacing:normal;text-transform:none;direction:ltr;block-progression:tb;writing-mode:lr-tb;text-anchor:start;baseline-shift:baseline;color:#000000;fill:#ffffff;fill-opacity:0.086758;stroke:none;stroke-width:2;marker:none;visibility:visible;display:inline;overflow:visible;enable-background:accumulate;font-family:Sans;-inkscape-font-specification:Sans"
       d="m 1507.9479,205.44792 0,1.1875 1.0626,199.6875 -88.1563,118.09375 1.625,1.1875 88.3125,-118.34375 0.2188,-0.25 0,-0.34375 -1.0626,-198.8125 151.5313,26.46875 0.2187,0.0312 0.1876,-0.0312 80,-16.6875 -0.4376,-1.9375 -79.8124,16.625 -152.5,-26.65625 -1.1876,-0.21875 z"
       id="path3858"
       inkscape:connector-curvature="0" />
    <path
       transform="matrix(0.71715729,0,0,0.71715729,793.37699,62.497426)"
       sodipodi:type="arc"
       style="fill:#ffffff;fill-opacity:0.08627451;fill-rule:nonzero;stroke:none"
       id="path3850-9"
       sodipodi:cx="1322.2897"
       sodipodi:cy="214.9727"
       sodipodi:rx="23.570227"
       sodipodi:ry="23.570227"
       d="m 1345.8599,214.9727 a 23.570227,23.570227 0 1 1 -47.1405,0 23.570227,23.570227 0 1 1 47.1405,0 z" />
    <path
       transform="matrix(0.71715729,0,0,0.71715729,713.37699,79.164097)"
       sodipodi:type="arc"
       style="fill:#ffffff;fill-opacity:0.08627451;fill-rule:nonzero;stroke:none"
       id="path3850-9-4"
       sodipodi:cx="1322.2897"
       sodipodi:cy="214.9727"
       sodipodi:rx="23.570227"
       sodipodi:ry="23.570227"
       d="m 1345.8599,214.9727 a 23.570227,23.570227 0 1 1 -47.1405,0 23.570227,23.570227 0 1 1 47.1405,0 z" />
    <path
       transform="matrix(0.71715729,0,0,0.71715729,837.61679,-81.880158)"
       sodipodi:type="arc"
       style="fill:#ffffff;fill-opacity:0.2745098;fill-rule:nonzero;stroke:none"
       id="path3850-9-8"
       sodipodi:cx="1322.2897"
       sodipodi:cy="214.9727"
       sodipodi:rx="23.570227"
       sodipodi:ry="23.570227"
       d="m 1345.8599,214.9727 a 23.570227,23.570227 0 1 1 -47.1405,0 23.570227,23.570227 0 1 1 47.1405,0 z" />
    <path
       transform="matrix(0.71715729,0,0,0.71715729,796.36889,474.37718)"
       sodipodi:type="arc"
       style="fill:#ffffff;fill-opacity:0.27000001;fill-rule:nonzero;stroke:none"
       id="path3850-9-82"
       sodipodi:cx="1322.2897"
       sodipodi:cy="214.9727"
       sodipodi:rx="23.570227"
       sodipodi:ry="23.570227"
       d="m 1345.8599,214.9727 a 23.570227,23.570227 0 1 1 -47.1405,0 23.570227,23.570227 0 1 1 47.1405,0 z" />
    <path
       transform="matrix(0.71715729,0,0,0.71715729,614.87819,416.63013)"
       sodipodi:type="arc"
       style="fill:#ffffff;fill-opacity:0.11415525;fill-rule:nonzero;stroke:none"
       id="path3850-9-45"
       sodipodi:cx="1322.2897"
       sodipodi:cy="214.9727"
       sodipodi:rx="23.570227"
       sodipodi:ry="23.570227"
       d="m 1345.8599,214.9727 a 23.570227,23.570227 0 1 1 -47.1405,0 23.570227,23.570227 0 1 1 47.1405,0 z" />
    <path
       transform="matrix(0.71715729,0,0,0.71715729,794.01189,279.92282)"
       sodipodi:type="arc"
       style="fill:#ffffff;fill-opacity:0.27000001;fill-rule:nonzero;stroke:none"
       id="path3850-9-5"
       sodipodi:cx="1322.2897"
       sodipodi:cy="214.9727"
       sodipodi:rx="23.570227"
       sodipodi:ry="23.570227"
       d="m 1345.8599,214.9727 a 23.570227,23.570227 0 1 1 -47.1405,0 23.570227,23.570227 0 1 1 47.1405,0 z" />
    <path
       transform="matrix(0.71715729,0,0,0.71715729,473.37699,370.83076)"
       sodipodi:type="arc"
       style="fill:#ffffff;fill-opacity:0.08627451;fill-rule:nonzero;stroke:none"
       id="path3850-9-1"
       sodipodi:cx="1322.2897"
       sodipodi:cy="214.9727"
       sodipodi:rx="23.570227"
       sodipodi:ry="23.570227"
       d="m 1345.8599,214.9727 a 23.570227,23.570227 0 1 1 -47.1405,0 23.570227,23.570227 0 1 1 47.1405,0 z" />
    <path
       transform="matrix(0.71715729,0,0,0.71715729,561.71029,252.49743)"
       sodipodi:type="arc"
       style="fill:#ffffff;fill-opacity:0.08627451;fill-rule:nonzero;stroke:none"
       id="path3850-9-7"
       sodipodi:cx="1322.2897"
       sodipodi:cy="214.9727"
       sodipodi:rx="23.570227"
       sodipodi:ry="23.570227"
       d="m 1345.8599,214.9727 a 23.570227,23.570227 0 1 1 -47.1405,0 23.570227,23.570227 0 1 1 47.1405,0 z" />
    <path
       transform="matrix(0.3296573,0,0,0.3296573,712.13483,158.16377)"
       sodipodi:type="arc"
       style="fill:#ffffff;fill-opacity:1;fill-rule:nonzero;stroke:none"
       id="path3850-9-11"
       sodipodi:cx="1322.2897"
       sodipodi:cy="214.9727"
       sodipodi:rx="23.570227"
       sodipodi:ry="23.570227"
       d="m 1345.8599,214.9727 a 23.570227,23.570227 0 1 1 -47.1405,0 23.570227,23.570227 0 1 1 47.1405,0 z" />
    <path
       transform="matrix(0.71715729,0,0,0.71715729,326.14289,-30.025663)"
       sodipodi:type="arc"
       style="fill:#ffffff;fill-opacity:0.03137255;fill-rule:nonzero;stroke:none"
       id="path3850-9-52"
       sodipodi:cx="1322.2897"
       sodipodi:cy="214.9727"
       sodipodi:rx="23.570227"
       sodipodi:ry="23.570227"
       d="m 1345.8599,214.9727 a 23.570227,23.570227 0 1 1 -47.1405,0 23.570227,23.570227 0 1 1 47.1405,0 z" />
    <path
       transform="matrix(0.71715729,0,0,0.71715729,319.07189,-129.02061)"
       sodipodi:type="arc"
       style="fill:#ffffff;fill-opacity:0.11415525;fill-rule:nonzero;stroke:none"
       id="path3850-9-76"
       sodipodi:cx="1322.2897"
       sodipodi:cy="214.9727"
       sodipodi:rx="23.570227"
       sodipodi:ry="23.570227"
       d="m 1345.8599,214.9727 a 23.570227,23.570227 0 1 1 -47.1405,0 23.570227,23.570227 0 1 1 47.1405,0 z" />
    <path
       style="font-size:medium;font-style:normal;font-variant:normal;font-weight:normal;font-stretch:normal;text-indent:0;text-align:start;text-decoration:none;line-height:normal;letter-spacing:normal;word-spacing:normal;text-transform:none;direction:ltr;block-progression:tb;writing-mode:lr-tb;text-anchor:start;baseline-shift:baseline;color:#000000;fill:url(#radialGradient4046);fill-opacity:1;stroke:none;stroke-width:1px;marker:none;visibility:visible;display:inline;overflow:visible;enable-background:accumulate;font-family:Sans;-inkscape-font-specification:Sans"
       d="M 78.8125,718.15625 77.875,718.5 l 96.65625,251.6875 0.0937,0.28125 0.3125,0.0312 271.65625,35.00005 0.125,0 0.125,-0.031 164.71875,-61.5626 58.09375,56.4376 0.6875,-0.6876 L 612,942.96875 611.78125,942.75 611.5,942.875 446.625,1004.5 175.375,969.53125 78.8125,718.15625 z"
       id="path4022"
       inkscape:connector-curvature="0" />
    <path
       style="font-size:medium;font-style:normal;font-variant:normal;font-weight:normal;font-stretch:normal;text-indent:0;text-align:start;text-decoration:none;line-height:normal;letter-spacing:normal;word-spacing:normal;text-transform:none;direction:ltr;block-progression:tb;writing-mode:lr-tb;text-anchor:start;baseline-shift:baseline;color:#000000;fill:url(#radialGradient4050);fill-opacity:1;stroke:none;stroke-width:1px;marker:none;visibility:visible;display:inline;overflow:visible;enable-background:accumulate;font-family:Sans;-inkscape-font-specification:Sans"
       d="m 174.75,969.5625 -204.46875,120.625 0.5,0.8437 204.46875,-120.5937 -0.5,-0.875 z"
       id="path4024"
       inkscape:connector-curvature="0" />
    <path
       style="font-size:medium;font-style:normal;font-variant:normal;font-weight:normal;font-stretch:normal;text-indent:0;text-align:start;text-decoration:none;line-height:normal;letter-spacing:normal;word-spacing:normal;text-transform:none;direction:ltr;block-progression:tb;writing-mode:lr-tb;text-anchor:start;baseline-shift:baseline;color:#000000;fill:url(#radialGradient4048);fill-opacity:1;stroke:none;stroke-width:1px;marker:none;visibility:visible;display:inline;overflow:visible;enable-background:accumulate;font-family:Sans;-inkscape-font-specification:Sans"
       d="m 446.40625,1004.5625 -131.66667,67.7187 0.5,0.8438 131.66667,-67.6875 z"
       id="path4026"
       inkscape:connector-curvature="0"
       sodipodi:nodetypes="ccccc" />
    <path
       sodipodi:type="arc"
       style="fill:#ffffff;fill-opacity:0.03137255;fill-rule:nonzero;stroke:#ffffff;stroke-width:2;stroke-linecap:round;stroke-linejoin:round;stroke-miterlimit:4;stroke-opacity:0.086758;stroke-dasharray:none;stroke-dashoffset:0"
       id="path4056"
       sodipodi:cx="175"
       sodipodi:cy="970"
       sodipodi:rx="15.208333"
       sodipodi:ry="15.208333"
       d="m 190.20833,970 a 15.208333,15.208333 0 1 1 -30.41666,0 15.208333,15.208333 0 1 1 30.41666,0 z" />
    <path
       sodipodi:type="arc"
       style="fill:#ffffff;fill-opacity:0.03137255;fill-rule:nonzero;stroke:#ffffff;stroke-width:2;stroke-linecap:round;stroke-linejoin:round;stroke-miterlimit:4;stroke-opacity:0.086758;stroke-dasharray:none;stroke-dashoffset:0"
       id="path4058"
       sodipodi:cx="446.84872"
       sodipodi:cy="1005.467"
       sodipodi:rx="5.8846464"
       sodipodi:ry="5.8846464"
       d="m 452.73337,1005.467 a 5.8846464,5.8846464 0 1 1 -11.76929,0 5.8846464,5.8846464 0 1 1 11.76929,0 z" />
    <path
       sodipodi:type="arc"
       style="fill:#ffffff;fill-opacity:0.03137255;fill-rule:nonzero;stroke:#ffffff;stroke-width:2;stroke-linecap:round;stroke-linejoin:round;stroke-miterlimit:4;stroke-opacity:0.086758;stroke-dasharray:none;stroke-dashoffset:0"
       id="path4060"
       sodipodi:cx="314.98959"
       sodipodi:cy="1072.7031"
       sodipodi:rx="13.189457"
       sodipodi:ry="13.189457"
       d="m 328.17905,1072.7031 a 13.189457,13.189457 0 1 1 -26.37891,0 13.189457,13.189457 0 1 1 26.37891,0 z" />
    <path
       sodipodi:type="arc"
       style="fill:#ffffff;fill-opacity:0.03137255;fill-rule:nonzero;stroke:#ffffff;stroke-width:2;stroke-linecap:round;stroke-linejoin:round;stroke-miterlimit:4;stroke-opacity:0.086758;stroke-dasharray:none;stroke-dashoffset:0"
       id="path4062"
       sodipodi:cx="669.99994"
       sodipodi:cy="1000.0002"
       sodipodi:rx="18.958158"
       sodipodi:ry="18.958158"
       d="m 688.9581,1000.0002 a 18.958158,18.958158 0 1 1 -37.91632,0 18.958158,18.958158 0 1 1 37.91632,0 z" />
    <path
       sodipodi:type="arc"
       style="fill:#ffffff;fill-opacity:0.03137255;fill-rule:nonzero;stroke:#ffffff;stroke-width:2;stroke-linecap:round;stroke-linejoin:round;stroke-miterlimit:4;stroke-opacity:0.086758;stroke-dasharray:none;stroke-dashoffset:0"
       id="path4064"
       sodipodi:cx="611.89062"
       sodipodi:cy="942.85938"
       sodipodi:rx="7.7656245"
       sodipodi:ry="7.7656245"
       d="m 619.65625,942.85937 a 7.7656245,7.7656245 0 1 1 -15.53125,0 7.7656245,7.7656245 0 1 1 15.53125,0 z" />
    <path
       sodipodi:type="arc"
       style="fill:#ffffff;fill-opacity:0.03137255;fill-rule:nonzero;stroke:#ffffff;stroke-width:2;stroke-linecap:round;stroke-linejoin:round;stroke-miterlimit:4;stroke-opacity:0.086758;stroke-dasharray:none;stroke-dashoffset:0"
       id="path4066"
       sodipodi:cx="78.34375"
       sodipodi:cy="718.32812"
       sodipodi:rx="9.4553423"
       sodipodi:ry="9.4553423"
       d="m 87.799092,718.32812 a 9.4553423,9.4553423 0 1 1 -18.910684,0 9.4553423,9.4553423 0 1 1 18.910684,0 z" />
    <path
       style="font-size:medium;font-style:normal;font-variant:normal;font-weight:normal;font-stretch:normal;text-indent:0;text-align:start;text-decoration:none;line-height:normal;letter-spacing:normal;word-spacing:normal;text-transform:none;direction:ltr;block-progression:tb;writing-mode:lr-tb;text-anchor:start;baseline-shift:baseline;color:#000000;fill:#ffffff;fill-opacity:0.27000001;stroke:none;stroke-width:1px;marker:none;visibility:visible;display:inline;overflow:visible;enable-background:accumulate;font-family:Sans;-inkscape-font-specification:Sans"
       d="m 936.65625,523.3125 c 0,0 -28.28422,17.07767 -57.15625,34.3125 -14.43602,8.61742 -29.01454,17.27151 -40.28125,23.84375 -5.63335,3.28612 -10.42899,6.0522 -13.96875,8.03125 -1.76988,0.98952 -3.23289,1.78252 -4.3125,2.34375 -1.07961,0.56123 -1.86706,0.90427 -2,0.9375 l 0.25,0.96875 c 0.45632,-0.11408 1.12318,-0.43048 2.21875,-1 1.09557,-0.56952 2.53764,-1.38269 4.3125,-2.375 3.54972,-1.98462 8.36384,-4.74349 14,-8.03125 C 850.99107,575.76823 865.56249,567.11831 880,558.5 c 28.87502,-17.23662 57.1875,-34.34375 57.1875,-34.34375 l -0.53125,-0.84375 z"
       id="path4068"
       inkscape:connector-curvature="0" />
    <path
       transform="translate(266.91655,-478.31211)"
       sodipodi:type="arc"
       style="fill:#ffffff;fill-opacity:0.03137255;fill-rule:nonzero;stroke:#ffffff;stroke-width:2;stroke-linecap:round;stroke-linejoin:round;stroke-miterlimit:4;stroke-opacity:0.086758;stroke-dasharray:none;stroke-dashoffset:0;display:inline"
       id="path4062-8"
       sodipodi:cx="669.99994"
       sodipodi:cy="1000.0002"
       sodipodi:rx="18.958158"
       sodipodi:ry="18.958158"
       d="m 688.9581,1000.0002 a 18.958158,18.958158 0 1 1 -37.91632,0 18.958158,18.958158 0 1 1 37.91632,0 z" />
    <path
       transform="matrix(0.80432651,0,0,0.80432651,-242.61514,418.93551)"
       sodipodi:type="arc"
       style="fill:#ffffff;fill-opacity:0.08627451;fill-rule:nonzero;stroke:none;display:inline"
       id="path3850-9-4-8"
       sodipodi:cx="1322.2897"
       sodipodi:cy="214.9727"
       sodipodi:rx="23.570227"
       sodipodi:ry="23.570227"
       d="m 1345.8599,214.9727 a 23.570227,23.570227 0 1 1 -47.1405,0 23.570227,23.570227 0 1 1 47.1405,0 z" />
    <path
       transform="matrix(0.58245981,0,0,0.58245981,154.75196,190.87342)"
       sodipodi:type="arc"
       style="fill:#ffffff;fill-opacity:0.03137255;fill-rule:nonzero;stroke:#ffffff;stroke-width:2;stroke-linecap:round;stroke-linejoin:round;stroke-miterlimit:4;stroke-opacity:0.086758;stroke-dasharray:none;stroke-dashoffset:0;display:inline"
       id="path4062-8-9"
       sodipodi:cx="669.99994"
       sodipodi:cy="1000.0002"
       sodipodi:rx="18.958158"
       sodipodi:ry="18.958158"
       d="m 688.9581,1000.0002 a 18.958158,18.958158 0 1 1 -37.91632,0 18.958158,18.958158 0 1 1 37.91632,0 z" />
    <path
       transform="translate(-319.99994,-466.66685)"
       sodipodi:type="arc"
       style="fill:#ffffff;fill-opacity:0.03137255;fill-rule:nonzero;stroke:#ffffff;stroke-width:2;stroke-linecap:round;stroke-linejoin:round;stroke-miterlimit:4;stroke-opacity:0.086758;stroke-dasharray:none;stroke-dashoffset:0;display:inline"
       id="path4062-8-8"
       sodipodi:cx="669.99994"
       sodipodi:cy="1000.0002"
       sodipodi:rx="18.958158"
       sodipodi:ry="18.958158"
       d="m 688.9581,1000.0002 a 18.958158,18.958158 0 1 1 -37.91632,0 18.958158,18.958158 0 1 1 37.91632,0 z" />
    <path
       transform="matrix(0.49895177,0,0,0.49895177,64.035674,297.7148)"
       sodipodi:type="arc"
       style="fill:#ffffff;fill-opacity:0.03137255;fill-rule:nonzero;stroke:#ffffff;stroke-width:2;stroke-linecap:round;stroke-linejoin:round;stroke-miterlimit:4;stroke-opacity:0.086758;stroke-dasharray:none;stroke-dashoffset:0;display:inline"
       id="path4062-8-2"
       sodipodi:cx="669.99994"
       sodipodi:cy="1000.0002"
       sodipodi:rx="18.958158"
       sodipodi:ry="18.958158"
       d="m 688.9581,1000.0002 a 18.958158,18.958158 0 1 1 -37.91632,0 18.958158,18.958158 0 1 1 37.91632,0 z" />
    <path
       transform="matrix(0.71715729,0,0,0.71715729,-29.956347,5.8307598)"
       sodipodi:type="arc"
       style="fill:#ffffff;fill-opacity:0.08627451;fill-rule:nonzero;stroke:none;display:inline"
       id="path3850-9-7-4"
       sodipodi:cx="1322.2897"
       sodipodi:cy="214.9727"
       sodipodi:rx="23.570227"
       sodipodi:ry="23.570227"
       d="m 1345.8599,214.9727 a 23.570227,23.570227 0 1 1 -47.1405,0 23.570227,23.570227 0 1 1 47.1405,0 z" />
    <path
       transform="matrix(0.71715729,0,0,0.71715729,678.37699,744.16409)"
       sodipodi:type="arc"
       style="fill:#ffffff;fill-opacity:0.08627451;fill-rule:nonzero;stroke:none;display:inline"
       id="path3850-9-7-5"
       sodipodi:cx="1322.2897"
       sodipodi:cy="214.9727"
       sodipodi:rx="23.570227"
       sodipodi:ry="23.570227"
       d="m 1345.8599,214.9727 a 23.570227,23.570227 0 1 1 -47.1405,0 23.570227,23.570227 0 1 1 47.1405,0 z" />
    <path
       transform="matrix(0.36360391,0,0,0.36360391,874.2103,316.83509)"
       sodipodi:type="arc"
       style="fill:#ffffff;fill-opacity:0.2745098;fill-rule:nonzero;stroke:none;display:inline"
       id="path3850-9-8-2"
       sodipodi:cx="1322.2897"
       sodipodi:cy="214.9727"
       sodipodi:rx="23.570227"
       sodipodi:ry="23.570227"
       d="m 1345.8599,214.9727 a 23.570227,23.570227 0 1 1 -47.1405,0 23.570227,23.570227 0 1 1 47.1405,0 z" />
    <path
       transform="matrix(0.22218256,0,0,0.22218256,1076.2103,680.57015)"
       sodipodi:type="arc"
       style="fill:#ffffff;fill-opacity:0.2745098;fill-rule:nonzero;stroke:none;display:inline"
       id="path3850-9-8-9"
       sodipodi:cx="1322.2897"
       sodipodi:cy="214.9727"
       sodipodi:rx="23.570227"
       sodipodi:ry="23.570227"
       d="m 1345.8599,214.9727 a 23.570227,23.570227 0 1 1 -47.1405,0 23.570227,23.570227 0 1 1 47.1405,0 z" />
  </g>
  <g
     inkscape:groupmode="layer"
     id="layer3"
     inkscape:label="Слой 2"
     sodipodi:insensitive="true"
     style="display:inline" />
</svg>
