<svg width="2000" height="1000" xmlns="http://www.w3.org/2000/svg">
 <!-- Background vectorized by Cyrill Luppo https://plus.google.com/114248392026360549592 -->
 <g id="g4">
  <title>Layer 1</title>
  <g id="layer2" display="inline">
   <path fill="#ff243d" fill-opacity="0.50909" id="path3885" d="m315.68561,882.93781a8.33376,8.33376 0 1 1 -16.66751,0a8.33376,8.33376 0 1 1 16.66751,0z"/>
   <path fill="#06c03d" fill-opacity="0.50909" id="path3885-4" d="m336.8483,835.1828a4.44467,4.44467 0 1 1 -8.88934,0a4.44467,4.44467 0 1 1 8.88934,0z"/>
   <path fill="#4882df" fill-opacity="0.50909" id="path3885-4-8" d="m280.07773,863.34082a5.78312,5.78312 0 1 1 -11.56622,0a5.78312,5.78312 0 1 1 11.56622,0z"/>
   <path fill="#ffffff" fill-opacity="0.41475" fill-rule="nonzero" d="m76.25,816.5c-22.64367,0 -41,18.35632 -41,41c0,22.64368 18.35633,41 41,41c6.43383,0 12.51864,-1.48383 17.9375,-4.125c4.96624,10.20221 27.01599,50.3855 35.8125,104.875c0.79785,4.94226 2.5,9.75 2.5,9.75c0,0 2.46201,-3.31189 1.5,-10.25c-8.25,-59.5 -31,-98.75 -34,-106.25c-0.17815,-0.44537 -0.36036,-0.8479 -0.53125,-1.21875c10.74022,-7.39264 17.78125,-19.75696 17.78125,-33.78125c0,-22.64368 -18.35633,-41 -41,-41z" id="path3025"/>
   <path fill="#ffff26" fill-opacity="0.30415" fill-rule="nonzero" d="m166.5,868.25c-18.50154,0 -33.5,14.99847 -33.5,33.5c0,15.75519 10.87733,28.9552 25.53125,32.53119c-1.21706,4.42029 -6.77187,24.84967 -8.78125,38.46881c-2.13335,14.45935 -5,40.75 -5,40.75l7,0c0,0 2,-25 4.5,-42c2.12215,-14.43054 6.87949,-31.2998 8.34375,-36.3125c0.63277,0.03601 1.26457,0.06201 1.90625,0.06201c18.50154,0 33.5,-14.99854 33.5,-33.5c0,-18.50153 -14.99846,-33.5 -33.5,-33.5l0,0.00049zm0,20.25c7.31776,0 13.25,5.93225 13.25,13.25c0,7.31775 -5.93224,13.25 -13.25,13.25c-7.31776,0 -13.25,-5.93225 -13.25,-13.25c0,-7.31775 5.93224,-13.25 13.25,-13.25z" id="path3836"/>
   <path fill="#ffff74" fill-opacity="0.16" fill-rule="nonzero" id="path3916" d="m1683.7926,213.82986a166.1701,166.17015 0 0 1 -332.34021,0a166.1701,166.17015 0 1 1 332.34021,0z"/>
   <path fill="#ffff74" fill-opacity="0.16" fill-rule="nonzero" id="path3916-9" d="m1656.92236,213.82986a139.3,139.30005 0 0 1 -278.59998,0a139.3,139.30005 0 1 1 278.59998,0z"/>
   <path fill="#ffff74" fill-opacity="0.16" fill-rule="nonzero" id="path3916-9-4" d="m1625.10254,213.82986a107.4802,107.48023 0 1 1 -214.96045,0a107.4802,107.48023 0 1 1 214.96045,0z"/>
   <path fill="#ffff74" fill-opacity="0.16" fill-rule="nonzero" id="path3916-9-4-8" d="m1597.52563,213.82986a79.9031,79.90312 0 0 1 -159.80615,0a79.9031,79.90312 0 1 1 159.80615,0z"/>
   <path fill="#ffff74" fill-opacity="0.16" fill-rule="nonzero" id="path3916-9-4-8-8" d="m1572.77686,213.82986a55.15435,55.15437 0 0 1 -110.30872,0a55.15435,55.15437 0 1 1 110.30872,0z"/>
   <path fill="#ffff74" fill-opacity="0.16" fill-rule="nonzero" id="path3916-9-4-8-8-2" d="m1548.02795,213.82986a30.40558,30.40559 0 1 1 -60.81116,0a30.40558,30.40559 0 1 1 60.81116,0z"/>
   <path fill="#ffffff" fill-opacity="0.16" fill-rule="nonzero" id="path3916-4" d="m1062.07434,214.53696a86.26703,86.26705 0 1 1 -172.534,0a86.26703,86.26705 0 1 1 172.534,0z"/>
   <path fill="#ffffff" fill-opacity="0.16" fill-rule="nonzero" id="path3916-9-5" d="m1048.12476,214.53696a72.31748,72.3175 0 0 1 -144.63495,0a72.31748,72.3175 0 1 1 144.63495,0z"/>
   <path fill="#ffffff" fill-opacity="0.16" fill-rule="nonzero" id="path3916-9-4-5" d="m1031.60547,214.53696a55.79826,55.79827 0 0 1 -111.5965,0a55.79826,55.79827 0 1 1 111.5965,0z"/>
   <path fill="#ffffff" fill-opacity="0.16" fill-rule="nonzero" id="path3916-9-4-8-1" d="m1017.28888,214.53696a41.48161,41.48162 0 0 1 -82.9632,0a41.48161,41.48162 0 1 1 82.9632,0z"/>
   <path fill="#ffffff" fill-opacity="0.16" fill-rule="nonzero" id="path3916-9-4-8-8-7" d="m1004.44061,214.53696a28.63333,28.63333 0 0 1 -57.26666,0a28.63333,28.63333 0 1 1 57.26666,0z"/>
   <path fill="#ffffff" fill-opacity="0.16" fill-rule="nonzero" id="path3916-1" d="m1195.01025,158.67552a55.15435,55.15437 0 0 1 -110.30872,0a55.15435,55.15437 0 1 1 110.30872,0z"/>
   <path fill="#ffffff" fill-opacity="0.16" fill-rule="nonzero" id="path3916-9-52" d="m1186.09167,158.67552a46.23577,46.23578 0 1 1 -92.47144,0a46.23577,46.23578 0 1 1 92.47144,0z"/>
   <path fill="#ffffff" fill-opacity="0.16" fill-rule="nonzero" id="path3916-9-4-7" d="m1175.53015,158.67552a35.67428,35.67429 0 1 1 -71.34851,0a35.67428,35.67429 0 1 1 71.34851,0z"/>
   <path fill="#ffffff" fill-opacity="0.16" fill-rule="nonzero" id="path3916-9-4-8-6" d="m1166.37695,158.67552a26.52101,26.52102 0 1 1 -53.04199,0a26.52101,26.52102 0 1 1 53.04199,0z"/>
   <path fill="#ffffff" fill-opacity="0.16" fill-rule="nonzero" id="path3916-1-8" d="m1346.33118,3.11204a72.12495,72.12497 0 0 1 -144.24988,0a72.12495,72.12497 0 1 1 144.24988,0z"/>
   <path fill="#ffffff" fill-opacity="0.16" fill-rule="nonzero" id="path3916-9-52-5" d="m1334.66846,3.11204a60.46215,60.46217 0 1 1 -120.92432,0a60.46215,60.46217 0 1 1 120.92432,0z"/>
   <path fill="#ffffff" fill-opacity="0.16" fill-rule="nonzero" id="path3916-9-4-7-7" d="m1320.85718,3.11202a46.651,46.65101 0 1 1 -93.302,0a46.651,46.65101 0 1 1 93.302,0z"/>
   <path fill="#ffffff" fill-opacity="0.16" fill-rule="nonzero" id="path3916-9-4-8-6-6" d="m1308.88757,3.11205a34.68132,34.68134 0 1 1 -69.36255,0a34.68132,34.68134 0 1 1 69.36255,0z"/>
   <path fill="#ffff81" fill-opacity="0.16" fill-rule="nonzero" id="path3916-9-4-2" d="m1780.90881,70.02983a52.32594,52.32595 0 0 1 -104.65186,0a52.32594,52.32595 0 1 1 104.65186,0z"/>
   <path fill="#ffff81" fill-opacity="0.16" fill-rule="nonzero" id="path3916-9-4-8-7" d="m1767.48315,70.02983a38.9002,38.90021 0 1 1 -77.80029,0a38.9002,38.90021 0 1 1 77.80029,0z"/>
   <path fill="#ffff81" fill-opacity="0.16" fill-rule="nonzero" id="path3916-9-4-8-8-9" d="m1755.43445,70.02983a26.85149,26.8515 0 1 1 -53.70288,0a26.85149,26.8515 0 1 1 53.70288,0z"/>
   <path fill="#ffffff" fill-opacity="0.16" fill-rule="nonzero" id="path3916-9-4-23" d="m1975.65588,213.12274a73.53915,73.53917 0 0 1 -147.07825,0a73.53915,73.53917 0 1 1 147.07825,0z"/>
   <path fill="#ffffff" fill-opacity="0.16" fill-rule="nonzero" id="path3916-9-4-8-3" d="m1956.78735,213.12277a54.67051,54.67053 0 1 1 -109.34106,0a54.67051,54.67053 0 1 1 109.34106,0z"/>
   <path fill="#ffffff" fill-opacity="0.16" fill-rule="nonzero" id="path3916-9-4-8-8-4" d="m1939.85388,213.12274a37.73716,37.73717 0 1 1 -75.47424,0a37.73716,37.73717 0 1 1 75.47424,0z"/>
   <path fill="#ffffff" fill-opacity="0.16" fill-rule="nonzero" id="path3916-9-4-8-8-2-1" d="m1922.92065,213.12277a20.80383,20.80383 0 1 1 -41.60754,0a20.80383,20.80383 0 1 1 41.60754,0z"/>
   <path fill="#ffff00" fill-rule="nonzero" id="path3083" d="m800.09125,200.74838a8.48529,8.48529 0 0 1 -16.97058,0a8.48529,8.48529 0 1 1 16.97058,0z"/>
   <path fill="#ff8400" fill-rule="nonzero" id="path3083-1" d="m750.94733,161.85748a4.94977,4.94977 0 0 1 -9.89954,0a4.94977,4.94977 0 1 1 9.89954,0z"/>
   <path fill="#ffffff" fill-opacity="0.45622" fill-rule="nonzero" id="path3083-7" d="m783.12067,127.20926a6.01041,6.01041 0 1 1 -12.02081,0a6.01041,6.01041 0 1 1 12.02081,0z"/>
   <path fill="#ffffff" fill-opacity="0.36406" fill-rule="nonzero" id="path3083-7-4" d="m707.10669,90.08615a5.30331,5.30332 0 1 1 -10.60663,0a5.30331,5.30332 0 1 1 10.60663,0z"/>
   <path fill="#ffffff" fill-opacity="0.27189" fill-rule="nonzero" id="path3083-7-4-0" d="m563.21051,97.51077a5.30332,5.30332 0 1 1 -10.60663,0a5.30332,5.30332 0 1 1 10.60663,0z"/>
   <path fill="#6bf6ff" fill-opacity="0.27189" fill-rule="nonzero" d="m260.5,908.75c-13.25484,0 -24,10.74518 -24,24c0,13.25476 10.74516,24 24,24c5.40979,0 10.42371,-1.7926 14.4375,-4.8125c2.80536,3.93542 10.97083,15.59985 16.375,25.09375c6.54074,11.4906 16.46875,35.6875 16.46875,35.6875l5.65625,-0.34375c0,0 -12.90842,-30.04272 -20.15625,-42.59375c-5.48807,-9.50378 -11.55072,-18.15149 -14.1875,-21.8125c3.38995,-4.13855 5.40625,-9.45166 5.40625,-15.21875c0,-13.25482 -10.74518,-24 -24,-24zm0,14.5c5.2467,0 9.5,4.2533 9.5,9.5c0,5.2467 -4.2533,9.5 -9.5,9.5c-5.2467,0 -9.5,-4.2533 -9.5,-9.5c0,-5.2467 4.2533,-9.5 9.5,-9.5z" id="path3093"/>
   <path fill="#6bf6ff" fill-opacity="0.27189" fill-rule="nonzero" d="m318.25,938.5c-11.18375,0 -20.25,9.06628 -20.25,20.25c0,7.77307 4.38614,14.51208 10.8125,17.90625c-0.94324,2.6875 -3.54755,10.12256 -5.46875,16.625c-2.2981,7.7782 -4.42679,18.39746 -4.25,19.28125l4.78125,0c0,0 2.29382,-12.57068 3.53125,-17.34375c0.96347,-3.71631 4.66809,-12.78784 6.28125,-16.71875c1.46402,0.33655 2.99637,0.5 4.5625,0.5c11.18375,0 20.25,-9.06628 20.25,-20.25c0,-11.18372 -9.06625,-20.25 -20.25,-20.25zm0,12.25c4.42691,0 8,3.57312 8,8c0,4.42688 -3.57309,8 -8,8c-4.42691,0 -8,-3.57312 -8,-8c0,-4.42688 3.57309,-8 8,-8z" id="path3093-4"/>
   <path fill="#ffffff" fill-opacity="0.23041" fill-rule="nonzero" d="m374,900.25c-14.22134,0 -25.75,11.52869 -25.75,25.75c0,10.44379 6.22079,19.42883 15.15625,23.46875c-1.57013,5.47009 -4.81976,17.0979 -7.03125,27.375c-3.00522,13.96533 -4.25,33.21875 -4.25,33.21875l4.78125,-4.59375c0,0 2.30545,-16.61218 4.25,-27.21875c1.63153,-8.89929 5.67572,-22.75024 7,-27.1875c1.87888,0.43628 3.83212,0.6875 5.84375,0.6875c14.22134,0 25.75,-11.52869 25.75,-25.75c0,-14.22131 -11.52866,-25.75 -25.75,-25.75zm0,15.25c5.79898,0 10.5,4.70099 10.5,10.5c0,5.79901 -4.70102,10.5 -10.5,10.5c-5.79898,0 -10.5,-4.70099 -10.5,-10.5c0,-5.79901 4.70102,-10.5 10.5,-10.5z" id="path3935"/>
   <path fill="#ba4bff" fill-opacity="0.43636" fill-rule="nonzero" d="m438.25,854.25c-15.3259,0 -27.75,12.42407 -27.75,27.75c0,11.21484 6.64444,20.87396 16.21875,25.25c-2.15558,8.50903 -6.32166,25.52289 -9,40.0625c-3.71231,20.15259 -4.9375,62.21875 -4.9375,62.21875l3.53125,-1.5625c0,0 1.24756,-39.24756 5.84375,-61.875c3.25809,-16.03973 7.07953,-30.25275 9.0625,-37.25c2.24557,0.58643 4.60193,0.90625 7.03125,0.90625c15.3259,0 27.75,-12.42413 27.75,-27.75c0,-15.32593 -12.4241,-27.75 -27.75,-27.75zm0,16.4375c6.24939,0 11.3125,5.06311 11.3125,11.3125c0,6.24939 -5.06311,11.3125 -11.3125,11.3125c-6.24939,0 -11.3125,-5.06311 -11.3125,-11.3125c0,-6.24939 5.06311,-11.3125 11.3125,-11.3125z" id="path3935-8"/>
   <path fill="#ff9400" fill-opacity="0.28111" fill-rule="nonzero" d="m467.25,925.25c-12.9787,0 -23.5,10.5213 -23.5,23.5c0,8.05627 4.07071,15.17224 10.25,19.40625l-17.71875,39.28125l7.96875,-4.78125l14.71875,-31.90625c2.57166,0.96655 5.37177,1.5 8.28125,1.5c12.9787,0 23.5,-10.52124 23.5,-23.5c0,-12.9787 -10.5213,-23.5 -23.5,-23.5zm0,13.90619c5.29227,0 9.59375,4.30151 9.59375,9.59381c0,5.29236 -4.30148,9.59375 -9.59375,9.59375c-5.29227,0 -9.59375,-4.30139 -9.59375,-9.59375c0,-5.2923 4.30148,-9.59381 9.59375,-9.59381z" id="path3935-1"/>
   <path fill="#ffffff" fill-opacity="0.16129" fill-rule="nonzero" d="m575.5,894.25c-12.84064,0 -23.25,10.40936 -23.25,23.25c0,12.84058 10.40936,23.25 23.25,23.25c2.05176,0 4.04242,-0.25098 5.9375,-0.75c1.68341,4.72363 5.22571,16.28528 8.34375,36.8125c4.24261,27.93066 4.03125,35.5 4.03125,35.5l3.0625,-4.65625c0,0 -0.72614,-18.76904 -4.96875,-41.75c-3.10352,-16.81079 -5.92169,-24.23193 -7.21875,-27.03125c8.27637,-3.55969 14.0625,-11.79401 14.0625,-21.375c0,-12.84064 -10.40936,-23.25 -23.25,-23.25zm0,13.78125c5.23596,0 9.46875,4.23273 9.46875,9.46875c0,5.23602 -4.23279,9.46881 -9.46875,9.46881c-5.23596,0 -9.46875,-4.23279 -9.46875,-9.46881c0,-5.23602 4.23279,-9.46875 9.46875,-9.46875z" id="path3935-1-9"/>
   <path fill="#ff91ff" fill-opacity="0.4424" fill-rule="nonzero" d="m1064.91504,810.86084c-21.08826,0 -38.1875,17.06793 -38.1875,38.15625c0,21.08832 17.09924,38.1875 38.1875,38.1875c21.08826,0 38.15625,-17.09918 38.15625,-38.1875c0,-21.08832 -17.06799,-38.15625 -38.15625,-38.15625zm0,23.3125c8.20105,0 14.84375,6.64276 14.84375,14.84375c0,8.20099 -6.6427,14.875 -14.84375,14.875c-8.20105,0 -14.875,-6.67401 -14.875,-14.875c0,-8.20099 6.67395,-14.84375 14.875,-14.84375z" id="path3924"/>
   <path fill="#ffffff" fill-rule="nonzero" d="m1064.91504,830.29834c-10.34875,0 -18.75,8.36987 -18.75,18.71875c0,10.34888 8.40125,18.75 18.75,18.75c10.34888,0 18.71875,-8.40112 18.71875,-18.75c0,-10.34888 -8.36987,-18.71875 -18.71875,-18.71875zm0,3.875c8.20105,0 14.84375,6.64276 14.84375,14.84375c0,8.20099 -6.6427,14.875 -14.84375,14.875c-8.20105,0 -14.875,-6.67401 -14.875,-14.875c0,-8.20099 6.67395,-14.84375 14.875,-14.84375z" id="path3926"/>
   <path fill="#ff9500" fill-rule="nonzero" id="path3928-2" d="m1079.74866,849.03271a14.84925,14.84925 0 1 1 -29.69849,0a14.84925,14.84925 0 1 1 29.69849,0z"/>
   <path fill="#63a9ff" fill-opacity="0.19816" fill-rule="nonzero" d="m948.59375,840.53125c-25.97015,0 -47.03125,21.0611 -47.03125,47.03125c0,23.70868 17.55731,43.3244 40.375,46.5625c0.09772,4.52521 0.65002,30.71399 0.8125,43.0625c0.17676,13.43506 3,28.65625 3,28.65625l6.375,-0.1875c0,0 -1.5849,-13.26599 -2.46875,-28.46875c-0.73657,-12.66907 -0.6239,-35.12189 -0.5625,-42.59369c25.74042,-0.26764 46.53125,-21.22754 46.53125,-47.03131c0,-25.97015 -21.0611,-47.03125 -47.03125,-47.03125zm0,33.9375c7.22345,0 13.09375,5.8703 13.09375,13.09375c0,7.22345 -5.8703,13.09375 -13.09375,13.09375c-7.22345,0 -13.09375,-5.8703 -13.09375,-13.09375c0,-7.22345 5.8703,-13.09375 13.09375,-13.09375z" id="path3922-1"/>
   <path fill="#ffffff" fill-opacity="0.33182" fill-rule="nonzero" d="m948.59753,853.94806c-18.57465,0 -33.63568,15.03351 -33.63568,33.60815c0,18.57471 15.06104,33.6358 33.63568,33.6358c18.57465,0 33.60822,-15.0611 33.60822,-33.6358c0,-18.57465 -15.03357,-33.60815 -33.60822,-33.60815zm0,20.53375c7.22345,0 13.0744,5.85095 13.0744,13.0744c0,7.22351 -5.85095,13.10199 -13.0744,13.10199c-7.22351,0 -13.10199,-5.87848 -13.10199,-13.10199c0,-7.22345 5.87848,-13.0744 13.10199,-13.0744z" id="path3924-4"/>
   <path fill="#ffffff" fill-rule="nonzero" d="m948.59753,871.06873c-9.11536,0 -16.51508,7.37219 -16.51508,16.48755c0,9.11536 7.39972,16.51508 16.51508,16.51508c9.11536,0 16.48749,-7.39972 16.48749,-16.51508c0,-9.11536 -7.37213,-16.48755 -16.48749,-16.48755zm0,3.41309c7.22345,0 13.0744,5.85095 13.0744,13.07446c0,7.22345 -5.85095,13.10193 -13.0744,13.10193c-7.22351,0 -13.10199,-5.87848 -13.10199,-13.10193c0,-7.22351 5.87848,-13.07446 13.10199,-13.07446z" id="path3926-2"/>
   <path fill="#ff9500" fill-rule="nonzero" id="path3928-2-3" d="m961.66296,887.57001a13.07928,13.07928 0 1 1 -26.15857,0a13.07928,13.07928 0 1 1 26.15857,0z"/>
   <path fill="#ffffff" fill-opacity="0.02273" fill-rule="nonzero" d="m1314.03125,907.46875c-12.28455,0.62268 -22.06238,10.81067 -22.06238,23.25006c0,12.84052 10.40942,23.24994 23.25,23.24994c2.07593,0 4.08484,-0.302 6,-0.8125c1.00073,3.09509 5.46423,18.90625 6.90613,26.21875c1.75,8.875 3.625,22.75 3.625,22.75l3.25,0.125c0,0 -1.5,-15.625 -4.5,-27.875c-2.25,-9.1875 -4.92981,-18.29688 -6.125,-22.28125c8.29651,-3.5509 14.09387,-11.77936 14.09387,-21.37494c0,-12.84064 -10.40967,-23.25006 -23.25,-23.25006c-0.40137,0 -0.79138,-0.02008 -1.18762,0zm1.18762,13.75006c5.23584,0 9.46863,4.26398 9.46863,9.5c0,5.2359 -4.23279,9.46869 -9.46863,9.46869c-5.23608,0 -9.46887,-4.23279 -9.46887,-9.46869c0,-5.23602 4.23279,-9.5 9.46887,-9.5z" id="path3935-1-9-2"/>
   <path fill="#ffffff" fill-opacity="0.42273" fill-rule="nonzero" d="m1315.21863,918.12372c-6.94775,0 -12.57983,5.6322 -12.57983,12.57977c0,6.94763 5.63208,12.57983 12.57983,12.57983c6.94775,0 12.57996,-5.6322 12.57996,-12.57983c0,-6.94757 -5.6322,-12.57977 -12.57996,-12.57977zm0,2.97351c5.30554,0 9.60645,4.30084 9.60645,9.60626c0,5.30548 -4.3009,9.60638 -9.60645,9.60638c-5.30554,0 -9.60645,-4.3009 -9.60645,-9.60638c0,-5.30542 4.3009,-9.60626 9.60645,-9.60626z" id="path3937-7-4-21"/>
   <path fill="#ff8d07" fill-opacity="0.41818" fill-rule="nonzero" id="path3939-4-40-8-6" d="m1324.82495,930.70349a9.6064,9.6064 0 1 1 -19.21277,0a9.6064,9.6064 0 1 1 19.21277,0z"/>
   <path fill="#ffffff" fill-opacity="0.05" fill-rule="nonzero" d="m1374.25,943.71753c-9.13062,0 -16.53247,7.40186 -16.53247,16.53247c0,9.13074 7.40186,16.53247 16.53247,16.53247c9.13062,0 16.53247,-7.40173 16.53247,-16.53247c0,-9.13062 -7.40186,-16.53247 -16.53247,-16.53247zm0,9.79126c3.72314,0 6.74146,3.01819 6.74146,6.74121c0,3.72339 -3.01831,6.74158 -6.74146,6.74158c-3.72314,0 -6.74146,-3.01819 -6.74146,-6.74158c0,-3.72302 3.01831,-6.74121 6.74146,-6.74121z" id="path3935-1-9-5-8"/>
   <path fill="#ffffff" fill-opacity="0.43182" fill-rule="nonzero" d="m1374.25,951.30481c-4.94031,0 -8.94519,4.005 -8.94519,8.94519c0,4.94019 4.00488,8.94519 8.94519,8.94519c4.94031,0 8.94519,-4.005 8.94519,-8.94519c0,-4.94019 -4.00488,-8.94519 -8.94519,-8.94519zm0,2.11426c3.77258,0 6.83081,3.05835 6.83081,6.83093c0,3.77258 -3.05823,6.83093 -6.83081,6.83093c-3.77258,0 -6.83093,-3.05835 -6.83093,-6.83093c0,-3.77258 3.05835,-6.83093 6.83093,-6.83093z" id="path3937-7-4-5-5"/>
   <path fill="#ff8d07" fill-opacity="0.26364" fill-rule="nonzero" id="path3939-4-40-8-1-7" d="m1381.08081,960.25a6.83086,6.83086 0 1 1 -13.66162,0a6.83086,6.83086 0 1 1 13.66162,0z"/>
   <path fill="#6bf6ff" fill-opacity="0.15455" fill-rule="nonzero" d="m1425.71875,913.125c-13.25488,0 -24,10.74518 -24,24c0,6.1413 2.29956,11.72412 6.09375,15.96875c-2.11499,3.17175 -6.69409,10.1095 -10.5625,16.65625c-4.875,8.25 -18.125,35 -18.125,35l5.25,-1.625c0,0 10.25,-21 14.125,-28.125c2.9751,-5.47034 9.41699,-14.93152 12.28101,-19.09375c4.0968,3.25647 9.29761,5.21875 14.93774,5.21875c13.25476,0 24,-10.74524 24,-24c0,-13.25482 -10.74524,-24 -24,-24zm0,14.5c5.24646,0 9.5,4.2533 9.5,9.5c0,5.2467 -4.25354,9.5 -9.5,9.5c-5.2467,0 -9.5,-4.2533 -9.5,-9.5c0,-5.2467 4.2533,-9.5 9.5,-9.5z" id="path3093-6"/>
   <path fill="#ffffff" fill-opacity="0.19545" fill-rule="nonzero" d="m1425.71594,924.36041c-7.04175,0 -12.75,5.70837 -12.75,12.75c0,7.04156 5.70825,12.74994 12.75,12.74994c7.04175,0 12.75,-5.70837 12.75,-12.74994c0,-7.04163 -5.70825,-12.75 -12.75,-12.75zm0,3.25c5.2467,0 9.5,4.2533 9.5,9.5c0,5.2467 -4.2533,9.49994 -9.5,9.49994c-5.2467,0 -9.5,-4.25323 -9.5,-9.49994c0,-5.2467 4.2533,-9.5 9.5,-9.5z" id="path3863-1"/>
   <path fill="#ffff10" fill-opacity="0.22273" fill-rule="nonzero" id="path3865-8" d="m1435.21594,937.11041a9.5,9.5 0 1 1 -19,0a9.5,9.5 0 1 1 19,0z"/>
   <path fill="#00ffff" fill-rule="nonzero" id="path3949" d="m1275.125,917.5a5.25,5.25 0 1 1 -10.5,0a5.25,5.25 0 1 1 10.5,0z"/>
   <path fill="#00ffff" fill-opacity="0.52727" fill-rule="nonzero" id="path3949-1" d="m1245.25,893.5a5.25,5.25 0 1 1 -10.5,0a5.25,5.25 0 1 1 10.5,0z"/>
   <path fill="#ff8800" fill-rule="nonzero" id="path3949-7" d="m1269.25012,866.87512a3.625,3.625 0 1 1 -7.25,0a3.625,3.625 0 1 1 7.25,0z"/>
   <path fill="#ff8800" fill-opacity="0.27727" fill-rule="nonzero" id="path3949-7-4" d="m1205.75012,854.37512a3.625,3.625 0 1 1 -7.25,0a3.625,3.625 0 1 1 7.25,0z"/>
   <path fill="#9adfff" fill-opacity="0.32028" fill-rule="nonzero" d="m1695.65625,796c-27.53198,0 -49.875,22.31165 -49.875,49.84375c0,17.15204 8.68115,32.27496 21.875,41.25c-1.94226,3.80157 -6.42334,12.78705 -13.03125,27.6875c-9.0155,20.32935 -20.1626,55.33789 -23.875,82.03125c-1.4541,10.45654 -2.3075,15.40796 -2.8125,17.59375l3.875,-0.4375c0,0 1.77515,6.00159 4.25,-17.15625c2.47498,-23.15771 12.896,-49.13477 18.90637,-66.8125c5.01294,-14.74457 14.41382,-33.79901 17.53113,-40c6.91919,3.63519 14.80115,5.71875 23.15625,5.71875c27.53235,0 49.84375,-22.3429 49.84375,-49.875c0,-27.5321 -22.31152,-49.84375 -49.84375,-49.84375zm-67.71875,218.40625l-0.71863,0.09399c0,0 -0.06604,3.30054 0.71863,-0.09399zm67.71875,-182.4375c7.65796,0 13.875,6.21704 13.875,13.875c0,7.65796 -6.21704,13.875 -13.875,13.875c-7.65796,0 -13.875,-6.21704 -13.875,-13.875c0,-7.65796 6.21704,-13.875 13.875,-13.875z" id="path3922-0"/>
   <path fill="#9adfff" fill-opacity="0.32028" fill-rule="nonzero" d="m1695.65662,810.2066c-19.69165,0 -35.65869,15.93768 -35.65869,35.62952c0,19.69183 15.96704,35.65875 35.65869,35.65875c19.69189,0 35.62976,-15.96686 35.62976,-35.65875c0,-19.69183 -15.93787,-35.62952 -35.62976,-35.62952zm0,21.76874c7.65796,0 13.86096,6.20288 13.86096,13.86078c0,7.65796 -6.203,13.89001 -13.86096,13.89001c-7.65784,0 -13.88989,-6.23206 -13.88989,-13.89001c0,-7.6579 6.23206,-13.86078 13.88989,-13.86078z" id="path3924-9"/>
   <path fill="#ffffff" fill-rule="nonzero" d="m1695.65674,828.35693c-9.66345,0 -17.5083,7.81561 -17.5083,17.47919c0,9.66357 7.84485,17.50836 17.5083,17.50836c9.66357,0 17.47925,-7.84479 17.47925,-17.50836c0,-9.66357 -7.81567,-17.47919 -17.47925,-17.47919zm0,3.61841c7.65796,0 13.86096,6.20282 13.86096,13.86078c0,7.65796 -6.203,13.88995 -13.86096,13.88995c-7.65796,0 -13.88977,-6.23199 -13.88977,-13.88995c0,-7.65796 6.23181,-13.86078 13.88977,-13.86078z" id="path3926-4"/>
   <path fill="#ff9500" fill-rule="nonzero" id="path3928-2-8" d="m1709.50806,845.85077a13.866,13.866 0 1 1 -27.73206,0a13.866,13.866 0 1 1 27.73206,0z"/>
   <path fill="#6bf6ff" fill-opacity="0.15455" fill-rule="nonzero" d="m1605.5,915c-13.25488,0 -24,10.74518 -24,24c0,9.98657 6.10425,18.54114 14.78125,22.15625c-1.0105,2.59595 -3.0509,8.23096 -5.65625,18.15625c-3.71228,14.14221 -6.34375,28.8125 -6.34375,28.8125l5.125,-0.15625c0,0 2.62952,-16.6239 5.28125,-27.9375c2.00696,-8.56287 4.52148,-14.97009 5.625,-17.59375c1.66882,0.36731 3.40845,0.5625 5.1875,0.5625c13.25476,0 24,-10.74524 24,-24c0,-13.25482 -10.74524,-24 -24,-24zm0,14.5c5.2467,0 9.5,4.2533 9.5,9.5c0,5.2467 -4.2533,9.5 -9.5,9.5c-5.2467,0 -9.5,-4.2533 -9.5,-9.5c0,-5.2467 4.2533,-9.5 9.5,-9.5z" id="path3093-6-8"/>
   <path fill="#ffffff" fill-opacity="0.19545" fill-rule="nonzero" d="m1605.5,926.25c-7.04175,0 -12.75,5.70837 -12.75,12.75c0,7.04163 5.70825,12.75 12.75,12.75c7.04163,0 12.75,-5.70837 12.75,-12.75c0,-7.04163 -5.70837,-12.75 -12.75,-12.75zm0,3.25c5.2467,0 9.5,4.2533 9.5,9.5c0,5.2467 -4.2533,9.5 -9.5,9.5c-5.2467,0 -9.5,-4.2533 -9.5,-9.5c0,-5.2467 4.2533,-9.5 9.5,-9.5z" id="path3863-1-2"/>
   <path fill="#ffff10" fill-opacity="0.22273" fill-rule="nonzero" id="path3865-8-4" d="m1615,939a9.5,9.5 0 1 1 -19,0a9.5,9.5 0 1 1 19,0z"/>
   <path fill="#ffffff" fill-opacity="0.02273" fill-rule="nonzero" d="m1540.46875,867.03125c-16.5686,0 -30,13.43146 -30,30c0,16.56854 13.4314,29.99994 30,29.99994c2.6936,0 5.29761,-0.36542 7.78125,-1.03119c1.35645,3.95068 6.47119,19.31079 8.625,33.15625c2.47461,15.90991 5.46875,44.71875 5.46875,44.71875c0,0 4.96973,1.95715 5.5,1.25c0.53015,-0.70715 -2.12085,-21.9342 -5.65625,-44.03125c-2.58875,-16.1792 -7.35059,-30.17377 -9.71875,-36.56256c10.58496,-4.63367 18,-15.20544 18,-27.49994c0,-16.56854 -13.43164,-30 -30,-30zm0,17.78125c6.7561,0 12.21875,5.46265 12.21875,12.21875c0,6.7561 -5.46265,12.21875 -12.21875,12.21875c-6.75635,0 -12.25,-5.46265 -12.25,-12.21875c0,-6.7561 5.49365,-12.21875 12.25,-12.21875z" id="path3935-1-9-2-5"/>
   <path fill="#ffffff" fill-opacity="0.42273" fill-rule="nonzero" d="m1540.4624,880.79822c-8.96484,0 -16.23206,7.26733 -16.23206,16.23193c0,8.96466 7.26721,16.23199 16.23206,16.23199c8.9646,0 16.23206,-7.26733 16.23206,-16.23199c0,-8.9646 -7.26746,-16.23193 -16.23206,-16.23193zm0,3.83673c6.8457,0 12.39539,5.54956 12.39539,12.3952c0,6.84583 -5.54968,12.39539 -12.39539,12.39539c-6.84583,0 -12.39539,-5.54956 -12.39539,-12.39539c0,-6.84564 5.54956,-12.3952 12.39539,-12.3952z" id="path3937-7-4-21-2"/>
   <path fill="#ff8d07" fill-opacity="0.41818" fill-rule="nonzero" id="path3939-4-40-8-6-7" d="m1552.85791,897.03015a12.39533,12.39533 0 1 1 -24.79065,0a12.39533,12.39533 0 1 1 24.79065,0z"/>
   <path fill="#6bf6ff" fill-opacity="0.08182" fill-rule="nonzero" d="m1693.875,930.03119c-9.74023,0 -17.625,7.9162 -17.625,17.65631c0,9.74011 7.88477,17.625 17.625,17.625c1.85071,0 3.63647,-0.28394 5.3125,-0.8125c0.61865,2.05591 3.92505,13.0874 6.4375,20.625c2.875,8.625 7.375,19.875 7.375,19.875l4,-0.125c0,0 -4.5,-11.25 -8,-22.125c-2.84546,-8.84131 -5.28564,-16.62952 -6.28125,-19.8125c5.25684,-3.0531 8.78125,-8.73315 8.78125,-15.25c0,-9.74011 -7.88489,-17.65631 -17.625,-17.65631zm0,10.65631c3.85547,0 6.96875,3.14447 6.96875,7c0,3.85547 -3.11328,6.96875 -6.96875,6.96875c-3.85547,0 -6.96875,-3.11328 -6.96875,-6.96875c0,-3.85553 3.11328,-7 6.96875,-7z" id="path3093-6-8-6"/>
   <path fill="#ffffff" fill-opacity="0.19545" fill-rule="nonzero" d="m1693.87427,938.30499c-5.17444,0 -9.36914,4.1947 -9.36914,9.36908c0,5.17444 4.1947,9.36914 9.36914,9.36914c5.17444,0 9.36914,-4.1947 9.36914,-9.36914c0,-5.17438 -4.1947,-9.36908 -9.36914,-9.36908zm0,2.38818c3.85535,0 6.98096,3.12543 6.98096,6.9809c0,3.85547 -3.12561,6.98096 -6.98096,6.98096c-3.85547,0 -6.98096,-3.12549 -6.98096,-6.98096c0,-3.85547 3.12549,-6.9809 6.98096,-6.9809z" id="path3863-1-2-1"/>
   <path fill="#ffff10" fill-opacity="0.22273" fill-rule="nonzero" id="path3865-8-4-4" d="m1700.85522,947.67407a6.98093,6.98093 0 1 1 -13.96179,0a6.98093,6.98093 0 1 1 13.96179,0z"/>
   <path fill="#cefcaf" fill-opacity="0.13182" fill-rule="nonzero" d="m1751.5,897.15625c-13.25488,0 -24,10.74524 -24,23.99994c0,5.61243 1.92859,10.78778 5.15625,14.875c-5.24084,5.98151 -17.0437,29.50653 -19.1134,33.56866c-9.22339,18.10205 -16.04285,35.77515 -16.04285,35.77515l5.375,-2.25c0,0 6.75,-16.5 15.375,-33.375c7.04395,-13.78162 13.55005,-26.21613 17.5,-30.5c4.2179,3.68073 9.71216,5.90625 15.75,5.90625c13.25476,0 24,-10.74518 24,-24.00006c0,-13.2547 -10.74524,-23.99994 -24,-23.99994zm0,14.5c5.2467,0 9.5,4.2533 9.5,9.49994c0,5.24683 -4.2533,9.5 -9.5,9.5c-5.2467,0 -9.5,-4.25317 -9.5,-9.5c0,-5.24664 4.2533,-9.49994 9.5,-9.49994z" id="path3093-6-8-2"/>
   <path fill="#cefcaf" fill-opacity="0.13182" fill-rule="nonzero" d="m1751.50354,908.40759c-7.04175,0 -12.75,5.70837 -12.75,12.75c0,7.04163 5.70825,12.75 12.75,12.75c7.04175,0 12.75,-5.70837 12.75,-12.75c0,-7.04163 -5.70825,-12.75 -12.75,-12.75zm0,3.25c5.2467,0 9.5,4.2533 9.5,9.5c0,5.2467 -4.2533,9.5 -9.5,9.5c-5.2467,0 -9.5,-4.2533 -9.5,-9.5c0,-5.2467 4.2533,-9.5 9.5,-9.5z" id="path3863-1-2-3"/>
   <path fill="#cefcaf" fill-opacity="0.13182" fill-rule="nonzero" id="path3865-8-4-2" d="m1761.00354,921.15759a9.5,9.5 0 1 1 -19,0a9.5,9.5 0 1 1 19,0z"/>
   <path fill="#ffffff" fill-opacity="0.16078" d="m616.59375,953.25c-7.47089,0 -13.53125,6.0603 -13.53125,13.53125c0,7.47095 6.06036,13.5 13.53125,13.5c1.52875,0 2.12952,0 3.5,-0.46875c0.90198,3.14685 8.55548,26.64514 10.53125,36.75c2.17432,11.12061 4.28125,10.5 4.28125,10.5l-0.1875,-8.8125l-1.09375,-7.375c-0.94415,-3.23779 -9.77429,-30.93994 -10.25,-32.4375c4.02325,-2.34412 6.75,-6.66431 6.75,-11.65625c0,-7.47095 -6.06036,-13.53125 -13.53125,-13.53125zm0,8c3.04639,0 5.53125,2.48474 5.53125,5.53125c0,3.04639 -2.48486,5.5 -5.53125,5.5c-3.04639,0 -5.5,-2.45349 -5.5,-5.5c0,-3.04639 2.45361,-5.53125 5.5,-5.53125z" id="path4185-1"/>
   <path fill="#ffffff" fill-opacity="0.16078" d="m657.96875,932.375c-9.13062,0 -16.53125,7.40057 -16.53125,16.53125c0,3.71716 1.24182,7.1449 3.3125,9.90625c-0.30017,0.4679 -7.66174,11.90381 -14.375,23.5c-7.72687,13.34705 -10.46875,31.875 -10.46875,31.875l3.9375,-1.3125c0,0 3.02386,-17.01904 9.03125,-27.5c9.18286,-16.02124 13.02393,-22.01331 14.46875,-23.8125c2.8725,2.40979 6.58221,3.875 10.625,3.875c9.13062,0 16.53125,-7.40063 16.53125,-16.53125c0,-9.13074 -7.40063,-16.53125 -16.53125,-16.53125zm0,9.78119c3.72314,0 6.75,3.02679 6.75,6.75006c0,3.72314 -3.02686,6.75 -6.75,6.75c-3.72314,0 -6.75,-3.02673 -6.75,-6.75c0,-3.72314 3.02686,-6.75006 6.75,-6.75006z" id="path4185-6"/>
   <path fill="#ff9100" fill-opacity="0.24706" d="m707.625,911c-12.84064,0 -23.25,10.4093 -23.25,23.25c0,8.12939 4.17987,15.28162 10.5,19.4375c-1.33514,2.88074 -7.58746,16.4624 -11.09375,24.75c-3.8891,9.19238 -10.4375,28.8125 -10.4375,28.8125l5.125,0c0,0 3.88422,-13.78088 9.1875,-25.625c4.69122,-10.47705 9.81793,-22.82922 11.09375,-25.90625c2.74054,1.13611 5.72363,1.78125 8.875,1.78125c12.84064,0 23.25,-10.40955 23.25,-23.25c0,-12.8407 -10.40936,-23.25 -23.25,-23.25zm0,13.75c5.23596,0 9.5,4.26398 9.5,9.5c0,5.23602 -4.26404,9.46881 -9.5,9.46881c-5.23596,0 -9.46875,-4.23279 -9.46875,-9.46881c0,-5.23602 4.23279,-9.5 9.46875,-9.5z" id="path4244"/>
   <path fill="#ff91ff" fill-opacity="0.2" id="path4250" d="m1066.84741,900.65149c0,0 3.18188,42.60321 3.71228,56.39185c0.53027,13.78845 1.94446,49.67419 1.94446,49.67419l6.89441,0.88391c0,0 -0.88379,-33.23401 -1.76782,-49.85107c-0.88367,-16.61694 -3.71228,-57.80597 -3.71228,-57.80597l-7.07104,0.70709zm-1.93237,-105.0094c-29.48462,0 -53.40631,23.89044 -53.40631,53.375c0,29.48462 23.92169,53.40625 53.40631,53.40625c29.48462,0 53.375,-23.92163 53.375,-53.40625c0,-29.48456 -23.89038,-53.375 -53.375,-53.375zm0,38.53125c8.20093,0 14.84363,6.64276 14.84363,14.84375c0,8.20105 -6.6427,14.875 -14.84363,14.875c-8.20105,0 -14.875,-6.67395 -14.875,-14.875c0,-8.20099 6.67395,-14.84375 14.875,-14.84375z"/>
   <path fill="#ffffff" fill-opacity="0.05098" d="m1378.625,975.75l9.25,27l5.75,0.625l-2.875,-2.125l-8.875,-28.25l-3.25,2.75z" id="path4256"/>
   <path fill="#ff9100" fill-opacity="0.12727" d="m1897.35193,922.83478c17.03906,0 30.85205,13.8277 30.85205,30.88531c0,10.79907 -5.54688,20.29993 -13.93311,25.8208c1.77161,3.82678 10.06812,21.86853 14.7207,32.87793c5.16064,12.21118 13.8501,38.27454 13.8501,38.27454l-6.80066,0c0,0 -5.15393,-18.30652 -12.19153,-34.04028c-6.22485,-13.91785 -13.02771,-30.32629 -14.7207,-34.41382c-3.6366,1.50916 -7.59497,2.36621 -11.77686,2.36621c-17.03894,0 -30.85181,-13.828 -30.85181,-30.88538c0,-17.05762 13.81287,-30.88531 30.85181,-30.88531zm0,18.2655c-6.94775,0 -12.60596,5.66425 -12.60596,12.61981c0,6.95544 5.6582,12.57837 12.60596,12.57837c6.948,0 12.56445,-5.62292 12.56445,-12.57837c0,-6.95557 -5.61646,-12.61981 -12.56445,-12.61981z" id="path4244-1"/>
   <path fill="#ffffff" fill-opacity="0.29091" fill-rule="nonzero" d="m1897.33582,936.99463c9.21936,0 16.69312,7.48206 16.69312,16.71106c0,9.22925 -7.47375,16.71118 -16.69312,16.71118c-9.21924,0 -16.69275,-7.48193 -16.69275,-16.71118c0,-9.229 7.47351,-16.71106 16.69275,-16.71106zm0,3.94989c-7.04004,0 -12.74744,5.71332 -12.74744,12.76117c0,7.04785 5.7074,12.76111 12.74744,12.76111c7.04016,0 12.74731,-5.71326 12.74731,-12.76111c0,-7.04785 -5.70715,-12.76117 -12.74731,-12.76117z" id="path3937-7-4-1-4"/>
   <path fill="#ff8d07" fill-opacity="0.34545" fill-rule="nonzero" id="path3939-4-40-8-15-9" d="m1884.58862,953.70557a12.74729,12.76113 0 1 1 25.49451,0a12.74729,12.76113 0 1 1 -25.49451,0z"/>
   <path fill="#ff184b" fill-opacity="0.22727" fill-rule="nonzero" d="m1821.47107,877.14783c-15.88745,0.80536 -28.53296,13.98126 -28.53296,30.06885c0,16.60645 13.4624,30.06885 30.06885,30.06885c2.68469,0 5.28284,-0.39075 7.75977,-1.0509c1.29419,4.00299 7.06689,24.45117 8.93152,33.90833c2.26331,11.47791 4.68823,29.42212 4.68823,29.42212l4.20325,0.16162c0,0 -1.93994,-20.2074 -5.81982,-36.05017c-2.90991,-11.88196 -6.37549,-23.6629 -7.92139,-28.81592c10.72986,-4.59229 18.22729,-15.23407 18.22729,-27.64392c0,-16.60657 -13.46252,-30.06885 -30.06885,-30.06885c-0.51904,0 -1.02344,-0.026 -1.53589,0zm1.53589,17.78271c6.77173,0 12.24573,5.51453 12.24573,12.28613c0,6.77155 -5.474,12.24573 -12.24573,12.24573c-6.77173,0 -12.24573,-5.47418 -12.24573,-12.24573c0,-6.77161 5.474,-12.28613 12.24573,-12.28613z" id="path3935-1-9-2-8"/>
   <path fill="#ffffff" fill-opacity="0.42273" fill-rule="nonzero" d="m1823.00684,890.92773c-8.98535,0 -16.26917,7.28394 -16.26917,16.26917c0,8.98523 7.28381,16.26941 16.26917,16.26941c8.98523,0 16.26917,-7.28418 16.26917,-16.26941c0,-8.98523 -7.28394,-16.26917 -16.26917,-16.26917zm0,3.84552c6.86145,0 12.42383,5.56226 12.42383,12.42365c0,6.86151 -5.56238,12.42383 -12.42383,12.42383c-6.86145,0 -12.42383,-5.56232 -12.42383,-12.42383c0,-6.86139 5.56238,-12.42365 12.42383,-12.42365z" id="path3937-7-4-21-24"/>
   <path fill="#ff8d07" fill-opacity="0.41818" fill-rule="nonzero" id="path3939-4-40-8-6-5" d="m1835.43054,907.19702a12.42377,12.42377 0 1 1 -24.84753,0a12.42377,12.42377 0 1 1 24.84753,0z"/>
  </g>
  <g id="layer3" display="inline">
   <path fill="#72ffff" fill-opacity="0.3871" fill-rule="nonzero" id="path3798" d="m105,857.5a28.75,28.75 0 1 1 -57.5,0a28.75,28.75 0 1 1 57.5,0z"/>
   <path fill="#ffffff" fill-rule="nonzero" d="m166.5,883.75c-9.94113,0 -18,8.0589 -18,18c0,9.9411 8.05887,18 18,18c9.94113,0 18,-8.0589 18,-18c0,-9.9411 -8.05887,-18 -18,-18zm0,4.75c7.31776,0 13.25,5.93225 13.25,13.25c0,7.31775 -5.93224,13.25 -13.25,13.25c-7.31776,0 -13.25,-5.93225 -13.25,-13.25c0,-7.31775 5.93224,-13.25 13.25,-13.25z" id="path3838"/>
   <path fill="#ffffff" fill-opacity="0.553" fill-rule="nonzero" d="m260.5,920c-7.04163,0 -12.75,5.70837 -12.75,12.75c0,7.04163 5.70837,12.75 12.75,12.75c7.04163,0 12.75,-5.70837 12.75,-12.75c0,-7.04163 -5.70837,-12.75 -12.75,-12.75zm0,3.25c5.2467,0 9.5,4.2533 9.5,9.5c0,5.2467 -4.2533,9.5 -9.5,9.5c-5.2467,0 -9.5,-4.2533 -9.5,-9.5c0,-5.2467 4.2533,-9.5 9.5,-9.5z" id="path3863"/>
   <path fill="#ffffff" fill-opacity="0.553" fill-rule="nonzero" d="m318.25,947.99219c-5.94138,0 -10.75781,4.81653 -10.75781,10.75781c0,5.94128 4.81644,10.75781 10.75781,10.75781c5.94138,0 10.75781,-4.81653 10.75781,-10.75781c0,-5.94128 -4.81644,-10.75781 -10.75781,-10.75781zm0,2.74219c4.42691,0 8.01563,3.58875 8.01563,8.01563c0,4.42688 -3.58871,8.01563 -8.01563,8.01563c-4.42691,0 -8.01563,-3.58875 -8.01563,-8.01563c0,-4.42688 3.58871,-8.01563 8.01563,-8.01563z" id="path3863-0"/>
   <path fill="#ffffff" fill-opacity="0.75576" fill-rule="nonzero" d="m374,912.25c-7.59393,0 -13.75,6.15607 -13.75,13.75c0,7.59387 6.15607,13.75 13.75,13.75c7.59393,0 13.75,-6.15613 13.75,-13.75c0,-7.59393 -6.15607,-13.75 -13.75,-13.75zm0,3.25c5.79898,0 10.5,4.70099 10.5,10.5c0,5.79901 -4.70102,10.5 -10.5,10.5c-5.79898,0 -10.5,-4.70099 -10.5,-10.5c0,-5.79901 4.70102,-10.5 10.5,-10.5z" id="path3937"/>
   <path fill="#ffffff" fill-opacity="0.75576" fill-rule="nonzero" d="m438.25,868.25c-7.59393,0 -13.75,6.15613 -13.75,13.75c0,7.59387 6.15607,13.75 13.75,13.75c7.59393,0 13.75,-6.15613 13.75,-13.75c0,-7.59387 -6.15607,-13.75 -13.75,-13.75zm0,3.25c5.79898,0 10.5,4.70099 10.5,10.5c0,5.79901 -4.70102,10.5 -10.5,10.5c-5.79898,0 -10.5,-4.70099 -10.5,-10.5c0,-5.79901 4.70102,-10.5 10.5,-10.5z" id="path3937-2"/>
   <path fill="#ffffff" fill-opacity="0.75576" fill-rule="nonzero" d="m467.25,935c-7.59393,0 -13.75,6.15613 -13.75,13.75c0,7.59387 6.15607,13.75 13.75,13.75c7.59393,0 13.75,-6.15613 13.75,-13.75c0,-7.59387 -6.15607,-13.75 -13.75,-13.75zm0,3.25c5.79898,0 10.5,4.70099 10.5,10.5c0,5.79895 -4.70102,10.5 -10.5,10.5c-5.79898,0 -10.5,-4.70105 -10.5,-10.5c0,-5.79901 4.70102,-10.5 10.5,-10.5z" id="path3937-7"/>
   <path fill="#ffffff" fill-opacity="0.75576" fill-rule="nonzero" d="m575.5,904.92023c-6.94763,0 -12.57977,5.6322 -12.57977,12.57977c0,6.94757 5.63214,12.57977 12.57977,12.57977c6.94763,0 12.57977,-5.6322 12.57977,-12.57977c0,-6.94757 -5.63214,-12.57977 -12.57977,-12.57977zm0,2.97339c5.30548,0 9.60638,4.30096 9.60638,9.60638c0,5.30548 -4.3009,9.60638 -9.60638,9.60638c-5.30548,0 -9.60638,-4.3009 -9.60638,-9.60638c0,-5.30542 4.3009,-9.60638 9.60638,-9.60638z" id="path3937-7-4"/>
  </g>
  <g id="layer4" display="inline">
   <path fill="#ffffff" fill-opacity="0.3871" fill-rule="nonzero" id="path3805" d="m93,857.5a16.75,16.75 0 1 1 -33.5,0a16.75,16.75 0 1 1 33.5,0z"/>
   <path fill="#d45500" fill-opacity="0.82949" fill-rule="nonzero" id="path3812" d="m87.25,857.5a11,11 0 1 1 -22,0a11,11 0 1 1 22,0z"/>
   <path fill="#ffa21f" fill-opacity="0.73733" fill-rule="nonzero" id="path3840-1" d="m179.75,901.75006a13.25,13.25 0 1 1 -26.5,0a13.25,13.25 0 1 1 26.5,0z"/>
   <path fill="#ffff10" fill-opacity="0.40092" fill-rule="nonzero" id="path3865" d="m270,932.75a9.5,9.5 0 1 1 -19,0a9.5,9.5 0 1 1 19,0z"/>
   <path fill="#ffff10" fill-opacity="0.40092" fill-rule="nonzero" id="path3865-9" d="m326.26566,958.75a8.01564,8.01564 0 1 1 -16.03128,0a8.01564,8.01564 0 1 1 16.03128,0z"/>
   <path fill="#ff8d07" fill-opacity="0.63594" fill-rule="nonzero" id="path3939-4" d="m384.5,926a10.5,10.5 0 1 1 -21,0a10.5,10.5 0 1 1 21,0z"/>
   <path fill="#ff8d07" fill-opacity="0.63594" fill-rule="nonzero" id="path3939-4-4" d="m448.75,882a10.5,10.5 0 1 1 -21,0a10.5,10.5 0 1 1 21,0z"/>
   <path fill="#ff8d07" fill-opacity="0.63594" fill-rule="nonzero" id="path3939-4-40" d="m477.75,948.75a10.5,10.5 0 1 1 -21,0a10.5,10.5 0 1 1 21,0z"/>
   <path fill="#ff8d07" fill-opacity="0.63594" fill-rule="nonzero" id="path3939-4-40-8" d="m585.10638,917.5a9.60639,9.60639 0 1 1 -19.21277,0a9.60639,9.60639 0 1 1 19.21277,0z"/>
   <path fill="#ffffff" fill-opacity="0.75576" fill-rule="nonzero" d="m616.59711,959.44678c-4.04224,0 -7.31915,3.27698 -7.31915,7.31921c0,4.04224 3.27692,7.31921 7.31915,7.31921c4.04224,0 7.31915,-3.27698 7.31915,-7.31921c0,-4.04224 -3.27692,-7.31921 -7.31915,-7.31921zm0,1.72998c3.08685,0 5.58917,2.50244 5.58917,5.58923c0,3.08679 -2.50232,5.58923 -5.58917,5.58923c-3.08679,0 -5.58917,-2.50244 -5.58917,-5.58923c0,-3.08679 2.50238,-5.58923 5.58917,-5.58923z" id="path3937-7-4-2"/>
   <path fill="#ff8d07" fill-opacity="0.63594" fill-rule="nonzero" id="path3939-4-40-8-4" d="m622.18634,966.76599a5.58917,5.58917 0 1 1 -11.17834,0a5.58917,5.58917 0 1 1 11.17834,0z"/>
   <path fill="#ffffff" fill-opacity="0.75576" fill-rule="nonzero" d="m657.96283,939.96637c-4.94031,0 -8.94519,4.005 -8.94519,8.94525c0,4.94019 4.00488,8.94519 8.94519,8.94519c4.94031,0 8.94519,-4.005 8.94519,-8.94519c0,-4.94025 -4.00488,-8.94525 -8.94519,-8.94525zm0,2.11432c3.77258,0 6.83087,3.05823 6.83087,6.83093c0,3.77258 -3.05829,6.83069 -6.83087,6.83069c-3.77258,0 -6.83087,-3.05811 -6.83087,-6.83069c0,-3.77271 3.05829,-6.83093 6.83087,-6.83093z" id="path3937-7-4-5"/>
   <path fill="#ff8d07" fill-opacity="0.63594" fill-rule="nonzero" id="path3939-4-40-8-1" d="m664.7937,948.91162a6.83086,6.83086 0 1 1 -13.66168,0a6.83086,6.83086 0 1 1 13.66168,0z"/>
   <path fill="#ffffff" fill-opacity="0.75576" fill-rule="nonzero" d="m707.63708,921.6593c-6.94763,0 -12.57977,5.6322 -12.57977,12.57977c0,6.94763 5.63214,12.57977 12.57977,12.57977c6.94763,0 12.57977,-5.63214 12.57977,-12.57977c0,-6.94757 -5.63214,-12.57977 -12.57977,-12.57977zm0,2.97339c5.30548,0 9.60638,4.3009 9.60638,9.60638c0,5.30554 -4.3009,9.60645 -9.60638,9.60645c-5.30548,0 -9.60638,-4.3009 -9.60638,-9.60645c0,-5.30548 4.3009,-9.60638 9.60638,-9.60638z" id="path3937-7-4-1"/>
   <path fill="#ff8d07" fill-opacity="0.63594" fill-rule="nonzero" id="path3939-4-40-8-15" d="m717.24347,934.23907a9.60639,9.60639 0 1 1 -19.21277,0a9.60639,9.60639 0 1 1 19.21277,0z"/>
  </g>
 </g>
</svg>