<?xml version="1.0" encoding="UTF-8" standalone="no"?>
<!-- Created with Inkscape (http://www.inkscape.org/) -->

<svg
   xmlns:dc="http://purl.org/dc/elements/1.1/"
   xmlns:cc="http://creativecommons.org/ns#"
   xmlns:rdf="http://www.w3.org/1999/02/22-rdf-syntax-ns#"
   xmlns:svg="http://www.w3.org/2000/svg"
   xmlns="http://www.w3.org/2000/svg"
   xmlns:xlink="http://www.w3.org/1999/xlink"
   xmlns:sodipodi="http://sodipodi.sourceforge.net/DTD/sodipodi-0.dtd"
   xmlns:inkscape="http://www.inkscape.org/namespaces/inkscape"
   width="1920px"
   height="1080px"
   id="svg4001"
   version="1.1"
   inkscape:version="0.48.4 r9939"
   sodipodi:docname="Новый документ 5">
  <sodipodi:namedview
     id="base"
     pagecolor="#ffffff"
     bordercolor="#666666"
     borderopacity="1.0"
     inkscape:pageopacity="0.0"
     inkscape:pageshadow="2"
     inkscape:zoom="0.3"
     inkscape:cx="388.33333"
     inkscape:cy="540"
     inkscape:document-units="px"
     inkscape:current-layer="svg4001"
     showgrid="false"
     inkscape:window-width="1858"
     inkscape:window-height="1057"
     inkscape:window-x="-8"
     inkscape:window-y="-8"
     inkscape:window-maximized="1" />
  <defs
     id="defs4003">
    <linearGradient
       inkscape:collect="always"
       id="linearGradient6197">
      <stop
         style="stop-color:#ffffff;stop-opacity:1;"
         offset="0"
         id="stop6199" />
      <stop
         style="stop-color:#ffffff;stop-opacity:0;"
         offset="1"
         id="stop6201" />
    </linearGradient>
    <linearGradient
       inkscape:collect="always"
       xlink:href="#linearGradient6197"
       id="linearGradient6203"
       x1="668.91689"
       y1="574.62875"
       x2="1988.3798"
       y2="574.62875"
       gradientUnits="userSpaceOnUse" />
  </defs>
  <metadata
     id="metadata4006">
    <rdf:RDF>
      <cc:Work
         rdf:about="">
        <dc:format>image/svg+xml</dc:format>
        <dc:type
           rdf:resource="http://purl.org/dc/dcmitype/StillImage" />
        <dc:title></dc:title>
      </cc:Work>
    </rdf:RDF>
  </metadata>
  <g
     id="layer1"
     inkscape:label="Layer 1"
     inkscape:groupmode="layer"
     sodipodi:insensitive="true"
     style="opacity:0.77821009;display:none">
    <rect
       style="fill:#0d0cff;fill-opacity:1;fill-rule:nonzero;stroke:#ffffff;stroke-width:3.5999999;stroke-miterlimit:4;stroke-opacity:1;stroke-dasharray:none"
       id="rect4518"
       width="2063.3333"
       height="1156.6666"
       x="-36.666668"
       y="-13.333333" />
  </g>
  <g
     inkscape:groupmode="layer"
     id="layer6"
     inkscape:label="1" />
  <path
     inkscape:connector-curvature="0"
     style="fill:url(#linearGradient6203);stroke:none;stroke-width:1px;stroke-linecap:butt;stroke-linejoin:miter;stroke-opacity:1;fill-opacity:1;opacity:1"
     d="m 668.91689,1074.3551 77.56314,-13.6952 31.86089,-5.6255 18.15313,-16.4025 24.7819,-11.0397 40.87459,-8.0495 m -83.80962,35.4917 39.73517,6.7403 38.50496,-5.9574 15.07282,-9.0742 m -93.31295,8.2913 -7.70073,1.7404 16.50568,-3.7305 59.66625,-59.3841 37.54484,-25.0484 62.3357,-23.6079 m -159.54679,108.0404 25.51906,-0.684 41.22994,-12.339 10.45374,-5.9564 m -77.20274,18.9794 38.5228,-42.9148 31.17165,-34.7255 18.07969,-73.70438 38.51035,-73.23793 6.55804,-7.82127 m -63.14808,154.76358 67.70118,-24.2001 20.31334,-16.05998 44.38555,-57.40393 m -132.40007,97.66401 68.20263,-24.8165 61.66395,-22.43732 83.0108,-73.11363 105.2527,-39.63483 83.5364,-14.60845 m -271.7999,127.35691 78.6366,3.48992 11.9911,-2.19315 55.3607,-28.49501 m -145.9884,27.19824 45.3292,1.57094 64.1665,2.22396 39.6495,-20.83067 55.557,-5.82714 16.5596,3.59699 m -111.7661,23.06082 69.4538,31.19632 51.3874,6.8725 31.1517,-3.4198 m -461.04963,86.4502 82.89509,7.663 50.29496,4.6494 37.07727,-20.7504 19.19878,-6.3536 90.32873,6.8002 m -146.60478,20.3038 40.50498,22.7123 36.95809,3.8667 48.92471,-8.7207 m -126.38778,-17.8583 13.78895,-0.5073 19.05762,-0.7012 50.17891,-31.3343 106.4009,-31.368 59.4602,-5.2563 m -216.04001,67.9586 72.44961,11.5222 53.9385,-6.1835 30.9135,-12.4141 m -157.30161,7.0754 -0.945,0.4469 57.04661,-26.9728 19.1694,-38.5002 21.0648,-23.5793 60.3738,-44.24654 m -100.608,106.32604 30.5421,-9.3717 33.3283,-21.9142 53.6862,-69.57846 m -339.69483,116.28636 6.18753,-1.4987 53.49284,-12.9563 33.62491,-43.648 70.03273,-51.743 3.80512,-1.8709 m -107.46276,97.2619 49.31314,-7.8886 41.21012,-19.5271 55.0579,-43.2586 m -145.58116,70.6743 41.8683,-19.7861 57.75497,-27.294 14.05033,-25.9163 12.27741,-14.1938 36.10555,-21.8266 m -62.43329,61.9367 31.0516,-10.3576 -3.13614,1.7559 13.10827,-11.8346 m -41.02373,20.4363 1.67005,-2.4428 27.65737,-40.4563 -0.74083,-29.83082 4.23657,-32.69129 26.06353,-62.02034 m -29.55927,124.54245 48.41957,-35.10374 47.9938,-68.3196 10.9952,-37.11801 m -107.40857,140.54135 50.43207,-48.97485 20.9859,-20.37944 21.6958,-69.3264 15.7633,-22.90516 37.08,-28.96604 m -74.5391,121.1976 48.1434,-15.34042 47.7585,-28.36509 27.9506,-38.74715 m -123.8525,82.45266 37.5508,-16.47648 18.964,-8.32104 13.2067,-23.34375 60.4161,-69.08868 73.508,-52.32749 m -147.1308,144.75992 -19.3397,5.03574 57.9727,-41.65043 15.528,-20.29002 m -211.42119,193.95562 33.59961,3.1879 9.00925,0.8548 -4.23638,2.834 38.58331,-9.7788 27.5724,-1.8762 m -61.91933,8.821 20.05503,9.5953 60.4791,13.3038 38.024,-3.8436 m -118.55813,-19.0555 44.58243,-10.3586 19.0771,-4.4325 43.6524,-62.01986 23.4117,-18.5497 67.5908,-26.78606 m -134.6549,107.35562 37.1211,-8.7568 71.9739,-41.59962 3.0994,-3.2272 m -112.1944,53.58362 55.0993,-48.9671 3.4766,-3.08966 18.6987,-97.45868 1.3661,-2.00983 -5.0925,3.73857 m -14.9723,95.72994 35.1441,-12.91652 41.6515,-26.0872 24.7888,-32.01635 m -266.42869,133.82523 40.78028,-54.23939 15.63041,-20.78895 8.3365,-60.37961 21.6424,-47.8524 53.8716,-53.10191 m -83.8505,161.33392 18.6411,-12.39317 36.976,-42.80294 32.4635,-89.0256 m -88.0806,144.22171 36.252,-53.65978 22.8344,-33.79935 0.6412,-44.46046 8.3979,-25.65871 17.8627,-26.83539 m -26.9018,96.95456 36.9644,-30.50105 46.9063,-65.66016 21.1174,-54.58939 m -104.9881,150.7506 -4.843,-66.65547 -3.4884,-48.0108 -8.4592,-11.79051 -17.6693,-36.83892 -15.3327,-94.34775 m 41.4612,142.97718 12.0488,-55.28781 1.3028,-27.50424 -9.9046,-70.60184 m -3.447,153.39389 10.5163,-36.78586 17.3018,-60.52145 -8.3486,-30.73241 -7.0769,-87.85178 10.4621,-51.13147 m 4.9634,169.71566 27.2223,-25.06031 41.4639,-55.96997 14.0248,-43.10465 m -82.711,124.13493 29.9655,-39.31142 22.1178,-29.01602 6.3724,-62.42204 14.2933,-30.74682 14.6609,-19.67551 m -35.3266,112.84437 32.5602,-31.59339 31.6937,-48.99731 16.1153,-66.23834 m -151.9392,427.13006 30.6449,-35.43858 44.7371,-51.73516 2.422,-13.32646 12.6987,-24.16183 23.3892,-24.78095 m -38.5099,62.26924 49.0476,-50.63196 11.6381,-20.46081 12.0161,-43.66991 m -72.7018,114.76268 -3.8207,9.085 28.7478,-68.35708 -17.1418,-52.46664 -3.9915,-51.62148 13.4772,-50.13658 m 7.6561,154.2247 45.8595,-65.59358 13.303,-41.62811 0.9435,-50.64468 m -60.106,157.86637 2.1885,-91.96465 0.4062,-17.07687 -7.2188,-9.88109 -16.3492,-41.32628 -6.2484,-54.44652 m 29.8164,105.65389 12.4741,-68.35432 -0.6581,-16.2536 -8.3257,-25.66081 m -106.3941,365.75607 28.0567,-29.76954 37.1785,-39.44839 3.1256,-15.68894 23.8784,-54.31407 23.2197,-23.81498 m -50.2237,93.81799 63.8403,-47.8711 43.1315,-67.63279 14.0395,-39.67538 m -121.0113,155.17927 -10.9887,12.83272 70.0612,-81.81794 3.4471,-43.12415 13.7747,-35.40363 42.7873,-55.4411 m -60.0091,133.96888 35.4036,-24.20559 23.5712,-25.24109 13.1986,-26.56283 m -72.1734,76.00951 9.5149,-67.42519 5.2571,-37.25423 -35.2032,-63.82087 -1.9802,-9.34088 2.091,-42.39132 m 35.0924,115.55307 12.3015,-18.44012 15.8208,-57.61909 -1.472,-60.08929 m -26.6503,136.1485 31.2787,-40.18395 9.9379,-12.76734 15.3651,-68.19886 11.433,-22.94855 2.0149,-2.03378 m -28.813,93.18119 33.4693,-19.54577 59.6393,-76.77042 12.7916,-37.73489 m -105.9002,134.05108 19.2533,-6.76264 94.421,-33.16488 31.7169,-37.35708 62.1565,-35.57605 45.3731,-12.1617 m -139.2465,85.09483 39.2086,-0.33331 50.6269,-13.03872 5.3773,-3.28202 m -264.8757,214.21228 27.5461,-19.78618 25.5518,-18.35351 12.323,-62.41729 8.1272,-14.78191 21.7918,-19.78498 m -42.242,96.98418 56.2333,-21.5249 34.51,-21.91413 16.8923,-19.97942 m -107.6356,63.41845 36.9532,-48.04511 38.8137,-50.46407 -0.3717,1.7639 24.7527,-39.88984 57.1538,-44.80233 m -81.5348,82.92827 7.5813,-3.87815 37.1307,-38.40537 27.7109,-45.43237 m -72.4229,87.71589 24.0213,-45.22351 24.11,-45.39052 -2.1805,-46.90157 15.199,-63.06682 31.5749,-47.77401 m -44.5934,157.7424 50.9803,-53.4459 49.3885,-86.58596 4.0816,-32.36892 m -281.4465,399.66368 68.9768,-68.12586 54.4162,-53.74487 14.3579,-48.09096 16.1073,-16.53622 57.0919,-22.88689 m -87.5571,87.51407 38.0732,-17.12002 12.8166,-8.96192 3.8651,-4.49176 m -54.7549,30.5737 33.8582,-30.58123 36.0335,-32.54622 30.487,-81.25057 47.702,-51.93699 28.4115,-14.4663 m -106.6005,147.65386 64.5034,-25.2707 23.0302,-20.37139 41.8274,-75.26909 m -129.361,120.91118 9.6209,-29.40184 10.125,-30.94215 -20.8705,-90.68754 4.6775,-54.78476 12.1487,-35.6861 m 4.0443,181.1584 27.8378,-41.6907 2.8339,-14.60945 -0.057,1.81121 m -30.6143,54.48894 50.1613,-71.09327 57.1713,-81.02838 13.2043,-91.06453 22.4394,-52.5765 40.3131,-55.38586 m -75.9568,199.02689 58.844,-45.28094 35.4661,-44.49558 25.2705,-53.49849 m -119.5806,143.27501 75.6714,-62.40954 71.6865,-59.12308 0.271,-0.86575 46.1937,-63.75737 46.3046,-23.43654 m -92.7693,88.05966 43.0817,-30.47024 35.6275,-49.22367 10.8884,-34.80642 m -364.034,448.49859 -19.297,10.46814 34.056,-18.47448 50.5781,-70.42173 53.2838,-43.40129 -6.0304,2.1075 m -97.8315,111.71552 9.7996,-1.8471 40.2623,-19.24733 42.8678,-38.82001 m -92.9297,59.91444 13.082,-10.64706 28.0121,-22.79813 29.3853,-76.51246 37.9396,-45.91922 21.0483,-17.57375 m -88.3732,140.00543 60.1822,-24.37509 59.4389,-45.94543 18.885,-23.12675 m -138.5061,93.44727 37.0973,-50.69936 16.0898,-21.98934 4.331,-20.07817 40.8185,-68.6536 38.7713,-27.94744 m -83.9208,116.67921 71.4288,-35.2896 41.4061,-36.88668 9.2167,-18.61302 m -664.18129,690.61833 82.45859,-13.573 37.9913,-6.2536 24.5763,-14.1913 40.5824,-9.6179 80.195,-2.401 m -145.3537,26.2102 22.4836,6.4123 84.6244,2.6614 19.5209,-4.3534 m -126.6289,-4.7203 88.5813,6.7282 44.3285,3.3668 10.0438,-5.2478 73.8962,-9.7183 77.1239,19.6777 m -161.0639,-4.7116 33.1046,15.1402 58.668,9.7813 45.9407,-0.1702 m -137.7133,-24.7513 32.5667,-16.9407 41.0257,-21.341 6.6347,-13.57257 48.5316,-56.46578 62.0991,-29.52025 m -117.2654,99.5586 75.516,-17.24282 54.5138,-38.50968 14.4097,-17.85859 m -144.4395,73.61109 12.9054,-4.95195 47.6187,-18.27156 33.1493,-51.26215 45.2808,-40.56876 61.0594,-35.14252 m -139.4895,126.97343 55.2477,-0.4493 43.4587,-10.66874 41.4686,-26.6773 m -140.175,37.79534 37.0844,-1.08893 65.7529,-1.93077 49.4605,-31.60947 52.1259,-19.1196 53.4526,-5.272 m -155.039,56.00107 42.8814,18.31736 41.233,2.1243 70.2216,-12.02867 m -391.2898,56.11192 -6.4904,-2.1788 33.9917,11.4107 48.336,-15.9172 33.6961,-0.9155 37.3575,5.7344 m -119.3896,11.0983 73.5792,52.9549 45.4342,19.8728 12.5548,1.7049 m -131.5682,-74.5326 76.7251,4.8502 38.9084,2.4595 44.1794,-22.6429 44.7863,-10.7928 52.976,4.5796 m -141.9417,28.8561 54.7502,23.4697 57.2085,10.3125 10.7836,-1.0534 m -122.7423,-32.7288 64.9599,-9.953 59.6723,-9.1427 39.5057,-34.8612 7.8031,-3.4656 33.5135,-4.95589 m -80.8223,43.28269 85.6152,4.1892 60.355,-8.3238 69.6534,-32.4367 m -483.3906,39.1254 18.6821,-1.5281 65.9593,-5.3956 53.9697,-26.5462 31.9314,-3.9185 87.2646,24.2811 m -173.1657,6.1836 43.7088,17.8086 50.1344,11.6027 24.2386,0.9386 m -118.0818,-30.3499 70.0985,-5.2349 36.9661,-2.7605 78.8681,-70.01037 41.6675,-22.08553 55.6334,-7.09755 m -176.169,99.19345 81.9566,29.1744 -5.1517,-1.0766 53.9986,1.2861 m -130.8035,-29.3839 31.424,-35.98896 33.3077,-38.14653 11.6258,-48.31822 35.1625,-49.78137 14.9078,-11.4358 m -61.6961,109.53539 64.351,-49.63339 23.8053,-30.89944 18.8543,-38.86816 m -107.0106,119.40099 49.8651,-32.89907 54.1611,-35.73345 -11.9586,32.32313 26.7315,-30.57501 35.055,-20.62563 m -49.8279,18.87751 32.8491,-10.85126 59.362,-43.22523 8.0144,-9.08667 m -100.2255,63.16316 37.2685,-17.41251 68.1053,-31.82012 11.338,-13.26283 57.0918,-36.86026 46.8794,-12.43933 m -115.3092,62.56242 70.2421,4.72992 56.6643,-7.02031 73.4209,-26.16303 m -474.459,220.45406 30.8977,3.1628 109.09,11.1666 23.9109,-7.8597 10.612,-0.2522 33.4332,12.6337 m -67.9561,-4.5218 36.9123,15.2523 19.3931,2.3542 19.21,-2.2986 m -75.5154,-15.308 68.938,-4.7584 61.6796,-4.2573 8.8366,-7.5935 61.3692,-38.17268 20.9366,-2.20803 m -91.1424,47.97421 70.335,9.6843 26.7131,-3.9141 79.2261,-36.5158 m -176.2742,30.7456 69.7401,-31.5809 50.912,-23.05479 18.7714,-25.27844 30.003,-19.15252 39.1216,-11.9477 m -87.896,56.37866 27.0121,-4.87037 55.3312,-36.75368 50.7121,-44.52753 m -524.3127,135.47347 35.6959,-21.2345 80.8712,-48.10798 14.9735,-47.00521 57.5447,-62.37385 31.6448,-15.28886 m -104.163,124.66792 52.481,-21.0851 34.991,-26.2863 46.1469,-58.29932 m -133.6189,105.67072 38.4607,-26.80154 44.6733,-31.1307 22.8411,-34.96314 48.1866,-35.07934 24.1872,-7.44947 m -95.2149,77.49195 39.266,-8.95059 59.4208,-31.61708 52.2128,-40.43337 m -150.8996,81.00104 21.7266,-38.11247 28.678,-50.30671 1.9797,-16.65923 20.293,-52.92362 30.028,-36.84901 m -52.3003,106.43191 32.5357,-27.483 13.2908,-25.32079 2.4101,-55.84785 m -48.2366,108.65164 69.2168,-52.16758 58.9525,-44.43163 16.4193,-44.81821 28.4562,-46.67166 21.9996,-18.83776 m -66.8751,110.32763 33.5714,-11.30982 49.9873,-37.3189 37.0667,-47.92681 m -120.6254,96.55553 66.6187,-29.72264 8.5998,-3.83688 33.6615,-39.19093 20.7921,-11.24561 88.9166,-28.95279 m -143.3702,79.38933 46.2119,-2.96606 60.9664,-16.29432 20.964,-11.16505 m -381.9347,249.00334 26.0212,-1.20602 63.8561,-2.95957 56.9504,-33.33033 68.0132,-16.94097 33.6562,1.14264 m -158.6198,49.12866 84.2577,12.22276 81.01,-10.44657 87.7959,-44.06029 m -253.0636,42.2841 38.3888,-10.26284 84.9966,-22.72295 16.0379,-19.90279 43.1707,-36.61887 76.7073,-31.31217 m -135.9159,87.83383 54.1581,-0.95325 75.0301,-21.79721 50.5551,-31.34944 m -179.7433,54.0999 56.5613,-36.01274 -9.1668,5.83645 2.483,-5.88992 26.8343,-28.27792 60.0991,-42.53854 m -89.4164,76.70638 38.0841,-14.22163 50.5709,-56.63858 15.4195,-28.35385"
     id="path5618" />
</svg>
