<svg width="1980" height="1020" xmlns="http://www.w3.org/2000/svg">
 <g>
  <title>Layer 1</title>
  <g opacity="0.61479" display="none" id="layer6">
   <rect fill="#147456" y="-123.49268" x="-113.13708" height="1256.6298" width="2363.7568" id="rect3901"/>
  </g>
  <g display="inline" id="layer2">
   <path fill="#ffffff" fill-opacity="0.20455" id="path3767" d="m1030.34375,-9.84375l-394.62506,0.1875l0,15l-3.1875,0.875l0,69.84375l18.90625,0l0,-20.71875l-1.4375,0l0,-3.90625l8.9375,0l0,3.5625l-2.53125,0.6875l0,20.03125l13.25,0l0,6.0625l-2.53125,-0.65625l0,28.40625l15.5,0l0,1.15625l0,8.8125l2.125,0l0,3.5l-4.90625,0l-12.71875,10.125l0,7.9375l114.625,0l-0.0625,-1.375l0.4375,-71l-5.0625,0l0,-6.8125l109.59375,0l0,-20.71875l-3.53125,0l0,-6.0625l8.09375,0l0,-11.59375l-1.25,0.3125l0,-4.625l5.78125,0l0,4.03125l-1.25,0l0,11.625l4.53125,0l0,-13.625l-1.25,0.3125l0,-3.84375l6.5625,0l0,3.53125l-1.71875,0.4375l0,13.1875l16.3125,0.1875l0,-7.875l-2.65625,0l0,-3.15625l6.8125,0l0,-12.0625l9.78125,-6.8125l9.78125,6.8125l0,12.0625l6.8125,0l0,3.15625l-2.65625,0l0,7.90625l-1.1875,0l0,-7.90625l-10.96875,0l0,8.03125l-1.78125,0l43.90625,0.53125l13.5625,0l0,-14.65625l-1,0l4.4375,-4.4375l4.34375,4.34375l-0.8125,0l0,15l33.03131,0l0,-45.8125zm-110.21881,37l0,7.90625l10.96875,0.125l0,-8.03125l-10.96875,0zm-253,83.53125l0,8.8125l1.84375,0l0,-8.8125l-1.84375,0zm2.84375,0l0,8.8125l2,0l0,-8.8125l-2,0zm3.03125,0l0,8.8125l1.53125,0l0,-8.8125l-1.53125,0zm2.53125,0l0,8.8125l2.96875,0l0,-8.8125l-2.96875,0zm4,0l0,8.8125l2.0625,0l0,-8.8125l-2.0625,0zm-12.40619,12.3125l0,8.9375l11.21875,-8.9375l-11.21875,0z"/>
   <path fill="#ffffff" fill-opacity="0.31818" id="rect4671" d="m644.07898,950.74481l0,12.78119l12.96875,-12.78119l-12.96875,0zm23.71875,0l12.96875,12.78119l0,-12.78119l-12.96875,0zm16.90625,0l0,12.78119l12.96875,-12.78119l-12.96875,0zm23.71875,0l12.96875,12.78119l0,-12.78119l-12.96875,0zm16.90625,0l0,12.78119l12.96875,-12.78119l-12.96875,0zm23.71875,0l5.9375,5.84369l0,-5.84369l-5.9375,0zm-88.5625,1.90619l-14.90625,14.71881l14.90625,0l0,-14.71881zm3.875,0l0,14.71881l14.90625,0l-14.90625,-14.71881zm36.75,0l-14.90625,14.71881l14.90625,0l0,-14.71881zm3.875,0l0,14.71881l14.90625,0l-14.90625,-14.71881zm36.75,0l-14.90625,14.71881l14.90625,0l0,-14.71881zm3.875,0l0,14.71881l9.375,0l0,-5.46881l-9.375,-9.25zm-103.5,17.84381l0,26.59369c11.16193,-0.10382 21.625,-0.34369 21.625,-0.34369c0,0 3.9375,4.2677 8.3125,5.875c4.375,1.60699 13.39288,4.56689 15.625,4.65619c2.23212,0.08899 2.9375,10 2.9375,10c0,0 -5.73505,0.04901 -13,0.125c0.03699,0.24298 0.0625,0.4967 0.0625,0.75c0,2.7121 -2.2254,4.90619 -4.9375,4.90619c-2.7121,0 -4.90625,-2.19409 -4.90625,-4.90619c0,-0.22296 0.03369,-0.44128 0.0625,-0.65619c-9.31744,0.08398 -18.9826,0.16571 -25.78125,0.15619l0,23.8125l112.875,0l0,-70.96869l-11.3125,0l-18.34375,0l-1.96875,0l-1.96875,0l-18.34375,0l-18.34375,0l-1.96875,0l-1.96875,0l-18.34375,0l-18.34375,0l-1.96875,0z"/>
   <path opacity="0.14397" fill="#ffffff" fill-opacity="0.4" id="rect4671-1" d="m754.98523,950.74481l0,5.84369l7.03125,6.9375l0,-12.78119l-7.03125,0zm10.96875,0l0,12.78119l12.96875,-12.78119l-12.96875,0zm23.71875,0l12.96875,12.78119l0,-12.78119l-12.96875,0zm16.90625,0l0,12.78119l12.96875,-12.78119l-12.96875,0zm23.71875,0l12.96875,12.78119l0,-12.78119l-12.96875,0zm16.90625,0l0,12.78119l12.96875,-12.78119l-12.96875,0zm23.71875,0l12.96875,12.78119l0,-12.78119l-12.96875,0zm16.90625,0l0,12.78119l12.96875,-12.78119l-12.96875,0zm-105.46875,1.90619l-14.90625,14.71881l14.90625,0l0,-14.71881zm3.875,0l0,14.71881l14.90625,0l-14.90625,-14.71881zm36.75,0l-14.90625,14.71881l14.90625,0l0,-14.71881zm3.875,0l0,14.71881l14.90625,0l-14.90625,-14.71881zm36.75,0l-14.90625,14.71881l14.90625,0l0,-14.71881zm3.875,0l0,13.1875l13.34375,0l-13.34375,-13.1875zm36.75,0l-14.90625,14.71881l14.90625,0l0,-14.71881zm3.875,0l0,14.71881l1.875,0l0,-12.875l-1.875,-1.84381zm-153.125,9.25l0,5.46881l5.53125,0l-5.53125,-5.46881zm0,8.59381l0,70.96869l155,0l0,-70.96869l-3.8125,0l-17.28125,0c-0.39886,1.66553 -1.89618,2.90619 -3.6875,2.90619l-17.8125,0c-1.79132,0 -3.28864,-1.2406 -3.6875,-2.90619l-16.5,0l-1.96875,0l-1.96875,0l-18.34375,0l-18.34375,0l-1.96875,0l-1.96875,0l-18.34375,0l-18.34375,0l-1.96875,0l-1.96875,0l-7.03125,0z"/>
   <rect fill="#ffffff" fill-opacity="0.4" y="980.04382" x="919.98077" height="17.14286" width="8.21429" id="rect4691"/>
   <rect fill="#ffffff" fill-opacity="0.4" y="980.04395" x="936.23077" height="17.14286" width="8.21429" id="rect4691-8"/>
   <rect fill="#ffffff" fill-opacity="0.19545" y="979.68677" x="978.73077" height="17.14286" width="17.14286" id="rect4691-9"/>
   <rect fill="#ffffff" fill-opacity="0.4" y="965.75818" x="568.01648" height="9.28571" width="9.28571" id="rect4691-2"/>
   <rect fill="#ffffff" fill-opacity="0.33182" y="925.75812" x="568.19501" height="9.28571" width="9.28571" id="rect4691-2-7"/>
   <path fill="#ff0000" fill-opacity="0.54545" d="m871.90033,969.64197a2.14285,2.14285 0 1 1 -4.28577,0a2.14285,2.14285 0 1 1 4.28577,0z" id="path4743"/>
   <path fill="#ffffff" fill-opacity="0.33182" d="m878.32898,969.64209a1.60714,1.60714 0 1 1 -3.21429,0a1.60714,1.60714 0 1 1 3.21429,0z" id="path4743-9"/>
   <path fill="#ffffff" fill-opacity="0.33182" d="m885.07007,969.64209a1.60714,1.60714 0 1 1 -3.21429,0a1.60714,1.60714 0 1 1 3.21429,0z" id="path4743-9-5"/>
   <path opacity="0.64981" fill="#ffffff" fill-opacity="0.31364" id="path3025" d="m1761.71875,-24l0,184.375l43.93738,0l0,7.0625l-3.53113,0l0,130.3125l59.59375,0l0,-24.5625l-12.15625,-10.65625l-3,0l0,-1.6875l1.4375,0l0,-10.40625l0,-1.59375l13.71875,0l0,-21.65625l-12.15625,-10.65625l-3,0l0,-1.6875l1.4375,0l0,-10.40625l0,-1.59375l13.71875,0l0,-20.6875l-12.15625,-10.65625l-3,0l0,-1.6875l1.4375,0l0,-10.40625l0,-1.59375l13.71875,0l0,-20.40625l-12.15625,-10.65625l-3,0l0,-1.6875l1.4375,0l0,-10.40625l0,-1.59375l13.71875,0l0,-66.6875l-12.15625,-10.65625l-3,0l0,-1.6875l1.4375,0l0,-10.40625l0,-1.59375l13.71875,0l0,-41.46875l-100,-4.5625zm87.375,47.625l0,10.40625l0.875,0l0.03125,-0.03125l0.03101,0.03125l0.78125,0l0,-10.40625l-1.71863,0l0.00012,0zm2.81238,0l0,10.40625l2.40637,0l0,-10.40625l-2.40637,0zm3.5,0l0,10.40625l2.03137,0l0,-10.40625l-2.03137,0zm3.125,0l0,10.40625l2.09387,0l0,-10.40625l-2.09387,0zm-6.56238,12.09375l9.75,8.5625l0,-8.5625l-9.75,0zm-2.875,78.9375l0,10.40625l0.875,0l0.03101,-0.0312l0.03101,0.0312l0.78125,0l0,-10.40625l-1.71863,0l0.00037,0zm2.81238,0l0,10.40625l2.40637,0l0,-10.40625l-2.40637,0zm3.5,0l0,10.40625l2.03137,0l0,-10.40625l-2.03137,0zm3.125,0l0,10.40625l2.09387,0l0,-10.40625l-2.09387,0zm-6.56238,12.09375l9.75,8.5625l0,-8.5625l-9.75,0zm-2.875,32.65625l0,10.40625l0.875,0l0.03101,-0.0312l0.03101,0.0312l0.78125,0l0,-10.40625l-1.71863,0l0.00037,0zm2.81238,0l0,10.40625l2.40637,0l0,-10.40625l-2.40637,0zm3.5,0l0,10.40625l2.03137,0l0,-10.40625l-2.03137,0zm3.125,0l0,10.40625l2.09387,0l0,-10.40625l-2.09387,0zm-6.56238,12.09375l9.75,8.5625l0,-8.5625l-9.75,0zm-2.875,32.9375l0,10.40625l0.875,0l0.03101,-0.0312l0.03101,0.0312l0.78125,0l0,-10.40625l-1.71863,0l0.00037,0zm2.81238,0l0,10.40625l2.40637,0l0,-10.40625l-2.40637,0zm3.5,0l0,10.40625l2.03137,0l0,-10.40625l-2.03137,0zm3.125,0l0,10.40625l2.09387,0l0,-10.40625l-2.09387,0zm-6.56238,12.09375l9.75,8.5625l0,-8.5625l-9.75,0zm-2.875,33.90625l0,10.40625l0.875,0l0.03101,-0.03119l0.03101,0.03119l0.78125,0l0,-10.40625l-1.71863,0l0.00037,0zm2.81238,0l0,10.40625l2.40637,0l0,-10.40625l-2.40637,0zm3.5,0l0,10.40625l2.03137,0l0,-10.40625l-2.03137,0zm3.125,0l0,10.40625l2.09387,0l0,-10.40625l-2.09387,0zm-6.56238,12.09375l9.75,8.5625l0,-8.5625l-9.75,0z"/>
   <path fill="#000000" fill-opacity="0.31364" id="path3798" d="m1761.71875,10.34375l0,150.03125l43.93738,0l0,7.0625l-3.53113,0l0,130.3125l59.59375,0l0,-24.5625l-12.15625,-10.65625l-3,0l0,-1.6875l1.4375,0l0,-10.40625l0,-1.59375l13.71875,0l0,-14.90625l-34.21875,0l0,-135.71875l4.28113,0l0,-5.375l-21.43738,0l0,-76.40625l3.59375,0l0,-6.09375l-52.21875,0zm87.375,240.09375l0,10.40625l0.875,0l0.03101,-0.03119l0.03101,0.03119l0.78125,0l0,-10.40625l-1.71863,0l0.00037,0zm2.81238,0l0,10.40625l2.40637,0l0,-10.40625l-2.40637,0zm3.5,0l0,10.40625l2.03137,0l0,-10.40625l-2.03137,0zm3.125,0l0,10.40625l2.09387,0l0,-10.40625l-2.09387,0zm-6.56238,12.09375l9.75,8.5625l0,-8.5625l-9.75,0z"/>
  </g>
  <g display="inline" id="layer4">
   <path fill="#ffffff" fill-opacity="0.24885" id="path3833" d="m750.53125,-62.125c-32.07233,23.73858 -18.18256,57.06488 -9.34375,66.15625c8.83887,9.09137 25.77917,24.26348 47.75,26.03125c21.97083,1.76777 38.63422,10.592 43.9375,13.875c2.9657,1.83592 11.37787,9.19649 18.75,17.9375l35.03125,0l0,-20.71875l-3.53125,0l0,-6.0625l8.09375,0l0,-11.59375l-1.25,0.3125l0,-4.625l5.78125,0l0,4.03125l-1.25,0l0,11.625l4.53125,0l0,-13.625l-1.25,0.3125l0,-3.84375l6.5625,0l0,3.53125l-1.71875,0.4375l0,13.1875l16.3125,0.1875l0,-7.875l-2.65625,0l0,-3.15625l6.8125,0l0,-2.9375c-1.25543,-1.26448 -2.52374,-2.47349 -3.84375,-3.625c-11.86932,-10.35406 -16.68402,-9.10453 -23.25,-20.46875c-6.56598,-11.36422 -65.65625,-46.46875 -65.65625,-46.46875l-79.8125,-12.625zm169.59375,89.28125l0,7.90625l10.96875,0.125l0,-4.03125c-0.83807,-1.38809 -1.7334,-2.72417 -2.6875,-4l-8.28125,0z"/>
   <path fill="#ffffff" fill-opacity="0.24885" id="path3835" d="m808.09375,-53.03125c-11.60132,37.61144 -7.30853,62.38499 7.84375,70.71875c15.15228,8.33376 25.77838,14.37072 44.71875,17.90625c18.55139,3.46292 22.06604,8.15553 26,18.3125l0,-12.75l-3.53125,0l0,-6.0625l8.09375,0l0,-11.59375l-1.25,0.3125l0,-4.625l5.78125,0l0,4.03125l-1.25,0l0,11.625l4.53125,0l0,-13.625l-1.25,0.3125l0,-3.5625c-9.203,-2.96226 -18.10028,-4.93077 -24.5,-9.375c-9.09137,-6.31345 -13.62756,-22.74572 -13.375,-26.28125c0.2525,-3.53553 -51.8125,-35.34375 -51.8125,-35.34375zm96.25,73.28125l0,0.96875l-1.71875,0.4375l0,13.1875l16.3125,0.1875l0,-6.15625c-0.69952,-0.59763 -1.41028,-1.16914 -2.125,-1.71875l-0.53125,0l0,-0.40625c-2.26599,-1.69572 -4.60706,-3.15419 -6.90625,-4.28125c-1.6618,-0.81461 -3.34094,-1.55062 -5.03125,-2.21875zm15.78125,9.6875l0,5.125l5.03125,0.0625c-1.58734,-1.85485 -3.2652,-3.58855 -5.03125,-5.1875z"/>
  </g>
  <g opacity="0.64981" display="inline" id="layer3">
   <path fill="#000000" id="path3770" d="m932.875,5.125l-9.78125,6.8125l0,12.0625l-6.8125,0l0,3.15625l2.65625,0l0,7.875l-16.3125,-0.1875l0,-13.1875l1.71875,-0.4375l0,-3.53125l-6.5625,0l0,3.84375l1.25,-0.3125l0,13.625l-4.53125,0l0,-11.625l1.25,0l0,-4.03125l-5.78125,0l0,4.625l1.25,-0.3125l0,11.59375l-8.09375,0l0,6.0625l3.53125,0l0,20.71875l-109.59375,0l0,6.8125l5.0625,0l-0.4375,71l71.15625,0l0,-11.03125l-2.65625,0l0,-3.3125l2.65625,0l0.90625,0l0.90625,0l0,-18.03125l15.875,-9.84375l15.875,9.84375l0,18.03125l0.90625,0l0.90625,0l2.65625,0l0,3.3125l-2.65625,0l0,11.03125l45,0l0,-58.96875l-3.5625,1.0625l0,-5.34375l50,-17.875l0,-17.84375l-2.875,0l0,-5l-43.90625,-0.53125l1.78125,0l0,-8.03125l10.96875,0l0,7.90625l1.1875,0l0,-7.90625l2.65625,0l0,-3.15625l-6.8125,0l0,-12.0625l-9.78125,-6.8125zm-12.75,22.03125l10.96875,0l0,8.03125l-10.96875,-0.125l0,-7.90625zm-66.375,101.5l0,11.03125l3.53125,0l5.0625,-11.03125l-8.59375,0zm10.25,0l-5.03125,11.03125l9.59375,0l0,-11.03125l-4.5625,0zm8.5,0l0,11.03125l9.59375,0l-5.03125,-11.03125l-4.5625,0zm6.21875,0l5.0625,11.03125l3.53125,0l0,-11.03125l-8.59375,0z"/>
  </g>
  <g display="inline" id="layer5">
   <rect fill="#ffffff" y="25.25228" x="613.92017" height="19.1929" width="9.34391" id="rect4441"/>
   <rect opacity="0.57588" fill="#ffffff" y="26.20712" x="591.62268" height="17.80897" width="9.34391" id="rect4441-1"/>
   <rect opacity="0.57588" fill="#ffffff" y="27.16694" x="567.47089" height="17.80897" width="9.34391" id="rect4441-1-4"/>
   <rect opacity="0.57588" fill="#ffffff" y="89.22453" x="591.47742" height="9.23754" width="9.34391" id="rect4441-1-4-2"/>
   <rect opacity="0.57588" fill="#ffffff" y="129.48837" x="591.22095" height="9.23754" width="9.34391" id="rect4441-1-4-2-3"/>
   <rect opacity="0.57588" fill="#ffffff" y="90.20777" x="504.82373" height="15.17219" width="9.34391" id="rect4441-1-4-2-2"/>
   <rect opacity="0.57588" fill="#ffffff" y="26.12621" x="479.82245" height="17.31876" width="9.34391" id="rect4441-1-4-2-2-2"/>
   <rect opacity="0.57588" fill="#ffffff" y="26.37875" x="417.44556" height="17.5713" width="17.17259" id="rect4441-1-4-2-2-1"/>
   <rect opacity="0.57588" fill="#ffffff" y="96.97914" x="941.71814" height="17.49362" width="9.25463" id="rect4441-1-4-2-2-6"/>
   <rect opacity="0.57588" fill="#ffffff" y="96.8782" x="958.05127" height="17.49362" width="9.25463" id="rect4441-1-4-2-2-6-8"/>
   <rect opacity="0.57588" fill="#ffffff" y="-3.8223" x="1070.3943" height="17.49362" width="9.25463" id="rect4441-1-4-2-2-6-5"/>
   <rect opacity="0.57588" fill="#ffffff" y="-3.57131" x="1100.4795" height="17.49362" width="9.25463" id="rect4441-1-4-2-2-6-5-7"/>
   <rect opacity="0.57588" fill="#ffffff" y="-3.57131" x="1130.9104" height="17.49362" width="9.25463" id="rect4441-1-4-2-2-6-5-7-6"/>
   <path fill="#ff0000" id="rect4781" d="m659.73663,1111.10583l-15.28125,15.0625l0,-12.78125l-1.96875,0l0,14.71875l0,3.0625l0,1.96875l1.96875,0l18.34375,0l18.34375,0l1.96875,0l1.96875,0l18.34375,0l18.34375,0l1.96875,0l1.96875,0l18.34375,0l18.34375,0l1.96875,0l1.96875,0l18.34375,0l18.34375,0l1.96875,0l1.96875,0l18.34375,0l18.34375,0l1.96875,0l1.96875,0l16.5,0c0.39886,1.66565 1.89618,2.90625 3.6875,2.90625l17.8125,0c1.79132,0 3.28864,-1.2406 3.6875,-2.90625l17.28125,0l18.34375,0l1.96875,0l1.96875,0l18.34375,0l18.34375,0l1.96875,0l0,-1.96875l0.25,-1.1875l-0.25,-1.875l0,-14.71875l-1.96875,0l0,12.78125l-15.28125,-15.0625l-3.0625,2.28125l-3.0625,-2.28125l-15.28125,15.0625l0,-12.78125l-1.96875,0l-1.96875,0l0,12.78125l-15.28125,-15.0625l-3.0625,2.28125l-3.0625,-2.28125l-15.28125,15.0625l0,-12.78125l-1.96875,0l-1.96875,0l0,12.78125l-15.28125,-15.0625l-3.0625,2.28125l-3.0625,-2.28125l-15.28125,15.0625l0,-12.78125l-1.96875,0l-1.96875,0l0,12.78125l-15.28125,-15.0625l-3.0625,2.28125l-3.0625,-2.28125l-15.28125,15.0625l0,-12.78125l-1.96875,0l-1.96875,0l0,12.78125l-15.28125,-15.0625l-3.0625,2.28125l-3.0625,-2.28125l-15.28125,15.0625l0,-12.78125l-1.96875,0l-1.96875,0l0,12.78125l-15.28125,-15.0625l-3.0625,2.28125l-3.0625,-2.28125l-15.28125,15.0625l0,-12.78125l-1.96875,0l-1.96875,0l0,12.78125l-15.28125,-15.0625l-3.0625,2.28125l-3.0625,-2.28125l-15.28125,15.0625l0,-12.78125l-1.96875,0l-1.96875,0l0,12.78125l-15.28125,-15.0625l-3.0625,2.28125l-3.0625,-2.28125zm1.125,4.1875l0,14.71875l-14.90625,0l14.90625,-14.71875zm3.875,0l14.90625,14.71875l-14.90625,0l0,-14.71875zm36.75,0l0,14.71875l-14.90625,0l14.90625,-14.71875zm3.875,0l14.90625,14.71875l-14.90625,0l0,-14.71875zm36.75,0l0,14.71875l-14.90625,0l14.90625,-14.71875zm3.875,0l14.90625,14.71875l-14.90625,0l0,-14.71875zm36.75,0l0,14.71875l-14.90625,0l14.90625,-14.71875zm3.875,0l14.90625,14.71875l-14.90625,0l0,-14.71875zm36.75,0l0,14.71875l-14.90625,0l14.90625,-14.71875zm3.875,0l14.90625,14.71875l-14.90625,0l0,-14.71875zm36.75,0l0,14.71875l-14.90625,0l14.90625,-14.71875zm3.875,0l13.34375,13.1875l-13.34375,0l0,-13.1875zm36.75,0l0,14.71875l-14.90625,0l14.90625,-14.71875zm3.875,0l14.90625,14.71875l-14.90625,0l0,-14.71875zm36.75,0l0,14.71875l-14.90625,0l14.90625,-14.71875zm3.875,0l14.90625,14.71875l-14.90625,0l0,-14.71875z"/>
   <rect fill="#000000" fill-opacity="0.39545" y="-1.07143" x="1699.2858" height="16.78571" width="10" id="rect3974"/>
   <rect fill="#000000" fill-opacity="0.39545" y="0.00001" x="1652.8571" height="16.78571" width="10" id="rect3974-7"/>
   <rect fill="#000000" fill-opacity="0.39545" y="0.00001" x="1876.7856" height="16.78571" width="10" id="rect3974-1"/>
   <rect fill="#000000" fill-opacity="0.39545" y="89.10715" x="1877.1428" height="16.78571" width="10" id="rect3974-2"/>
   <rect fill="#000000" fill-opacity="0.39545" y="134.10713" x="1877.1429" height="16.78571" width="10" id="rect3974-6"/>
   <rect fill="#000000" fill-opacity="0.39545" y="180.17857" x="1877.5001" height="16.78571" width="10" id="rect3974-0"/>
   <rect fill="#000000" fill-opacity="0.39545" y="224.82143" x="1877.1428" height="16.78571" width="10" id="rect3974-4"/>
   <rect fill="#ffffff" fill-opacity="0.39545" y="43.39286" x="1878.2142" height="16.78571" width="10" id="rect3974-4-9"/>
   <rect fill="#ffffff" fill-opacity="0.39545" y="0.00001" x="1635" height="16.78571" width="10" id="rect3974-4-9-6"/>
  </g>
 </g>
</svg>