<?xml version="1.0" encoding="UTF-8" standalone="no"?>
<!-- Created with Inkscape (http://www.inkscape.org/) -->

<svg
   xmlns:dc="http://purl.org/dc/elements/1.1/"
   xmlns:cc="http://creativecommons.org/ns#"
   xmlns:rdf="http://www.w3.org/1999/02/22-rdf-syntax-ns#"
   xmlns:svg="http://www.w3.org/2000/svg"
   xmlns="http://www.w3.org/2000/svg"
   xmlns:sodipodi="http://sodipodi.sourceforge.net/DTD/sodipodi-0.dtd"
   xmlns:inkscape="http://www.inkscape.org/namespaces/inkscape"
   id="svg2985"
   version="1.1"
   inkscape:version="0.48.2 r9819"
   width="1228"
   height="768"
   sodipodi:docname="1.png">
  <metadata
     id="metadata2991">
    <rdf:RDF>
      <cc:Work
         rdf:about="">
        <dc:format>image/svg+xml</dc:format>
        <dc:type
           rdf:resource="http://purl.org/dc/dcmitype/StillImage" />
        <dc:title></dc:title>
      </cc:Work>
    </rdf:RDF>
  </metadata>
  <defs
     id="defs2989" />
  <sodipodi:namedview
     pagecolor="#ffffff"
     bordercolor="#666666"
     borderopacity="1"
     objecttolerance="10"
     gridtolerance="10"
     guidetolerance="10"
     inkscape:pageopacity="0"
     inkscape:pageshadow="2"
     inkscape:window-width="1024"
     inkscape:window-height="712"
     id="namedview2987"
     showgrid="false"
     inkscape:zoom="0.64453125"
     inkscape:cx="440.62784"
     inkscape:cy="195.12202"
     inkscape:window-x="-4"
     inkscape:window-y="-4"
     inkscape:window-maximized="1"
     inkscape:current-layer="svg2985" />
  <path
     style="fill:#ffffff;fill-opacity:0.2;stroke:none"
     d="M 473.28125 209.25 C 385.66546 209.25 314.625 280.29046 314.625 367.90625 C 314.625 455.52204 385.66546 526.53125 473.28125 526.53125 C 560.89704 526.53125 631.90625 455.52204 631.90625 367.90625 C 631.90625 280.29046 560.89704 209.25 473.28125 209.25 z M 473.28125 221.65625 C 554.04202 221.65625 619.5 287.11423 619.5 367.875 C 619.5 448.63577 554.04202 514.125 473.28125 514.125 C 392.52048 514.125 327.03125 448.63577 327.03125 367.875 C 327.03125 287.11423 392.52048 221.65625 473.28125 221.65625 z "
     id="path2997" />
  <path
     style="fill:#ffffff;fill-opacity:0.2;stroke:none"
     d="m 374.6875,534.71875 c -55.05405,0 -99.6875,44.63345 -99.6875,99.6875 0,55.05405 44.63345,99.6875 99.6875,99.6875 55.05405,0 99.6875,-44.63345 99.6875,-99.6875 0,-55.05405 -44.63345,-99.6875 -99.6875,-99.6875 z m 0,12.4375 c 48.17609,0 87.25,39.07391 87.25,87.25 0,48.17608 -39.07391,87.21875 -87.25,87.21875 -48.17608,0 -87.21875,-39.04267 -87.21875,-87.21875 0,-48.17609 39.04267,-87.25 87.21875,-87.25 z"
     id="path3038"
     inkscape:connector-curvature="0" />
  <path
     inkscape:connector-curvature="0"
     style="fill:#ffffff;fill-opacity:0.2;stroke:none"
     d="m 221.87206,653.57756 c -30.20431,0 -54.6945,24.49019 -54.6945,54.6945 0,30.2043 24.49019,54.68372 54.6945,54.68372 30.2043,0 54.68372,-24.47942 54.68372,-54.68372 0,-30.20431 -24.47942,-54.6945 -54.68372,-54.6945 z m 0,4.27688 c 27.84113,0 50.40684,22.56571 50.40684,50.40684 0,27.84114 -22.56571,50.41762 -50.40684,50.41762 -27.84114,0 -50.41762,-22.57648 -50.41762,-50.41762 0,-27.84113 22.57648,-50.40684 50.41762,-50.40684 z"
     id="path2997-4" />
  <path
     style="fill:#ffffff;fill-opacity:0.2;stroke:none"
     d="M 527.71875 533.90625 C 514.6522 533.90625 504.0625 544.49595 504.0625 557.5625 C 504.0625 570.62905 514.6522 581.25 527.71875 581.25 C 540.7853 581.25 551.375 570.62905 551.375 557.5625 C 551.375 544.49595 540.7853 533.90625 527.71875 533.90625 z M 527.71875 536.9375 C 539.12034 536.9375 548.34375 546.16091 548.34375 557.5625 C 548.34375 568.96409 539.12034 578.21875 527.71875 578.21875 C 516.31716 578.21875 507.0625 568.96409 507.0625 557.5625 C 507.0625 546.16091 516.31716 536.9375 527.71875 536.9375 z "
     id="path3057" />
  <path
     style="fill:#ffffff;fill-opacity:0.2;stroke:none"
     d="M 758.3125 244.75 C 703.47267 244.75 659 289.22267 659 344.0625 C 659 398.90233 703.47267 443.34375 758.3125 443.34375 C 813.15233 443.34375 857.59375 398.90233 857.59375 344.0625 C 857.59375 289.22267 813.15233 244.75 758.3125 244.75 z M 758.3125 250.1875 C 810.14697 250.1875 852.15625 292.19678 852.15625 344.03125 C 852.15625 395.86572 810.14697 437.90625 758.3125 437.90625 C 706.47803 437.90625 664.4375 395.86572 664.4375 344.03125 C 664.4375 292.19678 706.47803 250.1875 758.3125 250.1875 z "
     id="path3069" />
  <path
     style="fill:#ffffff;fill-opacity:0.2;stroke:none"
     d="M 828.3125 179 C 815.24596 179 804.65625 189.58971 804.65625 202.65625 C 804.65625 215.7228 815.24596 226.3125 828.3125 226.3125 C 841.37904 226.3125 851.96875 215.7228 851.96875 202.65625 C 851.96875 189.58971 841.37904 179 828.3125 179 z M 828.3125 182.21875 C 839.60697 182.21875 848.78125 191.36178 848.78125 202.65625 C 848.78125 213.95071 839.60697 223.125 828.3125 223.125 C 817.01804 223.125 807.875 213.95071 807.875 202.65625 C 807.875 191.36178 817.01804 182.21875 828.3125 182.21875 z "
     id="path3081" />
  <path
     style="fill:#ffffff;fill-opacity:0.2;stroke:none"
     d="M 98.625 338.65625 C 48.197014 338.65625 7.28125 379.54075 7.28125 429.96875 C 7.28125 480.39673 48.197014 521.28125 98.625 521.28125 C 149.05299 521.28125 189.90625 480.39673 189.90625 429.96875 C 189.90625 379.54075 149.05299 338.65625 98.625 338.65625 z M 98.59375 349.90625 C 142.80419 349.90625 178.65625 385.72706 178.65625 429.9375 C 178.65625 474.14795 142.80419 510 98.59375 510 C 54.383305 510 18.5625 474.14795 18.5625 429.9375 C 18.5625 385.72706 54.383305 349.90625 98.59375 349.90625 z "
     id="path3093" />
  <path
     style="fill:#ffffff;fill-opacity:0.2;stroke:none"
     d="M 236.15625 235.8125 C 206.10202 235.8125 181.71875 260.16453 181.71875 290.21875 C 181.71875 320.27297 206.10202 344.625 236.15625 344.625 C 266.21047 344.625 290.5625 320.27297 290.5625 290.21875 C 290.5625 260.16453 266.21047 235.8125 236.15625 235.8125 z M 236.15625 242.53125 C 262.4958 242.53125 283.84375 263.8792 283.84375 290.21875 C 283.84375 316.5583 262.4958 337.90625 236.15625 337.90625 C 209.8167 337.90625 188.46875 316.5583 188.46875 290.21875 C 188.46875 263.8792 209.8167 242.53125 236.15625 242.53125 z "
     id="path3105" />
  <path
     style="fill:#ffffff;fill-opacity:0.2;stroke:none"
     d="M 527.84375 324.40625 C 497.71379 324.40625 473.28125 348.80754 473.28125 378.9375 C 473.28125 409.06747 497.71379 433.5 527.84375 433.5 C 557.97372 433.5 582.375 409.06747 582.375 378.9375 C 582.375 348.80754 557.97372 324.40625 527.84375 324.40625 z M 527.84375 327.84375 C 556.07078 327.84375 578.9375 350.71048 578.9375 378.9375 C 578.9375 407.16453 556.07078 430.0625 527.84375 430.0625 C 499.61673 430.0625 476.71875 407.16453 476.71875 378.9375 C 476.71875 350.71048 499.61673 327.84375 527.84375 327.84375 z "
     id="path3121" />
  <path
     style="fill:#ffffff;fill-opacity:0.2;stroke:none"
     d="M 617.875 -216.75 C 491.02647 -216.75 388.1875 -113.91104 388.1875 12.9375 C 388.1875 139.78605 491.02647 242.59375 617.875 242.59375 C 744.72354 242.59375 847.53125 139.78605 847.53125 12.9375 C 847.53125 -113.91104 744.72354 -216.75 617.875 -216.75 z M 617.875 -211.40625 C 741.76667 -211.40625 842.1875 -110.98543 842.1875 12.90625 C 842.1875 136.79794 741.76667 237.25 617.875 237.25 C 493.98332 237.25 393.53125 136.79794 393.53125 12.90625 C 393.53125 -110.98543 493.98332 -211.40625 617.875 -211.40625 z "
     id="path3133" />
  <path
     inkscape:connector-curvature="0"
     style="fill:#ffffff;fill-opacity:0.2;stroke:none"
     d="m 1025.7885,-132.27136 c -68.83254,0 -124.6432,55.810672 -124.6432,124.6432067 0,68.8325403 55.81066,124.6186533 124.6432,124.6186533 68.8325,0 124.6186,-55.786113 124.6186,-124.6186533 0,-68.8325347 -55.7861,-124.6432067 -124.6186,-124.6432067 z m 0,9.74657 c 63.4472,0 114.8721,51.424973 114.8721,114.8720862 0,63.4471148 -51.4249,114.8966338 -114.8721,114.8966338 -63.44711,0 -114.89663,-51.449519 -114.89663,-114.8966338 0,-63.4471132 51.44952,-114.8720862 114.89663,-114.8720862 z"
     id="path2997-1" />
  <path
     style="fill:#ffffff;fill-opacity:0.2;stroke:none"
     d="M 182.375 47.25 C 169.37344 47.25 158.84375 57.779697 158.84375 70.78125 C 158.84375 83.782804 169.37344 94.3125 182.375 94.3125 C 195.37655 94.3125 205.9375 83.782804 205.9375 70.78125 C 205.9375 57.779697 195.37655 47.25 182.375 47.25 z M 182.375 50.4375 C 193.60958 50.4375 202.71875 59.546681 202.71875 70.78125 C 202.71875 82.015819 193.60958 91.125 182.375 91.125 C 171.14044 91.125 162.03125 82.015819 162.03125 70.78125 C 162.03125 59.546681 171.14044 50.4375 182.375 50.4375 z "
     id="path3152" />
  <path
     style="fill:#ffffff;fill-opacity:0.2;stroke:none"
     d="M 355.3125 -27.9375 C 300.6869 -27.9375 256.375 16.374398 256.375 71 C 256.375 125.62562 300.6869 169.875 355.3125 169.875 C 409.93812 169.875 454.21875 125.62561 454.21875 71 C 454.21875 16.374398 409.93812 -27.9375 355.3125 -27.9375 z M 355.3125 -16.6875 C 403.7363 -16.6875 442.96875 22.544949 442.96875 70.96875 C 442.96875 119.39255 403.7363 158.65625 355.3125 158.65625 C 306.8887 158.65625 267.625 119.39255 267.625 70.96875 C 267.625 22.544949 306.8887 -16.6875 355.3125 -16.6875 z "
     id="path3164" />
</svg>
