<?xml version="1.0" encoding="UTF-8" standalone="no"?>
<svg
   xmlns:dc="http://purl.org/dc/elements/1.1/"
   xmlns:cc="http://creativecommons.org/ns#"
   xmlns:rdf="http://www.w3.org/1999/02/22-rdf-syntax-ns#"
   xmlns:svg="http://www.w3.org/2000/svg"
   xmlns="http://www.w3.org/2000/svg"
   xmlns:sodipodi="http://sodipodi.sourceforge.net/DTD/sodipodi-0.dtd"
   xmlns:inkscape="http://www.inkscape.org/namespaces/inkscape"
   width="16"
   height="16"
   id="svg2999"
   version="1.1"
   inkscape:version="0.48.2 r9819"
   sodipodi:docname="facebook_ico1.svg">
  <metadata
     id="metadata3011">
    <rdf:RDF>
      <cc:Work
         rdf:about="">
        <dc:format>image/svg+xml</dc:format>
        <dc:type
           rdf:resource="http://purl.org/dc/dcmitype/StillImage" />
      </cc:Work>
    </rdf:RDF>
  </metadata>
  <defs
     id="defs3009" />
  <sodipodi:namedview
     pagecolor="#ffffff"
     bordercolor="#666666"
     borderopacity="1"
     objecttolerance="10"
     gridtolerance="10"
     guidetolerance="10"
     inkscape:pageopacity="0"
     inkscape:pageshadow="2"
     inkscape:window-width="1366"
     inkscape:window-height="608"
     id="namedview3007"
     showgrid="false"
     inkscape:zoom="24.807663"
     inkscape:cx="0.57699241"
     inkscape:cy="9.1987434"
     inkscape:window-x="-4"
     inkscape:window-y="-4"
     inkscape:window-maximized="1"
     inkscape:current-layer="svg2999" />
  <g
     id="g3001"
     transform="matrix(0.33717775,0,0,0.37379371,5.2500005e-6,-1.458944)">
    <title
       id="title3003">facebook_noti3</title>
    <path
       stroke-width="null"
       stroke-linejoin="null"
       stroke-linecap="null"
       d="m 0,46.70743 c 0,-8.291085 0.42671423,-9.803189 7.4144713,-13.376361 4.1592657,-2.12683 5.0418507,-2.646923 5.0418507,-5.350545 0,-2.703622 -4.4888462,-3.074995 -4.4043105,-9.938541 0.084536,-6.863546 -1.2350469,-13.3773201 4.8569825,-13.3668647 5.137716,0.00882 4.515516,1.4276682 7.805764,2.5831654 3.290248,1.1554971 3.68787,5.2988103 3.68787,11.0124643 0,5.713654 -4.235239,6.893034 -4.235239,9.709776 0,2.816743 1.850779,3.225712 5.041851,5.350545 5.452562,3.630687 7.497438,5.051603 7.414487,13.376361 z"
       id="svg_8"
       inkscape:connector-curvature="0"
       style="fill:#aaaaff;stroke-dasharray:none"
       sodipodi:nodetypes="cszzszzzscc" />
    <path
       stroke-width="null"
       stroke-linejoin="null"
       stroke-linecap="null"
       d="m 34.106624,46.707431 13.346076,0 c 0,-8.399248 0.03395,-9.319248 -5.931589,-12.038726 -5.965536,-2.719477 -4.833602,-4.012908 -2.224346,-4.012908 2.609255,0 2.382571,-3.075938 1.905576,-4.681727 -1.004698,-3.382283 -3.091894,-3.690509 -3.091894,-10.032272 0,-6.3417632 -10.973441,-6.3000985 -10.973441,0 0,6.300098 -2.057003,6.548347 -3.091894,10.032272 -0.476995,1.605789 -0.415415,4.681727 1.905577,4.681727 2.320991,0 4.377284,0.363349 2.66128,1.830244 -0.587521,0.502232 -0.917266,0.447518 -0.436934,0.845028 4.292504,3.872021 5.931589,4.586305 5.931589,13.376362 z"
       id="svg_9"
       inkscape:connector-curvature="0"
       style="fill:#aaaaff;stroke-dasharray:none"
       sodipodi:nodetypes="cczzszzszscc" />
  </g>
</svg>
