<?xml version="1.0" encoding="UTF-8" standalone="no"?>
<svg
   xmlns:dc="http://purl.org/dc/elements/1.1/"
   xmlns:cc="http://creativecommons.org/ns#"
   xmlns:rdf="http://www.w3.org/1999/02/22-rdf-syntax-ns#"
   xmlns:svg="http://www.w3.org/2000/svg"
   xmlns="http://www.w3.org/2000/svg"
   xmlns:sodipodi="http://sodipodi.sourceforge.net/DTD/sodipodi-0.dtd"
   xmlns:inkscape="http://www.inkscape.org/namespaces/inkscape"
   width="16"
   height="16"
   id="svg4164"
   version="1.1"
   inkscape:version="0.48.2 r9819"
   sodipodi:docname="facebook_ico2.svg">
  <metadata
     id="metadata4177">
    <rdf:RDF>
      <cc:Work
         rdf:about="">
        <dc:format>image/svg+xml</dc:format>
        <dc:type
           rdf:resource="http://purl.org/dc/dcmitype/StillImage" />
      </cc:Work>
    </rdf:RDF>
  </metadata>
  <defs
     id="defs4175" />
  <sodipodi:namedview
     pagecolor="#ffffff"
     bordercolor="#666666"
     borderopacity="1"
     objecttolerance="10"
     gridtolerance="10"
     guidetolerance="10"
     inkscape:pageopacity="0"
     inkscape:pageshadow="2"
     inkscape:window-width="1366"
     inkscape:window-height="608"
     id="namedview4173"
     showgrid="false"
     inkscape:zoom="32"
     inkscape:cx="8.7026073"
     inkscape:cy="9.1623816"
     inkscape:window-x="-4"
     inkscape:window-y="-4"
     inkscape:window-maximized="1"
     inkscape:current-layer="svg4164" />
  <rect
     style="opacity:0.98999999000000005;fill:#aaaaff;stroke:none;fill-opacity:1"
     id="rect4186"
     width="12"
     height="9"
     x="4"
     y="1.0000002"
     rx="1"
     ry="1" />
  <path
     style="fill:#aaaaff;fill-opacity:1;stroke:none"
     d="m 11,9.9 3,0 0,2.6 z"
     id="path4188"
     inkscape:connector-curvature="0"
     sodipodi:nodetypes="cccc" />
  <path
     style="opacity:0.98999999000000005;fill:#aaaaff;stroke:none;fill-opacity:1"
     d="M 1 4.5 C 0.446 4.5 -6.7697584e-018 4.946 0 5.5 L 0 12.5 C 0 13.054 0.446 13.5 1 13.5 L 11 13.5 C 11.554 13.5 12 13.054 12 12.5 L 12 11.40625 L 10.9375 10.5 L 5 10.5 C 4.1776486 10.5 3.5 9.8223514 3.5 9 L 3.5 4.5 L 1 4.5 z "
     id="rect4186-1" />
  <path
     style="fill:#aaaaff;fill-opacity:1;stroke:none"
     d="m 2,13.4 3,0 -3,2.6 z"
     id="path4188-7"
     inkscape:connector-curvature="0"
     sodipodi:nodetypes="cccc" />
</svg>
