<?xml version="1.0" encoding="UTF-8" standalone="no"?>
<svg
   xmlns:dc="http://purl.org/dc/elements/1.1/"
   xmlns:cc="http://creativecommons.org/ns#"
   xmlns:rdf="http://www.w3.org/1999/02/22-rdf-syntax-ns#"
   xmlns:svg="http://www.w3.org/2000/svg"
   xmlns="http://www.w3.org/2000/svg"
   xmlns:sodipodi="http://sodipodi.sourceforge.net/DTD/sodipodi-0.dtd"
   xmlns:inkscape="http://www.inkscape.org/namespaces/inkscape"
   width="16"
   height="16"
   id="svg5588"
   version="1.1"
   inkscape:version="0.48.2 r9819"
   sodipodi:docname="facebook_ico3.svg">
  <metadata
     id="metadata5599">
    <rdf:RDF>
      <cc:Work
         rdf:about="">
        <dc:format>image/svg+xml</dc:format>
        <dc:type
           rdf:resource="http://purl.org/dc/dcmitype/StillImage" />
      </cc:Work>
    </rdf:RDF>
  </metadata>
  <defs
     id="defs5597" />
  <sodipodi:namedview
     pagecolor="#ffffff"
     bordercolor="#666666"
     borderopacity="1"
     objecttolerance="10"
     gridtolerance="10"
     guidetolerance="10"
     inkscape:pageopacity="0"
     inkscape:pageshadow="2"
     inkscape:window-width="1366"
     inkscape:window-height="608"
     id="namedview5595"
     showgrid="false"
     inkscape:zoom="11.313709"
     inkscape:cx="28.746699"
     inkscape:cy="4.853105"
     inkscape:window-x="-4"
     inkscape:window-y="-4"
     inkscape:window-maximized="1"
     inkscape:current-layer="svg5588" />
  <g
     id="g5590"
     transform="matrix(0.33407776,0,0,0.33406231,-0.01786607,-0.01786233)"
     style="opacity:1">
    <title
       id="title5592">facebook_noti1</title>
    <path
       id="svg_2"
       d="M 0.51429,28.64944 C -2.05446,15.67391 6.37503,3.08304 19.35056,0.51428 32.32608,-2.05447 44.91696,6.37502 47.48571,19.35055 50.05446,32.32608 41.62496,44.91695 28.64944,47.4857 15.67391,50.05445 3.08304,41.62496 0.51429,28.64944 z M 18.581644,0.71180721 C 16.121904,0.8562595 7.8200513,6.6929752 8.9045312,10.257422 c 0.5496933,1.568806 3.1980758,0.161472 2.6118218,5.440836 -0.855104,5.980097 2.923184,7.68584 4.061446,8.776943 1.418685,1.359907 4.798271,1.929922 5.603324,3.300504 -0.255186,0.928795 -0.814694,1.995978 -0.300283,4.188211 0.622363,2.652286 3.681957,2.595264 3.489347,5.284454 l -1.169924,10.492755 c 1.271962,-7.28e-4 1.898204,-0.309522 2.806707,-1.588376 1.45459,-3.77541 2.392068,-1.793301 4.236347,-5.08956 1.169457,-2.090159 2.980647,-2.586768 4.835803,-5.641212 2.146028,-3.533354 -1.30288,-5.25353 -3.804507,-6.514035 -2.501627,-1.260504 -3.909763,-4.504783 -9.241877,-1.943142 -2.690316,-1.584246 0.5473,-4.546051 -1.739613,-4.805331 -2.809358,-0.318512 -2.633983,-1.679789 -0.918018,-3.605487 2.538134,-2.848355 5.233818,4.296995 6.559875,2.960524 0.777157,-0.783261 -1.459048,-3.476243 1.844727,-5.412841 1.63175,-0.956495 5.109026,-4.029932 3.052302,-7.5199112 C 28.329367,4.3351135 25.98299,5.9490694 24.797136,6.3616396 21.844916,7.3887462 26.446988,8.823253 21.762354,9.105804 12.999876,9.634309 24.130858,0.38592049 18.581644,0.71180721 z"
       inkscape:connector-curvature="0"
       style="fill:#aaaaff"
       sodipodi:nodetypes="ssssssccscscccsszcssssssss" />
  </g>
</svg>
