<svg xmlns="http://www.w3.org/2000/svg" height="48" width="48" version="1.1"> <path style="text-align:center;" d="m24.018,23.214c1.7667,0.0021,3.7072,2.019,3.7093,3.7856,0.0021,1.771-1.9383,3.8018-3.7093,3.804-1.775,0.002-3.729-2.029-3.727-3.804,0.0021-1.7709,1.9565-3.7878,3.7274-3.7856zm11.146-7.214c1.0795-0.10133,1.986,0.17693,2.696,0.78714,0.68387,0.58774,1.0081,1.5514,1.1399,2.4533v12.974c-0.0051,1.0997-0.4559,1.9772-1.1399,2.6554-0.692,0.687-1.728,0.997-2.696,1.131h-22.328c-1.102-0.002-1.981-0.452-2.669-1.13-0.6882-0.679-1.0242-1.693-1.167-2.656v-12.477c0.0028-1.119,0.4631-2.014,1.167-2.693,0.688-0.663,1.678-0.986,2.669-1.044h4.9759c0.251-0.909,0.478-1.881,1.076-2.606,0.537-0.651,1.188-1.394,2.112-1.394h6c0.92286,0,1.6222,0.7221,2.1659,1.3844,0.59393,0.72356,0.72105,1.6897,1.0223,2.6156zm-21.677,6.1256c0.88968,0.0021,1.8861-1.0031,1.8818-1.8928-0.0043-0.88103-1.0008-1.8582-1.8818-1.856-0.87675,0.0021-1.8594,0.97931-1.8637,1.856-0.0043,0.88543,0.97825,1.8907,1.8637,1.8928zm10.531,10.792c2.7596-0.0043,5.7901-3.1577,5.7901-5.9173s-3.0305-5.913-5.7901-5.9173c-2.7681-0.0043-5.8263,3.1492-5.8263,5.9173s3.0582,5.9216,5.8263,5.9173z" fill="#000"/></svg>