<svg xmlns:rdf="http://www.w3.org/1999/02/22-rdf-syntax-ns#" xmlns="http://www.w3.org/2000/svg" height="48" width="48" version="1.1" xmlns:cc="http://creativecommons.org/ns#" xmlns:dc="http://purl.org/dc/elements/1.1/"> <path d="m22.668,25.823c-0.000015,0.37332-0.07058,0.72159-0.2117,1.0448-0.14114,0.32324-0.33008,0.6055-0.56679,0.84678-0.23675,0.24129-0.51901,0.4325-0.84678,0.57362-0.3278,0.14114-0.67379,0.2117-1.038,0.21169-0.37332,0.000006-0.72159-0.07056-1.0448-0.21169-0.32324-0.14112-0.60323-0.33233-0.83995-0.57362-0.23674-0.24128-0.42568-0.52354-0.5668-0.84678-0.14114-0.32322-0.2117-0.6715-0.21169-1.0448-0.00001-0.3642,0.07056-0.70792,0.21169-1.0312,0.14112-0.32322,0.33005-0.6032,0.5668-0.83995,0.23672-0.23672,0.5167-0.42566,0.83995-0.5668,0.32322-0.14112,0.67149-0.21168,1.0448-0.2117,0.36419,0.000011,0.71019,0.07057,1.038,0.2117,0.32777,0.14114,0.61003,0.33007,0.84678,0.5668,0.23672,0.23674,0.42565,0.51672,0.56679,0.83995,0.14112,0.32324,0.21168,0.66696,0.2117,1.0312zm4.917-5.326c0.24582,0.000014,0.47345,0.04554,0.68288,0.13658,0.2094,0.09107,0.39378,0.21626,0.55314,0.37559,0.15932,0.15935,0.28451,0.34601,0.37559,0.55997,0.09103,0.21398,0.13656,0.43934,0.13658,0.67606v8.4951c-0.000022,0.24584-0.04555,0.47575-0.13658,0.68972-0.09107,0.21397-0.21627,0.40063-0.37559,0.55997-0.15936,0.15934-0.34374,0.28454-0.55314,0.37559-0.20944,0.09105-0.43707,0.13658-0.68288,0.13658h-17.823c-0.246-0.002-0.4759-0.048-0.6899-0.139-0.2139-0.091-0.4006-0.216-0.5599-0.375-0.1594-0.16-0.2846-0.346-0.3756-0.56-0.0911-0.214-0.1366-0.444-0.1366-0.69v-8.4951c-0.0000017-0.23672,0.045523-0.46207,0.13658-0.67606,0.09105-0.21396,0.21625-0.40061,0.37559-0.55997,0.15934-0.15933,0.34599-0.28452,0.55997-0.37559,0.21397-0.09104,0.44387-0.13656,0.68971-0.13658h4.2475l0.65557-1.3385c0.06373-0.17298,0.17526-0.33915,0.33461-0.49851,0.15933-0.15932,0.35737-0.30045,0.59411-0.42339,0.23672-0.1229,0.50305-0.22078,0.79898-0.29364,0.29591-0.07283,0.61231-0.10925,0.94921-0.10926h5.3265c0.32777,0.000015,0.6419,0.03643,0.94238,0.10926,0.30045,0.07286,0.56678,0.17074,0.79898,0.29364,0.23216,0.12293,0.4302,0.26406,0.59411,0.42339,0.16387,0.15936,0.27314,0.32552,0.32778,0.49851l0.66923,1.3385zm-7.58,10.667c0.7375,0.000003,1.4295-0.13885,2.076-0.41656,0.64645-0.2777,1.211-0.66012,1.6936-1.1472,0.48256-0.48712,0.86269-1.0539,1.1404-1.7004,0.27769-0.64646,0.41654-1.3384,0.41656-2.076-0.000018-0.73751-0.13887-1.4295-0.41656-2.076-0.27772-0.64645-0.65786-1.211-1.1404-1.6936-0.48259-0.48256-1.0471-0.8627-1.6936-1.1404-0.64648-0.27769-1.3385-0.41654-2.076-0.41656-0.73753,0.000014-1.4295,0.13887-2.076,0.41656-0.64648,0.27772-1.2133,0.65786-1.7004,1.1404-0.48713,0.48258-0.86955,1.0471-1.1472,1.6936-0.27772,0.64647-0.41657,1.3385-0.41656,2.076-0.000008,0.73752,0.13884,1.4295,0.41656,2.076,0.2777,0.64647,0.66011,1.2133,1.1472,1.7004,0.48712,0.48713,1.0539,0.86954,1.7004,1.1472,0.64645,0.27771,1.3384,0.41656,2.076,0.41656zm14.573-17.25c0.85586,0.55544,1.6207,1.2156,2.2945,1.9804,0.67375,0.76485,1.2428,1.6048,1.7072,2.5198,0.46433,0.91508,0.81715,1.8848,1.0585,2.9091,0.24125,1.0243,0.3619,2.0737,0.36193,3.1481-0.000034,1.1017-0.14116,2.1716-0.42339,3.2096-0.28229,1.038-0.67836,2.0145-1.1882,2.9296-0.50992,0.91507-1.1268,1.755-1.8506,2.5198-0.72389,0.76483-1.5251,1.4204-2.4038,1.9667-0.87867,0.54631-1.8279,0.97197-2.8476,1.277-1.0198,0.30502-2.0805,0.45753-3.1822,0.45753-1.4022-0.000003-2.7725-0.24129-4.111-0.72386h1.9257c0.96512-0.000002,1.8961-0.1343,2.793-0.4029,0.89683-0.2686,1.73-0.64646,2.4994-1.1336,0.76936-0.48712,1.4705-1.0676,2.1033-1.7414,0.63278-0.67378,1.1745-1.4136,1.6253-2.2194,0.45068-0.8058,0.79895-1.6685,1.0448-2.5881,0.24581-0.91961,0.36873-1.862,0.36876-2.8271-0.00003-0.82856-0.09563-1.6594-0.28681-2.4925-0.19124-0.83311-0.47122-1.6321-0.83995-2.3969-0.36879-0.76482-0.81721-1.4796-1.3453-2.1443-0.52812-0.66466-1.1245-1.2474-1.7892-1.7482l-2.7589,2.7452v-7.9898h8.0034z" style="text-align:center;" fill="#000"/></svg>