<?xml version="1.0" encoding="UTF-8" standalone="no"?>
<!-- Created with Inkscape (http://www.inkscape.org/) -->

<svg
   xmlns:dc="http://purl.org/dc/elements/1.1/"
   xmlns:cc="http://creativecommons.org/ns#"
   xmlns:rdf="http://www.w3.org/1999/02/22-rdf-syntax-ns#"
   xmlns:svg="http://www.w3.org/2000/svg"
   xmlns="http://www.w3.org/2000/svg"
   xmlns:sodipodi="http://sodipodi.sourceforge.net/DTD/sodipodi-0.dtd"
   xmlns:inkscape="http://www.inkscape.org/namespaces/inkscape"
   sodipodi:docname="metro_rename.svg"
   inkscape:version="0.48.2 r9819"
   version="1.1"
   id="svg2"
   height="48"
   width="48">
  <defs
     id="defs4" />
  <sodipodi:namedview
     id="base"
     pagecolor="#ffffff"
     bordercolor="#666666"
     borderopacity="1.0"
     inkscape:pageopacity="0.0"
     inkscape:pageshadow="2"
     inkscape:zoom="7.9195959"
     inkscape:cx="33.222305"
     inkscape:cy="22.518209"
     inkscape:document-units="px"
     inkscape:current-layer="layer1"
     showgrid="false"
     inkscape:window-width="1366"
     inkscape:window-height="706"
     inkscape:window-x="-8"
     inkscape:window-y="-8"
     inkscape:window-maximized="1" />
  <metadata
     id="metadata7">
    <rdf:RDF>
      <cc:Work
         rdf:about="">
        <dc:format>image/svg+xml</dc:format>
        <dc:type
           rdf:resource="http://purl.org/dc/dcmitype/StillImage" />
        <dc:title></dc:title>
      </cc:Work>
    </rdf:RDF>
  </metadata>
  <g
     inkscape:label="Capa 1"
     inkscape:groupmode="layer"
     id="layer1"
     transform="translate(0,-1004.3622)">
    <g
       style="font-size:32px;font-style:normal;font-variant:normal;font-weight:normal;font-stretch:normal;line-height:125%;letter-spacing:0px;word-spacing:0px;fill:#000000;fill-opacity:1;stroke:none;font-family:Segoe UI Symbol;-inkscape-font-specification:Segoe UI Symbol"
       id="text2995" />
    <g
       style="font-size:32px;font-style:normal;font-variant:normal;font-weight:normal;font-stretch:normal;line-height:125%;letter-spacing:0px;word-spacing:0px;fill:#ffffff;fill-opacity:1;stroke:none;font-family:Segoe UI Symbol;-inkscape-font-specification:Segoe UI Symbol"
       id="text3040">
      <path
         d="m 19.857422,1022.6405 c -0.565117,-0.1094 -1.139335,-0.164 -1.722656,-0.1641 -0.847667,10e-5 -1.681651,0.1185 -2.501953,0.3555 L 3.7792969,1010.9784 c 0.4375026,-0.5104 0.8909527,-1.0003 1.3603515,-1.4697 0.4694023,-0.4694 0.9593107,-0.9229 1.4697266,-1.3604 l 13.876953,13.877 z m 24.363281,23.1055 c -0.884151,1.0299 -1.832067,1.9733 -2.84375,2.83 l -11.853516,-11.8535 c 0.127582,-0.4101 0.218728,-0.8248 0.273438,-1.2441 0.05466,-0.4193 0.08201,-0.8477 0.08203,-1.2852 -2.3e-5,-0.2825 -0.01142,-0.5651 -0.03418,-0.8476 -0.02281,-0.2826 -0.06155,-0.5651 -0.116211,-0.8477 l 0.615234,-0.6152 z m -6.876953,-21.3965 c -0.473988,0.4831 -0.998076,0.8431 -1.572266,1.0801 -0.574247,0.237 -1.162137,0.3554 -1.763672,0.3554 -0.592474,0 -1.175807,-0.1184 -1.75,-0.3554 l -5.824218,5.8242 c 0.255188,0.4922 0.446594,1.0026 0.574218,1.5312 0.127584,0.5287 0.191386,1.0664 0.191407,1.6133 -2.1e-5,0.8568 -0.154968,1.6862 -0.464844,2.4883 -0.309915,0.8021 -0.779316,1.5176 -1.408203,2.1465 l -4.935547,-4.9492 c -1.348971,1.1849 -2.577159,2.249 -3.68457,3.1923 -1.107431,0.9434 -2.073576,1.7432 -2.898438,2.3995 -0.824876,0.6562 -1.497076,1.1575 -2.016601,1.5039 -0.519536,0.3463 -0.861333,0.5195 -1.025391,0.5195 l -0.05469,-0.014 -0.02734,0.027 0,-0.041 -0.01367,0 c -0.0091,0 -0.01368,-0 -0.01367,-0.014 l 0.02734,-0.014 c -4e-6,-0.01 -0.0023,-0.016 -0.0068,-0.02 -0.0046,-0 -0.0068,-0.016 -0.0068,-0.034 -4e-6,-0.164 0.175452,-0.5058 0.526367,-1.0254 0.350907,-0.5195 0.854487,-1.1917 1.510742,-2.0166 0.656244,-0.8248 1.453769,-1.791 2.392578,-2.8984 0.938793,-1.1074 2.000641,-2.3311 3.185547,-3.6709 l -4.96289,-4.9492 c 0.628899,-0.6289 1.344393,-1.0983 2.146484,-1.4082 0.802074,-0.3099 1.6315,-0.4649 2.488281,-0.4649 0.546864,0 1.084623,0.064 1.613281,0.1914 0.528633,0.1277 1.039049,0.3191 1.53125,0.5743 l 5.824219,-5.8243 c -0.236999,-0.5742 -0.355488,-1.1575 -0.355469,-1.75 -1.9e-5,-0.6015 0.11847,-1.1894 0.355469,-1.7636 0.236959,-0.5742 0.596985,-1.0983 1.080078,-1.5723 z"
         style="font-size:28px;fill:#ffffff"
         id="path3045" />
    </g>
  </g>
</svg>
