<svg width="48" height="48" xmlns="http://www.w3.org/2000/svg">
 <g fill="#ffffff" shape-rendering="crispEdges">
  <title>Layer 1</title>
  <path id="path3038" d="m30.10156,13.40619l3.04688,0l0,21.21881l-3.04688,0l0,-21.21881zm-22.875,6.01569l0,9.15625l21.35938,0l0,1.53125l-22.89063,0l0,-12.20319l22.89063,0l0,1.51569l-21.35938,0zm35.07813,-1.51569l0,12.20319l-7.625,0l0,-1.53125l6.09375,0l0,-9.15625l-6.09375,0l0,-1.51569l7.625,0zm-18.3125,9.14069l-15.23438,0l0,-6.09375l15.23438,0l0,6.09375zm6.10937,-13.71881l-3.04687,0l0,-1.53119l3.04687,0l0,1.53119zm3.04688,-1.53119l3.0625,0l0,1.53119l-3.0625,0l0,-1.53119zm-6.09375,22.89063l3.04687,0l0,1.51563l-3.04687,0l0,-1.51563zm9.15625,1.51563l-3.0625,0l0,-1.51563l3.0625,0l0,1.51563z"/>
 </g>
</svg>