<svg xmlns="http://www.w3.org/2000/svg" height="48" width="48" version="1.1"> <path fill="#ffffff" d="m33.5,23c0.07939,2.2755-1.7207,3.9222-4,4-2.2793,0.07783-3.9251-1.7212-4-4-0.07489-2.2788,1.7253-3.9233,4-4,2.2747-0.07667,3.9206,1.7245,4,4zm-19.5-7.9999-5-0.000113,0-3,5,0.000112zm25.999,4.5402,0.000476,8.4594c0,2.1313-0.86935,3.0003-3.0336,3.0003l-7.9667-0.000015c0,3.4949-2.5383,7-6.613,7h-3.902c-5.3946,0.04419-7.485-3.3926-7.485-7.455v-8.545l-1.998,0.001v-6.0002l5,0.000112v6.0002l-2-0.000225v8.545c0,3.5792,1.6765,6.5434,6.485,6.455h3.902c3.1156,0,5.613-2.5604,5.613-6h-9c-2.1406,0-2.9998-1.1768-2.9998-3.0003v-8.9997c0-2.0479,1.0579-3,3.0198-3h3.98c0.97369-1.7671,1.5954-3,4.3333-3h4.3333c3.0092,0,3.5324,1.2319,4.3333,3,3.0544,0,3.9999,1.0178,3.9999,3.5403zm-10.5,9.9597c3.6884,0.0184,6.4826-2.8174,6.5-6.5,0.01742-3.6826-2.823-6.4822-6.5-6.5s-6.4825,2.8173-6.4995,6.5c-0.01703,3.6827,2.8111,6.4816,6.4995,6.5z"/></svg>