<?xml version="1.0" encoding="UTF-8" standalone="no"?>
<!-- Created with Inkscape (http://www.inkscape.org/) -->

<svg
   xmlns:dc="http://purl.org/dc/elements/1.1/"
   xmlns:cc="http://creativecommons.org/ns#"
   xmlns:rdf="http://www.w3.org/1999/02/22-rdf-syntax-ns#"
   xmlns:svg="http://www.w3.org/2000/svg"
   xmlns="http://www.w3.org/2000/svg"
   xmlns:sodipodi="http://sodipodi.sourceforge.net/DTD/sodipodi-0.dtd"
   xmlns:inkscape="http://www.inkscape.org/namespaces/inkscape"
   width="40"
   height="40"
   id="svg2"
   version="1.1"
   inkscape:version="0.48.2 r9819"
   sodipodi:docname="Documento nuevo 1">
  <defs
     id="defs4" />
  <sodipodi:namedview
     id="base"
     pagecolor="#ffffff"
     bordercolor="#666666"
     borderopacity="1.0"
     inkscape:pageopacity="0.0"
     inkscape:pageshadow="2"
     inkscape:zoom="1"
     inkscape:cx="177.37972"
     inkscape:cy="51.671636"
     inkscape:document-units="px"
     inkscape:current-layer="text2985"
     showgrid="false"
     inkscape:window-width="1304"
     inkscape:window-height="745"
     inkscape:window-x="54"
     inkscape:window-y="-8"
     inkscape:window-maximized="1" />
  <metadata
     id="metadata7">
    <rdf:RDF>
      <cc:Work
         rdf:about="">
        <dc:format>image/svg+xml</dc:format>
        <dc:type
           rdf:resource="http://purl.org/dc/dcmitype/StillImage" />
        <dc:title></dc:title>
      </cc:Work>
    </rdf:RDF>
  </metadata>
  <g
     inkscape:label="Capa 1"
     inkscape:groupmode="layer"
     id="layer1"
     transform="translate(0,-1012.3622)">
    <g
       transform="translate(7.1875,1021.3622)"
       style="font-size:40px;font-style:normal;font-variant:normal;font-weight:normal;font-stretch:normal;text-align:center;line-height:125%;letter-spacing:0px;word-spacing:0px;writing-mode:lr-tb;text-anchor:middle;fill:#000000;fill-opacity:1;stroke:none;font-family:Segoe UI Symbol;-inkscape-font-specification:Segoe UI Symbol"
       id="text2985">
      <path
         style="font-size:32px;fill:#ffffff"
         d="m 2.4467679,14.131475 c -2.4065006,2.4065 -1.93904799,5.291599 0,7.230648 1.939048,1.939047 4.8149852,2.415661 7.230647,0 l 2.4102161,-2.410217 c 2.357983,-2.357983 1.114723,-5.453113 1.114723,-5.453113 l -1.792597,1.792599 c 0,0 0.225367,1.220763 -0.768256,2.214386 l -2.4102155,2.410215 c -1.0459912,1.045991 -2.6854893,1.678427 -4.3383882,0 -1.6528989,-1.678427 -0.9705939,-3.367795 0,-4.338389 L 6.303113,13.167389 c 1.0235439,-1.023543 2.2143856,-0.768256 2.2143856,-0.768256 l 1.7925984,-1.792598 c 0,0 -3.0441284,-1.29426 -5.4531134,1.114724 L 2.4467679,14.131475 z M 13.533759,3.0444836 c -2.408983,2.408985 -1.114723,5.4531121 -1.114723,5.4531121 l 1.792597,-1.7925972 c 0,0 -0.255288,-1.1908417 0.768256,-2.2143855 l 2.410215,-2.4102157 c 0.970594,-0.9705938 2.659961,-1.65289842 4.338389,0 1.678427,1.652899 1.045992,3.292397 0,4.3383882 L 19.318278,8.8290006 C 18.324655,9.822623 17.103891,9.597257 17.103891,9.597257 l -1.792598,1.792597 c 0,0 3.09513,1.24326 5.453114,-1.114723 l 2.410216,-2.4102163 c 2.415662,-2.4156617 1.939046,-5.2915989 0,-7.23064682 -1.939048,-1.93904788 -4.824148,-2.40650048 -7.230647,0 L 13.533759,3.0444836 z M 7.0261776,15.336583 c -0.4036384,0.403639 -0.3908111,1.055318 0,1.446129 0.3908112,0.390811 1.0007419,0.445388 1.4461295,0 L 18.595212,6.659807 c 0.479637,-0.4796362 0.362564,-1.083567 0,-1.4461294 -0.362562,-0.3625624 -0.969403,-0.4767262 -1.446129,0 L 7.0261776,15.336583 z"
         id="path2990"
         inkscape:connector-curvature="0" />
    </g>
  </g>
</svg>
