<svg width="48" height="48" xmlns="http://www.w3.org/2000/svg">
 <metadata id="metadata3017">image/svg+xml</metadata>
 <g fill="#FFFFFF">
  <title>metro_lapiz</title>
  <path d="m15.17107,35.02253c0.43463,-0.10617 0.53586,-0.45786 0.21236,-0.77305l-1.96413,-1.95255c-0.3119,-0.31686 -0.65861,-0.21731 -0.76974,0.21565l-0.63701,2.55474c-0.11123,0.43796 0.15755,0.70505 0.6038,0.59721l2.55472,-0.642zm19.69469,-22.18304c-2.1748,-2.17817 -4.31818,-0.49934 -4.31818,-0.49934c-0.35832,0.27538 -0.90409,0.75813 -1.21599,1.06834c-0.3135,0.31354 -0.3135,0.82947 0,1.14798l3.81552,3.81551c0.3235,0.31851 0.83777,0.32348 1.14966,0.008c0.31181,-0.31188 0.79296,-0.85932 1.07166,-1.21433c0,0 1.68383,-2.14498 -0.50266,-4.32645m-15.18575,20.1575c-0.31351,0.31851 -0.83777,0.31851 -1.14958,0l-3.81721,-3.81385c-0.3235,-0.31851 -0.3235,-0.83776 0,-1.15792l12.19639,-12.19301c0.31181,-0.31851 0.83607,-0.31851 1.14958,0l3.81721,3.81219c0.3218,0.32183 0.3218,0.84272 0,1.15792l-12.19639,12.1947" id="lapiz"/>
 </g>
</svg>