<svg width="48" height="48" xmlns="http://www.w3.org/2000/svg">
 <metadata>image/svg+xml</metadata>
 <g fill="#FFFFFF">
  <title>metro_tacho</title>
   <path id="tapa" d="m33.25,16.00296l0,0l-18.5,0c-0.8,0 -1.5,-0.66 -1.5,-1.5c0,-0.8 0.66,-1.5 1.5,-1.5l18.5,0c0.8,0 1.5,0.66 1.5,1.5c0,0.8 -0.66,1.5 -1.5,1.5" />
   <path id="mango" d="m26.09479,11.91509l-0.01,0l-4.08479,0c-0.5,0 -1,-0.5 -1,-1c0,-0.5 0.5,-1 1,-1l4,0c0.5,0 1,0.5 1,1c0,0.5 -0.5,1 -1,1" />
   <path id="path214" d="m29.78302,34.89777c-0.02,0.54079 -0.4664,0.96822 -1.0035,0.96822c-0.019,0 -0.028,-0.002 -0.043,-0.002c-0.5575,-0.0242 -0.9887,-0.49247 -0.9682,-1.04441l0.5593,-14.10516c0.019,-0.5538 0.4795,-0.99238 1.0463,-0.96636c0.5538,0.0223 0.9849,0.48875 0.9645,1.04441l-0.5557,14.10516l0.00031,0.00014l-0.00001,0zm-4.8782,-0.039c0,0.54821 -0.4442,0.98866 -0.9924,0.98866c-0.5482,0 -0.9887,-0.4423 -0.9887,-0.99052l0.019,-14.1033c0,-0.54637 0.4405,-0.99053 0.9887,-0.99053l0,0c0.5464,0.002 0.9887,0.44416 0.9887,0.99238l-0.017,14.10331l0.0017,0zm-5.81491,1.00537c-0.0111,0 -0.0242,0.002 -0.0353,0.002c-0.54079,0 -0.98681,-0.42743 -1.00725,-0.97007l-0.52406,-14.10516c-0.0204,-0.55565 0.41256,-1.02211 0.97007,-1.04255c0.53336,-0.009 1.02212,0.41256 1.04442,0.96822l0.5222,14.10516c0.0223,0.55194 -0.41256,1.02211 -0.97007,1.04255l-0.00001,-0.00014l0,-0.00001zm14.11441,-18.54299l-18.40915,0l0.11894,2.07025c0,0.0576 -0.0149,0.11336 -0.009,0.17283l0.80468,16.27947c0.0613,1.23211 1.11875,2.24122 2.35643,2.24122l11.8677,0c1.2358,0 2.2951,-1.00911 2.35461,-2.24122l0.8065,-16.27947c0,-0.0595 -0.01,-0.11336 -0.011,-0.17097l0.1208,-2.07211" />
 </g>
</svg>