<?xml version="1.0" encoding="UTF-8" standalone="no"?>
<!-- Created with Inkscape (http://www.inkscape.org/) -->

<svg
   xmlns:dc="http://purl.org/dc/elements/1.1/"
   xmlns:cc="http://creativecommons.org/ns#"
   xmlns:rdf="http://www.w3.org/1999/02/22-rdf-syntax-ns#"
   xmlns:svg="http://www.w3.org/2000/svg"
   xmlns="http://www.w3.org/2000/svg"
   xmlns:sodipodi="http://sodipodi.sourceforge.net/DTD/sodipodi-0.dtd"
   xmlns:inkscape="http://www.inkscape.org/namespaces/inkscape"
   width="48"
   height="48"
   id="svg2"
   version="1.1"
   inkscape:version="0.48.2 r9819"
   sodipodi:docname="metro_palette.svg">
  <defs
     id="defs4" />
  <sodipodi:namedview
     id="base"
     pagecolor="#ffffff"
     bordercolor="#666666"
     borderopacity="1.0"
     inkscape:pageopacity="0.0"
     inkscape:pageshadow="2"
     inkscape:zoom="5.6"
     inkscape:cx="23.631152"
     inkscape:cy="31.119704"
     inkscape:document-units="px"
     inkscape:current-layer="layer1"
     showgrid="false"
     inkscape:window-width="1366"
     inkscape:window-height="706"
     inkscape:window-x="-8"
     inkscape:window-y="-8"
     inkscape:window-maximized="1" />
  <metadata
     id="metadata7">
    <rdf:RDF>
      <cc:Work
         rdf:about="">
        <dc:format>image/svg+xml</dc:format>
        <dc:type
           rdf:resource="http://purl.org/dc/dcmitype/StillImage" />
      </cc:Work>
    </rdf:RDF>
  </metadata>
  <g
     inkscape:label="Capa 1"
     inkscape:groupmode="layer"
     id="layer1"
     transform="translate(0,-1004.3622)">
    <g
       style="font-size:24px;font-style:normal;font-variant:normal;font-weight:normal;font-stretch:normal;text-align:center;line-height:125%;letter-spacing:0px;word-spacing:0px;text-anchor:middle;fill:#ffffff;fill-opacity:1;stroke:none;font-family:Segoe UI Symbol;-inkscape-font-specification:Segoe UI Symbol"
       id="text2985"
       transform="matrix(1.0192963,0,0,1.0192963,-0.38806243,-19.843891)">
      <path
         d="m 37.685547,1018.9628 c -1.649766,1.7226 -3.253931,3.3861 -4.8125,4.9902 -0.665387,0.6836 -1.353537,1.3877 -2.064453,2.1123 -0.710958,0.7246 -1.410501,1.431 -2.098633,2.1191 -0.688169,0.6882 -1.348976,1.3399 -1.982422,1.9551 -0.63348,0.6153 -1.200862,1.1599 -1.702148,1.6338 -0.975275,0.9024 -1.80698,1.6612 -2.495118,2.2764 -0.688162,0.6152 -1.260102,1.1142 -1.71582,1.4971 -0.455739,0.3828 -0.802093,0.6562 -1.039062,0.8203 -0.236989,0.164 -0.38738,0.2461 -0.451172,0.2461 l -0.02734,0 -1.804688,-1.668 c -0.0091,-0.01 -0.01368,-0.018 -0.01367,-0.027 -8e-6,-0.064 0.09114,-0.2073 0.273437,-0.4306 0.182284,-0.2233 0.478508,-0.5446 0.888672,-0.9639 0.410147,-0.4193 0.947907,-0.9502 1.613281,-1.5928 0.665354,-0.6425 1.481108,-1.4104 2.447266,-2.3037 0.501289,-0.4739 1.084621,-1.0026 1.75,-1.5859 0.665349,-0.5833 1.36945,-1.194 2.112305,-1.832 0.742821,-0.638 1.503888,-1.2875 2.283203,-1.9483 0.779277,-0.6608 1.538065,-1.3011 2.276367,-1.9209 1.722633,-1.4401 3.518204,-2.9303 5.386719,-4.4707 0.09112,-0.073 0.186822,-0.1093 0.287109,-0.1094 0.09112,10e-5 0.17315,0.037 0.246094,0.1094 l 0.642578,0.5742 c 0.082,0.082 0.123019,0.1732 0.123047,0.2735 -2.8e-5,0.1003 -0.04104,0.1823 -0.123047,0.2461 z m -27.494141,22.9824 c 0.04557,0.01 0.0957,0.018 0.150391,0.027 0.04557,0.01 0.102538,0.014 0.170898,0.014 0.06836,0 0.143554,0 0.225586,0 0.136718,0 0.28483,-0.011 0.444336,-0.034 0.159504,-0.023 0.312173,-0.066 0.458008,-0.1299 0.145832,-0.064 0.277993,-0.1526 0.396484,-0.2666 0.118488,-0.1139 0.205076,-0.2666 0.259766,-0.458 0.0638,-0.2005 0.116209,-0.4739 0.157227,-0.8203 0.04101,-0.3463 0.09798,-0.7223 0.170898,-1.1279 0.07291,-0.4056 0.170896,-0.8158 0.293945,-1.2305 0.123044,-0.4147 0.296221,-0.7929 0.519532,-1.1347 0.223303,-0.3418 0.505855,-0.6198 0.847656,-0.834 0.341792,-0.2142 0.763341,-0.3213 1.264648,-0.3213 0.574213,0 1.055007,0.093 1.442383,0.2803 0.387362,0.1868 0.701815,0.4124 0.943359,0.6767 0.241529,0.2643 0.412427,0.5423 0.512696,0.834 0.100252,0.2917 0.150382,0.5423 0.15039,0.752 -8e-6,0.1002 -0.0046,0.1686 -0.01367,0.205 -0.04558,0.2461 -0.120776,0.5082 -0.225585,0.7862 -0.104826,0.278 -0.319019,0.5719 -0.642579,0.8818 -0.323575,0.3099 -0.797533,0.638 -1.421875,0.9844 -0.624354,0.3463 -1.474288,0.7155 -2.549804,1.1074 -0.464847,0.1641 -0.870446,0.2803 -1.216797,0.3486 -0.346356,0.068 -0.651695,0.1026 -0.916016,0.1026 -0.300782,0 -0.544597,-0.032 -0.731445,-0.096 -0.18685,-0.064 -0.330404,-0.1368 -0.430664,-0.2188 -0.11849,-0.1002 -0.205079,-0.2096 -0.259766,-0.3281 z m 26.03125,-19.8106 c 0.574192,1.4493 0.861301,2.9851 0.861328,4.6075 -2.7e-5,1.1666 -0.152696,2.2877 -0.458007,3.3632 -0.305365,1.0756 -0.738308,2.0805 -1.298829,3.0147 -0.560571,0.9342 -1.230492,1.7865 -2.009765,2.5566 -0.77932,0.7702 -1.645204,1.4287 -2.597656,1.9756 -0.952494,0.5469 -1.977884,0.9707 -3.076172,1.2715 -1.098324,0.3008 -2.239925,0.4512 -3.424805,0.4512 -0.145847,0 -0.284845,-0.01 -0.416992,-0.021 -0.132175,-0.014 -0.266615,-0.03 -0.403321,-0.048 -0.902356,-0.082 -1.626964,-0.2803 -2.173828,-0.5947 -0.546885,-0.3145 -0.888682,-0.7315 -1.02539,-1.251 0.154937,-0.1002 0.344065,-0.2347 0.567383,-0.4033 0.223296,-0.1686 0.489897,-0.3851 0.799804,-0.6494 0.50129,-0.4284 1.105131,-0.957 1.811524,-1.586 0.706366,-0.6289 1.515284,-1.3671 2.426757,-2.2148 0.346339,-0.3281 0.726872,-0.6881 1.141602,-1.0801 0.414696,-0.3919 0.847639,-0.8112 1.298828,-1.2578 0.451153,-0.4466 0.915997,-0.9069 1.394531,-1.3809 0.478496,-0.4739 0.95929,-0.957 1.442383,-1.4492 -0.01825,0.046 -0.02964,0.096 -0.03418,0.1504 -0.0046,0.055 -0.0069,0.1048 -0.0068,0.1504 -2.1e-5,0.237 0.04783,0.4603 0.143554,0.6699 0.09568,0.2097 0.227843,0.3897 0.396485,0.5401 0.168598,0.1504 0.362282,0.2689 0.581054,0.3554 0.218728,0.087 0.45115,0.1299 0.697266,0.1299 0.255185,0 0.492164,-0.043 0.710937,-0.1299 0.218727,-0.086 0.410133,-0.205 0.574219,-0.3554 0.164038,-0.1504 0.293921,-0.3304 0.389649,-0.5401 0.09568,-0.2096 0.14353,-0.4329 0.143554,-0.6699 -2.4e-5,-0.2278 -0.04788,-0.4443 -0.143554,-0.6494 -0.09573,-0.2051 -0.225611,-0.3828 -0.389649,-0.5332 -0.164086,-0.1504 -0.355492,-0.2689 -0.574219,-0.3555 -0.218773,-0.087 -0.455752,-0.1298 -0.710937,-0.1299 -0.08205,10e-5 -0.168642,0 -0.259766,0.014 -0.09117,0.01 -0.173199,0.023 -0.246093,0.041 0.720029,-0.7291 1.408179,-1.4332 2.064453,-2.1123 0.656225,-0.679 1.257787,-1.3056 1.804687,-1.8799 z m -7.902344,12.8926 c 0.236961,0 0.45799,-0.041 0.663086,-0.123 0.205059,-0.082 0.385072,-0.196 0.540039,-0.3418 0.154929,-0.1459 0.277975,-0.3145 0.369141,-0.5059 0.09113,-0.1914 0.136699,-0.3965 0.136719,-0.6152 -2e-5,-0.2188 -0.04559,-0.4238 -0.136719,-0.6153 -0.09117,-0.1914 -0.214212,-0.36 -0.369141,-0.5058 -0.154967,-0.1458 -0.33498,-0.2598 -0.540039,-0.3418 -0.205096,-0.082 -0.426125,-0.123 -0.663086,-0.1231 -0.236997,10e-5 -0.460304,0.041 -0.669921,0.1231 -0.209653,0.082 -0.391945,0.196 -0.546875,0.3418 -0.154965,0.1458 -0.275733,0.3144 -0.362305,0.5058 -0.0866,0.1915 -0.1299,0.3965 -0.129883,0.6153 -1.7e-5,0.2187 0.04328,0.4238 0.129883,0.6152 0.08657,0.1914 0.20734,0.36 0.362305,0.5059 0.15493,0.1458 0.337222,0.2597 0.546875,0.3418 0.209617,0.082 0.432924,0.123 0.669921,0.123 z M 27.9375,1021.1093 c -1.8e-5,0.3372 0.09796,0.6448 0.293945,0.9228 0.195945,0.278 0.444318,0.4808 0.745117,0.6084 -0.638039,0.5469 -1.282895,1.0983 -1.93457,1.6543 -0.651709,0.556 -1.282893,1.1006 -1.893555,1.6338 -0.610691,0.5332 -1.189467,1.0413 -1.736328,1.5244 -0.546888,0.4831 -1.039075,0.9206 -1.476562,1.3125 -0.273449,0.2552 -0.535493,0.5013 -0.786133,0.7383 -0.250662,0.237 -0.494477,0.4694 -0.731445,0.6972 -0.373708,-0.164 -0.797536,-0.246 -1.271485,-0.246 -0.592456,0 -1.198575,0.1412 -1.818359,0.4238 -0.273445,0.1276 -0.54916,0.221 -0.827148,0.2803 -0.278001,0.059 -0.553717,0.089 -0.827149,0.089 -0.291672,0 -0.571945,-0.03 -0.84082,-0.089 -0.268885,-0.059 -0.535486,-0.139 -0.799805,-0.2393 -0.02735,-0.027 -0.05925,-0.041 -0.0957,-0.041 -0.04558,-0.027 -0.09343,-0.055 -0.143555,-0.082 -0.05013,-0.027 -0.09799,-0.05 -0.143554,-0.068 -0.574222,-0.2917 -1.055016,-0.6836 -1.442383,-1.1758 -0.387372,-0.4922 -0.640301,-1.0527 -0.758789,-1.6816 -0.0091,-0.1003 -0.02507,-0.2028 -0.04785,-0.3076 -0.02279,-0.1049 -0.03418,-0.2119 -0.03418,-0.3213 -2e-6,-1.1576 0.152667,-2.2741 0.458007,-3.3496 0.305337,-1.0755 0.736,-2.0804 1.291993,-3.0147 0.555985,-0.9342 1.225907,-1.7842 2.009765,-2.5498 0.783848,-0.7656 1.652012,-1.4219 2.604492,-1.9687 0.952466,-0.5469 1.975577,-0.9707 3.069336,-1.2715 1.093738,-0.3008 2.23306,-0.4512 3.417969,-0.4512 0.975245,0 1.920882,0.1003 2.836914,0.3008 0.915998,0.2005 1.78644,0.4899 2.611328,0.8681 0.824849,0.3783 1.599588,0.8363 2.324219,1.3741 0.724587,0.5377 1.383115,1.1393 1.975586,1.8047 -0.346378,0.3008 -0.72919,0.6243 -1.148438,0.9707 -0.419293,0.3463 -0.86135,0.7109 -1.326172,1.0937 -0.127625,-0.319 -0.344096,-0.5856 -0.649414,-0.7998 -0.305359,-0.2142 -0.658548,-0.3213 -1.05957,-0.3213 -0.255228,0 -0.494485,0.046 -0.717773,0.1367 -0.223326,0.091 -0.41929,0.212 -0.587891,0.3623 -0.168638,0.1504 -0.300799,0.3282 -0.396484,0.5332 -0.09572,0.2051 -0.143573,0.4216 -0.143555,0.6495 z m -11.429688,7.2187 c 0.364577,0 0.708652,-0.066 1.032227,-0.1982 0.32356,-0.1322 0.606112,-0.3099 0.847656,-0.5332 0.241528,-0.2233 0.432934,-0.4854 0.574219,-0.7862 0.141267,-0.3007 0.211905,-0.6198 0.211914,-0.957 -9e-6,-0.3372 -0.07065,-0.6585 -0.211914,-0.9639 -0.141285,-0.3053 -0.332691,-0.5696 -0.574219,-0.7929 -0.241544,-0.2233 -0.524096,-0.4011 -0.847656,-0.5332 -0.323575,-0.1322 -0.66765,-0.1983 -1.032227,-0.1983 -0.364589,0 -0.708664,0.066 -1.032226,0.1983 -0.323573,0.1321 -0.606125,0.3099 -0.847656,0.5332 -0.241541,0.2233 -0.432947,0.4876 -0.574219,0.7929 -0.14128,0.3054 -0.211918,0.6267 -0.211914,0.9639 -4e-6,0.3372 0.07063,0.6563 0.211914,0.957 0.141272,0.3008 0.332678,0.5629 0.574219,0.7862 0.241531,0.2233 0.524083,0.401 0.847656,0.5332 0.323562,0.1321 0.667637,0.1982 1.032226,0.1982 z m 5.496094,-7.082 c 0.300769,0 0.581042,-0.052 0.840821,-0.1573 0.259752,-0.1048 0.485338,-0.2483 0.676757,-0.4306 0.191393,-0.1823 0.344062,-0.3965 0.458008,-0.6426 0.113918,-0.2461 0.170884,-0.515 0.170899,-0.8066 -1.5e-5,-0.2826 -0.05698,-0.5446 -0.170899,-0.7862 -0.113946,-0.2415 -0.266615,-0.4511 -0.458008,-0.6289 -0.191419,-0.1777 -0.417005,-0.319 -0.676757,-0.4238 -0.259779,-0.1048 -0.540052,-0.1572 -0.840821,-0.1572 -0.300793,0 -0.585623,0.052 -0.854492,0.1572 -0.268891,0.1048 -0.501313,0.2461 -0.697266,0.4238 -0.195973,0.1778 -0.3532,0.3874 -0.471679,0.6289 -0.1185,0.2416 -0.177744,0.5036 -0.177735,0.7862 -9e-6,0.2916 0.05923,0.5605 0.177735,0.8066 0.118479,0.2461 0.275706,0.4603 0.471679,0.6426 0.195953,0.1823 0.428375,0.3258 0.697266,0.4306 0.268869,0.1049 0.553699,0.1573 0.854492,0.1573 z"
         style="font-size:28px;fill:#ffffff"
         id="path2993"
         inkscape:connector-curvature="0" />
    </g>
  </g>
</svg>
