<svg width="48" height="48" xmlns="http://www.w3.org/2000/svg">
 <path fill="#ffffff" d="m35.53293,24.24789l-0.49586,2.63933l3.55102,2.65533l-2.63932,4.46283l-3.96694,-1.82351l-2.23942,1.82351l0.41589,3.96694l-4.87874,1.32762l-1.32762,-3.56704l-3.05523,-0.4159l-2.63932,3.15113l-4.46283,-2.73532l1.8235,-3.55102l-1.82351,-2.14343l-3.96693,0.4159l-1.32762,-5.29456l3.96694,-1.32761l0,-2.7193l-3.13522,-2.65534l2.7193,-4.38285l3.96694,1.74353l1.74353,-1.74353l-0.41589,-4.04692l4.87874,-1.32762l1.72752,3.56704l2.73531,0.49588l3.05524,-3.15113l3.96694,2.65534l-1.31171,3.55102l1.31171,2.22341l4.46283,-0.3999l1.32782,4.86283l-3.96707,1.74334zm-18.53293,-0.24789c0.02673,4.01725 3.38548,7 7,7c3.61452,0 7,-2.96984 7,-7c0,-4.03015 -2.94856,-7 -7,-7c-4.05144,0 -7.02674,2.98275 -7,7z"/>
</svg>