<svg width="48" height="48" xmlns="http://www.w3.org/2000/svg">  <title>Layer 1</title>  <g fill="#fff" id="layer1">   <path d="m20.6,39.9l-2.1875,-2.1875s-0.11449,0.10083 3.29491,-3.30859s4.26799,-6.48853 1.627,-9.33792s-7.06511,-0.51974 -9.2558,1.59961l4.293,4.293l-10.869,0l0,-10.896l4.38869,4.4024c4.48591,-4.2851 9.57531,-5.59048 13.658,-1.58591c4.0829,4.00461 2.1972,9.92969 -1.64059,13.76797c-3.8378,3.83783 -3.30859,3.25391 -3.30859,3.25391l-0.00011,-0.00098z" id="path3025"/>   <path shape-rendering="crispEdges" d="m30.743,35.5l3.13091,0l0,1.54492l-3.13091,0l0,-1.54492zm7.793,-10.86899l0,3.08978l-1.55859,0l0,-3.08978l1.55859,0zm-17.09,-14l3.1035,0l0,1.55859l-3.1035,0l0,-1.55859zm17.09,4.66208l0,3.10352l-1.55859,0l0,-3.10352l1.55859,0zm-12.42799,-4.66208l3.1035,0l0,1.55859l-3.1035,0l0,-1.55859zm-9.3242,0l3.1035,0l0,1.55859l-3.1035,0l0,-1.55859zm13.959,0l3.13091,0l0,1.55859l-3.13091,0l0,-1.55859zm7.793,9.32419l0,3.13089l-1.55859,0l0,-3.13089l1.55859,0zm0,9.32419l0,3.11722l-1.55859,0l0,-3.11722l1.55859,0zm-26.428,-13.98599l1.5723,0l0,3.10352l-1.5723,0l0,-3.10352zm23.33801,20.20703l1.5312,0l0,-1.54492l1.55859,0l0,3.08978l-3.0898,0l0,-1.54486zm0,-24.86902l3.0898,0l0,3.11719l-1.55859,0l0,-1.55859l-1.5312,0l0,-1.55859zm-20.207,0l0,1.55859l-1.55859,0l0,1.55859l-1.5723,0l0,-3.11719l3.1309,0z" id="path2996"/>  </g></svg>