<svg width="120" height="120" xmlns="http://www.w3.org/2000/svg">
  <g fill="#ffffff">
    <path id="path3010" d="m41.42776,79.01357c0.09892,-0.96963 0.20281,-1.95406 0.31166,-2.95336c0.10888,-0.9993 0.21765,-1.96893 0.32653,-2.90885c0.10884,-0.93993 0.21765,-1.81061 0.32649,-2.61209c0.10888,-0.80141 0.2226,-1.47917 0.34137,-2.0332c0.19783,-0.94982 0.38583,-1.73643 0.56396,-2.35973c0.17803,-0.6233 0.37593,-1.13285 0.59362,-1.52864c0.21765,-0.39579 0.46007,-0.71236 0.72723,-0.94982c0.26712,-0.23748 0.58867,-0.46507 0.96468,-0.68275c1.22684,-0.65299 2.11731,-1.08828 2.67142,-1.30597c0.55404,-0.21769 0.93001,-0.35621 1.12794,-0.41558c-0.00004,0.03966 0.03452,0.09412 0.10389,0.16324c0.06919,0.06926 0.13351,0.12372 0.19291,0.16329c0.07915,0.09888 0.16817,0.188 0.26713,0.26709c3.18587,3.00788 6.43116,4.51174 9.73581,4.51174c3.34419,0 6.62903,-1.50386 9.85455,-4.51174c0.0593,-0.07915 0.12856,-0.16814 0.20779,-0.26709l0.2968,-0.26716c0.17803,0.03966 0.5392,0.1732 1.08342,0.4007c0.54414,0.22758 1.43954,0.66787 2.68626,1.32086c0.39568,0.23747 0.73705,0.47004 1.02405,0.69754c0.28687,0.22758 0.53915,0.53923 0.75687,0.93502c0.21762,0.39572 0.42047,0.89545 0.6085,1.49895c0.18793,0.60352 0.3611,1.38022 0.51943,2.33006c0.11867,0.55403 0.2374,1.2318 0.35618,2.0332c0.11871,0.80148 0.22751,1.67216 0.32653,2.61209c0.09891,0.93993 0.19782,1.90955 0.2968,2.90885c0.09895,0.99931 0.18793,1.98373 0.26716,2.95336l-36.53899,0z"/>
    <path id="path3008" d="m68.04112,48.85439c-0.00003,1.3907 -0.2136,2.69688 -0.64067,3.91864c-0.42716,1.22183 -1.01822,2.2847 -1.77307,3.18859c-0.75497,0.90395 -1.63904,1.61914 -2.65218,2.14558c-1.01324,0.52645 -2.10586,0.7897 -3.27796,0.78963c-1.15227,0.00007 -2.23994,-0.26318 -3.26305,-0.78963c-1.02317,-0.52646 -1.9072,-1.24163 -2.65217,-2.14558c-0.745,-0.90389 -1.33605,-1.96676 -1.77308,-3.18859c-0.43707,-1.22176 -0.65563,-2.52794 -0.65559,-3.91864c-0.00004,-1.39062 0.21851,-2.69189 0.65559,-3.90376c0.43703,-1.21179 1.02808,-2.26967 1.77308,-3.17364c0.74497,-0.90389 1.629,-1.61906 2.65217,-2.14558c1.0231,-0.52637 2.11077,-0.78964 3.26305,-0.78971c1.1721,0.00008 2.26472,0.26333 3.27796,0.78971c1.01314,0.52652 1.8972,1.24169 2.65218,2.14558c0.75485,0.90397 1.34591,1.96185 1.77307,3.17364c0.42707,1.21186 0.64064,2.51314 0.64067,3.90376z"/>
  </g>
  <g fill="#ffffff" shape-rendering="crispEdges">
    <path id="path3006" d="m88.80132,73.49797l6.69868,0l0,17.95367c-0.00008,0.64375 -0.23643,1.1969 -0.70907,1.65959c-0.47282,0.46266 -1.02097,0.69401 -1.64453,0.69401l-17.92348,0l0,-6.75903l13.5784,0l0,-13.54824l0,-0.00001z"/>
    <path id="path3004" d="m88.80132,32.95385l-13.5784,0l0,-6.75902l17.92348,0c0.62357,0.00007 1.17171,0.22129 1.64453,0.66381c0.47263,0.4426 0.70899,0.99583 0.70907,1.65959l0,17.95367l-6.69868,0l0,-13.51805z"/>
    <path id="path3002" d="m31.28922,87.04621l13.51806,0l0,6.75903l-17.89333,0c-0.60348,0 -1.15668,-0.23135 -1.65959,-0.69402c-0.5029,-0.46268 -0.75435,-1.01585 -0.75435,-1.65958l0,-17.95367l6.78922,0l0,13.54824l-0.00002,0.00001z"/>
    <path id="path3100" d="m31.28922,46.29084l-6.78922,0l0,-17.7726c0,-0.66381 0.25145,-1.21699 0.75435,-1.65959c0.5029,-0.44252 1.05611,-0.66381 1.65959,-0.6639l17.89333,0l0,6.75903l-13.51805,0l0,13.33706l0.00001,0z"/>
  </g>
</svg>