<?xml version="1.0" encoding="UTF-8" standalone="no"?>
<!-- Created with Inkscape (http://www.inkscape.org/) -->

<svg
   xmlns:dc="http://purl.org/dc/elements/1.1/"
   xmlns:cc="http://creativecommons.org/ns#"
   xmlns:rdf="http://www.w3.org/1999/02/22-rdf-syntax-ns#"
   xmlns:svg="http://www.w3.org/2000/svg"
   xmlns="http://www.w3.org/2000/svg"
   xmlns:sodipodi="http://sodipodi.sourceforge.net/DTD/sodipodi-0.dtd"
   xmlns:inkscape="http://www.inkscape.org/namespaces/inkscape"
   width="1400"
   height="768"
   id="svg2"
   version="1.1"
   inkscape:version="0.48.2 r9819"
   sodipodi:docname="tribal.svg">
  <defs
     id="defs4" />
  <sodipodi:namedview
     id="base"
     pagecolor="#ffffff"
     bordercolor="#666666"
     borderopacity="1.0"
     inkscape:pageopacity="0.0"
     inkscape:pageshadow="2"
     inkscape:zoom="0.23493607"
     inkscape:cx="478.52943"
     inkscape:cy="696.57895"
     inkscape:document-units="px"
     inkscape:current-layer="layer1"
     showgrid="false"
     inkscape:window-width="1024"
     inkscape:window-height="712"
     inkscape:window-x="-4"
     inkscape:window-y="-4"
     inkscape:window-maximized="1" />
  <metadata
     id="metadata7">
    <rdf:RDF>
      <cc:Work
         rdf:about="">
        <dc:format>image/svg+xml</dc:format>
        <dc:type
           rdf:resource="http://purl.org/dc/dcmitype/StillImage" />
        <dc:title />
      </cc:Work>
    </rdf:RDF>
  </metadata>
  <g
     inkscape:label="Capa 1"
     inkscape:groupmode="layer"
     id="layer1"
     transform="translate(0,-284.36218)">
    <path
       style="opacity:0.10000000000000001;fill:#ffffff;stroke:none"
       d="M 488.60127,196.88659 C 578.8578,174.17833 672.93003,76.397259 693.009,0 690.99134,-2.7887876 675.2975,-2.8019349 671.933,0 646.75405,81.014702 561.57747,164.82552 488.60127,196.88659 z"
       id="path2996"
       inkscape:connector-curvature="0"
       transform="translate(0,284.36218)"
       sodipodi:nodetypes="cccc" />
    <path
       style="opacity:0.10000000000000001;fill:#ffffff;stroke:none"
       d="M 103.64943,281.91991 C 384.48757,329.63833 697.03534,190.46305 734.38726,0 L 762.98,0 C 780.08334,75.812337 928.7142,171.93569 973.66507,358.6694 887.79457,163.06612 829.94186,183.70051 755.45574,66.720365 672.45666,251.41804 336.7809,362.95992 103.64943,281.91991 z"
       id="path2998"
       inkscape:connector-curvature="0"
       transform="translate(0,284.36218)"
       sodipodi:nodetypes="cccccc" />
    <path
       style="opacity:0.10000000000000001;fill:#ffffff;stroke:none"
       d="M 569.03779,521.12433 C 578.06217,297.12581 803.11951,75.792227 925.2,0 l 99.631,0 C 837.27976,75.961546 607.89878,290.74391 569.03779,521.12433 z"
       id="path3000"
       inkscape:connector-curvature="0"
       transform="translate(0,284.36218)"
       sodipodi:nodetypes="cccc" />
    <path
       style="opacity:0.10000000000000001;fill:#ffffff;stroke:none"
       d="M 743.81938,269.99218 C 797.03123,134.6585 1123.4842,-76.763227 1261.8601,20.623568 1106.6555,-7.9599396 849.17536,125.06521 743.81938,269.99218 z"
       id="path3002"
       inkscape:connector-curvature="0"
       transform="translate(0,284.36218)"
       sodipodi:nodetypes="ccc" />
    <path
       style="opacity:0.10000000000000001;fill:#ffffff;stroke:none"
       d="M 291.56869,532.82964 C 249.09455,649.4662 98.175929,689.63121 0,692.44753 l 1.0641193,35.11594 C 101.88314,731.62149 216.63129,690.23383 261.77334,641.36981 270.73534,692.533 285.77106,731.39128 312.85107,768 l 42.56493,0 C 320.85755,734.88912 287.22158,615.18338 291.56869,532.82964 z"
       id="path3004"
       inkscape:connector-curvature="0"
       transform="translate(0,284.36218)"
       sodipodi:nodetypes="ccccccc" />
    <path
       style="opacity:0.10000000000000001;fill:#ffffff;stroke:none"
       d="M 904.50139,696.70401 C 739.49487,610.51486 454.29742,662.11851 349.031,768 l 57.46257,0 c 89.97826,-75.70513 307.5985,-122.37822 498.00782,-71.29599 z"
       id="path3006"
       inkscape:connector-curvature="0"
       transform="translate(0,284.36218)"
       sodipodi:nodetypes="cccc" />
    <path
       style="opacity:0.10000000000000001;fill:#ffffff;stroke:none"
       d="M 668.26691,612.63859 C 436.62433,594.65804 323.12149,694.38976 255.16912,744.54028 200.51263,668.98013 106.97522,592.85069 0,560.646 L 0,580.69 C 58.394533,596.22677 189.69988,701.00542 228.786,768 l 58.526,0 C 377.63208,688.24233 502.65757,620.9326 668.26691,612.63859 z"
       id="path3008"
       inkscape:connector-curvature="0"
       transform="translate(0,284.36218)"
       sodipodi:nodetypes="ccccccc" />
    <path
       style="opacity:0.10000000000000001;fill:#ffffff;stroke:none"
       d="m 1082.4596,478.99836 c 89.7201,-89.15265 229.643,-97.12116 317.5404,-88.78847 -86.5491,-31.23644 -191.1985,-40.69203 -270.1363,-0.7526 0,-32.72551 0.3381,-77.93865 -13.5443,-105.09511 l -48.909,0 c 35.6487,37.91089 36.5384,131.57395 15.0492,194.63618 z"
       id="path3010"
       inkscape:connector-curvature="0"
       sodipodi:nodetypes="cccccc" />
    <path
       style="opacity:0.10000000000000001;fill:#ffffff;stroke:none"
       d="m 1400,976.80978 c 0,0 -72.479,7.30539 -254.5471,-14.04477 124.1774,50.13219 255.6113,49.16069 255.6113,49.16069 z"
       id="path3004-1"
       inkscape:connector-curvature="0"
       sodipodi:nodetypes="cccc" />
    <path
       style="opacity:0.10000000000000001;fill:#ffffff;stroke:none"
       d="m 1400,845.00821 c 0,0 -59.216,-18.92825 -167.7955,-21.58073 143.49,30.45514 167.7955,41.62473 167.7955,41.62473 z"
       id="path3008-7"
       inkscape:connector-curvature="0"
       sodipodi:nodetypes="cccc" />
    <path
       style="fill:#ffffff;fill-opacity:1;stroke:none;opacity:0.10000000000000001"
       d="m 730.31336,915.3891 c 180.64217,-8.88109 291.40664,48.0939 346.70954,136.4731 l 65.3337,0 C 1043.3351,937.64033 883.80466,882.76955 730.31336,915.3891 z"
       id="path3032"
       inkscape:connector-curvature="0"
       sodipodi:nodetypes="cccc" />
    <path
       style="opacity:0.10000000000000001;fill:#ffffff;fill-opacity:1;stroke:none"
       d="M 389.99522,470.52445 C 209.79572,455.0773 107.68157,379.36495 64.742434,284.36218 L 0,284.36218 c 82.793194,126.47998 233.51445,197.88325 389.99522,186.16227 z"
       id="path3032-4"
       inkscape:connector-curvature="0"
       sodipodi:nodetypes="cccc" />
  </g>
</svg>
