<?xml version="1.0" encoding="UTF-8" standalone="no"?>
<!-- Created with Inkscape (http://www.inkscape.org/) -->
<svg id="svg2" xmlns:rdf="http://www.w3.org/1999/02/22-rdf-syntax-ns#" xmlns="http://www.w3.org/2000/svg" height="250" width="500" version="1.1" xmlns:cc="http://creativecommons.org/ns#" xmlns:dc="http://purl.org/dc/elements/1.1/">
 <metadata id="metadata7">
  <rdf:RDF>
   <cc:Work rdf:about="">
    <dc:format>image/svg+xml</dc:format>
    <dc:type rdf:resource="http://purl.org/dc/dcmitype/StillImage"/>
    <dc:title/>
   </cc:Work>
  </rdf:RDF>
 </metadata>
 <g id="layer1" transform="translate(3.6574808e-7,-802.36219)">
  <g id="g3014" fill="#FFF" transform="matrix(0.33423259,0,0,0.34073949,273.27573,635.89888)">
   <path id="path3016" fill="#FFF" d="m84.047,849.71c23.57-25.424,88.347-88.24,152.99-88.24,74.626,0,142.12,60.421,142.12,151.63s-67.486,153.18-142.12,153.18c-73.23,0-107.84-43.967-152.68-85.249l-68.549-80.42c-23.739-28.2-62.097-59.92-104.9-59.92-42.801,0-65.039,33.942-65.039,72.394s24.358,71.099,65.04,71.099c40.023,0,84.668-36.201,104.41-57.007zm-19.832,133.85c-29.271,32.556-68.799,83.542-153.3,83.542-71.364,0-101.55-36.442-131.83-88.881-26.974,63.348-84.645,90.635-145.39,91.405-99.367,0-152.13-70.406-152.13-129.13h0.00013,80.411c7.6831,39.498,29.635,61.136,70.089,61.136,49.709,0,75.229-34.436,75.229-82.834,0-41.871-32.676-78.085-72.423-78.085-29.477,0-50.478,13.82-67.619,32.283h-73.688l40.633-231.85h232.37l0.001,70.435h-172.83l-16.817,95.818c23.44-23.651,54.295-28.243,85.218-28.318,59.525-0.14302,98.329,35.941,114.2,71.498,29.978-51.924,62.976-89.106,134.57-89.106,61.887,0,129.67,63.262,154.25,88.508l70.354,77.477c23.205,24.649,60.328,56.626,101.51,56.626,32.639,0,67.164-23.159,67.164-70.294s-33.663-73.076-67.165-73.076c-32.95,0-81.046,35.248-103.71,60.454z"/>
  </g>
 </g>
</svg>
