<?xml version="1.0" standalone="no"?>
<!DOCTYPE svg PUBLIC "-//W3C//DTD SVG 20010904//EN"
 "http://www.w3.org/TR/2001/REC-SVG-20010904/DTD/svg10.dtd">
<svg version="1.0" xmlns="http://www.w3.org/2000/svg"
 width="300.000000pt" height="300.000000pt" viewBox="0 0 300.000000 300.000000"
 preserveAspectRatio="xMidYMid meet">
<metadata>
Created by potrace 1.11, written by Peter Selinger 2001-2013
</metadata>
<g transform="translate(0.000000,300.000000) scale(0.100000,-0.100000)"
fill="#fff" stroke="none">
<path d="M704 2552 c-68 -24 -146 -83 -183 -138 -64 -97 -62 -59 -59 -950 l3
-809 27 -57 c34 -73 98 -137 174 -174 59 -29 59 -29 264 -31 142 -1 193 1 167
8 -151 36 -254 170 -294 383 -46 244 59 622 266 950 33 54 61 102 61 106 0 4
7 10 15 14 8 3 15 12 15 21 0 8 5 15 10 15 6 0 10 5 10 11 0 6 11 20 25 31 14
11 23 24 20 29 -4 5 -2 9 2 9 5 0 47 44 95 98 135 154 350 332 529 440 43 26
78 50 79 55 0 4 -264 7 -587 7 -534 -1 -593 -2 -639 -18z"/>
<path d="M2253 2520 c-204 -126 -388 -280 -554 -464 -59 -66 -107 -121 -106
-122 1 -2 34 6 72 17 304 85 553 -47 605 -321 40 -209 -49 -531 -209 -757
-160 -226 -439 -434 -634 -473 -25 -4 155 -8 434 -9 447 -1 479 0 532 18 64
22 145 75 155 99 3 10 11 22 18 27 6 6 23 40 38 77 l26 66 0 804 0 803 -23 56
c-13 30 -36 72 -51 91 -35 47 -120 105 -178 123 l-46 14 -79 -49z"/>
<path d="M1567 1796 c-100 -42 -131 -68 -192 -167 -240 -388 -379 -807 -323
-970 28 -83 94 -145 172 -163 146 -34 386 172 546 468 27 50 50 96 51 101 0 6
6 19 12 30 6 11 12 22 12 25 0 3 6 15 13 28 7 12 10 22 6 22 -3 0 -1 7 6 15 7
8 9 15 5 15 -4 0 -3 6 3 13 13 15 48 160 63 255 25 165 -39 300 -160 341 -57
19 -150 13 -214 -13z"/>
</g>
</svg>
