<?xml version="1.0" standalone="no"?>
<!DOCTYPE svg PUBLIC "-//W3C//DTD SVG 20010904//EN"
 "http://www.w3.org/TR/2001/REC-SVG-20010904/DTD/svg10.dtd">
<svg version="1.0" xmlns="http://www.w3.org/2000/svg"
 width="300.000000pt" height="300.000000pt" viewBox="0 0 300.000000 300.000000"
 preserveAspectRatio="xMidYMid meet">
<metadata>
Created by potrace 1.11, written by Peter Selinger 2001-2013
</metadata>
<g transform="translate(0.000000,300.000000) scale(0.100000,-0.100000)"
fill="#FFF" stroke="none">
<path d="M457 1980 c-136 -35 -227 -137 -227 -258 0 -61 15 -103 54 -149 l27
-32 -36 -32 c-84 -74 -104 -185 -53 -290 49 -100 145 -149 305 -157 170 -8
290 42 344 144 58 107 47 205 -32 287 l-48 50 28 36 c40 50 54 103 48 171 -8
97 -59 164 -157 209 -61 28 -184 38 -253 21z m170 -161 c49 -18 73 -48 73 -91
0 -81 -103 -128 -211 -98 -111 31 -122 148 -19 189 34 13 122 14 157 0z m21
-374 c79 -34 106 -87 76 -150 -25 -52 -81 -79 -169 -79 -194 -1 -267 158 -105
228 46 20 151 20 198 1z"/>
<path d="M1358 1920 c-113 -14 -218 -81 -273 -175 -33 -56 -129 -417 -128
-483 0 -73 40 -137 108 -171 l50 -26 663 -3 c578 -2 671 -1 725 13 106 27 195
99 232 189 17 39 55 354 55 449 0 69 -25 125 -73 161 -75 58 -55 56 -699 55
-326 -1 -623 -5 -660 -9z m993 -70 c89 -25 141 -90 104 -131 -23 -24 -48 -22
-140 11 -96 35 -184 9 -200 -60 -12 -49 24 -76 153 -116 200 -62 242 -99 242
-216 0 -87 -35 -144 -112 -182 -151 -74 -418 -18 -418 87 0 36 25 67 53 67 11
0 34 -9 52 -20 17 -11 60 -27 95 -36 102 -26 178 -4 199 58 20 56 -13 87 -129
123 -174 54 -221 82 -246 141 -17 40 -18 112 -3 151 19 52 80 103 149 124 37
11 160 10 201 -1z m-1000 -29 c15 -12 60 -101 124 -249 55 -127 103 -228 107
-224 3 4 43 93 88 197 108 251 124 281 152 288 30 8 71 -13 81 -43 13 -37
-256 -628 -296 -650 -50 -28 -69 0 -219 315 -76 158 -138 300 -138 314 0 31 8
44 35 59 28 16 39 15 66 -7z"/>
</g>
</svg>
