<?xml version="1.0" standalone="no"?>
<!DOCTYPE svg PUBLIC "-//W3C//DTD SVG 20010904//EN"
 "http://www.w3.org/TR/2001/REC-SVG-20010904/DTD/svg10.dtd">
<svg version="1.0" xmlns="http://www.w3.org/2000/svg"
 width="320.000000pt" height="320.000000pt" viewBox="0 0 320.000000 320.000000"
 preserveAspectRatio="xMidYMid meet">
<metadata>
Created by potrace 1.11, written by Peter Selinger 2001-2013
</metadata>
<g transform="translate(0.000000,320.000000) scale(0.100000,-0.100000)"
fill="#FFF" stroke="none">
<path d="M550 2472 c0 -4 50 -189 111 -412 60 -223 142 -522 181 -665 38 -143
74 -268 79 -277 9 -17 51 -18 672 -18 434 0 675 4 700 11 56 15 96 56 117 119
10 30 16 58 14 62 -3 5 -292 8 -642 8 l-637 -1 -26 98 c-93 345 -189 714 -189
727 0 14 67 16 700 16 385 0 700 -3 700 -8 0 -4 -23 -82 -51 -172 -50 -163
-77 -217 -122 -242 -16 -10 -136 -14 -473 -18 l-451 -5 29 -93 29 -93 497 3
497 3 48 28 c91 54 110 97 246 558 34 114 61 212 61 218 0 8 -242 11 -885 11
-823 0 -885 1 -885 17 0 9 -9 36 -20 59 -30 61 -64 74 -194 74 -58 0 -106 -3
-106 -8z"/>
<path d="M995 1056 c-109 -49 -135 -195 -51 -280 84 -83 229 -58 277 48 33 73
20 145 -37 198 -52 48 -127 62 -189 34z"/>
<path d="M2138 1050 c-52 -28 -81 -73 -86 -137 -5 -64 9 -103 54 -143 69 -60
159 -60 229 1 41 37 59 86 53 149 -12 118 -143 186 -250 130z"/>
</g>
</svg>
