<?xml version="1.0" standalone="no"?>
<!DOCTYPE svg PUBLIC "-//W3C//DTD SVG 20010904//EN"
 "http://www.w3.org/TR/2001/REC-SVG-20010904/DTD/svg10.dtd">
<svg version="1.0" xmlns="http://www.w3.org/2000/svg"
 width="300.000000pt" height="300.000000pt" viewBox="0 0 300.000000 300.000000"
 preserveAspectRatio="xMidYMid meet">
<metadata>
Created by potrace 1.11, written by Peter Selinger 2001-2013
</metadata>
<g transform="translate(0.000000,300.000000) scale(0.100000,-0.100000)"
fill="#FFF" stroke="none">
<path d="M1578 2089 c-229 -27 -360 -74 -490 -177 -95 -75 -149 -142 -193
-233 -64 -137 -78 -234 -49 -344 19 -75 46 -121 129 -223 88 -107 150 -149
267 -178 175 -44 285 -29 418 56 48 31 54 32 89 21 58 -17 150 -13 196 8 52
24 140 118 165 176 60 139 74 359 31 475 -11 30 -36 97 -55 149 -43 116 -74
155 -161 202 -120 65 -211 83 -347 68z m-55 -156 c33 -3 110 0 173 7 133 15
178 7 218 -41 30 -36 35 -92 10 -127 -15 -22 -17 -22 -29 -5 -12 16 -33 18
-243 18 l-229 0 -10 -105 c-5 -58 -9 -106 -9 -107 1 -1 28 8 61 19 101 34 242
13 323 -49 80 -61 107 -208 57 -310 -34 -67 -100 -127 -183 -166 -63 -30 -74
-32 -177 -32 -126 0 -197 19 -244 65 -78 79 -20 216 109 254 84 25 101 21 49
-13 -52 -32 -89 -75 -89 -102 0 -30 43 -50 118 -56 195 -16 342 70 342 200 0
69 -42 96 -159 104 -95 7 -167 -12 -240 -62 -28 -19 -53 -35 -56 -35 -3 0 -14
19 -25 42 -18 41 -18 42 1 81 37 71 59 183 59 293 0 100 1 103 28 123 19 15
36 20 57 16 17 -3 56 -8 88 -12z"/>
</g>
</svg>
