<?xml version="1.0" standalone="no"?>
<!DOCTYPE svg PUBLIC "-//W3C//DTD SVG 20010904//EN"
 "http://www.w3.org/TR/2001/REC-SVG-20010904/DTD/svg10.dtd">
<svg version="1.0" xmlns="http://www.w3.org/2000/svg"
 width="300.000000pt" height="300.000000pt" viewBox="0 0 300.000000 300.000000"
 preserveAspectRatio="xMidYMid meet">
<metadata>
Created by potrace 1.11, written by Peter Selinger 2001-2013
</metadata>
<g transform="translate(0.000000,300.000000) scale(0.100000,-0.100000)"
fill="#ffffff" stroke="none">
<path d="M1310 2435 c-30 -8 -87 -31 -127 -50 -116 -57 -203 -172 -219 -288
l-7 -46 39 -9 c60 -16 232 -34 244 -27 6 4 21 30 34 59 40 89 120 135 215 122
51 -7 84 -26 107 -61 21 -32 42 -181 27 -196 -5 -5 -55 -14 -109 -20 -314 -30
-474 -110 -556 -277 -32 -64 -33 -71 -33 -187 0 -111 2 -124 27 -176 73 -148
211 -213 405 -189 105 13 170 41 256 113 l60 51 26 -35 c58 -77 107 -121 134
-121 18 0 54 24 122 82 52 45 100 90 105 100 8 14 2 30 -26 70 -70 102 -68 90
-74 475 l-5 350 -33 68 c-40 80 -99 129 -207 172 -63 25 -85 29 -210 32 -102
2 -155 -1 -195 -12z m312 -803 c-3 -125 -26 -193 -82 -251 -85 -87 -207 -77
-254 23 -22 46 -20 140 3 191 41 91 160 147 301 141 l35 -1 -3 -103z"/>
<path d="M2181 1101 c-75 -26 -106 -52 -106 -87 l0 -29 125 0 125 0 -3 -29
c-2 -16 -14 -64 -28 -108 -28 -89 -25 -118 13 -118 51 0 117 95 148 215 27
105 18 145 -36 164 -50 17 -177 13 -238 -8z"/>
<path d="M590 1034 c-22 -26 -1 -58 85 -129 230 -190 429 -292 638 -325 100
-16 293 -7 408 19 171 39 423 152 502 225 35 32 35 70 2 92 -24 16 -29 15
-129 -24 -237 -93 -403 -127 -626 -126 -147 0 -176 3 -264 28 -126 34 -246 86
-423 180 -77 42 -150 76 -161 76 -11 0 -25 -7 -32 -16z"/>
</g>
</svg>
