<svg width="300" height="300" xmlns="http://www.w3.org/2000/svg">
 <g>
  <title>ganalytics</title>
  <path fill="#f05824" stroke-width="14" stroke-miterlimit="4" id="rect2996" d="m0,220l65,-60l85,45l90,-135l60,39.28571l0,190.71429l-300,0l0,-80z"/>
  <path fill="#ffffff" d="m180,205a30,30 0 1 1-59.99999,0a30,30 0 1 159.99999,0z" id="path3767-1"/>
  <path fill="#ffffff" d="m270,69.99999a30,30 0 1 1-60,0a30,30 0 1 160,0z" id="path3767-7"/>
  <path fill="none" stroke="#ffffff" stroke-width="16" stroke-miterlimit="4" stroke-linecap="round" id="rect2996-4" d="m0,220l65,-60l85,45l90,-135l60,39.28571"/>
  <path fill="#ffffff" d="m95,160a30,30 0 1 1-60,0a30,30 0 1 160,0z" id="path3767"/>
 </g>
</svg>