<svg width="200" height="200" xmlns="http://www.w3.org/2000/svg">
  <title>Layer 1</title>
  <g id="g2225">
   <path d="m57.26588,100.00002c14.45295,-3.10506 12.47989,-20.39639 12.05656,-24.17467c-0.71239,-5.8278 -7.56216,-16.00454 -16.8568,-15.19144c-11.70223,1.04248 -13.41048,17.94591 -13.41048,17.94591c-1.58516,7.82697 3.78201,24.53271 18.21072,21.42021m26.83962,-28.98611c7.97803,0 14.42684,-9.19394 14.42684,-20.55116c0,-11.35909 -6.44881,-20.53811 -14.42684,-20.53811c-7.98179,0 -14.44736,9.17903 -14.44736,20.53811c0,11.35722 6.46375,20.55116 14.44736,20.55116m34.39616,1.35206c10.68026,1.39867 17.52258,-9.99399 18.89143,-18.6266c1.39867,-8.62142 -5.50148,-18.64897 -13.04497,-20.37027c-7.57709,-1.74182 -17.03583,10.38747 -17.8881,18.30023c-1.03874,9.67881 1.37257,19.32966 12.04164,20.69663m42.29397,14.5033c0,-4.12888 -3.41833,-16.5752 -16.14813,-16.5752c-12.75589,0 -14.44176,11.74512 -14.44176,20.04391c0,7.9202 0.66017,18.96786 16.50061,18.62473c15.82365,-0.3506 14.08928,-17.93658 14.08928,-22.09344m-16.14813,36.24614c0,0 -16.50992,-12.77082 -26.14585,-26.57851c-13.08414,-20.35909 -31.6473,-12.06776 -37.85368,-1.72876c-6.18773,10.3651 -15.80686,16.91089 -17.18315,18.64897c-1.38935,1.70265 -19.93948,11.72647 -15.82365,30.03044c4.12514,18.28905 18.59116,17.94215 18.59116,17.94215s10.66161,1.0425 23.02588,-1.72316c12.39037,-2.75819 23.0501,0.67696 23.0501,0.67696s28.90217,9.69186 36.8,-8.95711c7.90721,-18.63405 -4.46083,-28.31101 -4.46083,-28.31101" fill="#2319DC" id="path2227"/>
  </g>
</svg>