<?xml version="1.0" standalone="no"?>
<!DOCTYPE svg PUBLIC "-//W3C//DTD SVG 20010904//EN"
 "http://www.w3.org/TR/2001/REC-SVG-20010904/DTD/svg10.dtd">
<svg version="1.0" xmlns="http://www.w3.org/2000/svg"
 width="300.000000pt" height="300.000000pt" viewBox="0 0 300.000000 300.000000"
 preserveAspectRatio="xMidYMid meet">
<metadata>
Created by potrace 1.11, written by Peter Selinger 2001-2013
</metadata>
<g transform="translate(0.000000,300.000000) scale(0.100000,-0.100000)"
fill="#FFF" stroke="none">
<path d="M661 2072 l-226 -174 -27 -266 -27 -266 181 -210 c100 -116 184 -214
187 -218 4 -4 173 -23 376 -43 204 -19 579 -55 835 -79 274 -27 467 -41 470
-36 3 5 18 141 33 302 15 161 39 415 53 563 41 440 41 437 30 441 -6 2 -132
15 -281 29 -148 14 -389 36 -535 51 -146 14 -395 37 -554 53 l-289 27 -226
-174z m162 -77 c41 -4 67 -11 67 -18 0 -7 -7 -75 -15 -152 -8 -77 -15 -161
-15 -187 l0 -48 -37 1 c-21 1 -65 4 -98 8 l-60 6 3 45 c1 25 7 86 12 135 5 50
12 121 15 158 7 67 7 68 33 63 15 -3 57 -8 95 -11z m223 -31 c102 -28 133 -97
72 -158 l-33 -32 38 -36 c41 -38 47 -69 21 -107 -27 -37 -74 -51 -179 -51
l-95 0 0 49 0 50 48 3 c40 3 47 6 50 25 3 19 -4 25 -42 35 -39 10 -46 16 -46
38 0 36 11 48 45 52 55 6 43 57 -14 58 -19 0 -22 4 -17 23 3 12 6 34 6 49 0
27 1 27 48 22 26 -3 70 -12 98 -20z m339 -24 c210 -17 197 -12 193 -73 l-3
-52 -87 4 c-73 3 -88 1 -88 -12 0 -17 29 -27 80 -27 69 -1 75 -6 72 -60 l-4
-49 -79 6 c-75 6 -79 5 -79 -15 0 -18 8 -21 86 -27 l86 -8 -5 -50 c-4 -27 -8
-51 -10 -53 -5 -5 -361 29 -369 35 -5 4 23 352 31 399 1 1 11 0 24 -2 12 -3
81 -10 152 -16z m597 -65 c27 -9 50 -21 54 -26 3 -5 -9 -29 -26 -54 -30 -44
-31 -45 -55 -29 -30 20 -126 24 -132 7 -3 -8 27 -22 81 -38 99 -30 136 -63
136 -122 0 -44 -49 -96 -105 -112 -81 -22 -247 -7 -329 30 -33 15 -33 21 5 73
l30 43 41 -20 c55 -28 148 -36 148 -13 0 11 -22 22 -75 37 -91 27 -134 60
-142 112 -5 34 -2 41 34 75 22 21 55 43 74 50 46 15 203 8 261 -13z m308 -21
c102 -10 189 -21 194 -25 4 -4 5 -33 1 -66 l-6 -58 -54 3 c-61 4 -59 9 -70
-133 -9 -123 -13 -136 -38 -130 -12 2 -57 7 -101 10 l-78 7 5 36 c4 21 9 83
13 140 l7 102 -51 0 c-28 0 -52 3 -55 8 -2 4 -1 33 1 65 5 68 -20 63 232 41z
m-1710 -194 c36 -36 21 -102 -27 -121 -35 -13 -77 4 -92 37 -16 35 -14 48 10
78 26 33 79 36 109 6z m337 -134 c5 -5 -30 -391 -36 -396 -3 -3 -43 -2 -88 3
l-83 9 0 42 c0 22 7 104 15 181 8 77 15 148 15 159 0 17 6 18 87 12 48 -4 89
-9 90 -10z m180 -27 c57 -18 93 -56 93 -95 0 -34 -26 -72 -61 -88 -12 -5 -12
-7 1 -13 35 -15 70 -62 70 -93 0 -69 -94 -108 -230 -94 l-70 7 0 48 0 47 45
-1 c82 -3 88 49 6 67 -42 9 -47 18 -35 64 5 17 14 22 40 22 23 0 37 6 41 16 8
21 -22 44 -55 44 -18 0 -23 4 -18 16 3 9 6 30 6 48 l0 32 67 -8 c37 -4 82 -13
100 -19z m267 -15 l68 -6 -6 -96 c-4 -54 -10 -111 -12 -128 -4 -21 0 -36 11
-47 21 -21 69 -22 86 -1 7 9 17 67 23 137 11 121 11 122 36 121 14 -1 110 -10
213 -19 l188 -18 28 -55 28 -55 34 47 34 47 110 -7 c61 -3 112 -8 114 -10 3
-3 -43 -53 -102 -112 -88 -88 -107 -113 -107 -137 0 -17 -3 -54 -7 -83 l-6
-53 -66 6 c-36 3 -81 8 -99 11 l-33 5 6 87 6 87 -81 118 c-45 65 -84 117 -86
115 -2 -3 -9 -60 -15 -129 -6 -68 -18 -139 -26 -157 -61 -130 -387 -117 -467
19 -17 28 -18 45 -12 143 3 61 9 128 12 148 6 33 9 37 33 33 14 -2 57 -7 95
-11z"/>
</g>
</svg>
