<?xml version="1.0" standalone="no"?>
<!DOCTYPE svg PUBLIC "-//W3C//DTD SVG 20010904//EN"
 "http://www.w3.org/TR/2001/REC-SVG-20010904/DTD/svg10.dtd">
<svg version="1.0" xmlns="http://www.w3.org/2000/svg"
 width="300.000000pt" height="300.000000pt" viewBox="0 0 300.000000 300.000000"
 preserveAspectRatio="xMidYMid meet">
<metadata>
Created by potrace 1.11, written by Peter Selinger 2001-2013
</metadata>
<g transform="translate(0.000000,300.000000) scale(0.100000,-0.100000)"
fill="#ffffff" stroke="none">
<path d="M560 1970 l0 -430 135 0 135 0 0 42 0 42 33 -31 c39 -37 84 -53 150
-53 161 0 241 98 241 295 1 213 -90 324 -258 313 -55 -3 -71 -9 -105 -36 -22
-18 -41 -32 -43 -32 -2 0 -3 71 -3 157 l0 158 -142 3 -143 3 0 -431z m370 -10
c61 -33 50 -230 -14 -246 -63 -15 -96 53 -83 168 9 76 46 105 97 78z"/>
<path d="M2285 2334 c-27 -9 -80 -24 -117 -35 l-68 -20 0 -64 0 -65 -50 0 -50
0 0 -89 0 -90 48 -3 47 -3 6 -150 c3 -82 9 -159 14 -170 46 -109 173 -150 330
-107 l60 17 3 84 3 83 -36 -6 c-26 -5 -44 -3 -61 9 -23 15 -24 20 -24 130 l0
115 60 0 60 0 0 80 0 80 -70 0 -70 0 0 110 c0 125 4 120 -85 94z"/>
<path d="M1535 2136 c-66 -21 -101 -43 -144 -92 -48 -55 -71 -122 -71 -209 0
-136 50 -224 157 -277 67 -33 69 -33 208 -32 112 0 151 4 195 20 l55 19 3 73
c2 43 -1 72 -7 72 -6 0 -36 -7 -68 -15 -72 -19 -163 -19 -208 -1 -28 12 -65
58 -65 81 0 3 88 5 196 5 l197 0 -6 84 c-10 149 -69 238 -178 270 -63 19 -207
20 -264 2z m155 -136 c20 -10 40 -59 40 -96 0 -23 -3 -24 -68 -24 -38 0 -71 2
-74 5 -3 3 -2 26 2 52 10 64 50 90 100 63z"/>
<path d="M704 1370 c-34 -5 -80 -13 -103 -20 l-41 -11 0 -89 0 -89 67 20 c98
27 167 26 198 -6 30 -29 32 -64 6 -96 -16 -20 -30 -24 -95 -27 l-76 -4 0 -80
0 -80 49 7 c59 8 127 -9 141 -35 16 -30 12 -68 -10 -90 -26 -26 -120 -27 -213
-1 l-67 18 0 -88 0 -88 78 -18 c96 -23 236 -23 313 0 116 34 169 97 169 202 0
82 -23 123 -87 156 l-50 26 46 24 c64 34 91 78 91 148 0 70 -23 115 -79 158
-71 55 -208 80 -337 63z"/>
<path d="M1475 1356 c-162 -42 -258 -150 -285 -321 -22 -134 10 -259 86 -344
150 -167 468 -151 558 27 32 64 40 120 26 189 -30 142 -199 219 -360 163 -30
-10 -56 -17 -57 -16 -7 6 20 77 37 99 31 39 78 50 193 45 56 -3 110 -8 120
-13 15 -6 17 1 17 78 0 71 -3 86 -17 92 -33 14 -265 15 -318 1z m112 -421 c12
-8 27 -31 33 -50 23 -70 -14 -135 -76 -135 -50 0 -72 15 -85 59 -21 70 20 141
81 141 14 0 35 -7 47 -15z"/>
<path d="M1950 1147 l0 -213 103 0 c144 1 185 -25 175 -109 -6 -49 -46 -69
-141 -69 -45 0 -94 3 -109 7 l-28 7 0 -84 0 -84 68 -12 c121 -21 193 -23 270
-6 94 20 149 50 187 104 26 38 30 54 33 120 3 68 0 83 -25 132 -38 75 -94 109
-203 123 l-80 11 0 53 0 53 135 0 135 0 0 90 0 90 -260 0 -260 0 0 -213z"/>
</g>
</svg>
