<?xml version="1.0" encoding="UTF-8" standalone="no"?><svg xmlns="http://www.w3.org/2000/svg" height="360" width="360" version="1.1"> <g id="g3013">  <path id="path3015" fill="#FFF" d="m236.76,184.16c12.265-1.6229,22.16-8.7415,26.393-25.06,5.8151-22.29-9.6728-36.319-31.875-46.73l10.813-29.708-17.186-6.2551-10.813,29.708-15.179-5.5248,10.813-29.708-17.393-6.3306-10.813,29.708-35.852-13.049-3.9918,21.558,11.289,4.1089c7.1978,2.6272,6.4609,6.4568,5.7926,10.397l-29.806,81.891c-1.1608,2.2028-5.6138,4.7768-10.651,2.9512l-11.288-4.1116-11.391,20.715,35.849,13.048-10.962,30.118,17.393,6.3306,10.962-30.118,15.179,5.5248-10.962,30.118,17.186,6.2551,10.962-30.118c30.53,9.1222,54.288,8.9729,67.347-18.81,10.516-22.367,3.6371-36.564-11.816-46.909zm-45.242-63.25c10.029,3.6503,43.326,12.814,35.526,34.259-7.4879,20.555-38.95,6.3844-48.989,2.7304zm-34.718,95.387,14.58-40.057c12.052,4.3811,51.942,14.886,43.368,38.456-8.2198,22.604-45.887,5.9802-57.948,1.6007z"/> </g></svg>