<?xml version="1.0" encoding="UTF-8" standalone="no"?>
<!-- Created with Inkscape (http://www.inkscape.org/) -->
<svg id="svg2" xmlns:rdf="http://www.w3.org/1999/02/22-rdf-syntax-ns#" xmlns="http://www.w3.org/2000/svg" height="64" width="64" version="1.1" xmlns:cc="http://creativecommons.org/ns#" xmlns:dc="http://purl.org/dc/elements/1.1/">
 <metadata id="metadata7">
  <rdf:RDF>
   <cc:Work rdf:about="">
    <dc:format>image/svg+xml</dc:format>
    <dc:type rdf:resource="http://purl.org/dc/dcmitype/StillImage"/>
    <dc:title/>
   </cc:Work>
  </rdf:RDF>
 </metadata>
 <g id="layer1" transform="translate(0,-988.3622)">
  <path id="path3029" fill="#FFF" d="m42.05,1003.1-23.3-3.8,8,6.1c0.4874,0.3716,0.5,0.4408,0.5,1.05v27.3l15.2,2.47c0.50233,0.082,0.55,0,0.55-0.42v-1.5l1.75-1.2c0.37844-0.2271,0.5-0.3429,0.5-0.8v-8.5c0-0.4294-0.08396-0.5672-0.5-0.9l-1.75-1.6v-17c0-0.7599-0.09938-1.0613-0.95-1.2zm-23.3-3.8,7,6.3c0.48712,0.4384,0.5,0.5715,0.5,1.2v31c0,0.5638-0.09767,0.6512-0.4,0.4l-7.1-5.4z"/>
 </g>
</svg>
