<?xml version="1.0" encoding="UTF-8" standalone="no"?>
<!-- Created with Inkscape (http://www.inkscape.org/) -->
<svg id="svg2" xmlns:rdf="http://www.w3.org/1999/02/22-rdf-syntax-ns#" xmlns="http://www.w3.org/2000/svg" height="300" width="300" version="1.1" xmlns:cc="http://creativecommons.org/ns#" xmlns:dc="http://purl.org/dc/elements/1.1/">
 <metadata id="metadata7">
  <rdf:RDF>
   <cc:Work rdf:about="">
    <dc:format>image/svg+xml</dc:format>
    <dc:type rdf:resource="http://purl.org/dc/dcmitype/StillImage"/>
    <dc:title/>
   </cc:Work>
  </rdf:RDF>
 </metadata>
 <g id="layer1" transform="translate(0,-752.36218)">
  <path id="path3796" d="m123,911.36-18,0,0-18,18,0z" fill="#FFF"/>
  <path id="path3794" d="m99,887.36-18,0,0-18,18,0z" fill="#FFF"/>
  <path id="path3792" d="m195,911.36-18,0,0-18,18,0z" fill="#FFF"/>
  <path id="path3790" d="m171,911.36-18,0,0-18,18,0z" fill="#FFF"/>
  <path id="path3788" d="m147,887.36-18,0,0-18,18,0z" fill="#FFF"/>
  <path id="path3786" d="m195,887.36-18,0,0-18,18,0z" fill="#FFF"/>
  <path id="path3784" d="m123,887.36-18,0,0-18,18,0z" fill="#FFF"/>
  <path id="path3782" d="m171,887.36-18,0,0-18,18,0z" fill="#FFF"/>
  <path id="path3780" d="m219,911.36-18,0,0-18,18,0z" fill="#FFF"/>
  <path id="path3778" d="m147,911.36-18,0,0-18,18,0z" fill="#FFF"/>
  <path id="path3776" d="m99,911.36-18,0,0-18,18,0z" fill="#FFF"/>
  <path id="path3774" d="m219,887.36-18,0,0-18,18,0z" fill="#FFF"/>
  <path id="path3772" d="m105,935.36-24,0,0-18,24,0z" fill="#FFF"/>
  <path id="path3770" d="m219,935.36-24,0,0-18,24,0z" fill="#FFF"/>
  <path id="path2990" d="m189,935.36-78,0,0-18,78,0z" fill="#FFF"/>
  <rect id="rect2992" rx="8.9256" ry="8.5662" height="98.512" width="178.51" stroke="#FFF" stroke-dasharray="none" stroke-miterlimit="4" y="853.11" x="60.744" stroke-width="17.488" fill="none"/>
 </g>
</svg>
