<?xml version="1.0" standalone="no"?>
<!DOCTYPE svg PUBLIC "-//W3C//DTD SVG 20010904//EN"
 "http://www.w3.org/TR/2001/REC-SVG-20010904/DTD/svg10.dtd">
<svg version="1.0" xmlns="http://www.w3.org/2000/svg"
 width="300.000000pt" height="300.000000pt" viewBox="0 0 300.000000 300.000000"
 preserveAspectRatio="xMidYMid meet">
<metadata>
Created by potrace 1.11, written by Peter Selinger 2001-2013
</metadata>
<g transform="translate(0.000000,300.000000) scale(0.100000,-0.100000)"
fill="#ffffff" stroke="none">
<path d="M2277 1934 c-4 -4 -7 -102 -7 -218 0 -178 -2 -208 -14 -196 -7 8 -57
85 -111 170 -137 217 -161 240 -250 240 -63 0 -111 -25 -143 -73 -26 -38 -27
-49 -32 -195 l-5 -155 -119 187 c-138 216 -159 236 -247 236 -65 0 -109 -24
-146 -79 -22 -33 -23 -40 -23 -297 0 -144 -3 -269 -6 -278 -5 -13 -26 -16
-128 -16 -110 0 -127 2 -172 25 -132 66 -153 234 -41 332 48 42 91 53 210 53
l97 0 0 56 0 56 -137 -4 c-131 -3 -141 -5 -191 -32 -105 -58 -166 -162 -166
-282 -1 -128 71 -236 194 -292 51 -24 69 -26 227 -30 94 -3 183 -2 197 2 l26
6 0 315 c0 302 1 316 20 335 26 26 52 25 77 -2 11 -13 109 -162 217 -333 133
-209 202 -310 214 -310 16 0 17 26 20 316 2 303 3 317 22 334 44 40 60 21 281
-325 114 -179 214 -326 223 -328 14 -3 16 33 16 382 0 212 1 389 3 394 3 9
-97 15 -106 6z"/>
<path d="M2427 1934 c-4 -4 -7 -184 -7 -399 0 -367 -1 -393 -18 -408 -26 -23
-55 -21 -79 6 -11 12 -109 163 -218 335 -140 220 -203 312 -214 310 -14 -3
-17 -42 -21 -326 -4 -272 -7 -324 -20 -332 -22 -14 -56 -12 -70 5 -6 8 -103
157 -214 332 -115 180 -210 319 -219 321 -16 3 -17 -22 -17 -321 0 -270 -2
-327 -14 -336 -11 -9 -73 -12 -228 -9 -206 3 -215 4 -269 29 -77 36 -130 87
-169 161 -28 53 -35 76 -38 143 -7 132 47 241 152 310 72 49 140 65 269 65
l107 0 0 55 0 55 -129 0 c-99 0 -144 -4 -190 -19 -220 -68 -361 -298 -323
-523 26 -147 132 -286 269 -351 l68 -32 249 -3 c277 -4 292 -1 332 57 23 34
24 42 24 198 0 90 3 163 8 162 4 0 57 -79 117 -175 139 -221 155 -237 239
-242 75 -5 112 11 153 65 27 36 28 39 31 190 2 84 6 153 10 153 4 0 59 -82
123 -183 132 -207 153 -227 236 -227 74 0 119 23 154 79 l29 45 -2 406 -3 405
-50 3 c-28 2 -54 0 -58 -4z"/>
</g>
</svg>
