<svg width="48" height="48" xmlns="http://www.w3.org/2000/svg">
 <metadata>image/svg+xml</metadata>
 <g>
  <title>deviantart_new</title>
  <path fill="#aad81b" id="logo" d="m0,40.4l26.06955,-7.34876l-7.46701,-15.56305c12.57601,-2.751 18.94284,-1.7292 25.38805,3.45841c0.78577,0.7074 0.52408,1.3889 0,1.4934l-10.29683,2.4366l-3.74645,-7.80753c-2.9868,-0.41935 -7.1526,0.41912 -8.75118,1.04792c1.33643,2.9868 6.91703,14.22684 6.91703,14.22684l19.88582,-5.28288m-37.36161,-7.66001l4.7687,9.79888c0,0 -7.3884,1.99135 -9.32751,2.41048c-1.93843,0.41913 -1.8337,-0.89094 -1.8337,-0.89094c-0.41935,-8.43656 5.08265,-10.95177 6.39251,-11.31841m37.36161,7.66001l0,-12.05148l-0.15697,-0.11508c-13.44084,-5.81641 -28.53205,-3.37981 -31.67629,-2.4366c0,-0.07861 -2.2794,-5.0304 -2.2794,-5.0304l-8.64601,0l3.0654,7.074c-3.58768,1.14365 -7.3071,3.89712 -8.30571,4.66804l0,21.23057"/>
 </g>
</svg>