<?xml version="1.0" encoding="UTF-8" standalone="no"?>
<!-- Created with Inkscape (http://www.inkscape.org/) -->

<svg
   xmlns:dc="http://purl.org/dc/elements/1.1/"
   xmlns:cc="http://creativecommons.org/ns#"
   xmlns:rdf="http://www.w3.org/1999/02/22-rdf-syntax-ns#"
   xmlns:svg="http://www.w3.org/2000/svg"
   xmlns="http://www.w3.org/2000/svg"
   xmlns:sodipodi="http://sodipodi.sourceforge.net/DTD/sodipodi-0.dtd"
   xmlns:inkscape="http://www.inkscape.org/namespaces/inkscape"
   width="760"
   height="300"
   id="svg4017"
   version="1.1"
   inkscape:version="0.48.2 r9819"
   sodipodi:docname="deviantart_long2.svg">
  <defs
     id="defs4019" />
  <sodipodi:namedview
     id="base"
     pagecolor="#ffffff"
     bordercolor="#666666"
     borderopacity="1.0"
     inkscape:pageopacity="0.0"
     inkscape:pageshadow="2"
     inkscape:zoom="1"
     inkscape:cx="445.49271"
     inkscape:cy="138.43582"
     inkscape:document-units="px"
     inkscape:current-layer="layer1"
     showgrid="false"
     fit-margin-top="0"
     fit-margin-left="0"
     fit-margin-right="0"
     fit-margin-bottom="0"
     inkscape:window-width="1366"
     inkscape:window-height="706"
     inkscape:window-x="-8"
     inkscape:window-y="-8"
     inkscape:window-maximized="1" />
  <metadata
     id="metadata4022">
    <rdf:RDF>
      <cc:Work
         rdf:about="">
        <dc:format>image/svg+xml</dc:format>
        <dc:type
           rdf:resource="http://purl.org/dc/dcmitype/StillImage" />
        <dc:title></dc:title>
      </cc:Work>
    </rdf:RDF>
  </metadata>
  <g
     inkscape:label="Capa 1"
     inkscape:groupmode="layer"
     id="layer1"
     transform="translate(-119.73777,-403.07638)">
    <path
       d="m 208.45807,515.43807 39.77311,81.72704 c 0,0 -61.62259,16.60876 -77.79556,20.10445 -16.16734,3.49569 -15.29388,-7.43094 -15.29388,-7.43094 -3.49757,-70.36464 42.39159,-91.34252 53.31631,-94.40056 m 374.4832,45.27388 c 0,0 -14.95571,-52.24788 -64.18006,-82.86053 -94.56068,-58.80735 -237.96995,-28.18907 -264.19421,-20.32234 0,-0.65556 -19.01122,-41.95582 -19.01122,-41.95582 l -72.11152,0 25.56682,59.00035 c -29.92283,9.5385 -60.94448,32.50374 -69.27329,38.93347 l 2e-5,177.07244 217.43158,-61.292 -65.27817,-132.80264 c 104.88953,-22.94458 160.99172,-11.4223 214.7476,31.84462 6.55371,5.90003 4.37102,11.58405 0,12.45564 l -85.88017,20.32233 -30.24708,-62.11828 c -24.91126,-3.49757 -60.65591,0.49569 -73.98875,5.74017 11.14639,24.91126 57.69111,118.65814 57.69111,118.65814 z"
       inkscape:connector-curvature="0"
       id="path112"
       style="fill:#aad81b;fill-opacity:1;fill-rule:evenodd;stroke:none"
       sodipodi:nodetypes="ccccccsccccccccccccccc" />
    <g
       id="g4084"
       transform="translate(-199.41843,42.545204)">
      <path
         style="fill:#ffffff;fill-opacity:1;fill-rule:nonzero;stroke:none"
         id="path232"
         inkscape:connector-curvature="0"
         d="m 673.94427,598.59475 c 0,3.795 -3.0763,6.87125 -6.8712,6.87125 -3.79381,0 -6.8713,-3.07624 -6.8713,-6.87125 l 0,-60.48125 c 0,-3.7925 3.07749,-6.87 6.8713,-6.87 3.7949,0 6.8712,3.0775 6.8712,6.87 l 0,60.48125 z" />
      <path
         style="fill:#ffffff;fill-opacity:1;fill-rule:nonzero;stroke:none"
         id="path236"
         inkscape:connector-curvature="0"
         d="m 650.20157,531.17838 c -3.6025,-1.19 -7.4875,0.76625 -8.6762,4.37125 l -15.7526,46.35126 -15.75,-46.35126 c -1.19001,-3.605 -5.07501,-5.56125 -8.67871,-4.37125 -3.60379,1.19 -5.55999,5.075 -4.3712,8.6775 l 20.7012,60.92375 c 1.1263,3.41125 4.6687,5.31125 8.0987,4.5 3.4313,0.81125 6.9738,-1.08875 8.1001,-4.5 l 20.7025,-60.92375 c 1.1887,-3.6025 -0.7688,-7.4875 -4.3738,-8.6775" />
      <path
         style="fill:#ffffff;fill-opacity:1;fill-rule:nonzero;stroke:none"
         id="path240"
         inkscape:connector-curvature="0"
         d="m 837.39647,532.35401 0,-11.69001 c 0,-3.79375 -3.07871,-6.87125 -6.87121,-6.87125 -3.79629,0 -6.8726,3.0775 -6.8726,6.87125 l 0,11.69001 -10.4037,0 c -2.92629,0 -5.29499,2.37 -5.29499,5.29625 0,2.92124 2.3687,5.29375 5.29499,5.29375 l 10.4037,0 0,55.65125 c 0,3.795 3.0763,6.87125 6.8726,6.87125 3.7925,0 6.87121,-3.07625 6.87121,-6.87125 l 0,-55.65125 14.80499,0 c 3.83131,0 5.235,-10.59 5.235,-10.59 l -20.03999,0 z" />
      <path
         style="fill:#ffffff;fill-opacity:1;fill-rule:nonzero;stroke:none"
         id="path244"
         inkscape:connector-curvature="0"
         d="m 798.34496,536.66725 c -4.46,-4.215 -9.8587,-6.25625 -15.615,-5.93875 l -1.0512,0.0613 c -9.95749,0.56875 -20.2788,1.275 -30.23379,2.76875 l 0,13.28125 -0.50251,51.755 c 0,3.795 3.0763,6.87125 6.8725,6.87125 3.7938,0 6.8713,-3.07625 6.8713,-6.87125 l 0,-51.755 c 0,-0.3175 -0.051,-0.62125 -0.094,-0.92625 6.105,-0.50875 12.3725,-0.8725 17.88,-1.1875 l 1.055,-0.0588 c 1.8313,-0.11375 3.6088,0.6175 5.2338,2.1475 2.3462,2.2175 3.7375,5.48125 4.1287,8.085 -0.021,0.22125 -0.066,0.43625 -0.066,0.665 l 0,43.03 c 0,3.795 3.075,6.87125 6.8725,6.87125 3.7925,0 6.87,-3.07625 6.87,-6.87125 l 0.205,-42.28375 c 0,-6.98125 -3.1838,-14.69125 -8.4263,-19.64375" />
      <path
         style="fill:#ffffff;fill-opacity:1;fill-rule:nonzero;stroke:none"
         id="path248"
         inkscape:connector-curvature="0"
         d="m 708.23747,591.49025 c -1.8437,0.0687 -5.7275,-0.0813 -6.93371,-1.24 -1.56129,-1.5 -3.64499,-5.21125 -3.74249,-8.32 0.013,-0.1725 0,-0.3375 0,-0.51375 l 0,-27.325 c 0,-0.22875 0.021,-0.4425 0,-0.665 0.39,-2.60375 3.46119,-5.8675 5.8075,-8.08375 1.6237,-1.53 3.4012,-2.26125 5.2337,-2.1475 l 1.05499,0.0588 c 5.50751,0.315 11.775,0.6775 17.8788,1.1875 -0.043,0.305 -0.094,0.60875 -0.094,0.925 l 0,37.11125 c -2.4737,2.99 -7.8887,8.55625 -19.205,9.0125 m 32.4463,-46.12375 0,-13.28 c -9.955,-1.495 -20.2763,-2.2 -30.2325,-2.76874 l -1.0513,-0.0625 c -5.7575,-0.31625 -11.155,1.725 -15.6162,5.94 -5.2425,4.95125 -8.4263,12.6625 -8.4263,19.6425 l 0.1888,24.2875 c 0,5.6375 -0.2838,15.075 6.0862,21.1925 3.5613,3.41875 8.4013,5.14875 14.4088,5.14875 0.4312,0 0.87,-0.009 1.3137,-0.0275 7.9688,-0.3225 14.98,-2.57875 20.6025,-5.725 1.025,2.50874 3.4825,4.27874 6.3563,4.27874 3.7962,0 6.8725,-3.075 6.8725,-6.87 l -0.5025,-51.75625 z" />
      <path
         style="fill:#ffffff;fill-opacity:1;fill-rule:nonzero;stroke:none"
         id="path252"
         inkscape:connector-curvature="0"
         d="m 514.11517,582.47726 c -2.475,2.99125 -7.89125,8.55624 -19.20625,9.0125 -1.8425,0.0687 -5.7275,-0.0813 -6.93375,-1.24 -1.56125,-1.49875 -3.64375,-5.21125 -3.7425,-8.32001 0.0125,-0.17124 0,-0.33749 0,-0.5125 l 0,-27.325 c 0,-0.22875 0.02,-0.44375 0,-0.665 0.39,-2.60375 3.46125,-5.8675 5.8075,-8.085 1.62375,-1.53 3.40125,-2.26125 5.23375,-2.14625 l 1.055,0.0575 c 5.47875,0.31375 11.7125,0.675 17.78625,1.18125 l 0,0.92375 0,0.009 0,37.11 z m 6.87249,-78.88126 c -3.79499,0 -6.87249,3.07625 -6.87249,6.87 l 0,20.07501 c -5.69375,-0.52375 -11.39875,-0.90251 -16.9925,-1.22375 l -1.0525,-0.0613 c -5.755,-0.3175 -11.15375,1.725 -15.61375,5.93875 -5.24375,4.9525 -8.42625,12.66375 -8.42625,19.64375 l 0.185,24.28625 c 0,5.6375 -0.2825,15.075 6.09,21.1925 3.56,3.41875 8.40125,5.14874 14.4075,5.14874 0.4325,0 0.87,-0.009 1.315,-0.0275 7.9675,-0.3225 14.98,-2.5775 20.60124,-5.72375 l 0.003,0.006 c 0.0562,0.13375 0.13,0.25625 0.19125,0.38625 0.1125,0.2275 0.22874,0.4525 0.3625,0.665 0.0913,0.14375 0.1875,0.27875 0.28875,0.415 0.14125,0.19375 0.295,0.37875 0.45749,0.555 0.10251,0.1125 0.20126,0.22875 0.3125,0.33375 0.27251,0.2625 0.56125,0.5075 0.87375,0.72125 0.0613,0.0412 0.12751,0.0712 0.18875,0.11125 0.27625,0.17625 0.56501,0.33375 0.86501,0.47 0.12,0.0525 0.2425,0.0987 0.365,0.145 0.2725,0.10375 0.55,0.18875 0.83749,0.26 0.12,0.0275 0.23751,0.0612 0.36126,0.0838 0.40625,0.075 0.82124,0.12625 1.25,0.12625 l 10e-4,0 9.9e-4,0 c 1.4225,0 2.74375,-0.4325 3.84,-1.17375 1.46375,-0.98875 2.525,-2.5225 2.89125,-4.31125 0.0912,-0.44875 0.13875,-0.91 0.13875,-1.38625 l 0,-86.65625 c 0,-3.79375 -3.07625,-6.87 -6.87,-6.87" />
      <path
         style="fill:#ffffff;fill-opacity:1;fill-rule:nonzero;stroke:none"
         id="path256"
         inkscape:connector-curvature="0"
         d="m 548.42304,563.71137 0,-9.49875 c 0,-6.12125 5.7825,-10.3975 12.05624,-10.3975 l 7.29878,0 c 6.2725,0 12.29,4.27625 12.29,10.3975 l 0,9.49875 -31.64503,0 z m -4.88251,35.69501 c 4.7075,3.91499 11.07875,5.17375 17.25875,5.82749 5.075,0.535 10.22128,0.095 15.23248,-0.78375 3.665,-0.64375 8.1113,-1.27125 11.3638,-3.2225 1.4537,-0.87249 2.9375,-6.34124 -0.7263,-7.7075 -1.7787,-0.66375 -4.1262,-0.15625 -5.9237,0.0825 -3.0075,0.39751 -6.005,0.84626 -9.025,1.15751 -4.8625,0.50125 -10.11503,0.94749 -14.82128,-0.71125 -5.215,-1.84125 -8.4725,-7.10125 -8.4725,-12.5175 0,-0.53 -0.0113,-8.36875 -0.004,-8.36875 l 42.60748,0 0,-13.0875 c 0,-15.42125 -10.7563,-27.92 -26.17498,-27.92 -15.41875,0 -29.665,12.49875 -29.665,27.92 0,11.5775 -1.84375,25.245 4.87125,35.43875 1.00625,1.52875 2.18,2.81125 3.47875,3.8925" />
      <path
         style="fill:#ffffff;fill-opacity:1;fill-rule:nonzero;stroke:none"
         id="path260"
         inkscape:connector-curvature="0"
         d="m 888.87597,577.80987 -7.445,-26.0725 -7.37001,26.0725 14.81501,0 z m 4.325,15.6825 -23.6675,0 -3.2875,11.97375 -21.285,0 25.355,-72.53125 22.7388,0 25.35,72.53125 -21.83,0 -3.3738,-11.97375 z" />
      <path
         style="fill:#ffffff;fill-opacity:1;fill-rule:nonzero;stroke:none"
         id="path264"
         inkscape:connector-curvature="0"
         d="m 942.75526,562.32462 8.78881,0 c 0.9512,0 2.7925,-0.33124 5.52369,-0.98875 1.38131,-0.2975 2.50631,-1.05625 3.38,-2.27625 0.875,-1.22 1.3125,-2.62249 1.3125,-4.20624 0,-2.34125 -0.69,-4.13751 -2.07,-5.39251 -1.3812,-1.2525 -3.9737,-1.88 -7.7775,-1.88 l -9.1575,0 0,14.74375 z m -20.9375,43.14125 0,-72.53125 34.7438,0 c 6.4412,0 11.3675,0.595 14.7712,1.78376 3.405,1.18499 6.15,3.3875 8.2375,6.605 2.0863,3.21375 3.1288,7.1325 3.1288,11.75 0,4.0225 -0.7988,7.49625 -2.3938,10.41375 -1.5962,2.91875 -3.7912,5.28625 -6.585,7.09875 -1.78,1.155 -4.22,2.1125 -7.3212,2.87 2.4825,0.8925 4.2925,1.78375 5.4262,2.675 0.7663,0.59375 1.8788,1.865 3.335,3.8125 1.455,1.9475 2.43,3.45 2.92,4.5075 l 10.095,21.015 -23.555,0 -11.1437,-22.16375 c -1.41,-2.87 -2.6688,-4.73375 -3.7713,-5.59125 -1.505,-1.11875 -3.2062,-1.6825 -5.1075,-1.6825 l -1.8425,0 0,29.4375 -20.9375,0 z" />
      <path
         style="fill:#ffffff;fill-opacity:1;fill-rule:nonzero;stroke:none"
         id="path268"
         inkscape:connector-curvature="0"
         d="m 985.78876,532.935 63.36744,0 0,17.91125 -21.26,0 0,54.62 -20.8461,0 0,-54.62 -21.26134,0 0,-17.91125 z" />
    </g>
  </g>
</svg>
