<?xml version="1.0" standalone="no"?>
<!DOCTYPE svg PUBLIC "-//W3C//DTD SVG 20010904//EN"
 "http://www.w3.org/TR/2001/REC-SVG-20010904/DTD/svg10.dtd">
<svg version="1.0" xmlns="http://www.w3.org/2000/svg"
 width="300.000000pt" height="300.000000pt" viewBox="0 0 300.000000 300.000000"
 preserveAspectRatio="xMidYMid meet">
<metadata>
Created by potrace 1.11, written by Peter Selinger 2001-2013
</metadata>
<g transform="translate(0.000000,300.000000) scale(0.100000,-0.100000)"
fill="#ffffff" stroke="none">
<path d="M1810 1898 c0 -7 7 -22 15 -32 22 -29 10 -36 -66 -36 -114 0 -180
-47 -183 -128 l-1 -37 49 -3 c71 -5 96 4 96 32 0 49 70 75 103 38 11 -12 17
-36 17 -65 l0 -47 -65 0 c-38 0 -84 -7 -113 -18 -46 -18 -49 -18 -87 0 -54 24
-83 22 -141 -7 -27 -14 -50 -25 -51 -25 -1 0 -4 62 -5 138 l-3 137 -70 0 -70
0 -3 -127 c-2 -83 -6 -128 -13 -128 -6 0 -38 7 -72 16 -85 22 -398 16 -475
-10 -110 -36 -157 -111 -150 -238 7 -124 48 -177 168 -215 79 -25 391 -25 469
0 30 9 58 17 62 17 5 0 9 -24 11 -52 l3 -53 68 -3 c61 -3 67 -1 67 17 0 27 15
34 31 14 19 -22 72 -43 110 -43 78 0 132 60 146 161 8 53 9 54 43 57 60 4 79
11 114 42 l34 30 6 -30 c5 -29 7 -30 66 -30 33 0 63 1 68 3 4 1 5 53 3 115 -2
64 0 112 6 112 5 0 20 -21 34 -47 21 -43 25 -64 29 -193 l5 -145 95 0 95 0 5
145 c5 133 7 149 31 190 14 25 61 113 104 195 43 83 91 173 106 201 16 28 25
54 22 58 -4 3 -48 6 -100 6 l-93 0 -36 -77 c-100 -216 -117 -253 -123 -253 -3
0 -26 46 -51 103 -24 56 -57 130 -72 165 l-27 62 -106 0 c-77 0 -105 -3 -105
-12z m-790 -373 c30 -15 45 -48 38 -82 -2 -10 -7 -17 -11 -15 -4 1 -62 2 -128
2 l-121 0 6 33 c10 54 46 77 122 77 39 0 77 -6 94 -15z m815 -63 c0 -65 -3
-76 -24 -93 -45 -37 -88 -22 -101 36 -13 59 7 107 50 122 68 24 75 17 75 -65z
m-340 34 c14 -21 16 -51 13 -176 -3 -147 -4 -152 -27 -171 -30 -25 -48 -21
-74 13 -36 49 -37 307 -1 343 24 24 71 19 89 -9z m-267 -173 c-3 -28 -4 -28
-86 -31 -75 -3 -84 -5 -91 -25 -17 -44 -48 -61 -110 -62 -32 0 -70 6 -84 14
-30 16 -57 66 -57 105 l0 26 216 0 215 0 -3 -27z"/>
</g>
</svg>
