<svg width="720" height="720" xmlns="http://www.w3.org/2000/svg">
 <g>
  <title>Layer 1</title>
  <path fill="#ffffff" d="m165.7906,198.353c0,0 0,0 0.036,0h54.44701c3.12001,0 5.62901,-2.541 5.63499,-5.63699c0,-0.01999 -0.661,-46.685 -0.661,-59.66199v-0.15402c0,-10.658 2.237,-19.95 6.133,-27.73698l1.862,-3.497c-0.20799,0.035 -0.41699,0.137 -0.62399,0.345l-105.79201,104.908c-0.207,0.17 -0.33601,0.39101 -0.396,0.618c2.188,-1.08298 5.17999,-2.56299 5.603,-2.74898c9.213,-4.15701 20.384,-6.43501 33.757,-6.43501l0,-0.00002zm423.66801,-11.423c-4.32501,-23.15201 -18.09003,-34.562 -30.53497,-39.04799c-13.427,-4.853 -40.65302,-9.88 -74.86105,-13.91199c-27.521,-3.24101 -59.86801,-2.98303 -79.40701,-2.37901c-2.345,-16.062 -13.61099,-30.736 -26.21698,-35.81602c-33.58701,-13.519 -85.48001,-10.253 -98.80402,-6.519c-10.58701,2.959 -22.306,9.023 -28.82799,18.368c-4.37399,6.242 -7.20399,14.239 -7.226,25.411c0,6.323 0.17601,21.218 0.33701,34.452c0.16,13.27501 0.334,25.14801 0.334,25.229c-0.006,11.819 -9.58501,21.438 -21.45599,21.453h-54.45601c-11.616,0 -20.491,1.952 -27.271,5.032c-6.78999,3.08301 -11.599,7.239 -15.25301,12.15601c-7.27299,9.76399 -8.536,21.81299 -8.506,34.10898c0,0 0.10701,10.048 2.52801,29.496c2.013,15.048 18.33199,120.17001 33.83199,152.14102c6.00999,12.439 10.013,17.62 21.82002,23.103c26.30699,11.263 86.39601,23.793 114.55898,27.38101c28.112,3.59698 45.75601,11.15799 56.271,-10.88901c0.035,-0.05499 2.10602,-5.48499 4.95502,-13.45099c9.129,-27.66299 10.39899,-52.20801 10.39899,-69.97c0,-1.806 2.64999,-1.88901 2.64999,0c0,12.53998 -2.39499,56.91498 31.12601,68.81998c13.233,4.69302 40.685,8.87701 68.578,12.14603c25.22101,2.89798 43.52402,12.823 43.52402,77.52896c0,39.367 -8.26901,44.76501 -51.49503,44.76501c-35.03998,0 -48.39499,0.90698 -48.39499,-26.93097c0,-22.49902 22.25198,-20.14105 38.74399,-20.14105c7.366,0 2.02002,-5.479 2.02002,-19.35999c0,-13.80798 8.63599,-21.78998 0.46799,-21.992c-57.02795,-1.56903 -90.58301,-0.06494 -90.58301,71.25604c0,64.74695 24.77805,76.76996 105.71603,76.76996c63.46002,0 85.83002,-2.078 112.03302,-83.38098c5.18701,-16.04999 17.72601,-65.03101 25.315,-147.271c4.79901,-51.99899 -4.52203,-208.94499 -11.91602,-248.55701zm-110.62302,173.47501c-7.84,-0.27399 -15.38101,0.22101 -22.41299,1.35101c1.979,-15.983 8.57599,-35.595 31.94598,-34.77402c25.87006,0.89001 29.49506,25.341 29.58704,41.90302c-10.90805,-4.86401 -24.41205,-7.96301 -39.12003,-8.48001z"/>
 </g>
</svg>