<svg width="300" height="300" xmlns="http://www.w3.org/2000/svg">
 <g fill="#ffffff">
  <title>fb</title>
  <path id="f" d="m218.13989,300l-48.77304,0l0,-119.01421l-24.36685,0l0,-41.01451l24.36685,0l0,-24.62489c0,-33.45961 13.75909,-53.35611 52.8503,-53.35611l32.54449,0l0,41.01917l-20.34256,0c-15.21725,0 -16.22386,5.73179 -16.22386,16.42901l-0.05525,20.52824l36.85208,0l-4.31226,41.01453l-32.53984,0l0,119.01877l0,0l0,0l-0.00008,0l0.00002,0z"/>
  <path opacity="0.2" d="m 0,230 l 300,0 l 0,70 l -300,0 l 0,-70 z" />
 </g>
</svg>