<svg width="200" height="200" xmlns="http://www.w3.org/2000/svg">
 <title>Flattr-Logo</title>
  <g id="g3007">
   <path fill="#ea5f29" d="m81,34c-31.15596,0 -46,17.44149 -46,50.99991l0,71.00017l30,-31.00008l0,-39.99991c0,-13.90259 3.22652,-20.28009 16,-20.28009l19,-0.00007l0,20.86668c0,0.93407 0.25285,1.75723 1.09257,2.10231c0.83971,0.34509 1.82389,-0.07973 2.40409,-0.65993l52.50334,-53.02899c-24.95934,-0.0091 -50.04066,0 -75,0z" id="path2846"/>
   <path fill="#6cb02f" d="m135,114.99983c0,15.70032 -3.35474,20.00017 -16,20.00017l-18.99994,0l-0.00013,-20.86651c0,-1.01854 -0.94173,-1.62083 -1.70006,-1.94308c-0.75835,-0.32224 -1.7487,-0.16652 -2.40977,0.4998l-51.8901,53.30979l75,0c31.15593,0 46,-17.44232 46,-50.99982c0,0 0,-47.5321 0,-71.00018l-30,31l0,39.99983z" id="path2866"/>
  </g>
</svg>