<svg width="700" height="170" xmlns="http://www.w3.org/2000/svg">
 <g>
  <title>Layer 1</title>
  <path fill="#0063db" id="path2407" d="m90.1759,81.90673l-22.62244,0l0,-27.85205l23.26186,0l0,-7.07096c0,-34.26161 15.57895,-46.19851 46.30947,-46.19851c8.32344,0 14.72531,1.32608 19.63301,2.2116l-2.34674,27.40819c-3.20038,-1.10525 -6.40187,-1.76884 -12.16322,-1.76884c-9.81651,0 -13.65851,7.07315 -13.65851,18.34756l0,7.07206l27.3159,0l0,27.85204l-27.3159,0l0,87.30695l-38.41343,0l0,-87.30801l-0.00002,-0.00002l0,-0.00001l0.00001,0.00001z"/>
  <rect transform="matrix(1.0986567,0,0,1.0986567,0,-7.6819571) " fill="#0063db" id="rect2409" y="10.12282" x="160.16233" height="150.88901" width="34.964"/>
  <path fill="#0063db" id="path2415" d="m401.11005,84.33366c-7.04239,-4.41769 -14.08481,-6.40845 -23.26187,-6.40845c-16.64575,0 -29.45059,11.93579 -29.45059,31.83028c0,18.34647 14.93951,30.28009 31.58527,30.28009c8.75079,0 17.50162,-1.98749 23.9024,-5.52515l0.85367,29.61867c-9.60446,3.31795 -21.1272,5.08568 -31.37106,5.08568c-36.70831,0 -64.66364,-22.10387 -64.66364,-60.1218c0,-38.23985 27.95532,-60.34263 64.66364,-60.34263c11.5249,0 21.7666,1.98966 30.51746,6.40955l-2.77527,29.17375l0,0.00002l0,0l0,-0.00002l0,0.00001z"/>
  <polygon fill="#0063db" id="polygon2417" points="420.7463035583496,3.439568519592285 459.1586570739746,3.439568519592285 459.1586570739746,102.46479797363281 459.58605575561523,102.46479797363281 491.596492767334,54.055789947509766 533.6376914978027,54.055789947509766 495.01110458374023,106.88249206542969 536.839168548584,169.21478271484375 490.315486907959,169.21478271484375 459.58605575561523,112.18901062011719 459.1586570739746,112.18901062011719 459.1586570739746,169.21478271484375 420.7463035583496,169.21478271484375 420.7463035583496,3.439568519592285 "/>
  <path fill="#ff0084" id="path2419" d="m630.5238,85.88385c-4.26825,-1.32388 -8.53766,-1.32388 -13.01678,-1.32388c-17.92578,0 -27.95758,13.48164 -27.95758,36.02827l0,48.62654l-38.41235,0l0,-115.15899l34.99774,0l0,21.21946l0.42737,0c6.61395,-14.58908 16.21838,-23.87164 32.86517,-23.87164c4.47815,0 9.17377,0.66249 13.01917,1.32498l-1.92273,33.15525l0,0l0,0l0,0.00001z"/>
  <rect transform="matrix(1.0986567,0,0,1.0986567,0,-7.6819571) " fill="#0063db" id="rect2411" y="12.53784" x="225.03933" height="26.557" width="34.965"/>
  <rect transform="matrix(1.0986567,0,0,1.0986567,0,-7.6819571) " fill="#0063db" id="rect2413" y="56.19484" x="225.03933" height="104.817" width="34.965"/>
 </g>
</svg>