<svg width="110" height="110" xmlns="http://www.w3.org/2000/svg">
 <metadata id="metadata3002">image/svg+xmlimage/svg+xml</metadata>
 <title>Layer 1</title>
 <g>
  <path id="path3829" fill="#ffffff" d="M 16.656239,27 A 1.6668219,1.6466144 0 0 0 15,28.66703 l 0,52.665811 a 1.6668219,1.6466144 0 0 0 1.656239,1.667031 l 9.99993,0 a 1.6668219,1.6466144 0 0 0 1.687489,-1.667031 l 0,-39.298697 25.593573,20.83788 a 1.6668219,1.6466144 0 0 0 2.124985,0 l 25.593574,-20.83788 0,39.298697 a 1.6668219,1.6466144 0 0 0 1.687488,1.667031 l 9.999931,0 a 1.6668219,1.6466144 0 0 0 1.656239,-1.667031 l 0,-52.665811 A 1.6668219,1.6466144 0 0 0 93.343209,27 l -16.687385,0 a 1.6668219,1.6466144 0 0 0 -1.062492,0.401322 L 54.999724,44.627303 34.406116,27.401322 A 1.6668219,1.6466144 0 0 0 33.343623,27 l -16.687384,0 z m 38.218909,24.6875 a 1.6566993,1.6566931 0 0 0 -0.843754,0.34375 L 15.687502,80 a 1.6566993,1.6566931 0 0 0 0.968755,3 l 76.687783,0 a 1.6566993,1.6566931 0 0 0 0.968753,-3 L 55.968902,52.03125 A 1.6566993,1.6566931 0 0 0 54.875148,51.6875 z m 0.125,3.71875 33.250123,24.28125 -66.500246,0 33.250123,-24.28125 z M 16.509334,27.001841 a 1.6565195,1.6554108 0 0 0 -0.718675,3.06013 l 38.308483,24.668391 a 1.6565195,1.6554108 0 0 0 1.81231,0 L 94.219936,30.061971 a 1.6565195,1.6554108 0 0 0 -0.874909,-3.06013 l -76.67946,0 a 1.6565195,1.6554108 0 0 0 -0.156233,0 z m 5.811891,3.309936 65.368145,0 L 55.005297,51.357974 22.321225,30.311777 z" />
 </g>
</svg>