<?xml version="1.0" standalone="no"?>
<!DOCTYPE svg PUBLIC "-//W3C//DTD SVG 20010904//EN"
 "http://www.w3.org/TR/2001/REC-SVG-20010904/DTD/svg10.dtd">
<svg version="1.0" xmlns="http://www.w3.org/2000/svg"
 width="300.000000pt" height="300.000000pt" viewBox="0 0 300.000000 300.000000"
 preserveAspectRatio="xMidYMid meet">
<metadata>
Created by potrace 1.11, written by Peter Selinger 2001-2013
</metadata>
<g transform="translate(0.000000,300.000000) scale(0.100000,-0.100000)"
fill="#ffffff" stroke="none">
<path d="M1524 2480 c-143 -15 -272 -78 -367 -180 -102 -108 -145 -221 -131
-344 25 -228 192 -395 423 -424 l55 -7 -2 -45 c-2 -41 4 -76 23 -122 6 -16 0
-18 -52 -18 -142 0 -322 -72 -429 -172 -102 -96 -145 -185 -146 -299 0 -165
136 -295 377 -361 68 -18 107 -22 260 -22 162 -1 188 1 255 22 109 34 186 79
256 147 105 104 147 226 127 374 -18 140 -73 230 -202 330 -171 133 -189 178
-102 255 150 135 199 207 222 330 17 96 -11 232 -68 316 l-23 35 38 5 c40 6
165 88 182 120 13 25 2 50 -27 61 -28 11 -565 10 -669 -1z m31 -181 c96 -27
187 -132 220 -253 23 -85 17 -204 -13 -262 -120 -234 -432 -33 -432 278 0 90
15 138 57 188 47 54 96 69 168 49z m123 -1114 c48 -8 208 -126 234 -175 15
-27 18 -51 16 -101 -7 -141 -100 -218 -286 -240 -153 -18 -267 11 -351 87 -78
69 -107 160 -77 239 23 60 109 137 183 165 96 36 162 42 281 25z"/>
</g>
</svg>
