<svg width="280" height="280" xmlns="http://www.w3.org/2000/svg">
 <metadata>image/svg+xml</metadata>
 <g>
  <title>gplus</title>
   <path fill="#ffffff" id="plus" shape-rendering="crispEdges" d="m176.07338,53.42382l41.57065,0l0,-41.57065l20.78532,0l0,41.57065l41.57065,0l0,20.78532l-41.57065,0l0,41.57065l-20.78532,0l0,-41.57065l-41.57065,0l0,-20.78532z"/>
   <path fill="#ffffff" id="google" d="m133.83597,159.72432c-7.30192,-5.16843 -21.26245,-17.73778 -21.26245,-25.1254c0,-8.65742 2.47404,-12.9221 15.50417,-23.10544c13.35957,-10.43815 22.81387,-25.11205 22.81387,-42.17875c0,-20.32093 -9.05255,-40.12433 -26.03802,-46.65831h25.61067l18.07503,-13.06574c-26.92389,0 -53.84779,0 -80.7717,0c-36.21348,0 -70.2946,27.43361 -70.2946,59.21322c0,32.47517 24.68692,58.68456 61.52697,58.68456c2.56196,0 5.05046,-0.05124 7.48777,-0.22702c-2.39056,4.57746 -4.09892,9.73365 -4.09892,15.08681c0,9.02361 4.85347,16.34331 10.99125,22.31415c-4.63866,0 -9.11707,0.13466 -13.99947,0.13466c-44.85535,0 -79.38053,28.5666 -79.38053,58.18932c0,29.17314 37.84726,47.42291 82.7015,47.42291c51.13671,0 79.3794,-29.01288 79.3794,-58.18932c-0.00208,-23.39369 -6.90454,-37.40428 -28.24493,-52.49559m-43.14812,-40.46934c-20.81171,-0.62213 -40.59174,-23.2813 -44.18092,-50.60361c-3.59364,-27.33346 10.36134,-48.24752 31.16637,-47.62877c20.80392,0.62546 40.59062,22.55455 44.18426,49.88021c3.58585,27.32899 -10.36912,48.97319 -31.1697,48.35217m-8.14996,138.25651c-31.00388,0 -53.39373,-19.62532 -53.39373,-43.19931c0,-23.10544 27.77415,-42.33794 58.7736,-42.00293c7.23515,0.07567 13.97725,1.24091 20.09945,3.22191c16.83078,11.70576 28.90379,18.31766 32.30713,31.65497c0.64438,2.70552 0.99051,5.48782 0.99051,8.32912c-0.00104,23.57401 -15.19143,41.99625 -58.77694,41.99625"/>
 </g>
</svg>