<?xml version="1.0" standalone="no"?>
<!DOCTYPE svg PUBLIC "-//W3C//DTD SVG 20010904//EN"
 "http://www.w3.org/TR/2001/REC-SVG-20010904/DTD/svg10.dtd">
<svg version="1.0" xmlns="http://www.w3.org/2000/svg"
 width="300.000000pt" height="300.000000pt" viewBox="0 0 300.000000 300.000000"
 preserveAspectRatio="xMidYMid meet">
<metadata>
Created by potrace 1.11, written by Peter Selinger 2001-2013
</metadata>
<g transform="translate(0.000000,300.000000) scale(0.100000,-0.100000)"
fill="#FFF" stroke="none">
<path d="M490 1545 l0 -1005 1005 0 1005 0 0 1005 0 1005 -1005 0 -1005 0 0
-1005z m1094 365 c36 -11 84 -35 107 -53 44 -34 93 -110 104 -164 l7 -33 -54
0 c-53 0 -54 1 -67 35 -17 49 -56 92 -105 117 -49 25 -151 29 -210 9 -55 -19
-119 -82 -147 -144 -21 -46 -24 -67 -24 -177 0 -109 3 -131 23 -175 26 -55 72
-109 115 -131 80 -42 197 -37 268 12 41 28 84 100 94 157 l7 37 55 0 54 0 -7
-37 c-22 -124 -80 -205 -182 -255 -62 -31 -73 -33 -167 -33 -88 1 -107 4 -160
28 -142 66 -215 199 -215 392 0 139 36 243 114 323 96 101 246 136 390 92z
m-564 -337 c0 -379 -2 -387 -73 -450 -64 -56 -209 -68 -295 -24 -69 35 -99 88
-108 190 l-7 71 57 0 56 0 1 -42 c1 -101 44 -152 129 -152 61 0 95 17 115 59
13 28 15 86 15 359 l0 326 55 0 55 0 0 -337z m1325 310 c83 -44 118 -109 117
-218 -1 -77 -11 -114 -47 -161 -45 -59 -81 -68 -275 -74 l-175 -5 -3 -167 -2
-168 -50 0 -50 0 0 411 0 411 223 -4 c203 -3 225 -5 262 -25z"/>
<path d="M1967 1814 c-4 -4 -7 -72 -7 -151 l0 -143 143 0 c157 0 192 10 231
63 25 34 27 118 3 163 -28 54 -74 69 -227 72 -74 2 -139 0 -143 -4z"/>
</g>
</svg>
