<svg width="300" height="300" xmlns="http://www.w3.org/2000/svg">
 <g>
  <title>lastfm</title>
  <path fill="#ffffff" d="m137.20277,197.08994l-7.95303,-21.61812c0,0 -12.92345,14.41335 -32.30339,14.41335c-17.14841,0 -29.3236,-14.91026 -29.3236,-38.76654c0,-30.56506 15.40533,-41.4988 30.56596,-41.4988c21.86657,0 28.82383,14.16391 34.78907,32.30529l7.95305,24.85016c7.95018,24.10286 22.86044,43.48561 65.85008,43.48561c30.81635,0 51.689,-9.44196 51.689,-34.29115c0,-20.12823 -11.43262,-30.56596 -32.80415,-35.53641l-15.9032,-3.47861c-10.93279,-2.48473 -14.16296,-6.95821 -14.16296,-14.41335c0,-8.44906 6.70784,-13.41946 17.64351,-13.41946c11.92767,0 18.38797,4.47348 19.38281,15.15878l24.84918,-2.98264c-1.98779,-22.36448 -17.39403,-31.55894 -42.74113,-31.55894c-22.36354,0 -44.23201,8.44901 -44.23201,35.53545c0,16.89807 8.20053,27.58434 28.82378,32.55377l16.89993,3.97462c12.67311,2.98264 16.89621,8.20058 16.89621,15.40817c0,9.19255 -8.94502,12.92059 -25.84314,12.92059c-25.09859,0 -35.53351,-13.17003 -41.49879,-31.3114l-8.20058,-24.84825c-10.43492,-32.30534 -27.0864,-44.23296 -60.13714,-44.23296c-36.52839,0 -55.91213,23.10989 -55.91213,62.37243c0,37.77266 19.38374,58.14839 54.17471,58.14839c28.07652,0 41.49785,-13.17003 41.49785,-13.17003l0,0l0.00012,0.00003z"/>
 </g>
</svg>