<svg width="300" height="300" xmlns="http://www.w3.org/2000/svg">
  <title>Layer 1</title>
  <path fill="#FFFFFF" id="rect2996" d="m70.59375,60c-5.86588,0 -10.59375,4.72784 -10.59375,10.59375l0,158.8125c0,5.86584 4.72787,10.59375 10.59375,10.59375l158.8125,0c5.86588,0 10.59375,-4.72791 10.59375,-10.59375l0,-158.8125c0,-5.86591 -4.72787,-10.59375 -10.59375,-10.59375l-158.8125,0zm30.40625,25c8.83656,0 16,7.16345 16,16c0,8.83655 -7.16344,16 -16,16c-8.83656,0 -16,-7.16345 -16,-16c0,-8.83655 7.16344,-16 16,-16zm83,41c18.85074,0 28,11.09766 28,34.46875l0,52.53125l-26,0l0,-46c0,-13.07886 -4.12364,-19 -14.46875,-19c-7.34512,0 -15.42528,9.20642 -15.53125,19l0,46l-26,0l0,-85l26,0l0,13c6.20969,-10.27625 16.13004,-15 28,-15zm-96,2l26,0l0,85l-26,0l0,-85z"/>
</svg>