<?xml version="1.0" standalone="no"?>
<!DOCTYPE svg PUBLIC "-//W3C//DTD SVG 20010904//EN"
 "http://www.w3.org/TR/2001/REC-SVG-20010904/DTD/svg10.dtd">
<svg version="1.0" xmlns="http://www.w3.org/2000/svg"
 width="300.000000pt" height="300.000000pt" viewBox="0 0 300.000000 300.000000"
 preserveAspectRatio="xMidYMid meet">
<metadata>
Created by potrace 1.11, written by Peter Selinger 2001-2013
</metadata>
<g transform="translate(0.000000,300.000000) scale(0.100000,-0.100000)"
fill="#ffffff" stroke="none">
<path d="M1516 2428 c-34 -94 -176 -532 -176 -543 0 -9 -78 -14 -309 -20 -170
-4 -314 -4 -320 0 -6 3 -11 2 -11 -4 0 -8 76 -66 303 -230 34 -25 94 -69 134
-98 l72 -52 -35 -108 c-99 -305 -154 -483 -154 -498 0 -4 17 7 38 23 118 94
478 342 489 338 7 -3 82 -54 166 -113 83 -60 162 -115 173 -123 12 -8 54 -39
94 -68 40 -28 75 -50 78 -48 2 3 -12 51 -31 108 -42 122 -157 482 -157 490 0
3 33 30 73 59 92 68 327 241 390 288 l48 36 -322 5 -323 5 -22 70 c-31 97
-175 519 -179 523 -1 2 -10 -16 -19 -40z"/>
<path d="M990 650 c0 -91 3 -110 15 -110 12 0 15 15 15 79 0 94 12 114 69 109
46 -4 61 -32 61 -120 0 -48 4 -68 13 -68 8 0 13 23 14 75 3 98 12 115 63 115
51 0 60 -17 60 -114 0 -63 3 -76 16 -76 14 0 15 13 12 91 -3 81 -6 93 -27 110
-28 23 -93 25 -111 4 -7 -8 -18 -15 -25 -15 -7 0 -18 7 -25 15 -14 17 -72 20
-101 5 -13 -7 -19 -7 -19 0 0 5 -7 10 -15 10 -12 0 -15 -19 -15 -110z"/>
<path d="M1420 743 c-52 -35 -68 -84 -46 -136 28 -67 95 -94 157 -62 23 12 34
14 37 6 2 -6 8 -11 13 -11 5 0 9 50 9 110 0 101 -9 134 -24 94 -5 -14 -8 -14
-28 0 -30 21 -87 20 -118 -1z m96 -19 c83 -40 54 -164 -39 -164 -66 0 -104 92
-59 144 14 15 43 32 60 35 2 1 19 -6 38 -15z"/>
<path d="M1664 726 c-26 -26 -34 -42 -34 -70 0 -73 51 -126 119 -126 32 0 91
43 91 66 0 20 -8 18 -42 -11 -60 -51 -138 -15 -138 62 1 46 17 70 58 84 24 8
37 7 60 -5 17 -9 32 -21 34 -27 2 -6 12 -10 23 -8 16 4 15 8 -14 37 -27 27
-40 32 -78 32 -38 0 -50 -5 -79 -34z"/>
<path d="M1865 744 c31 -72 74 -192 75 -205 0 -9 -7 -33 -16 -54 -15 -38 -12
-57 6 -39 11 11 130 291 130 306 0 4 -6 8 -14 8 -8 0 -27 -35 -45 -85 -18 -47
-36 -85 -40 -85 -4 0 -20 37 -37 82 -21 59 -35 84 -48 86 -15 3 -17 0 -11 -14z"/>
</g>
</svg>
