<?xml version="1.0" encoding="UTF-8" standalone="no"?>
<svg
   xmlns:dc="http://purl.org/dc/elements/1.1/"
   xmlns:cc="http://creativecommons.org/ns#"
   xmlns:rdf="http://www.w3.org/1999/02/22-rdf-syntax-ns#"
   xmlns:svg="http://www.w3.org/2000/svg"
   xmlns="http://www.w3.org/2000/svg"
   xmlns:sodipodi="http://sodipodi.sourceforge.net/DTD/sodipodi-0.dtd"
   xmlns:inkscape="http://www.inkscape.org/namespaces/inkscape"
   width="48"
   height="48"
   id="svg2"
   version="1.1"
   inkscape:version="0.48.2 r9819"
   sodipodi:docname="metro_cal.svg">
  <metadata
     id="metadata13">
    <rdf:RDF>
      <cc:Work
         rdf:about="">
        <dc:format>image/svg+xml</dc:format>
        <dc:type
           rdf:resource="http://purl.org/dc/dcmitype/StillImage" />
      </cc:Work>
    </rdf:RDF>
  </metadata>
  <defs
     id="defs11" />
  <sodipodi:namedview
     pagecolor="#ffffff"
     bordercolor="#666666"
     borderopacity="1"
     objecttolerance="10"
     gridtolerance="10"
     guidetolerance="10"
     inkscape:pageopacity="0"
     inkscape:pageshadow="2"
     inkscape:window-width="1366"
     inkscape:window-height="706"
     id="namedview9"
     showgrid="false"
     inkscape:zoom="9.8333333"
     inkscape:cx="19.118644"
     inkscape:cy="22.416752"
     inkscape:window-x="-8"
     inkscape:window-y="-8"
     inkscape:window-maximized="1"
     inkscape:current-layer="svg2" />
  <g
     style="font-size:32px;font-style:normal;font-variant:normal;font-weight:normal;font-stretch:normal;line-height:125%;letter-spacing:0px;word-spacing:0px;fill:#ffffff;fill-opacity:1;stroke:none;font-family:Segoe UI Symbol;-inkscape-font-specification:Segoe UI Symbol"
     id="text3084"
     transform="matrix(1.004557,0,0,1.0179806,-0.10936775,-0.4315344)">
    <path
       d="m 39.429687,12.703125 c 0,0 0,16.273687 0,18.71875 0,2.445063 -1.283472,3.875 -4.234375,3.875 l -26.6249995,0 0,-22.59375 26.8774885,4.91e-4 3.1e-5,21.365338 c 0.599215,0 0.995464,-0.882987 0.995464,-1.473505 0,-0.590518 -2.4e-5,-19.892324 -2.4e-5,-19.892324 l 0.995472,0 1.5e-5,20.629076 c 0.599677,0 0.995464,-0.883649 0.995464,-1.473505 0,-0.589856 -8e-6,-19.155571 -8e-6,-19.155571 z m -18.416078,9.82329 -9.456905,1.49e-4 0,7.858696 9.456905,-1.49e-4 z m 10.9501,6.287116 -8.959173,-1.59e-4 0,1.571739 8.959173,1.59e-4 z m 0,-3.143479 -8.959173,-1.59e-4 0,1.57174 8.959173,1.59e-4 z m 0,-3.143478 -8.959173,-1.59e-4 0,1.571739 8.959173,1.59e-4 z m 0,-5.402928 -20.407005,-10e-6 0,3.43818 20.407005,10e-6 z"
       id="path3089"
       inkscape:connector-curvature="0"
       sodipodi:nodetypes="czccccczccczccccccccccccccccccccccccccc"
       style="fill:#ffffff" />
  </g>
</svg>
