<?xml version="1.0" encoding="UTF-8" standalone="no"?>
<svg
   xmlns:dc="http://purl.org/dc/elements/1.1/"
   xmlns:svg="http://www.w3.org/2000/svg"
   xmlns="http://www.w3.org/2000/svg"
   width="48"
   height="48"
   id="svg2"
   version="1.1">
  <g fill="#FFFFFF">
    <path id="rect2990" d="m 9.68775,8.00025 c -0.934875,0 -1.6875,0.752625 -1.6875,1.6875 l 0,28.6245 c 0,0.934875 0.752625,1.6875 1.6875,1.6875 l 28.6245,0 c 0.934875,0 1.6875,-0.752625 1.6875,-1.6875 l 0,-28.6245 c 0,-0.934875 -0.752625,-1.6875 -1.6875,-1.6875 z M 10,14 l 28,0 0,24 -28,0 z"/>
    <rect y="17" x="22.5" height="3" width="3" id="rect2997" />
    <rect y="22" x="22.5" height="3" width="3" id="rect2997-1" />
    <rect y="27" x="22.5" height="3" width="3" id="rect2997-7" />
    <rect y="32" x="22.5" height="3" width="3" id="rect2997-4" />
    <rect y="17" x="27.5" height="3" width="3" id="rect2997-17" />
    <rect y="22" x="27.5" height="3" width="3" id="rect2997-1-4" />
    <rect y="27" x="27.5" height="3" width="3" id="rect2997-7-0" />
    <rect y="32" x="27.5" height="3" width="3" id="rect2997-4-9" />
    <rect y="22" x="12.5" height="3" width="3" id="rect2997-1-8" />
    <rect y="27" x="12.5" height="3" width="3" id="rect2997-7-2" />
    <rect y="32" x="12.5" height="3" width="3" id="rect2997-4-4" />
    <rect y="17" x="17.5" height="3" width="3" id="rect2997-17-5" />
    <rect y="22" x="17.5" height="3" width="3" id="rect2997-1-4-5" />
    <rect y="27" x="17.5" height="3" width="3" id="rect2997-7-0-1" />
    <rect y="32" x="17.5" height="3" width="3" id="rect2997-4-9-7" />
    <rect y="17" x="32.5" height="3" width="3" id="rect2997-17-1" />
    <rect y="22" x="32.5" height="3" width="3" id="rect2997-1-4-1" />
    <rect y="27" x="32.5" height="3" width="3" id="rect2997-7-0-5" />
  </g>
</svg>
