<svg width="300" height="300" xmlns="http://www.w3.org/2000/svg">
  <title>Layer 1</title>
  <path fill="#FFFFFF" id="path2990" d="m195.31712,167.30023c9.72609,5.61536 0.74466,21.39044 -9.07657,15.72009c-11.04599,-6.37738 -37.27559,-21.60864 -40.95609,-23.646c-3.68047,-2.03735 -4.28447,-3.59058 -4.28448,-6.8667c0,-3.27612 0,-36.16235 0,-47.46545c0,-11.30316 18,-11.40125 18,0c0,11.40118 -0.00003,41.29034 -0.00003,41.29034c0,0 25.06013,14.46851 36.31717,20.96771z"/>
  <path fill="#FFFFFF" id="path2999" d="m150.02071,60.07355c-49.71171,0 -90.09901,40.43823 -90.09901,89.92712c0,49.48889 40.3873,89.92712 90.09901,89.92712c49.7117,0 90.04393,-40.43823 90.04393,-89.92712c0,-49.48889 -40.33223,-89.92712 -90.04393,-89.92712zm0,17.84442c39.75842,0 71.925,32.10144 71.925,72.0827c0,39.9812 -32.16658,72.0827 -71.925,72.0827c-39.75842,0 -71.925,-32.1015 -71.925,-72.0827c0,-39.98126 32.16658,-72.0827 71.925,-72.0827z"/>
</svg>