<svg width="48" height="48" xmlns="http://www.w3.org/2000/svg">
 <g fill="#ffffff">
  <title>Layer 1</title>
  <path id="path3031" d="m9.91265,23.76775c0.02382,0.09491 0.04466,0.18173 0.06253,0.25906c0.01786,0.07774 0.02679,0.15186 0.0268,0.22332l-2.82283,0c-0.30967,0 -0.57767,-0.11906 -0.80397,-0.35732c-0.22631,-0.23812 -0.35136,-0.51811 -0.37519,-0.8397c0,-0.34532 0.12208,-0.64318 0.36626,-0.8933c0.24417,-0.25012 0.533,-0.37505 0.8665,-0.37519l2.76923,0c-0.07146,0.48838 -0.1072,0.9589 -0.1072,1.41142c0,0.09491 0,0.19066 0,0.28586c0,0.09491 0.00594,0.19066 0.01787,0.28586l-0.00001,0zm-0.57171,-7.12854c-0.25012,-0.25013 -0.37518,-0.54785 -0.37518,-0.8933c0,-0.32152 0.1072,-0.60737 0.32159,-0.85757c0.23821,-0.23812 0.53002,-0.35732 0.87543,-0.35732c0.3335,0 0.63126,0.1192 0.8933,0.35732l1.92953,1.92953c-0.3335,0.23833 -0.64318,0.50918 -0.92903,0.8129c-0.28586,0.30379 -0.5479,0.61638 -0.7861,0.93797l-1.92953,-1.92953zm9.3082,-1.23276c-0.17867,-0.02401 -0.36032,-0.04459 -0.54491,-0.06288c-0.18463,-0.01828 -0.37818,-0.02631 -0.58065,-0.02631c-0.27395,0 -0.54193,0.01828 -0.80396,0.05374c-0.16676,0 -0.33947,0.02973 -0.51812,0.08919l0,-2.73343c0,-0.34546 0.11613,-0.63724 0.34839,-0.87557c0.23225,-0.23812 0.52108,-0.35718 0.8665,-0.35732l0.05359,0c0.32158,0.00014 0.5985,0.1192 0.83078,0.35732c0.23224,0.23833 0.34837,0.51825 0.34838,0.83977l0.00001,2.71549zm5.02034,3.03729c-0.23822,-0.33352 -0.50324,-0.64618 -0.79503,-0.93797c-0.29182,-0.29179 -0.6164,-0.55091 -0.97369,-0.77717l1.94739,-1.92953c0.11909,-0.10748 0.24416,-0.19359 0.37519,-0.25913c0.131,-0.06518 0.27988,-0.09833 0.44664,-0.09833c0.33348,0 0.63125,0.11913 0.8933,0.35732c0.2382,0.26206 0.35731,0.54791 0.35732,0.85757c-0.00001,0.33352 -0.11912,0.61938 -0.35732,0.85757l-1.8938,1.92967zm-10.29082,8.57561c-0.53598,-0.53598 -0.94691,-1.15222 -1.23275,-1.84913c-0.28587,-0.69677 -0.4288,-1.44407 -0.42878,-2.24218c-0.00001,-0.79797 0.15186,-1.55127 0.45559,-2.26005c0.30372,-0.70864 0.7176,-1.32495 1.24168,-1.84913c0.52406,-0.52398 1.13747,-0.9379 1.8402,-1.24162c0.70271,-0.30372 1.45309,-0.45565 2.25112,-0.45565c0.60743,0 1.19105,0.09261 1.75087,0.27692c0.55979,0.18466 1.07195,0.43772 1.53648,0.75938c0.4645,0.32152 0.87542,0.70571 1.23275,1.15236c0.35731,0.44658 0.63721,0.93203 0.83971,1.45601c-0.3097,0.45265 -0.57471,0.91717 -0.79503,1.39355c-0.22037,0.47652 -0.37819,0.98277 -0.47346,1.51861l-0.03573,0c-0.85758,0 -1.67346,0.17573 -2.44764,0.52705c-0.77421,0.35132 -1.44121,0.84863 -2.00099,1.49181c-0.70274,0.02401 -1.36676,0.14893 -1.99206,0.37519c-0.62532,0.2264 -1.20596,0.54198 -1.74194,0.9469zm22.06452,-3.734c0.90518,0.00014 1.75382,0.1728 2.5459,0.51811c0.79203,0.34546 1.48582,0.81583 2.08139,1.41142c0.5955,0.59558 1.06597,1.29235 1.41142,2.09032c0.34537,0.79811 0.51807,1.65568 0.51811,2.5727c-0.00003,0.8337 -0.14892,1.62888 -0.44664,2.38511c-0.29781,0.75637 -0.70276,1.42928 -1.21489,2.01886c-0.5122,0.58972 -1.11666,1.08104 -1.8134,1.47395c-0.6968,0.39319 -1.4442,0.64318 -2.24218,0.75037l-19.0809,0c-0.63127,0.00014 -1.22085,-0.12199 -1.76873,-0.36625c-0.54791,-0.24412 -1.02432,-0.57171 -1.42928,-0.98263c-0.40497,-0.41092 -0.72655,-0.8933 -0.96476,-1.44715c-0.23822,-0.55384 -0.35733,-1.14635 -0.35732,-1.77767c-0.00001,-0.61931 0.1191,-1.20596 0.35732,-1.7598c0.23821,-0.55385 0.5598,-1.03316 0.96476,-1.43821c0.40496,-0.40492 0.88137,-0.72651 1.42928,-0.96477c0.54788,-0.23812 1.13746,-0.35732 1.76873,-0.35732c0.26203,0 0.54193,0.02973 0.83971,0.08919c0.33348,-0.64304 0.80991,-1.15529 1.42928,-1.53648c0.61934,-0.38105 1.31611,-0.57171 2.09031,-0.57171c0.33349,0 0.64912,0.03894 0.94691,0.11627c0.29775,0.07775 0.5836,0.18159 0.85757,0.31252c-0.02384,-0.15479 -0.04468,-0.30065 -0.06253,-0.43772c-0.01788,-0.13692 -0.02682,-0.28279 -0.0268,-0.43758c-0.00002,-0.73851 0.13993,-1.43235 0.41986,-2.08139c0.27988,-0.64918 0.664,-1.21796 1.15235,-1.7062c0.48832,-0.48838 1.05705,-0.8725 1.70621,-1.15243c0.64911,-0.27985 1.34291,-0.41985 2.08138,-0.41985c0.61934,0 1.20594,0.09833 1.7598,0.29479c0.55382,0.1966 1.05705,0.47045 1.50968,0.82177c0.45258,0.35132 0.84266,0.76824 1.17022,1.25062c0.32752,0.48252 0.57466,1.00943 0.74144,1.58114c0.27392,-0.05946 0.5419,-0.11599 0.80396,-0.16959c0.26202,-0.05374 0.53596,-0.08012 0.82184,-0.08012l0.00001,-0.00028zm-24.08338,4.16278c0.21438,0.32159 0.47642,0.61945 0.7861,0.8933c-0.59554,0.80997 -0.95882,1.77474 -1.08983,2.89429c-0.09529,0.05946 -0.20546,0.11906 -0.33052,0.17866c-0.12507,0.05946 -0.27097,0.08919 -0.43771,0.08919c-0.13103,0.00014 -0.268,-0.02624 -0.41092,-0.07998c-0.14293,-0.05374 -0.29181,-0.146 -0.44664,-0.27706c-0.13102,-0.11892 -0.22333,-0.25292 -0.27693,-0.40185c-0.0536,-0.14893 -0.08041,-0.30665 -0.08039,-0.47345c0,-0.34546 0.1191,-0.63731 0.35732,-0.87543l1.92953,-1.94767z"/>
 </g>
</svg>