<?xml version="1.0" standalone="no"?>
<!DOCTYPE svg PUBLIC "-//W3C//DTD SVG 20010904//EN"
 "http://www.w3.org/TR/2001/REC-SVG-20010904/DTD/svg10.dtd">
<svg version="1.0" xmlns="http://www.w3.org/2000/svg"
 width="300.000000pt" height="300.000000pt" viewBox="0 0 300.000000 300.000000"
 preserveAspectRatio="xMidYMid meet">
<metadata>
Created by potrace 1.11, written by Peter Selinger 2001-2013
</metadata>
<g transform="translate(0.000000,300.000000) scale(0.100000,-0.100000)"
fill="#ffffff" stroke="none">
<path d="M480 1506 l0 -284 33 -25 c42 -32 100 -26 105 12 l4 23 23 -22 c21
-20 30 -22 79 -16 l56 7 0 267 0 266 -27 28 c-21 22 -36 28 -70 28 -37 0 -43
-3 -43 -22 l0 -21 -23 21 c-18 17 -36 22 -80 22 l-57 0 0 -284z m103 267 c3
-5 17 -89 32 -188 14 -99 29 -188 33 -198 4 -10 5 75 3 188 l-3 205 31 0 31 0
0 -260 c0 -201 -3 -260 -12 -260 -7 0 -29 -3 -49 -6 l-35 -6 -30 193 -29 194
-3 -197 -2 -198 -25 0 -25 0 0 270 0 270 39 0 c22 0 42 -3 44 -7z"/>
<path d="M870 1531 l0 -259 36 -32 c26 -22 43 -30 58 -26 11 3 42 6 69 6 46 0
47 1 47 31 0 21 -10 43 -30 66 -25 28 -30 42 -30 83 0 49 1 50 30 50 26 0 30
4 30 28 0 18 -11 38 -30 57 -27 25 -30 35 -30 87 0 58 0 58 30 58 26 0 30 4
30 28 0 18 -10 38 -28 55 -26 25 -35 27 -105 27 l-77 0 0 -259z m150 224 c0
-22 -4 -25 -35 -25 l-35 0 0 -90 0 -90 35 0 c31 0 35 -3 35 -25 0 -22 -4 -25
-35 -25 l-35 0 0 -85 0 -85 35 0 c31 0 35 -3 35 -25 0 -24 -2 -25 -65 -25
l-65 0 0 250 0 250 65 0 c63 0 65 -1 65 -25z"/>
<path d="M1140 1752 c0 -31 6 -43 30 -60 l30 -23 0 -193 0 -194 31 -26 c21
-18 42 -26 70 -26 l39 0 0 220 0 220 30 0 c26 0 30 4 30 27 0 14 -11 41 -26
60 l-25 33 -105 0 -104 0 0 -38z m190 3 c0 -21 -5 -25 -30 -25 l-30 0 0 -221
0 -220 -27 3 -28 3 -2 215 -2 215 -25 3 c-20 3 -26 9 -26 28 0 24 2 24 85 24
84 0 85 0 85 -25z"/>
<path d="M1480 1536 l0 -254 34 -26 c22 -17 47 -26 70 -26 l35 0 3 108 3 107
33 3 c27 3 32 7 32 31 0 18 -12 38 -35 61 -31 30 -35 39 -35 87 l0 53 35 0
c31 0 35 3 35 26 0 16 -12 36 -32 55 -30 26 -39 29 -105 29 l-73 0 0 -254z
m140 219 c0 -22 -4 -25 -35 -25 l-35 0 0 -90 0 -90 35 0 c31 0 35 -3 35 -25 0
-22 -4 -25 -35 -25 l-35 0 0 -100 0 -100 -30 0 -30 0 0 233 c0 129 3 237 7
240 3 4 33 7 65 7 55 0 58 -1 58 -25z"/>
<path d="M1780 1537 l0 -253 29 -28 c24 -23 39 -28 105 -33 l76 -6 0 32 c0 23
-11 45 -35 74 l-35 41 0 185 0 185 -27 28 c-21 22 -36 28 -70 28 l-43 0 0
-253z m70 23 l0 -220 35 0 c31 0 35 -3 35 -25 0 -25 -1 -26 -62 -23 l-63 3 -3
243 -2 242 30 0 30 0 0 -220z"/>
<path d="M2060 1526 l0 -264 33 -24 c17 -14 49 -27 70 -30 l37 -4 0 265 0 265
-27 28 c-21 22 -36 28 -70 28 l-43 0 0 -264z m70 4 l0 -250 -30 0 -30 0 0 250
0 250 30 0 30 0 0 -250z"/>
<path d="M2295 1768 c3 -13 14 -70 25 -128 20 -104 20 -104 0 -225 -11 -66
-22 -130 -25 -141 -4 -17 6 -29 48 -58 60 -42 97 -47 97 -15 0 21 0 21 33 -3
27 -21 107 -47 107 -35 0 2 -13 73 -30 158 l-30 154 24 125 23 125 -30 33
c-26 26 -38 32 -74 32 -32 0 -43 -4 -43 -15 0 -8 -4 -15 -9 -15 -5 0 -14 7
-21 15 -8 9 -30 15 -56 15 -41 0 -44 -2 -39 -22z m84 -55 c23 -136 23 -136 40
-33 l16 95 33 3 c29 3 33 1 28 -15 -3 -10 -14 -66 -25 -124 -20 -105 -20 -106
-1 -230 27 -169 27 -173 -7 -164 -16 4 -29 8 -31 9 -1 2 -8 51 -14 109 -7 58
-15 104 -19 102 -3 -3 -9 -35 -13 -72 -12 -126 -15 -133 -48 -133 -27 0 -29 2
-23 33 42 229 42 235 18 357 -12 63 -22 118 -23 123 0 4 13 7 29 7 28 0 29 -2
40 -67z"/>
</g>
</svg>
