<svg width="48" height="48" xmlns="http://www.w3.org/2000/svg">
 <g fill="#ffffff">
  <title>Layer 1</title>
  <path d="m21.85899,24.42202c0,0 -11.85899,-9.6003 -11.85899,-9.6003c0,0 0,-0.73156 0,-0.73156c0,-0.36336 0.07654,-0.64102 0.22997,-0.83341c0.15392,-0.19295 0.40244,-0.3019 0.74702,-0.32654c0,0 25.42397,-1.81599 25.42397,-1.81599c1.06144,-0.07579 1.599,0.35302 1.59904,1.28742c0,0 0,0.94057 0,0.94057c0,0 -15.35619,11.1114 -15.35619,11.1114c0,0 -0.78482,-0.03159 -0.78482,-0.03159m0.37532,4.04886c0.1886,0.0145 0.35944,0.00874 0.51235,-0.01737c0.15329,-0.02617 0.28314,-0.06234 0.38939,-0.10855c0.11707,-0.04547 0.22372,-0.10815 0.31991,-0.18806c0,0 14.54404,-9.96428 14.54404,-9.96428c0,0 0,18 0,18c-0.00004,0.23361 -0.0581,0.45339 -0.17402,0.65907c-0.11579,0.2053 -0.26526,0.37799 -0.44818,0.51805c-0.18246,0.13965 -0.39127,0.24156 -0.62613,0.30585c-0.23407,0.06403 -0.47053,0.07886 -0.70938,0.04474c0,0 -24.82435,-3.54634 -24.82435,-3.54634c-0.16077,-0.02297 -0.31469,-0.08356 -0.46183,-0.18162c-0.14672,-0.09776 -0.2763,-0.21932 -0.38888,-0.36465c-0.11233,-0.145 -0.2016,-0.30811 -0.26791,-0.48942c-0.06624,-0.18106 -0.09932,-0.36234 -0.09932,-0.54404c0,0 0,-14 0,-14c0,0 11.06986,9.38802 11.06986,9.38802c0.08197,0.09121 0.1795,0.16772 0.29266,0.22951c0.10304,0.06116 0.22697,0.11597 0.37193,0.16446c0.1453,0.04863 0.31186,0.08019 0.49986,0.09463c0,0 0,0 0,0" id="path2997"/>
 </g>
</svg>