<?xml version="1.0" standalone="no"?>
<!DOCTYPE svg PUBLIC "-//W3C//DTD SVG 20010904//EN"
 "http://www.w3.org/TR/2001/REC-SVG-20010904/DTD/svg10.dtd">
<svg version="1.0" xmlns="http://www.w3.org/2000/svg"
 width="300.000000pt" height="300.000000pt" viewBox="0 0 300.000000 300.000000"
 preserveAspectRatio="xMidYMid meet">
<metadata>
Created by potrace 1.11, written by Peter Selinger 2001-2013
</metadata>
<g transform="translate(0.000000,300.000000) scale(0.100000,-0.100000)"
fill="#ffffff" stroke="none">
<path d="M1431 2349 c-261 -51 -473 -231 -550 -466 -70 -218 -5 -471 145 -559
67 -40 86 -32 105 46 16 63 16 66 -3 95 -45 69 -62 120 -66 196 -13 246 156
463 396 509 86 17 243 8 309 -18 109 -42 182 -115 225 -223 18 -44 21 -75 21
-169 -1 -303 -144 -539 -326 -540 -61 0 -111 23 -143 66 -43 56 -42 93 12 275
36 122 48 181 48 229 0 110 -44 160 -139 160 -78 0 -136 -44 -176 -135 -27
-60 -31 -195 -7 -260 14 -39 12 -50 -60 -350 -74 -308 -75 -311 -76 -455 -1
-154 7 -220 27 -220 16 0 109 139 153 230 19 38 52 141 76 232 23 89 42 164
43 166 1 1 20 -16 43 -37 23 -22 67 -49 99 -61 78 -30 220 -25 303 10 224 95
358 314 385 630 12 140 -34 294 -124 412 -80 107 -214 192 -359 229 -81 20
-275 25 -361 8z"/>
</g>
</svg>
