<?xml version="1.0" standalone="no"?>
<!DOCTYPE svg PUBLIC "-//W3C//DTD SVG 20010904//EN"
 "http://www.w3.org/TR/2001/REC-SVG-20010904/DTD/svg10.dtd">
<svg version="1.0" xmlns="http://www.w3.org/2000/svg"
 width="300.000000pt" height="300.000000pt" viewBox="0 0 300.000000 300.000000"
 preserveAspectRatio="xMidYMid meet">
<metadata>
Created by potrace 1.11, written by Peter Selinger 2001-2013
</metadata>
<g transform="translate(0.000000,300.000000) scale(0.100000,-0.100000)"
fill="#FFF" stroke="none">
<path d="M1075 2330 c-198 -26 -360 -166 -397 -342 -24 -114 28 -265 120 -346
52 -47 148 -91 216 -100 l58 -7 3 -55 c1 -30 6 -65 10 -77 7 -22 4 -23 -37
-23 -64 0 -190 -34 -257 -70 -153 -82 -247 -238 -221 -367 25 -120 131 -209
305 -258 93 -26 305 -31 398 -11 158 35 291 135 338 252 32 81 32 204 -1 289
-23 60 -45 84 -215 242 -85 80 -84 89 30 198 92 88 129 151 140 240 9 68 -8
158 -44 228 l-30 57 26 0 c29 0 147 80 157 107 5 12 0 24 -14 35 -20 16 -47
18 -274 17 -138 -1 -278 -5 -311 -9z m47 -152 c55 -16 119 -76 153 -143 37
-75 47 -201 21 -270 -58 -151 -233 -129 -323 42 -81 153 -54 327 57 372 33 13
46 13 92 -1z m162 -961 c69 -44 114 -84 132 -118 32 -64 6 -170 -55 -222 -83
-69 -300 -84 -410 -27 -71 37 -131 122 -131 187 0 44 40 113 84 145 80 59 154
80 261 72 56 -4 79 -11 119 -37z"/>
<path d="M1965 1958 c-3 -7 -6 -78 -7 -158 l-3 -145 -150 -3 c-170 -3 -175 -5
-175 -77 0 -72 5 -74 175 -77 l150 -3 3 -150 c3 -170 5 -175 77 -175 72 0 74
5 77 175 l3 150 155 5 155 5 0 70 0 70 -155 5 -155 5 -5 155 -5 155 -68 3
c-48 2 -69 -1 -72 -10z"/>
</g>
</svg>
