<svg width="200" height="200" xmlns="http://www.w3.org/2000/svg">
  <title>Layer 1</title>
  <g id="svg_3">
   <path fill="#193D84" d="m99.95831,130.39542c-7.19659,-8.19356 -11.56004,-18.95139 -11.56004,-30.71534c0,-23.00874 16.67932,-42.1224 38.60293,-45.91545c0,0.00468 10.57232,55.23584 -27.04288,76.63079l-0.00001,0z" id="svg_8"/>
   <path fill="#193D84" d="m170.00922,130.44183c7.21515,-8.20744 11.58778,-18.97459 11.58778,-30.75713c0,-23.10139 -16.80907,-42.28006 -38.87186,-45.96173c0,-0.00014 -9.45479,58.11527 27.28401,76.71879l0.00006,0.00006z" id="svg_9"/>
   <path fill="#193D84" d="m112.68683,140.59682c6.62167,3.62616 14.22623,5.68034 22.31322,5.68034c8.07298,0 15.673,-2.04495 22.29919,-5.66179c0,0 -20.45831,-11.19838 -21.98857,-30.20985c-0.00468,0.00454 -1.72501,16.54456 -22.62384,30.19135l0,-0.00005z" id="svg_10"/>
   <path fill="#193D84" d="m100.03714,130.39542c7.1966,-8.19356 11.55536,-18.95139 11.55536,-30.71534c0,-23.00874 -16.67464,-42.1224 -38.59829,-45.91545c0,0.00468 -10.57233,55.23584 27.04288,76.63079l0.00005,0z" id="svg_12"/>
   <path fill="#E53B31" d="m100.03714,130.39542c7.1966,-8.19356 11.55536,-18.95139 11.55536,-30.71534c0,-11.61101 -4.24757,-22.22974 -11.27251,-30.39088c0.00468,0.00468 -24.86819,30.9705 -0.28285,61.10622z" id="svg_13"/>
   <path fill="#193D84" d="m29.99546,130.44183c-7.21983,-8.20744 -11.59246,-18.97459 -11.59246,-30.75713c0,-23.10139 16.81375,-42.28006 38.87183,-45.96173c-0.00454,-0.00014 9.44564,58.11527 -27.27937,76.71879l0,0.00006z" id="svg_14"/>
   <path fill="#193D84" d="m87.31331,140.59682c-6.62634,3.62616 -14.2309,5.68034 -22.31776,5.68034c-8.07763,0 -15.67301,-2.04495 -22.29467,-5.66179c0,0 20.45378,-11.19838 21.98857,-30.20985c0,0.00454 1.72018,16.54456 22.62385,30.19135l0,-0.00005l0.00001,0z" id="svg_15"/>
  </g>
</svg>