<svg width="48" height="48" xmlns="http://www.w3.org/2000/svg">
 <g fill="#ffffff">
  <title>skydrive</title>
  <path id="nubes" d="m21.90625,13.20313c-1.14737,0 -2.20959,0.27759 -3.1875,0.8125c-0.97787,0.53491 -1.76734,1.2561 -2.40625,2.15631c-0.36506,-0.10443 -0.72865,-0.20959 -1.09375,-0.28131c-0.36505,-0.07202 -0.74686,-0.09399 -1.125,-0.09399c-0.92571,0 -1.80354,0.17242 -2.625,0.53119c-0.8214,0.35883 -1.54341,0.84918 -2.15625,1.46881c-0.61278,0.61981 -1.08543,1.33441 -1.4375,2.15625c-0.35201,0.8219 -0.53122,1.7168 -0.53125,2.65625l0,0.15625c-0.8214,0.49585 -1.44987,1.15857 -1.90625,2c-0.45631,0.84155 -0.68747,1.77673 -0.6875,2.78125c0.00003,0.73059 0.14551,1.41016 0.40625,2.0625c0.2608,0.65234 0.6127,1.24121 1.0625,1.75c0.44986,0.50879 0.96793,0.93042 1.59375,1.25c0.62588,0.3197 1.31416,0.51538 2.03125,0.59375l6.65625,0c-0.13423,-0.22009 -0.24091,-0.47644 -0.34375,-0.71875c-0.2811,-0.66235 -0.40625,-1.38403 -0.40625,-2.125c0,-0.73145 0.15623,-1.43665 0.4375,-2.09375c0.27809,-0.64978 0.63833,-1.2301 1.125,-1.71875c0.48599,-0.48816 1.07271,-0.8717 1.71875,-1.15625c0.58492,-0.25769 1.22224,-0.33911 1.875,-0.375c0.45108,-0.48438 0.94377,-0.90308 1.53125,-1.1875c0.55281,-0.2677 1.16333,-0.36621 1.78125,-0.40625c0.14466,-0.56775 0.32588,-1.1228 0.625,-1.625c0.35972,-0.60388 0.81755,-1.15063 1.34375,-1.59375c0.52685,-0.44373 1.24025,-0.81958 1.78125,-1.03125c0.541,-0.21179 0.54202,-0.18652 0.8125,-0.28131c-0.15645,-0.80878 -0.42651,-1.552 -0.84375,-2.25c-0.41722,-0.69788 -0.92495,-1.30371 -1.53125,-1.8125c-0.60628,-0.50879 -1.29973,-0.90051 -2.0625,-1.1875c-0.76274,-0.28699 -1.58998,-0.4375 -2.4375,-0.4375l0,0.00031zm8.15625,6.59375c-0.61888,0 -1.19919,0.10461 -1.75,0.3125c-0.55768,0.21069 -1.06031,0.50488 -1.5,0.875c-0.44038,0.37109 -0.78833,0.7998 -1.09375,1.3125c-0.30323,0.50916 -0.51086,1.06409 -0.625,1.65625l-0.09375,0.40625l-0.40625,0l-0.0625,0c-0.59462,0.00012 -1.14145,0.12585 -1.65625,0.375c-0.52164,0.25269 -0.98031,0.57825 -1.375,1.03125l-0.125,0.1875l-0.25,0c-0.61354,0.01001 -1.15703,0.11011 -1.6875,0.34375c-0.53878,0.2373 -1.00883,0.56958 -1.40625,0.96875c-0.39674,0.39832 -0.70633,0.86621 -0.9375,1.40625c-0.22799,0.53259 -0.34375,1.08325 -0.34375,1.6875c0,0.61584 0.11559,1.18176 0.34375,1.71875c0.23201,0.54675 0.54477,1.03369 0.9375,1.4375c0.39219,0.40308 0.84948,0.70654 1.375,0.9375c0.51782,0.22742 1.05517,0.34375 1.65625,0.34375l18.59375,0l0.03125,0c0.50202,-0.05896 0.93944,-0.21399 1.375,-0.4375c0.44632,-0.22864 0.83936,-0.51526 1.15625,-0.875c0.3202,-0.36353 0.56215,-0.77832 0.75,-1.25c0.18411,-0.46228 0.28123,-0.94373 0.28125,-1.46875c-0.00002,-0.72839 -0.17579,-1.36865 -0.5,-1.96875c-0.32367,-0.59888 -0.76113,-1.08447 -1.34375,-1.4375l-0.21875,-0.125l0,-0.28125l0,-0.15625c-0.00002,-0.68933 -0.15265,-1.31201 -0.40625,-1.90625c-0.25735,-0.60291 -0.58681,-1.11157 -1.03125,-1.5625c-0.44401,-0.45068 -0.96283,-0.83069 -1.5625,-1.09375c-0.59158,-0.25916 -1.20193,-0.375 -1.875,-0.375c-0.26935,0 -0.55293,0.01099 -0.8125,0.06201c-0.27642,0.05396 -0.53384,0.13867 -0.8125,0.21875l-0.34375,0.09399l-0.21875,-0.28137c-0.46682,-0.66003 -1.034,-1.20056 -1.75,-1.59363c-0.70721,-0.38831 -1.47591,-0.5625 -2.3125,-0.5625l0,0.00024z"/>
 </g>
</svg>