<svg width="300" height="300" xmlns="http://www.w3.org/2000/svg">
 <title>TED</title>
 <g fill="#ff2b06">
   <path shape-rendering="crispEdges" d="m39,126l-28,0l0,-26l87,0l0,26l-28,0l0,74l-31,0l0,-74z" id="svg_3"/>
   <path shape-rendering="crispEdges" d="m103,100l85,0l0,26l-54,0l0,12l54,0l0,24l-54,0l0,12l54,0l0,26l-85,0l0,-100z" id="svg_4"/>
   <path d="m193,100l31,0l0,100l-31,0l0,-100z" id="svg_1"/>
   <path id="svg_5" d="m221,100l21,0c33.444,0 47,22.0581 47,50c0,27.9418 -12,50 -47,50c-16.33299,0 -4.66701,0 -21,0l0,-100zm0,74l14,0c21.06799,0 23.08401,-15.832 23.08401,-24.5746c0,-8.7426 -1.953,-23.4254 -23.08401,-23.4254l-14,0l0,48z"/>
 </g>
</svg>