<svg width="564.502" height="108" xmlns="http://www.w3.org/2000/svg">
 <g>
  <title>Layer 1</title>
  <g id="svg_1">
   <g fill="#FF2B06" id="svg_2">
    <path shape-rendering="crispEdges" d="m27.898,25.514l-27.898,0l0,-25.514l86.435,0l0,25.514l-27.887,0l0,74.032l-30.65,0l0,-74.032z" id="svg_3"/>
    <path shape-rendering="crispEdges" d="m91.199,0l83.906,0l0,25.514l-53.23598,0l0,12.405l53.23598,0l0,23.709l-53.23598,0l0,12.405l53.24999,0l0,25.513l-83.92001,0l0,-99.546l0.00001,0z" id="svg_4"/>
    <path d="m180.267,0l50.33101,0c33.17598,0 44.90099,24.539 44.90099,49.627c0,30.542 -16.172,49.919 -50.89,49.919l-44.34099,0l0,-99.546l-0.00101,0zm30.66901,74.033l11.99501,0c19.105,0 21.899,-15.48 21.899,-24.832c0,-6.262 -1.96202,-23.687 -24.132,-23.687l-9.76099,0l0,48.519l-0.00102,0z" id="svg_5"/>
   </g>
  </g>
  <g id="svg_6">
   <path d="m294.76099,1.894l2.39999,0l0,38.958l-2.39999,0l0,-38.958z" id="svg_7"/>
   <path d="m326.46201,34.85l-0.10901,0c-2.29199,4.419 -5.72897,6.656 -10.74799,6.656c-8.457,0 -12.11301,-6.875 -12.11301,-14.623c0,-8.293 4.03799,-14.731 12.49402,-14.731c4.58398,0 8.89499,2.51 10.36697,6.929l0.10901,0l0,-17.187l2.07401,0l0,38.958l-2.07401,0l0,-6.002zm-0.05499,-7.967c0,-6.547 -3.21899,-12.931 -10.422,-12.931c-7.41901,0 -10.42102,6.166 -10.42102,12.931c0,6.603 3.27301,12.823 10.47702,12.823c7.09299,0 10.366,-6.384 10.366,-12.823z" id="svg_8"/>
   <path d="m337.103,27.102c-0.10999,6.602 3.383,12.604 10.31201,12.604c5.293,0 9.05899,-3.165 10.039,-8.348l2.07401,0c-1.091,6.547 -5.45602,10.148 -12.11301,10.148c-8.18402,0 -12.49402,-6.438 -12.38602,-14.186c-0.108,-7.694 3.92801,-15.168 12.38602,-15.168c8.784,0 12.71298,6.929 12.33099,14.95l-22.64301,0zm20.569,-1.801c-0.10901,-5.893 -3.819,-11.349 -10.258,-11.349c-6.22,0 -9.87601,5.784 -10.31201,11.349l20.57001,0z" id="svg_9"/>
   <path d="m386.427,35.668c0,1.637 0,3.383 1.854,3.383c0.38199,0 0.87399,-0.055 1.52798,-0.164l0,1.746c-0.60098,0.109 -1.146,0.218 -1.69199,0.218c-3.272,0 -3.76501,-1.8 -3.76501,-4.092l0,-1.473l-0.108,0c-1.31,3.329 -5.07397,6.22 -10.42099,6.22c-5.293,0 -9.38599,-2.019 -9.38599,-7.912c0,-6.547 5.67499,-7.912 10.31299,-8.293c9.27399,-0.655 9.65701,-1.255 9.65701,-5.838c0,-1.255 -1.41904,-5.511 -7.80301,-5.511c-5.01999,0 -8.349,2.619 -8.621,7.475l-2.073,0c0.27197,-6.166 4.09201,-9.275 10.694,-9.275c4.90997,0 9.82095,1.528 9.82095,7.312l0,16.204l0.00201,0l0.00003,0zm-2.07401,-10.749c-1.63699,1.855 -6.11099,1.637 -10.147,2.183c-4.91098,0.545 -7.69299,2.291 -7.69299,6.493c0,3.383 2.45499,6.111 7.366,6.111c9.43799,0 10.47501,-8.075 10.47501,-9.549l0,-5.238l-0.00101,0z" id="svg_10"/>
   <path d="m395.15601,31.521c0.327,5.183 4.20102,8.185 9.276,8.185c3.655,0 8.89301,-1.091 8.89301,-5.948c0,-4.747 -4.80099,-5.456 -9.603,-6.438c-4.85501,-0.982 -9.65701,-2.237 -9.65701,-7.966c0,-5.565 5.401,-7.202 10.14801,-7.202c5.948,0 10.367,2.564 10.367,8.948l-2.073,0c-0.05502,-5.074 -3.60101,-7.147 -8.29401,-7.147c-3.81799,0 -8.07501,1.418 -8.07501,5.402c0,4.474 4.80099,5.184 9.33002,6.166c5.565,1.037 9.931,2.346 9.931,8.239c0,6.057 -6.05701,7.748 -10.96701,7.748c-6.384,0 -11.185,-3.438 -11.35001,-9.985l2.07401,0l0,-0.002z" id="svg_11"/>
   <path d="m444.862,38.451l0.10901,0l7.63898,-25.645l2.78302,0l7.69299,25.645l0.10901,0l7.85599,-25.645l2.29102,0l-9.00201,28.045l-2.56497,0l-7.69299,-25.426l-0.108,0l-7.74799,25.426l-2.61902,0l-8.89398,-28.045l2.237,0l7.91199,25.645l-0.00003,0z" id="svg_12"/>
   <path d="m489.004,12.151c8.23901,0 12.87601,6.711 12.87601,14.677s-4.63699,14.677 -12.87601,14.677s-12.87601,-6.711 -12.87601,-14.677s4.63702,-14.677 12.87601,-14.677zm0,27.555c7.03799,0 10.80301,-6.166 10.80301,-12.877s-3.76501,-12.877 -10.80301,-12.877c-7.039,0 -10.80399,6.166 -10.80399,12.877s3.76498,12.877 10.80399,12.877z" id="svg_13"/>
   <path d="m509.95599,19.026l0.16299,0c1.09201,-3.656 5.67502,-6.603 10.74899,-6.384l0,2.074c-2.18298,-0.273 -5.237,0.273 -7.74799,2.728c-2.07303,2.128 -2.94601,3.874 -3.164,8.075l0,15.332l-2.07404,0l0,-28.045l2.07404,0l0,6.22z" id="svg_14"/>
   <path d="m536.39203,14.606l-6.11102,0l0,19.588c0,4.529 2.12701,4.965 6.05701,4.856l0,1.8c-4.25598,0.273 -8.349,-0.328 -8.13098,-6.657l0,-19.587l-5.18298,0l0,-1.801l5.18298,0l0,-8.73l2.07397,0l0,8.73l6.11102,0l0,1.801z" id="svg_15"/>
   <path d="m544.36902,1.894l0,16.915l0.10901,0c1.41797,-4.202 5.67401,-6.657 10.039,-6.657c9.87598,0 9.98401,7.912 9.98401,11.349l0,17.351l-2.073,0l0,-17.734c0,-2.892 -0.32703,-9.167 -7.966,-9.167c-6.27399,0 -10.09399,4.856 -10.09399,11.731l0,15.168l-2.073,0l0,-38.956l2.07397,0z" id="svg_16"/>
   <path d="m295.36099,87.965c0.327,5.18401 4.20099,8.186 9.27499,8.186c3.655,0 8.89401,-1.092 8.89401,-5.947c0,-4.748 -4.80099,-5.457 -9.603,-6.439c-4.85602,-0.981 -9.65802,-2.236 -9.65802,-7.966c0,-5.565 5.401,-7.202 10.14902,-7.202c5.94699,0 10.367,2.564 10.367,8.948l-2.07404,0c-0.05402,-5.074 -3.60202,-7.147 -8.293,-7.147c-3.819,0 -8.07501,1.418 -8.07501,5.401c0,4.475 4.80099,5.184 9.33005,6.16599c5.56494,1.036 9.931,2.347 9.931,8.23901c0,6.056 -6.05801,7.74699 -10.96805,7.74699c-6.38397,0 -11.18597,-3.437 -11.35001,-9.98499l2.07501,0l0,-0.00101l0.00003,0.00001z" id="svg_17"/>
   <path d="m324.33401,75.689l0.10901,0c0.87198,-2.783 4.03598,-7.094 10.202,-7.094c8.621,0 12.604,6.82 12.604,14.732c0,8.51199 -4.03802,14.62199 -12.604,14.62199c-4.63702,0 -8.565,-1.964 -10.202,-6.493l-0.10901,0l0,15.879l-2.07401,0l0,-38.085l2.07401,0l0,6.439l0,0.00002zm20.84198,7.639c0,-6.385 -3,-12.932 -10.53,-12.932c-7.47501,0 -10.258,6.27399 -10.258,12.932c0,6.656 2.34695,12.822 10.258,12.822c7.311,0 10.53,-5.892 10.53,-12.822z" id="svg_18"/>
   <path d="m355.32599,75.471l0.16299,0c1.09201,-3.656 5.67401,-6.602 10.74899,-6.384l0,2.07301c-2.18298,-0.272 -5.23798,0.27299 -7.74899,2.729c-2.073,2.12801 -2.94501,3.874 -3.16299,8.075l0,15.332l-2.07501,0l0,-28.04601l2.07501,0l0,6.221l0,-0.00001z" id="svg_19"/>
   <path d="m370.38501,83.546c-0.10901,6.603 3.383,12.604 10.31299,12.604c5.293,0 9.05801,-3.165 10.04001,-8.349l2.073,0c-1.09198,6.548 -5.457,10.14799 -12.11301,10.14799c-8.185,0 -12.495,-6.438 -12.38599,-14.187c-0.10901,-7.693 3.92899,-15.16801 12.38599,-15.16801c8.78403,0 12.71301,6.93 12.332,14.95l-22.64499,0l0,0.002l0,0.00001zm20.569,-1.8c-0.108,-5.894 -3.81799,-11.35 -10.25699,-11.35c-6.22101,0 -9.87601,5.783 -10.31302,11.35l20.57001,0z" id="svg_20"/>
   <path d="m419.70999,92.112c0,1.637 0,3.383 1.854,3.383c0.38199,0 0.87299,-0.055 1.52798,-0.163l0,1.746c-0.60098,0.10799 -1.146,0.21799 -1.69098,0.21799c-3.27402,0 -3.76602,-1.80099 -3.76602,-4.09299l0,-1.473l-0.10898,0c-1.30902,3.328 -5.073,6.21999 -10.42102,6.21999c-5.293,0 -9.38498,-2.019 -9.38498,-7.911c0,-6.548 5.67499,-7.91199 10.31299,-8.293c9.276,-0.65601 9.65701,-1.256 9.65701,-5.839c0,-1.255 -1.41904,-5.51099 -7.80301,-5.51099c-5.01999,0 -8.34799,2.619 -8.621,7.475l-2.07199,0c0.272,-6.165 4.09198,-9.275 10.69299,-9.275c4.91101,0 9.82199,1.527 9.82199,7.312l0,16.204l0.00101,0zm-2.07401,-10.749c-1.63699,1.855 -6.10999,1.637 -10.14801,2.183c-4.90997,0.54601 -7.69299,2.292 -7.69299,6.493c0,3.383 2.45599,6.111 7.366,6.111c9.439,0 10.47601,-8.076 10.47601,-9.549l0,-5.238l-0.00101,0z" id="svg_21"/>
   <path d="m449.11899,91.294l-0.108,0c-2.29199,4.419 -5.73001,6.656 -10.75,6.656c-8.45599,0 -12.112,-6.874 -12.112,-14.62199c0,-8.29401 4.03702,-14.732 12.49399,-14.732c4.58401,0 8.89502,2.51 10.36801,6.93l0.108,0l0,-17.188l2.073,0l0,38.958l-2.073,0l0,-6.00201l0,-0.00001zm-0.05499,-7.966c0,-6.549 -3.21899,-12.932 -10.422,-12.932c-7.42001,0 -10.42099,6.16499 -10.42099,12.932c0,6.602 3.27298,12.822 10.47699,12.822c7.09201,0 10.366,-6.384 10.366,-12.822z" id="svg_22"/>
   <path d="m459.43201,63.957l0,-5.619l2.073,0l0,5.619l-2.073,0zm0,33.339l0,-28.046l2.073,0l0,28.046l-2.073,0z" id="svg_23"/>
   <path d="m469.25299,69.25l2.073,0l0,6.002l0.10901,0c1.41901,-4.201 5.67398,-6.656 10.03998,-6.656c9.87601,0 9.98401,7.912 9.98401,11.35l0,17.351l-2.07401,0l0,-17.73399c0,-2.89201 -0.32599,-9.166 -7.966,-9.166c-6.27399,0 -10.09399,4.855 -10.09399,11.73l0,15.16901l-2.073,0l0,-28.04601l0.00101,0l0,-0.00001z" id="svg_24"/>
   <path d="m521.90503,69.25l0,26.572c0,2.183 0,12.55 -12.11301,12.168c-6.00198,0 -10.63998,-2.237 -10.966,-8.73l2.073,0c0.43701,4.965 4.36401,6.93 8.948,6.93c9.82004,0 9.98404,-8.021 9.98404,-9.876l0,-6.438l-0.10803,0c-1.96497,4.146 -5.40198,6.384 -10.14899,6.384c-8.23801,0 -12.112,-6.056 -12.112,-13.858c0,-7.42 4.20099,-13.805 12.112,-13.805c4.36499,0 8.62097,2.292 10.14899,6.493l0.10803,0l0,-5.84l2.07397,0zm-22.37003,13.15c0,6.602 3.43698,12.059 10.039,12.059c6.81998,0 10.20297,-5.729 10.20297,-12.059c0,-6.275 -3.328,-12.004 -10.20297,-12.004c-6.76501,0 -10.039,6.057 -10.039,12.004z" id="svg_25"/>
  </g>
 </g>
</svg>