<svg width="900" height="400" xmlns="http://www.w3.org/2000/svg">
 <g fill="#ffffff">
  <title>Layer 1</title>
  <path id="path3041" d="m534.29126,126.65812c-11.15997,4.60125 -23.24124,7.36126 -36.25,8.28126l0,19l14.625,0l0,117.12502l21.65625,0l5.3125,-8.3125c4.92627,3.79489 9.65997,6.49121 14.1875,8.125c4.53125,1.63379 9.26624,2.46875 14.1875,2.46875c12.08252,0 22.3725,-4.81638 30.875,-14.46875c8.5025,-9.65227 12.75,-22.44389 12.75,-38.34377c0,-15.70413 -4.2525,-28.26563 -12.71875,-37.6875c-7.28497,-8.11237 -16.5025,-12.15625 -27.65625,-12.15625c-4.26373,0 -8.51874,0.65675 -12.75,2c-4.23499,1.34726 -9.05878,3.74512 -14.5,7.15625l0,-53.1875l-9.71875,0l0,-0.00001zm27.34375,67.43751c4.59747,0 8.30499,2.01761 11.125,6.0625c3.48126,5.02386 5.21875,12.144 5.21875,21.34375c0,9.78462 -2.02252,17.45512 -6.09375,23c-3.21753,4.43712 -7.54877,6.65625 -13,6.65625c-3.21753,0 -6.03748,-0.75 -8.4375,-2.25c-2.39752,-1.5 -4.04626,-3.37399 -5,-5.625c-0.95502,-2.25 -1.4375,-6.3705 -1.4375,-12.375l0,-29.75c3.34747,-2.34764 6.48126,-4.13576 9.40625,-5.3125c2.92377,-1.16989 5.65747,-1.75 8.21875,-1.75z"/>
  <path id="path3049" d="m793.45251,241.38124c-3.5675,-3.57613 -7.87628,-5.37062 -12.91376,-5.37062c-5.10748,0 -9.44501,1.79449 -13.01251,5.37062c-3.5675,3.57475 -5.35126,7.89214 -5.35126,12.94289c0,5.05524 1.78375,9.37256 5.35126,12.95166c3.5675,3.5762 7.90503,5.36377 13.01251,5.36377c5.03748,0 9.34625,-1.7876 12.91376,-5.36377c3.5675,-3.5791 5.34998,-7.89639 5.34998,-12.95166c0,-5.05075 -1.78247,-9.36813 -5.34998,-12.94289z"/>
  <path id="path3047" d="m765.41626,199.29823c2.72375,-3.34424 4.09003,-7.07813 4.09003,-11.21236c0,-3.14401 -0.74005,-6.09526 -2.22003,-8.84914c-1.47748,-2.75388 -3.48126,-4.87064 -6.005,-6.34476c-2.53125,-1.47412 -5.39996,-2.21037 -8.61621,-2.21037c-3.54755,0 -7.23755,0.99651 -11.0788,2.99413c-3.83997,1.99701 -8.38873,5.7475 -13.63995,11.25238l0,-14.24651l-9.25128,0c-11.54999,4.84811 -22.67249,7.59811 -33.36499,8.25188l0,18.86475l14.61749,0l0,45.01764c0,3.40088 -0.23376,5.59474 -0.69751,6.57463c-0.46625,0.97998 -1.14374,1.6665 -2.04126,2.05711c-0.89374,0.39313 -3.16376,0.59038 -6.8075,0.59038l-5.07123,0l0,19.01758l60.57751,0l0,-19.01758l-4.28754,0c-3.70123,0 -6.10748,-0.23 -7.20746,-0.687c-1.10754,-0.45651 -1.90503,-1.17439 -2.3913,-2.15425c-0.48621,-0.98048 -0.72998,-3.10112 -0.72998,-6.36475l0,-38.28275c3.94,-2.14937 6.76501,-3.22751 8.46875,-3.22751c1.12,0 2.53125,0.25725 4.23376,0.77051c3.28497,1.09712 5.43372,1.74063 6.45496,1.9335c1.0163,0.19386 2.18005,0.28662 3.49506,0.28662c4.92371,0 8.74872,-1.666 11.47247,-5.01414z"/>
  <path id="path3045" d="m664.44122,251.44763c-1.57751,-0.58977 -2.59375,-1.54053 -3.04999,-2.85402c-0.33002,-0.72012 -0.49377,-3.01413 -0.49377,-6.88126l0,-115.05798l-9.54498,0c-12.53375,4.73123 -24.67377,7.49249 -36.41498,8.27875l0,19.01801l14.61621,0l0,87.75775c0,3.73787 -0.26752,6.14699 -0.79126,7.22762c-0.52997,1.08788 -1.34998,1.87399 -2.46997,2.36475c-1.12,0.48926 -3.65375,0.73676 -7.60126,0.73676l-3.75372,0l0,19.01758l60.92749,0l0,-19.01758l-3.44879,0c-4.33374,0 -6.98749,-0.19725 -7.97498,-0.59038l0,0.00002z"/>
  <path id="path3039" d="m493.09375,251.44763c-1.16876,-0.5239 -2,-1.27338 -2.48624,-2.25725c-0.48752,-0.97664 -0.72751,-3.13725 -0.72751,-6.47464l0,-40.63324c0,-4.51126 -0.26627,-7.94876 -0.78625,-10.30226c-0.78751,-3.795 -2.51126,-7.30861 -5.16501,-10.54936c-2.6575,-3.23726 -6.11499,-5.80515 -10.3725,-7.70213c-4.26123,-1.90039 -9.01624,-2.84712 -14.25998,-2.84712c-6.03125,0 -11.96628,1.06386 -17.79877,3.19087c-5.83749,2.13086 -11.93375,5.61475 -18.29376,10.459c-1.96625,-3.14012 -4.14499,-5.62799 -6.53873,-7.46539c-2.39502,-1.82962 -5.3775,-3.32024 -8.94751,-4.46774c-3.57501,-1.14313 -7.29501,-1.71674 -11.16251,-1.71674c-6.09875,0 -12.09625,1.08 -17.99625,3.24062c-5.9025,2.16063 -11.70499,5.43463 -17.40625,9.81888l0,-13.05949l-9.27249,0c-10.19376,4.40125 -21.3075,7.15862 -33.3425,8.27586l0,19.017l14.61499,0l0,44.07138c0,3.66063 -0.26248,6.02776 -0.78751,7.10051c-0.52875,1.08061 -1.30249,1.83112 -2.32248,2.25487c-1.02252,0.42288 -3.57251,0.63675 -7.6525,0.63675l-3.85251,0l0,19.01758l57.4075,0l0,-19.01758l-2.64127,0c-2.8075,0 -4.77875,-0.29349 -5.91998,-0.88087c-1.14127,-0.58588 -1.90875,-1.33687 -2.29877,-2.25c-0.39124,-0.91061 -0.58624,-3.19087 -0.58624,-6.84175l0,-38.22563l2.27499,-1.46675c4.3475,-2.86775 7.05002,-4.56149 8.10501,-5.08499c1.97626,-0.97701 3.98874,-1.69388 6.0325,-2.15038c2.04498,-0.457 3.98999,-0.68362 5.83624,-0.68362c3.68875,0 6.26001,1.26999 7.71124,3.814c0.92252,1.69388 1.38501,5.11813 1.38501,10.26563l0,33.53175c0,3.71437 -0.26501,6.09476 -0.79251,7.13863c-0.52875,1.04013 -1.28375,1.75638 -2.27249,2.14699c-0.98999,0.38963 -3.72626,0.61964 -8.20499,0.68701l0,19.01758l53.88623,0l0,-19.01758c-4.3775,-0.0674 -6.95874,-0.26363 -7.74374,-0.59038c-1.3075,-0.52388 -2.22125,-1.27338 -2.74249,-2.25725c-0.52374,-0.97662 -0.785,-3.36775 -0.785,-7.16162l0,-38.356c5.80124,-3.85738 10.18375,-6.35788 13.14999,-7.50188c2.965,-1.1465 5.73752,-1.71687 8.30624,-1.71687c2.24002,0 4.16876,0.47662 5.7825,1.42038c1.61752,0.95024 2.70502,2.09424 3.26501,3.43411c0.56,1.34325 0.84,4.07376 0.84,8.19138l0,35.61288c0,3.20313 -0.26001,5.28075 -0.78,6.22749c-0.52625,0.95026 -1.34125,1.63725 -2.45377,2.061c-1.11374,0.42288 -3.78873,0.63675 -8.03497,0.63675l0,19.01758l57.23248,0l0,-19.01758l-4.28751,0c-3.90125,0 -6.27124,-0.19725 -7.11499,-0.59038l0,0.00002z"/>
  <path id="path3037" d="m297.68375,251.39732c-0.94,-0.42339 -1.6225,-1.10988 -2.04373,-2.0605c-0.42252,-0.94975 -0.63376,-3.2569 -0.63376,-6.92488l0,-70.32375l-45.96001,0.88037l0,19.01862l5.7675,0c2.85126,0 4.77124,0.27925 5.76624,0.83301c0.99377,0.55663 1.75626,1.45363 2.28751,2.69388c0.52875,1.24362 0.79501,3.53125 0.79501,6.86125l0,38.21637c-6.29626,3.99413 -10.17125,6.31837 -11.62625,6.97511c-3.71001,1.57362 -7.22125,2.35687 -10.53125,2.35687c-2.255,0 -4.125,-0.4731 -5.61751,-1.42285c-1.48999,-0.94775 -2.51625,-2.17426 -3.07875,-3.67825c-0.56375,-1.50725 -0.84375,-4.51414 -0.84375,-9.03175l0,-63.70262l-45.96237,0.88037l0,19.01862l5.46837,0c3.24701,0 5.36813,0.24951 6.36462,0.73625c0.99376,0.49025 1.70514,1.23001 2.13675,2.20714c0.43076,0.98335 0.647,3.33737 0.647,7.06874l0,40.43225c0,5.43213 0.65575,9.88025 1.96725,13.34662c1.312,3.46877 3.3125,6.49611 6.00438,9.0786c2.6915,2.58398 6.02011,4.64505 9.99124,6.18118c3.96725,1.53516 8.31401,2.30762 13.03775,2.30762c5.905,0 11.77751,-1.07227 17.61626,-3.21387c5.83749,-2.14014 11.645,-5.35355 17.41875,-9.64264l0,11.80035l42.96875,-1.23389l0,-19.01761l-5.16501,0c-3.57373,0 -5.83249,-0.21387 -6.77499,-0.64061z"/>
  <path id="path22" d="m152.96312,248.32362c-2.229,-1.30713 -3.75388,-3.06401 -4.57475,-5.26126c-0.81975,-2.19724 -1.22849,-7.1655 -1.22849,-14.90324l0,-34.23538l31.69637,0l0,-20.95512l-31.69638,0l0,-33.81174l-18.914,0c-0.85011,6.87874 -2.40237,12.54024 -4.65623,16.9915c-2.2525,4.45462 -5.24125,8.26561 -8.96738,11.44237c-3.72552,3.17424 -8.1982,5.61424 -13.42475,7.31488l0,19.01811l14.61674,0l0,46.77788c0,6.09514 0.63813,10.746 1.917,13.95401c1.27676,3.21001 3.57314,6.24126 6.88175,9.09135c3.30763,2.85107 7.30524,5.04346 11.99462,6.58496c4.68613,1.53613 10.07574,2.30762 16.17387,2.30762c5.37251,0 10.36913,-0.54004 14.99162,-1.61621c4.61963,-1.08154 9.78226,-2.95898 15.48538,-5.64258l0,-20.99115c-6.688,4.3945 -13.40962,6.59125 -20.16451,6.59125c-3.80275,0 -7.18163,-0.88324 -10.13087,-2.65724"/>
 </g>
</svg>