<svg width="300" height="300" xmlns="http://www.w3.org/2000/svg">
 <g>
  <title>tumblr</title>
  <path fill="#ffffff" d="m116.3413,87.7018c8.32366,-9.66621 10.79389,-22.55452 14.39193,-34.4225c9.07547,0.05371 18.15102,0.05371 27.22647,-0.05363c-0.10739,16.11039 -0.10739,32.22078 -0.05363,48.33112c15.19745,0.05376 30.34117,0.05376 45.48497,0.10747c0.05363,10.3643 0.05363,20.78235 0.05363,31.14668c-15.14377,0.05368 -30.34116,0.05368 -45.48497,0.10739c-0.21474,24.59518 -3.2843,71.08609 4.664,76.15691c11.11995,7.14169 31.58437,4.77089 47.64102,-2.9084c-0.2148,10.52544 -0.32224,21.05092 -0.42958,31.57632c-24.48782,8.75334 -52.89577,14.17714 -77.16873,1.71846c-13.10304,-5.85342 -20.78238,-19.54724 -20.99719,-33.61699c-1.28883,-24.32666 -0.05367,-48.65332 -0.4296,-72.98001c-7.14227,0 -14.33825,-0.05368 -21.48051,-0.05368c-0.05363,-9.02184 0,-18.04362 0,-27.06538c9.29032,-5.26273 19.54727,-9.66628 26.58211,-18.04366l0.00008,-0.00008z"/>
 </g>
</svg>