<svg width="300" height="300" xmlns="http://www.w3.org/2000/svg">
 <g>
  <title>twitter</title>
  <path fill="#ffffff" id="bird" d="m189.98801,65.526c-23.55244,0 -42.66602,19.11356 -42.66602,42.666c0,3.35134 0.37328,6.59492 1.11801,9.698c-35.46831,-1.76877 -66.91907,-18.7723 -87.958,-44.59c-12.63784,20.72636 -3.38206,45.4138 13.234,56.94c-6.98194,-0.21721 -13.57225,-2.13383 -19.34399,-5.33c2.25781,27.66028 17.20596,39.88144 34.242,42.354c-6.64896,1.64757 -13.00493,1.8994 -19.266,0.728c5.43041,16.94286 21.18245,29.27266 39.832,29.614c-19.58373,14.25462 -40.5742,20.17638 -63.18,17.70601c18.86678,12.10204 41.30501,19.16199 65.416,19.16199c78.47711,0 121.394,-65.01089 121.394,-121.394c0,-1.86185 -0.03694,-3.68118 -0.12999,-5.512c8.3063,-5.99043 15.51949,-13.45786 21.216,-21.97c-7.63446,3.35683 -15.82713,5.6107 -24.414,6.63c8.81277,-5.27525 15.58083,-13.64709 18.74599,-23.608c-8.25421,4.90289 -17.37933,8.45008 -27.092,10.374c-7.78876,-8.28525 -18.85976,-13.468 -31.14799,-13.468zm63.908,20.072c0.03526,-0.01553 0.06873,-0.03642 0.10399,-0.052l-0.02594,-0.078c-0.02806,0.04207 -0.04993,0.08799 -0.07797,0.13l-0.00008,0z"/>
 </g>
</svg>