<svg width="300" height="300" xmlns="http://www.w3.org/2000/svg">
 <g>
  <path d="m231.24754,110.63828c-0.75673,16.49561 -12.26898,39.07169 -34.53706,67.72823c-23.0192,29.92123 -42.49829,44.89273 -58.43176,44.89273c-9.86385,0 -18.21977,-9.11807 -25.04074,-27.34322c-4.55624,-16.71178 -9.11251,-33.42897 -13.66882,-50.12994c-5.06976,-18.22522 -10.50169,-27.34864 -16.31725,-27.34864c-1.26479,0 -5.69672,2.67002 -13.28515,7.98302l-7.96676,-10.27464c8.35593,-7.33981 16.5983,-14.68497 24.71101,-22.04102c11.14478,-9.63678 19.50607,-14.70119 25.08932,-15.20924c13.17706,-1.26471 21.28429,7.74514 24.33263,27.02962c3.28613,20.81418 5.56699,33.75873 6.84259,38.8177c3.80496,17.26852 7.97752,25.89464 12.54462,25.89464c3.55099,0 8.86932,-5.60484 15.96591,-16.79829c7.09116,-11.19882 10.89079,-19.72232 11.3988,-25.57574c1.01614,-9.66928 -2.78888,-14.51746 -11.3988,-14.51746c-4.05362,0 -8.22618,0.93507 -12.52838,2.77814c8.32341,-27.26212 24.21907,-40.50945 47.68697,-39.75275c17.40364,0.51346 25.60281,11.80421 24.60287,33.86684z" fill="#ffffff"/>
  <title>Layer 1</title>
 </g>
</svg>