<?xml version="1.0" standalone="no"?>
<!DOCTYPE svg PUBLIC "-//W3C//DTD SVG 20010904//EN"
 "http://www.w3.org/TR/2001/REC-SVG-20010904/DTD/svg10.dtd">
<svg version="1.0" xmlns="http://www.w3.org/2000/svg"
 width="300.000000pt" height="300.000000pt" viewBox="0 0 300.000000 300.000000"
 preserveAspectRatio="xMidYMid meet">
<metadata>
Created by potrace 1.11, written by Peter Selinger 2001-2013
</metadata>
<g transform="translate(0.000000,300.000000) scale(0.100000,-0.100000)"
fill="#ffffff" stroke="none">
<path d="M2065 2175 c-76 -21 -136 -50 -202 -99 -72 -53 -120 -110 -162 -193
-26 -52 -55 -143 -46 -143 2 0 22 9 46 20 88 40 175 15 206 -58 37 -88 -3
-208 -135 -407 -93 -141 -153 -193 -188 -164 -46 38 -117 276 -170 569 -59
323 -96 413 -188 459 -45 22 -53 24 -102 13 -143 -30 -281 -129 -522 -374
l-63 -64 37 -50 c21 -27 39 -51 40 -53 2 -2 16 6 33 18 43 31 112 61 142 61
50 0 67 -38 188 -430 168 -541 186 -588 259 -670 59 -68 133 -105 207 -104 42
0 73 6 102 22 104 54 380 308 526 482 243 292 398 628 400 870 0 78 -4 104
-23 148 -58 133 -216 193 -385 147z"/>
</g>
</svg>
