<?xml version="1.0" encoding="UTF-8" standalone="no"?>
<!-- Created with Inkscape (http://www.inkscape.org/) -->

<svg
   xmlns:dc="http://purl.org/dc/elements/1.1/"
   xmlns:cc="http://creativecommons.org/ns#"
   xmlns:rdf="http://www.w3.org/1999/02/22-rdf-syntax-ns#"
   xmlns:svg="http://www.w3.org/2000/svg"
   xmlns="http://www.w3.org/2000/svg"
   xmlns:sodipodi="http://sodipodi.sourceforge.net/DTD/sodipodi-0.dtd"
   xmlns:inkscape="http://www.inkscape.org/namespaces/inkscape"
   version="1.1"
   width="500"
   height="500"
   id="svg2"
   xml:space="preserve"
   inkscape:version="0.48.2 r9819"
   sodipodi:docname="VK_logo.svg"><sodipodi:namedview
     pagecolor="#ffffff"
     bordercolor="#666666"
     borderopacity="1"
     objecttolerance="10"
     gridtolerance="10"
     guidetolerance="10"
     inkscape:pageopacity="0"
     inkscape:pageshadow="2"
     inkscape:window-width="1304"
     inkscape:window-height="745"
     id="namedview13"
     showgrid="false"
     inkscape:zoom="1.4142136"
     inkscape:cx="259.06452"
     inkscape:cy="229.18251"
     inkscape:window-x="54"
     inkscape:window-y="-8"
     inkscape:window-maximized="1"
     inkscape:current-layer="svg2" /><metadata
     id="metadata8"><rdf:RDF><cc:Work
         rdf:about=""><dc:format>image/svg+xml</dc:format><dc:type
           rdf:resource="http://purl.org/dc/dcmitype/StillImage" /></cc:Work></rdf:RDF></metadata><defs
     id="defs6"><clipPath
       id="clipPath18"><path
         d="M 0,4149.59 0,0 l 4149.59,0 0,4149.59 -4149.59,0 z"
         inkscape:connector-curvature="0"
         id="path20" /></clipPath></defs><g
     transform="matrix(1.25,0,0,-1.2499923,-9.8648996,505.62864)"
     id="g10"
     style="fill:#ffffff"><g
       transform="scale(0.1,0.1)"
       id="g12"
       style="fill:#ffffff"><g
         id="g14"
         style="fill:#ffffff"><g
           clip-path="url(#clipPath18)"
           id="g16"
           style="fill:#ffffff"><path
             d="m 2209.7195,1229.0467 c 54.9144,0 98.8622,60.003 100.7905,124.1133 0,0 -6.59,231 102.37,261.3 108.96,30.3 306.325,-255.975 379.86,-317.48 73.535,-61.505 149.4486,-67.9333 188.7485,-67.9333 39.2999,0 264.302,0 379.25,0 114.948,0 203.1965,46.5633 104.3115,183.9233 -98.885,137.36 -146.404,205.6965 -281.99,326.26 -237.5544,211.2342 -205.9421,185.0116 80.51,566.8 122.7055,163.5441 186.0094,294.2474 202.7794,328.4817 61.7632,126.084 -75.4708,165.4882 -129.4694,165.4882 -94.3146,0 -427,0 -427,0 -43.3877,0 -73.9914,-32.0494 -92.82,-74.2899 -16.1345,-36.1965 -67.5984,-179.9168 -157.71,-332.94 -190.1284,-322.8668 -266.1817,-339.9526 -297.26,-319.87 -72.3117,46.7274 -54.24,187.69 -54.24,287.86 0,312.9 46.5754,439.8863 -92.42,477.13 -38.6465,10.3553 -70.5222,23.1567 -206.271,23.1567 -196.3779,0 -278.4688,-1.9863 -354.319,-39.1668 -48.5709,-23.8086 -79.1,-77.1999 -56.26,-80.2499 28.23,-3.76 92.1285,-17.2511 126.01,-63.35 43.7685,-59.5511 42.24,-193.23 42.24,-193.23 0,0 25.15,-368.33 -58.72,-414.07 -57.55,-31.38 -136.51,32.68 -306.03,325.6 -86.84,150.04 -152.43,315.91 -152.43,315.91 -22.2736,42.7176 -46.4337,87.5099 -100.78,87.5099 l -405.78,0 c -48.22375,0 -116.97294,-37.5124 -84.867,-116.5899 0,0 317.66,-743.22 677.377,-1117.76 329.87,-343.44 657.5381,-336.6033 704.383,-336.6033 56.5789,0 116.4419,0 169.7365,0 z"
             inkscape:connector-curvature="0"
             id="path24"
             style="fill:#ffffff;fill-opacity:1;fill-rule:evenodd;stroke:none"
             sodipodi:nodetypes="sczzzzzsssccssssssscsccccccccss" /></g></g></g></g></svg>