<?xml version="1.0" standalone="no"?>
<!DOCTYPE svg PUBLIC "-//W3C//DTD SVG 20010904//EN"
 "http://www.w3.org/TR/2001/REC-SVG-20010904/DTD/svg10.dtd">
<svg version="1.0" xmlns="http://www.w3.org/2000/svg"
 width="300.000000pt" height="300.000000pt" viewBox="0 0 300.000000 300.000000"
 preserveAspectRatio="xMidYMid meet">
<metadata>
Created by potrace 1.11, written by Peter Selinger 2001-2013
</metadata>
<g transform="translate(0.000000,300.000000) scale(0.100000,-0.100000)"
fill="#fff" stroke="none">
<path d="M1390 2552 l-35 -17 2 -105 c1 -58 7 -163 13 -233 14 -141 23 -157
85 -157 53 0 66 18 75 102 17 151 31 359 25 377 -7 23 -63 51 -102 51 -15 0
-44 -8 -63 -18z"/>
<path d="M818 2224 c-31 -16 -68 -81 -68 -117 0 -14 8 -34 18 -45 21 -25 377
-192 408 -192 30 0 64 45 64 85 0 30 -9 39 -145 134 -246 173 -227 163 -277
135z"/>
<path d="M1851 2117 c-96 -67 -179 -130 -184 -138 -21 -34 23 -109 64 -109 26
0 400 175 411 192 4 7 8 33 8 57 0 37 -5 49 -39 82 -24 24 -48 39 -62 39 -14
0 -97 -52 -198 -123z"/>
<path d="M968 1608 c-168 -78 -199 -96 -209 -120 -25 -62 36 -158 101 -158 19
0 76 34 186 111 88 61 167 118 177 127 28 25 22 76 -14 106 -17 14 -34 26 -37
25 -4 0 -96 -41 -204 -91z"/>
<path d="M1707 1689 c-25 -14 -50 -67 -43 -93 8 -32 345 -266 383 -266 58 0
103 57 103 129 0 31 -5 44 -22 55 -27 17 -387 186 -397 186 -3 0 -14 -5 -24
-11z"/>
<path d="M1413 1518 c-13 -6 -25 -18 -27 -27 -10 -30 -26 -236 -29 -345 -2
-107 -2 -109 25 -129 37 -28 109 -28 146 0 33 25 34 52 12 302 -10 118 -18
168 -29 182 -20 23 -69 32 -98 17z"/>
<path d="M490 801 c0 -24 82 -337 92 -348 6 -7 26 -13 44 -13 28 0 35 4 41 28
3 15 18 74 33 131 l26 105 23 -110 c28 -133 40 -154 85 -154 31 0 34 3 45 42
6 24 27 103 46 176 19 73 35 137 35 143 0 5 -17 9 -38 9 l-39 0 -23 -117 c-12
-65 -26 -124 -29 -131 -4 -7 -15 29 -25 80 -9 51 -22 110 -27 131 -10 37 -11
38 -52 35 l-41 -3 -28 -120 c-15 -66 -28 -127 -30 -135 -2 -8 -14 39 -27 105
-31 165 -26 155 -72 155 -21 0 -39 -4 -39 -9z"/>
<path d="M1240 625 l0 -185 35 0 35 0 0 185 0 185 -35 0 -35 0 0 -185z"/>
<path d="M2291 668 c0 -83 5 -158 12 -178 14 -42 54 -64 97 -55 25 5 30 12 30
36 0 24 -4 29 -24 29 -30 0 -36 16 -36 91 0 59 0 59 30 59 28 0 30 3 30 35 0
32 -2 35 -30 35 -29 0 -30 2 -30 45 l0 45 -40 0 -40 0 1 -142z"/>
<path d="M1013 718 c-42 -9 -49 -19 -37 -52 4 -11 11 -13 31 -5 37 14 79 11
94 -7 10 -13 10 -17 -2 -25 -8 -5 -24 -9 -36 -9 -95 -1 -151 -101 -88 -160 43
-40 125 -30 125 14 0 23 -3 25 -29 20 -23 -5 -32 -2 -41 16 -15 29 11 60 52
60 26 0 28 -2 28 -43 0 -52 22 -87 56 -87 24 0 24 0 24 103 0 123 -16 159 -77
176 -43 12 -43 12 -100 -1z"/>
<path d="M1495 723 c-11 -3 -28 -12 -37 -21 -16 -14 -18 -14 -18 2 0 14 -8 17
-37 14 l-38 -3 0 -135 0 -135 38 -3 37 -3 0 88 c0 99 15 137 53 131 33 -5 47
-45 47 -135 l0 -83 35 0 35 0 0 94 c0 100 10 126 49 126 35 0 46 -29 48 -124
l2 -91 36 -3 35 -3 0 110 c0 108 -1 112 -29 143 -35 40 -85 43 -131 10 -16
-13 -30 -18 -30 -12 0 9 -63 43 -72 39 -2 -1 -12 -4 -23 -6z"/>
<path d="M1887 720 c-47 -9 -58 -19 -50 -48 4 -17 10 -21 22 -16 35 16 87 16
100 0 19 -23 7 -33 -46 -39 -88 -10 -131 -93 -79 -154 42 -49 136 -33 136 24
0 21 -2 22 -20 13 -30 -16 -60 -3 -60 25 0 27 26 45 63 45 22 0 25 -5 30 -55
7 -67 11 -75 45 -75 l27 0 -5 114 c-6 128 -15 148 -79 166 -20 5 -38 9 -41 9
-3 -1 -22 -5 -43 -9z"/>
<path d="M2221 719 c-13 -5 -30 -17 -37 -27 -12 -16 -13 -15 -14 6 0 18 -5 22
-35 22 l-35 0 0 -140 0 -140 40 0 40 0 0 83 c0 93 15 127 56 127 21 0 24 4 24
40 0 43 -2 44 -39 29z"/>
</g>
</svg>
