<svg width="200" height="200" xmlns="http://www.w3.org/2000/svg">
  <title>Layer 1</title>
  <g id="svg_6">
   <path d="m33.14927,124.43566c0,17.9332 23.34953,32.4775 52.15648,32.4775c28.80695,0 52.15647,-14.5443 52.15647,-32.4775c0,-17.93612 -23.34953,-32.4775 -52.15647,-32.4775c-28.80694,0 -52.15648,14.54138 -52.15648,32.4775" fill="#ffffff" id="svg_1"/>
   <path d="m86.52163,154.26663c-25.49434,2.51451 -47.50299,-9.00769 -49.16077,-25.74669c-1.65483,-16.73608 17.67793,-32.34549 43.16935,-34.86588c25.49729,-2.52332 47.50595,9.00182 49.16078,25.73495c1.65189,16.7449 -17.67206,32.35722 -43.16936,34.87762m50.99459,-55.56591c-2.1683,-0.64843 -3.6559,-1.09149 -2.52039,-3.9405c2.45877,-6.188 2.71404,-11.52512 0.04689,-15.33358c-4.99969,-7.14158 -18.67844,-6.75723 -34.35824,-0.19086c0,-0.01024 -4.92343,2.15363 -3.6647,-1.75164c2.41184,-7.75482 2.048,-14.24799 -1.7047,-17.99776c-8.50594,-8.51181 -31.12783,0.32275 -50.52806,19.7142c-14.52671,14.52964 -22.96223,29.92776 -22.96223,43.24269c0,25.46796 32.65941,40.95118 64.61171,40.95118c41.88422,0 69.74639,-24.33539 69.74639,-43.65641c0,-11.67182 -9.83215,-18.29701 -18.6667,-21.03746" fill="#e6162d" id="svg_2"/>
   <path d="m165.32968,52.09465c-10.11383,-11.2141 -25.03372,-15.48909 -38.80634,-12.56086l-0.0041,0c-3.18349,0.68071 -5.21681,3.81726 -4.53317,6.99783c0.67777,3.18056 3.81139,5.21681 6.99783,4.5361c9.79695,-2.08028 20.39784,0.96531 27.59222,8.92845c7.18268,7.96606 9.13385,18.83102 6.05598,28.35509l0.00204,0.00206c-1.00348,3.10428 0.69246,6.42274 3.79967,7.42618c3.09543,1.00053 6.41982,-0.69537 7.42326,-3.7879c0,-0.0041 0,-0.01638 0.00204,-0.02355c4.31607,-13.40001 1.59029,-28.67197 -8.5294,-39.87434" fill="#ff9933" id="svg_3"/>
   <path d="m149.79657,66.11172c-4.9234,-5.46035 -12.19116,-7.53476 -18.90143,-6.10879c-2.74339,0.58389 -4.4921,3.28326 -3.90236,6.02957c0.58681,2.73164 3.28326,4.48917 6.01784,3.89355l0,0.00409c3.28033,-0.6954 6.83646,0.31688 9.24533,2.98102c2.40891,2.67298 3.05734,6.31125 2.02159,9.50354l0.0041,0c-0.85968,2.66417 0.59854,5.52785 3.26566,6.3934c2.67001,0.85382 5.53078,-0.60148 6.39047,-3.27151c2.10957,-6.52837 0.79218,-13.96631 -4.14296,-19.42664" fill="#ff9933" id="svg_4"/>
   <path d="m87.92854,123.95123c-0.89197,1.52574 -2.86369,2.25926 -4.40702,1.62257c-1.51987,-0.62495 -1.99519,-2.32967 -1.13258,-3.829c0.88903,-1.49051 2.78448,-2.21816 4.29846,-1.61668c1.54039,0.56335 2.09201,2.2886 1.24113,3.82311m-8.12453,10.4278c-2.46463,3.93462 -7.74601,5.65692 -11.72463,3.84073c-3.91994,-1.78395 -5.07599,-6.35527 -2.60841,-10.19014c2.43531,-3.82018 7.53769,-5.52196 11.487,-3.86713c3.99329,1.70178 5.26962,6.24084 2.84605,10.21655m9.26589,-27.84459c-12.13248,-3.15707 -25.84646,2.89009 -31.11609,13.57901c-5.36647,10.90308 -0.17611,23.00624 12.07967,26.96434c12.69876,4.09305 27.66265,-2.18004 32.86773,-13.9487c5.13175,-11.50459 -1.27633,-23.34953 -13.83131,-26.59465" fill="#000000" id="svg_5"/>
  </g>
</svg>