<?xml version="1.0" standalone="no"?>
<!DOCTYPE svg PUBLIC "-//W3C//DTD SVG 20010904//EN"
 "http://www.w3.org/TR/2001/REC-SVG-20010904/DTD/svg10.dtd">
<svg version="1.0" xmlns="http://www.w3.org/2000/svg"
 width="256.000000pt" height="256.000000pt" viewBox="0 0 256.000000 256.000000"
 preserveAspectRatio="xMidYMid meet">
<metadata>
Created by potrace 1.11, written by Peter Selinger 2001-2013
</metadata>
<g transform="translate(0.000000,256.000000) scale(0.100000,-0.100000)"
fill="#ffffff" stroke="none">
<path d="M470 1765 c0 -20 6 -25 38 -30 20 -4 44 -9 54 -11 9 -3 34 -46 58
-102 24 -53 106 -232 182 -397 77 -165 151 -327 165 -360 41 -98 70 -117 110
-72 12 12 63 106 114 209 l94 187 85 -186 c91 -199 111 -233 139 -233 38 0 36
-5 278 550 159 365 185 410 236 410 46 0 67 12 67 36 l0 24 -175 0 -175 0 0
-25 c0 -18 6 -26 25 -30 14 -3 36 -7 50 -10 19 -4 25 -12 25 -31 0 -20 -262
-663 -288 -708 -3 -5 -47 74 -98 177 l-94 186 89 164 c110 203 119 217 141
217 34 0 50 12 50 36 l0 24 -145 0 -145 0 0 -25 c0 -21 6 -26 41 -31 22 -4 43
-14 46 -22 4 -8 -22 -72 -57 -142 l-63 -127 -63 129 c-35 71 -64 136 -64 144
0 7 9 14 19 14 35 0 51 12 51 36 l0 24 -155 0 -155 0 0 -25 c0 -20 6 -25 36
-31 35 -6 37 -10 145 -225 l109 -219 -79 -158 -79 -157 -40 85 c-22 47 -80
173 -129 280 -172 373 -176 383 -133 388 60 7 70 12 70 37 l0 25 -190 0 -190
0 0 -25z"/>
</g>
</svg>
