<svg width="300" height="300" xmlns="http://www.w3.org/2000/svg">
 <title>Layer 1</title>
 <path fill="#ffffff" id="path3932" d="m49,78l101,67l101,-67l-202,0zm0,10l0,128l202,0l0,-128l-101,67l-101,-67zm130.53125,69l15.46875,1.5625l-9.28125,34.96875l-6.1875,-0.8125l0,-35.71875zm-75.53125,4l33.25,0l-0.375,2.90625c-1.46024,0.37756 -8.48628,0.52911 -10.3125,1.03125c4.74762,7.28961 12.28387,16.69861 14.71875,20.34375l13.46875,-13.28125l-8.84375,-1.28125l-0.5625,-2.96875l28.65625,0l-2.0625,2.96875l-7.96875,1.6875l-19.625,17.03125l0.25,13.71875l10.5,0.28125l-0.15625,3.5625l-32.4375,0l0.5,-3.21875l9.59375,-1.3125l0.25,-12.875c-0.60823,-1.88562 -15.32049,-20.82825 -19.09375,-23.84375c-1.09639,-0.37665 -7.98363,-1.12207 -9.6875,-1.5l-0.0625,-3.25zm74,38.09375l7.71875,0.78125l-1.53125,7.125l-6.1875,-0.78125l0,-7.125zm15.5,1.90625c1.8965,0 3.5,1.51007 3.5,3.5c0,1.99036 -1.6035,3.5 -3.5,3.5c-1.90466,0 -3.5,-1.50964 -3.5,-3.5c0,-1.98993 1.59534,-3.5 3.5,-3.5zm0,0.5625c-1.58502,0 -2.90625,1.28149 -2.90625,2.9375c0,1.65631 1.32123,2.90625 2.90625,2.90625c1.57822,0 2.9375,-1.24994 2.9375,-2.90625c0,-1.65601 -1.35928,-2.9375 -2.9375,-2.9375zm-1.34375,0.90625l1.53125,0c0.96638,0 1.4375,0.3761 1.4375,1.15625c0,0.74139 -0.42139,1.02942 -1.03125,1.09375l1.15625,1.8125l-0.71875,0l-1.0625,-1.75l-0.6875,0l0,1.75l-0.625,0l0,-4.0625zm0.625,0.5l0,1.28125l0.6875,0c0.55302,0 1.03125,-0.03241 1.03125,-0.6875c0,-0.56366 -0.50803,-0.59375 -0.90625,-0.59375l-0.8125,0z"/>
</svg>