<?xml version="1.0" standalone="no"?>
<!DOCTYPE svg PUBLIC "-//W3C//DTD SVG 20010904//EN"
 "http://www.w3.org/TR/2001/REC-SVG-20010904/DTD/svg10.dtd">
<svg version="1.0" xmlns="http://www.w3.org/2000/svg"
 width="300.000000pt" height="300.000000pt" viewBox="0 0 300.000000 300.000000"
 preserveAspectRatio="xMidYMid meet">
<metadata>
Created by potrace 1.11, written by Peter Selinger 2001-2013
</metadata>
<g transform="translate(0.000000,300.000000) scale(0.100000,-0.100000)"
fill="#ffffff" stroke="none">
<path d="M500 1985 l0 -65 134 0 133 0 79 -82 c85 -89 299 -348 381 -463 50
-69 50 -71 57 -166 4 -53 4 -131 0 -173 -8 -95 -11 -97 -158 -107 -60 -5 -110
-10 -111 -11 -2 -2 -6 -20 -10 -41 l-7 -37 438 5 439 6 3 38 c3 36 1 39 -29
45 -17 3 -80 6 -139 6 l-107 0 -7 38 c-3 20 -6 104 -6 186 l0 149 83 81 c148
145 401 338 465 356 20 5 69 10 108 10 l71 0 42 60 42 60 -396 0 c-373 0 -396
-1 -391 -17 3 -10 10 -37 16 -60 l11 -42 106 -3 106 -3 -179 -162 -179 -161
-18 21 c-9 12 -92 121 -184 242 l-166 220 134 5 134 5 0 60 0 60 -447 3 -448
2 0 -65z"/>
<path d="M2250 1357 c0 -152 4 -278 9 -281 4 -3 33 -8 62 -12 l54 -6 68 266
c38 146 66 269 63 274 -3 5 -45 12 -93 16 -48 3 -104 9 -125 12 l-38 7 0 -276z"/>
<path d="M2230 917 l0 -65 61 -7 c33 -4 62 -5 65 -3 5 6 26 119 22 123 -2 1
-36 6 -75 9 l-73 7 0 -64z"/>
</g>
</svg>
