<svg width="232" height="112" xmlns="http://www.w3.org/2000/svg">
  <title>Layer 1</title>
  <g fill="#ffffff" id="layer1">
   <path id="path3932" d="m-49.63604,-13.56488l125.00016,82.66431l124.99983,-82.66431l0,12.33716l-124.99983,82.66284l-125.00016,-82.66284l0,-12.33716z"/>
   <g transform="matrix(0.125 0 0 0.125 67.0233 999.375)" id="g3989"/>
   <g transform="matrix(1.13476 0 0 1.13476 -25.5746 -137.889)" id="text3998">
    <path d="m213.22475,210.51855l6.32927,0l0,-1.7616l-4.39148,0l0,-7.04651l-1.93779,0l0,8.80811zm-4.13908,0l1.93779,0l0,-8.80811l-1.93779,0l0,8.80811zm-10.77196,0l1.97552,0l0.80531,-1.97546l3.72456,0l0.80531,1.97546l2.02586,0l-3.77489,-8.87097l-1.7868,0l-3.77489,8.87097zm3.4729,-3.68677l1.17023,-2.85632l1.17021,2.85632l-2.34044,0zm-13.62991,3.68677l1.90005,0l0,-5.71265l2.45369,3.72461l0.05029,0l2.47885,-3.76245l0,5.75049l1.9252,0l0,-8.80811l-2.08878,0l-2.31528,3.72449l-2.31528,-3.72449l-2.08878,0l0.00002,8.80811zm-5.10199,-0.33215l0.17346,0c0.15045,0 0.29616,-0.00989 0.29616,-0.18579c0,-0.15344 -0.13313,-0.17139 -0.24762,-0.17139l-0.222,0l0,0.35718m-0.16841,-0.49524l0.41837,0c0.26288,0 0.388,0.10449 0.388,0.31677c0,0.20166 -0.12753,0.28613 -0.29346,0.30371l0.31937,0.49036l-0.18138,0l-0.30109,-0.47754l-0.1814,0l0,0.47754l-0.16841,0l0,-1.11084l0,0zm0.36209,1.3689c0.4342,0 0.78142,-0.35254 0.78142,-0.81226c0,-0.45959 -0.34721,-0.81201 -0.78142,-0.81201c-0.43645,0 -0.78133,0.35242 -0.78133,0.81201c0,0.45972 0.34488,0.81226 0.78133,0.81226zm0,-1.76233c0.51591,0 0.95013,0.40881 0.95013,0.95007c0,0.5415 -0.43422,0.9502 -0.95013,0.9502c-0.51816,0 -0.94957,-0.40869 -0.94957,-0.9502c0,-0.54126 0.43141,-0.95007 0.94957,-0.95007zm-7.50493,-4.37476c0.17828,-2.84351 -2.56134,-3.87939 -5.51491,-3.67688c-1.54575,0.10583 -4.43387,1.02002 -4.43387,3.67688c0,2.62524 2.41698,3.94885 5.63733,3.66833c2.49083,-0.21692 3.5278,-1.15405 4.09546,-2.42456c0,0 0.16232,-0.37891 0.21599,-1.24377m2.23444,-0.42004c0.22112,2.9613 -3.19647,5.42102 -7.47922,5.42102c-1.78145,0 -3.29807,-0.21594 -5.05545,-1.37817c-1.44528,-0.95618 -2.13573,-1.78467 -2.31602,-3.41589c-0.31966,-2.88928 3.16493,-5.31738 8.0101,-5.28613c1.84439,0 3.62151,0.28064 5.05913,1.40173c1.28159,0.99951 1.5058,1.94812 1.73978,3.04297l0.0417,0.21448l-0.00002,0zm2.04626,6.61157l-0.89841,-0.0769l-0.00999,-1.94592l1.13742,0.14172l1.01938,0.0481l-0.28291,1.90552l-0.9659,-0.07104m1.15724,-3.43738l-1.67656,-0.16272c0.17589,-0.84766 0.02281,-7.35583 0.009,-8.05017l-0.0864,-1.36719c0.4671,0.09204 0.39632,0.04407 2.36719,0.2511c1.1993,0.12585 1.35583,0.17969 1.7505,0.19519l-0.51514,1.62122c-0.43953,1.29663 -1.71359,7.07947 -1.84885,7.51257l0.00024,0zm-21.00984,-1.67297c0.09381,-2.61707 -1.95453,-3.31372 -4.54205,-3.13611c-1.35391,0.0929 -4.10909,0.80872 -4.10909,3.13611c0,2.2998 2.11348,3.54541 4.93353,3.29944c2.1826,-0.18994 3.32805,-0.99365 3.60922,-2.11023l0.10838,-1.18921m2.08167,-0.21643c0.12289,3.16248 -2.76476,4.73108 -6.51543,4.73108c-1.56091,0 -3.46082,-0.29736 -5.08282,-1.27063c-1.26544,-0.7594 -1.47496,-1.74426 -1.47496,-2.97632c0,-2.54651 2.77231,-4.65771 7.01646,-4.63013c1.61525,0 3.17239,0.24622 4.43097,1.22791c1.12311,0.87585 1.31281,1.31079 1.51749,2.26917l0.10829,0.64893zm-13.35562,4.32593c-0.33658,-0.026 -1.95607,-0.02307 -2.78419,0c-0.66414,0.01892 -2.24188,-0.06006 -2.99294,-0.02808l-0.0574,-0.92017c0.25874,-0.026 1.87447,-0.13586 2.18494,-0.18811c0.10345,-0.49158 0.05389,-1.18945 0.05389,-1.78406l-0.03989,-1.0835c-0.82843,0 -6.30476,0.28491 -6.53787,0.3103l-0.40009,0.052c0,1.4762 0.0777,1.9425 0.18129,2.48621c0.44041,0.0769 2.02007,0.18079 2.35635,0.23303l-0.0204,1.00281c-0.38869,-0.026 -2.81775,0 -3.56882,0c-0.90594,0 -3.10953,-0.02002 -3.62749,0.01001l0.07021,-1.0354c0.41431,-0.026 1.98053,-0.1803 2.3172,-0.23181c0.0519,-0.67395 0.0777,-1.73486 0.0777,-2.84863l0,-1.37231c0,-0.46606 -0.0258,-1.8125 -0.052,-2.27893c-0.33667,-0.05103 -1.90289,-0.15601 -2.36891,-0.18176l-0.0827,-0.78406c0.31065,0.026 2.47276,-0.03296 3.61183,-0.03296c1.06172,0 3.46902,0.021 3.75386,-0.01001l-0.0844,0.82214c-0.49194,0.026 -2.12334,0.15527 -2.4081,0.20703c-0.07799,0.38879 -0.15565,0.72546 -0.15565,1.96814l-0.03819,0.64783c0.46602,0 6.24266,-0.02295 6.96213,-0.12512l0,-0.89246c0,-1.13904 0.17683,-2.37085 0.0475,-2.70789c-0.28502,-0.07703 -1.82834,-0.29456 -2.32068,-0.32068l0.069,-0.82678c0.31085,0.026 1.7657,0.01709 2.85295,0.04309c1.13934,0 2.79462,0.047 3.1311,-0.01001l-0.07651,0.68079c-0.33647,0.026 -1.83772,0.40564 -1.83772,0.40564c0,0 -0.10249,0.70959 -0.0271,1.7301c0.06219,0.84729 0.0811,2.5144 0.0811,2.5144c0.043,1.85596 0.15741,3.35571 0.054,3.43372c-0.12454,0.09302 1.18875,0.17297 1.55093,0.22498l0.14175,0.24609l-0.01691,0.63721m-20.67772,-5.25146l-0.0242,-0.15381c-0.43924,1.02527 -1.18518,2.63599 -1.33147,3.02625l2.40345,0c-0.29297,-0.75647 -0.82813,-2.23694 -1.04781,-2.87134m6.38278,7.76294c-0.17046,-0.02405 -2.11067,-0.02405 -2.81813,-0.02405c-0.41518,0 -2.52826,-0.01294 -2.89461,-0.01294l0.10983,-0.90674c0.48846,-0.02405 1.39636,-0.22205 1.81152,-0.27075c-0.2684,-0.60974 -1.15416,-2.54663 -1.34937,-2.9126c-0.51253,0 -2.35576,0.05701 -2.8683,0.15527c-0.0975,0.17102 -0.79718,0.85718 -0.91882,1.78442c0.34179,0.073 0.99714,0.21399 1.38746,0.2627l-0.14436,0.92651c-0.41467,-0.02393 -2.06927,0.02405 -2.45969,0c-0.36646,0 -2.06664,0 -2.38401,0.05298l0.30224,-0.97937c0.39023,-0.04797 1.29,-0.32837 1.63121,-0.40112c0.51273,-0.73193 2.88619,-5.37146 3.08159,-5.81079c-0.31762,-0.0741 -0.85654,-0.32861 -1.19862,-0.37732l-0.04691,-0.67041c0.41499,0.02502 2.47731,0.08594 2.6964,0.07593c0.49069,-0.02393 2.31207,-0.01501 2.72714,-0.03894l-0.15382,0.65833c-0.36595,0.02405 -0.96135,0.20251 -1.30324,0.27563c0.17085,0.51245 0.85045,2.16455 1.36299,3.38464c0.39052,0.87878 1.03862,2.60071 1.64862,3.60132c0.41467,0.07312 1.36647,0.35254 1.80571,0.37683l0.0246,0.24438l-0.0495,0.60608l0.00006,0zm-8.00102,-10.6897c-0.38751,0.03894 -2.00074,0.39966 -2.54296,0.51587c-0.58059,0.15454 -5.88512,4.25256 -6.23359,5.25891c-0.0772,0.34827 -0.11597,0.88416 -0.11597,1.3877l-0.03889,0.81335c0,0.58032 0.16122,1.51624 0.23843,2.01929c0.34875,0.07703 2.87271,0.01001 3.3372,0.08704l-0.05721,1.04089c-0.45385,-0.03296 -3.65887,-0.02502 -5.48993,-0.02502c-0.92949,0 -3.91745,0.10254 -4.83549,0.07507l0.17355,-0.98987c0.5034,-0.03894 2.58768,0.09009 3.04588,-0.3938c0.2276,-0.23987 0.15509,-0.49707 0.15509,-1.89075l0,-0.65796c0,-0.30981 0,-0.89099 -0.0777,-1.43311c-0.19347,-0.58093 -4.86562,-6.41467 -6.06584,-7.34363c-0.34874,-0.11597 -2.53261,-0.33447 -3.07459,-0.45081l-0.027,-0.89172c0.27039,-0.13562 2.69882,0.03296 5.05546,-0.05396c1.54882,-0.05701 5.08273,0 5.51873,0.052l-0.11172,0.78577c-0.46448,0.11646 -2.70214,0.15942 -3.28305,0.31409c1.51015,2.24561 3.89779,5.13684 4.6723,6.25977c0.42614,-0.61951 4.16918,-3.1947 4.28521,-4.08508c-0.581,-0.1167 -2.50405,-0.39331 -2.81393,-0.39331l-0.18394,-1.01392c0.52718,-0.08301 3.29919,0 4.67732,0c1.18933,0 3.73075,0 4.4529,0.05908l-0.66037,0.95471" id="path4009"/>
   </g>
  </g>
</svg>